<?xml version="1.0" standalone="no"?>
<!DOCTYPE svg PUBLIC "-//W3C//DTD SVG 1.1//EN" "http://www.w3.org/Graphics/SVG/1.1/DTD/svg11.dtd" >
<svg xmlns="http://www.w3.org/2000/svg" xmlns:xlink="http://www.w3.org/1999/xlink" version="1.1">
<metadata>
Created by FontForge 20170731 at Thu Dec  9 20:02:53 2010
 By Aleksey,,,
Copyright 2004 - 2010 Monotype Imaging, Inc. All rights reserved.
</metadata>
<defs>
<font id="NeoSansArabic-Ultra" horiz-adv-x="670" >
  <font-face 
    font-family="Neo Sans Arabic Ultra"
    font-weight="900"
    font-stretch="normal"
    units-per-em="1000"
    panose-1="2 11 10 4 3 5 4 4 2 4"
    ascent="765"
    descent="-235"
    x-height="590"
    cap-height="743"
    bbox="-186.182 -459 1612 1165"
    underline-thickness="100"
    underline-position="-180"
    unicode-range="U+0020-FEFC"
  />
<missing-glyph horiz-adv-x="500" 
d="M12 665h475v-665h-475v665zM250 375l161 243h-323zM60 91l7 10t18 27t25.5 39t29.5 45q35 54 81 121l-161 242v-484zM278 333l162 -243v485zM250 290l-162 -242h323z" />
    <glyph glyph-name="f_i" unicode="fi" horiz-adv-x="753" 
d="M697 22q0 -9 -6.5 -15.5t-15.5 -6.5h-179q-9 0 -16 6.5t-7 15.5v404h-159v-404q0 -9 -6.5 -15.5t-15.5 -6.5h-180q-9 0 -15.5 6.5t-6.5 15.5v404l-48 9q-9 2 -15.5 7.5t-6.5 14.5v112q0 9 6.5 15t15.5 6h48v14q0 59 14 97t40 60t61.5 30.5t79.5 8.5q20 0 45 -3t47 -8
q9 -2 15 -7t6 -14v-109q0 -9 -6 -15t-15 -6h-34q-18 0 -23.5 -6.5t-5.5 -27.5v-14h361q9 0 15.5 -6t6.5 -15v-547zM703 656q0 -9 -7 -15t-16 -6h-189q-9 0 -16 6t-7 15v102q0 9 7 15t16 6h189q9 0 16 -6t7 -15v-102z" />
    <glyph glyph-name="f_l" unicode="fl" horiz-adv-x="747" 
d="M398 443q0 -9 -6 -15.5t-15 -6.5h-63v-399q0 -9 -6.5 -15.5t-15.5 -6.5h-180q-9 0 -15.5 6.5t-6.5 15.5v399l-48 9q-9 2 -15.5 7.5t-6.5 14.5v112q0 9 6.5 15t15.5 6h48v19q0 59 14.5 97t43 60t70.5 30.5t97 8.5q73 0 121.5 -8t70.5 -13h169q9 0 15 -6t6 -15v-736
q0 -9 -6 -15.5t-15 -6.5h-180q-9 0 -16 6.5t-7 15.5v616h-100q-20 0 -32 -1.5t-18 -5t-7.5 -10.5t-1.5 -17v-19h63q9 0 15 -6t6 -15v-121z" />
    <glyph glyph-name="Allah" unicode="&#x627;&#xfedf;&#xfee0;&#x670;&#x651;&#xfeea;" horiz-adv-x="1670" arabic-form="isolated" 
d="M41 262q0 143 82 212t240 69q19 0 42.5 -1.5t46 -3.5t40.5 -5t26 -6q20 -8 20 -22v-261q0 -19 9 -25.5t29 -6.5h88q15 0 23 4t8 24v362q0 9 7 15t16 6h173q10 0 16 -6t6 -15v-386q8 -2 17.5 -3t17.5 -1h82q15 0 22.5 3.5t7.5 23.5v519q0 9 6.5 15t16.5 6h175q10 0 16 -6
t6 -15v-590q0 -36 -1 -64.5t-5 -63.5q-1 -10 -6 -17t-17 -9q-16 -3 -45 -6t-63 -4.5t-68.5 -2.5t-61.5 -1h-28q-56 0 -102 6q-46 7 -78 29q-16 -10 -36.5 -17t-42.5 -11t-44.5 -5.5t-43.5 -1.5h-80q-56 0 -96 9t-69 34q-20 -13 -52 -18.5t-65 -5.5h-6q-51 0 -93 14t-72 42.5
t-47 71.5t-17 101v14zM1392 758q0 9 6.5 15t16.5 6h175q10 0 16 -6t6 -15v-736q0 -9 -6 -15.5t-16 -6.5h-175q-10 0 -16.5 6.5t-6.5 15.5v736zM734 663q-42 0 -58.5 25t-16.5 70q0 15 0.5 25.5t2.5 25.5q2 14 14 14h41q5 0 9.5 -4t4.5 -10q-1 -17 -1.5 -24.5t-0.5 -17.5
q0 -26 5 -33t13 -7h4q8 0 13.5 5t5.5 20v54q0 6 4.5 10t9.5 4h42q5 0 9.5 -4t4.5 -10v-54q0 -15 5 -20t13 -5h4q8 0 13.5 7t5.5 33q0 10 -0.5 18.5t-1.5 23.5q0 6 4.5 10t9.5 4h42q12 0 14 -14q2 -19 2 -28v-23q0 -45 -18 -70t-60 -25h-5q-20 0 -34.5 4t-25.5 18h-4
q-11 -14 -28 -18t-37 -4h-5zM235 281q0 -29 12.5 -46t43.5 -17h8q16 0 30.5 7t14.5 27v114q-9 1 -17 1h-11q-40 0 -60.5 -20.5t-20.5 -52.5v-13zM765 993q0 12 13 12h53q13 0 13 -12v-126q0 -12 -13 -12h-53q-13 0 -13 12v126z" />
    <glyph glyph-name="LamAlefMaddaSep" unicode="&#xfedf;&#xfe82;" horiz-adv-x="762" arabic-form="isolated" 
d="M137 689q0 10 7 15.5t16 5.5h160q9 0 15.5 -5.5t6.5 -15.5v-411q0 -9 -7 -15t-16 -6h-160q-9 0 -15.5 6t-6.5 15v411zM50 192q0 8 6 14t14 6h379q15 0 22.5 3.5t7.5 23.5v519q0 9 6.5 15t16.5 6h173q10 0 16 -6t6 -15v-590q0 -36 -1 -65t-5 -63q-1 -10 -6 -17t-17 -9
q-16 -3 -48 -6t-69.5 -4.5t-75.5 -2.5t-65 -1h-340q-8 0 -14 6t-6 14v172zM77 754q-7 0 -11.5 4t-3.5 11q3 26 8 45.5t15 34.5q29 47 92 47q20 0 39 -6.5t37 -14.5q15 -6 29.5 -10t31.5 -4q20 0 31.5 3.5t22.5 8.5t19.5 8.5t13.5 3.5q11 0 11 -12v-71q0 -12 -10 -19
q-17 -11 -39 -17.5t-48 -6.5q-23 0 -44 5t-57 22q-11 5 -17.5 6.5t-11.5 1.5q-11 0 -14 -12l-5 -13q-3 -15 -15 -15h-74z" />
    <glyph glyph-name="LamAlefMaddaFin" unicode="&#xfee0;&#xfe82;" horiz-adv-x="779" arabic-form="final" 
d="M137 689q0 10 7 15.5t16 5.5h160q9 0 15.5 -5.5t6.5 -15.5v-411q0 -9 -7 -15t-16 -6h-160q-9 0 -15.5 6t-6.5 15v411zM50 192q0 8 6 14t14 6h378q15 0 23 4t8 24v518q0 9 7 15t16 6h173q10 0 16 -6t6 -15v-542q8 -2 17.5 -3t17.5 -1h47v-212h-12q-48 0 -89.5 7t-79.5 28
q-16 -12 -36.5 -18.5t-42.5 -10.5t-44.5 -5t-43.5 -1h-361q-8 0 -14 6t-6 14v172zM77 754q-7 0 -11.5 4t-3.5 11q3 26 8 45.5t15 34.5q29 47 92 47q20 0 39 -6.5t37 -14.5q15 -6 29.5 -10t31.5 -4q20 0 31.5 3.5t22.5 8.5t19.5 8.5t13.5 3.5q11 0 11 -12v-71q0 -12 -10 -19
q-17 -11 -39 -17.5t-48 -6.5q-23 0 -44 5t-57 22q-11 5 -17.5 6.5t-11.5 1.5q-11 0 -14 -12l-5 -13q-3 -15 -15 -15h-74z" />
    <glyph glyph-name="LamAlefHamzaAboveSep" unicode="&#xfedf;&#xfe84;" horiz-adv-x="762" arabic-form="isolated" 
d="M146 765q-13 0 -13 11v54q0 9 13 9h22q-8 13 -11 26.5t-3 28.5q0 45 25.5 68t81.5 23q11 0 31 -1t37 -6q10 -2 10 -10v-48q0 -10 -13 -10h-41q-23 0 -33 -6t-10 -25q0 -11 3 -22t14 -16h77q13 0 13 -10v-55q0 -11 -13 -11h-190zM137 689q0 10 7 15.5t16 5.5h160
q9 0 15.5 -5.5t6.5 -15.5v-411q0 -9 -7 -15t-16 -6h-160q-9 0 -15.5 6t-6.5 15v411zM50 192q0 8 6 14t14 6h379q15 0 22.5 3.5t7.5 23.5v519q0 9 6.5 15t16.5 6h173q10 0 16 -6t6 -15v-590q0 -36 -1 -65t-5 -63q-1 -10 -6 -17t-17 -9q-16 -3 -48 -6t-69.5 -4.5t-75.5 -2.5
t-65 -1h-340q-8 0 -14 6t-6 14v172z" />
    <glyph glyph-name="LamAlefHamzaAboveFin" unicode="&#xfee0;&#xfe84;" horiz-adv-x="779" arabic-form="final" 
d="M146 765q-13 0 -13 11v54q0 9 13 9h22q-8 13 -11 26.5t-3 28.5q0 45 25.5 68t81.5 23q11 0 31 -1t37 -6q10 -2 10 -10v-48q0 -10 -13 -10h-41q-23 0 -33 -6t-10 -25q0 -11 3 -22t14 -16h77q13 0 13 -10v-55q0 -11 -13 -11h-190zM137 689q0 10 7 15.5t16 5.5h160
q9 0 15.5 -5.5t6.5 -15.5v-411q0 -9 -7 -15t-16 -6h-160q-9 0 -15.5 6t-6.5 15v411zM50 192q0 8 6 14t14 6h378q15 0 23 4t8 24v518q0 9 7 15t16 6h173q10 0 16 -6t6 -15v-542q8 -2 17.5 -3t17.5 -1h47v-212h-12q-48 0 -89.5 7t-79.5 28q-16 -12 -36.5 -18.5t-42.5 -10.5
t-44.5 -5t-43.5 -1h-361q-8 0 -14 6t-6 14v172z" />
    <glyph glyph-name="LamAlefHamzaBelowSep" unicode="&#xfedf;&#xfe88;" horiz-adv-x="762" arabic-form="isolated" 
d="M139 -277q-13 0 -13 11v54q0 9 13 9h22q-8 13 -11 26.5t-3 28.5q0 45 25.5 68t81.5 23q11 0 31 -1t37 -6q10 -2 10 -10v-48q0 -10 -13 -10h-41q-23 0 -33 -6t-10 -25q0 -11 3 -22t14 -16h77q13 0 13 -10v-55q0 -11 -13 -11h-190zM137 699q0 10 7 15.5t16 5.5h160
q9 0 15.5 -5.5t6.5 -15.5v-421q0 -9 -7 -15t-16 -6h-160q-9 0 -15.5 6t-6.5 15v421zM50 192q0 8 6 14t14 6h379q15 0 22.5 3.5t7.5 23.5v519q0 9 6.5 15t16.5 6h173q10 0 16 -6t6 -15v-590q0 -36 -1 -64.5t-5 -63.5q-1 -10 -6 -17t-17 -9q-16 -3 -48 -6t-69.5 -4.5
t-75.5 -2.5t-65 -1h-340q-8 0 -14 6t-6 14v172z" />
    <glyph glyph-name="LamAlefHamzaBelowFin" unicode="&#xfee0;&#xfe88;" horiz-adv-x="779" arabic-form="final" 
d="M139 -277q-13 0 -13 11v54q0 9 13 9h22q-8 13 -11 26.5t-3 28.5q0 45 25.5 68t81.5 23q11 0 31 -1t37 -6q10 -2 10 -10v-48q0 -10 -13 -10h-41q-23 0 -33 -6t-10 -25q0 -11 3 -22t14 -16h77q13 0 13 -10v-55q0 -11 -13 -11h-190zM137 699q0 10 7 15.5t16 5.5h160
q9 0 15.5 -5.5t6.5 -15.5v-421q0 -9 -7 -15t-16 -6h-160q-9 0 -15.5 6t-6.5 15v421zM50 192q0 8 6 14t14 6h378q15 0 23 4t8 24v518q0 9 7 15t16 6h173q10 0 16 -6t6 -15v-542q8 -2 17.5 -3t17.5 -1h47v-212h-12q-48 0 -89.5 7t-79.5 28q-16 -12 -36.5 -18.5t-42.5 -10.5
t-44.5 -5t-43.5 -1h-361q-8 0 -14 6t-6 14v172z" />
    <glyph glyph-name="LamAlefSep" unicode="&#xfedf;&#xfe8e;" horiz-adv-x="762" arabic-form="isolated" 
d="M137 699q0 10 7 15.5t16 5.5h160q9 0 15.5 -5.5t6.5 -15.5v-421q0 -9 -7 -15t-16 -6h-160q-9 0 -15.5 6t-6.5 15v421zM50 192q0 8 6 14t14 6h379q15 0 22.5 3.5t7.5 23.5v519q0 9 6.5 15t16.5 6h173q10 0 16 -6t6 -15v-590q0 -36 -1 -64.5t-5 -63.5q-1 -10 -6 -17t-17 -9
q-16 -3 -48 -6t-69.5 -4.5t-75.5 -2.5t-65 -1h-340q-8 0 -14 6t-6 14v172z" />
    <glyph glyph-name="LamAlefFin" unicode="&#xfee0;&#xfe8e;" horiz-adv-x="779" arabic-form="final" 
d="M137 699q0 10 7 15.5t16 5.5h160q9 0 15.5 -5.5t6.5 -15.5v-421q0 -9 -7 -15t-16 -6h-160q-9 0 -15.5 6t-6.5 15v421zM50 192q0 8 6 14t14 6h378q15 0 23 4t8 24v518q0 9 7 15t16 6h173q10 0 16 -6t6 -15v-542q8 -2 17.5 -3t17.5 -1h47v-212h-12q-48 0 -89.5 7t-79.5 28
q-16 -12 -36.5 -18.5t-42.5 -10.5t-44.5 -5t-43.5 -1h-361q-8 0 -14 6t-6 14v172z" />
    <glyph glyph-name="LamAlefWaslaSep" unicode="&#xfedf;&#xfb51;" horiz-adv-x="762" 
d="M137 689q0 10 7 15.5t16 5.5h160q9 0 15.5 -5.5t6.5 -15.5v-411q0 -9 -7 -15t-16 -6h-160q-9 0 -15.5 6t-6.5 15v411zM50 192q0 8 6 14t14 6h379q15 0 22.5 3.5t7.5 23.5v519q0 9 6.5 15t16.5 6h173q10 0 16 -6t6 -15v-590q0 -36 -1 -65t-5 -63q-1 -10 -6 -17t-17 -9
q-16 -3 -48 -6t-69.5 -4.5t-75.5 -2.5t-65 -1h-340q-8 0 -14 6t-6 14v172zM285 951q42 0 70 -24t28 -69q0 -29 -9 -47t-25 -28.5t-38.5 -14t-49.5 -3.5h-147q-13 0 -13 10v48q0 10 13 10h50q9 36 22 58.5t28.5 36t33 18.5t37.5 5zM278 833q17 0 24.5 7.5t7.5 18.5t-6.5 17.5
t-18.5 6.5q-11 0 -22.5 -8t-22.5 -42h38z" />
    <glyph glyph-name="LamAlefWaslaFin" unicode="&#xfee0;&#xfb51;" horiz-adv-x="779" 
d="M137 689q0 10 7 15.5t16 5.5h160q9 0 15.5 -5.5t6.5 -15.5v-411q0 -9 -7 -15t-16 -6h-160q-9 0 -15.5 6t-6.5 15v411zM50 192q0 8 6 14t14 6h378q15 0 23 4t8 24v518q0 9 7 15t16 6h173q10 0 16 -6t6 -15v-542q8 -2 17.5 -3t17.5 -1h47v-212h-12q-48 0 -89.5 7t-79.5 28
q-16 -12 -36.5 -18.5t-42.5 -10.5t-44.5 -5t-43.5 -1h-361q-8 0 -14 6t-6 14v172zM285 951q42 0 70 -24t28 -69q0 -29 -9 -47t-25 -28.5t-38.5 -14t-49.5 -3.5h-147q-13 0 -13 10v48q0 10 13 10h50q9 36 22 58.5t28.5 36t33 18.5t37.5 5zM278 833q17 0 24.5 7.5t7.5 18.5
t-6.5 17.5t-18.5 6.5q-11 0 -22.5 -8t-22.5 -42h38z" />
    <glyph glyph-name="Llah" unicode="&#xfedf;&#xfee0;&#xfeea;" horiz-adv-x="1333" 
d="M41 262q0 143 82 212t240 69q19 0 42.5 -1.5t46 -3.5t40.5 -5t26 -6q20 -8 20 -22v-261q0 -19 9 -25.5t29 -6.5h88q15 0 23 4t8 24v362q0 9 7 15t16 6h173q10 0 16 -6t6 -15v-386q8 -2 17.5 -3t17.5 -1h82q15 0 22.5 3.5t7.5 23.5v519q0 9 6.5 15t16.5 6h175q10 0 16 -6
t6 -15v-590q0 -36 -1 -64.5t-5 -63.5q-1 -10 -6 -17t-17 -9q-16 -3 -45 -6t-63 -4.5t-68.5 -2.5t-61.5 -1h-32q-51 0 -97.5 6.5t-78.5 28.5q-16 -10 -36.5 -17t-42.5 -11t-44.5 -5.5t-43.5 -1.5h-80q-56 0 -96 9t-69 34q-20 -13 -52 -18.5t-65 -5.5h-6q-51 0 -93 14
t-72 42.5t-47 71.5t-17 101v14zM734 663q-42 0 -58.5 25t-16.5 70q0 15 0.5 25.5t2.5 25.5q2 14 14 14h41q5 0 9.5 -4t4.5 -10q-1 -17 -1.5 -24.5t-0.5 -17.5q0 -26 5 -33t13 -7h4q8 0 13.5 5t5.5 20v54q0 6 4.5 10t9.5 4h42q5 0 9.5 -4t4.5 -10v-54q0 -15 5 -20t13 -5h4
q8 0 13.5 7t5.5 33q0 10 -0.5 18.5t-1.5 23.5q0 6 4.5 10t9.5 4h42q12 0 14 -14q2 -19 2 -28v-23q0 -45 -18 -70t-60 -25h-5q-20 0 -34.5 4t-25.5 18h-4q-11 -14 -28 -18t-37 -4h-5zM235 281q0 -29 12.5 -46t43.5 -17h8q16 0 30.5 7t14.5 27v114q-9 1 -17 1h-11
q-40 0 -60.5 -20.5t-20.5 -52.5v-13zM765 993q0 12 13 12h53q13 0 13 -12v-126q0 -12 -13 -12h-53q-13 0 -13 12v126z" />
    <glyph glyph-name="HehGoalHamzaAboveFin" unicode="&#x6c2;" horiz-adv-x="716" 
d="M433 423q21 0 48 -1t53 -3t48 -4.5t34 -4.5q8 -2 14.5 -6t6.5 -15v-145q0 -19 6.5 -25.5t26.5 -6.5h46v-212h-90q-41 0 -75 5.5t-59.5 23t-39.5 51t-14 90.5v45q-8 1 -10.5 1h-8.5q-52 0 -83 -14.5t-47.5 -48t-21.5 -88.5t-5 -137v-23q0 -19 -20 -19h-165q-11 0 -16 6
t-6 15q-3 26 -4 49t-1 50q0 121 27.5 201.5t78 128.5t121 67.5t156.5 19.5zM251 497q-13 0 -13 11v54q0 9 13 9h22q-8 13 -11 26.5t-3 28.5q0 45 25.5 68t81.5 23q11 0 31 -1t37 -6q10 -2 10 -10v-48q0 -10 -13 -10h-41q-23 0 -33 -6t-10 -25q0 -11 3 -22t14 -16h77
q13 0 13 -10v-55q0 -11 -13 -11h-190z" />
    <glyph glyph-name="TehMarbutaGoalFin" unicode="&#x6c3;" horiz-adv-x="716" 
d="M433 423q21 0 48 -1t53 -3t48 -4.5t34 -4.5q8 -2 14.5 -6t6.5 -15v-145q0 -19 6.5 -25.5t26.5 -6.5h46v-212h-90q-41 0 -75 5.5t-59.5 23t-39.5 51t-14 90.5v45q-8 1 -10.5 1h-8.5q-52 0 -83 -14.5t-47.5 -48t-21.5 -88.5t-5 -137v-23q0 -19 -20 -19h-165q-11 0 -16 6
t-6 15q-3 26 -4 49t-1 50q0 121 27.5 201.5t78 128.5t121 67.5t156.5 19.5zM162 626q0 8 6 13t14 5h118q8 0 14.5 -5t6.5 -13v-111q0 -8 -6.5 -13t-14.5 -5h-118q-8 0 -14 5t-6 13v111zM380 626q0 8 6 13t14 5h118q8 0 14.5 -5t6.5 -13v-111q0 -8 -6.5 -13t-14.5 -5h-118
q-8 0 -14 5t-6 13v111z" />
    <glyph glyph-name="AlefWaslaSep" unicode="&#x671;" horiz-adv-x="350" arabic-form="isolated" 
d="M65 728q0 9 6.5 15t16.5 6h175q10 0 16 -6t6 -15v-706q0 -9 -6 -15.5t-16 -6.5h-175q-10 0 -16.5 6.5t-6.5 15.5v706zM218 990q42 0 70 -24t28 -69q0 -29 -9 -47t-25 -28.5t-38.5 -14t-49.5 -3.5h-147q-13 0 -13 10v48q0 10 13 10h50q9 36 22 58.5t28.5 36t33 18.5
t37.5 5zM211 872q17 0 24.5 7.5t7.5 18.5t-6.5 17.5t-18.5 6.5q-11 0 -22.5 -8t-22.5 -42h38z" />
    <glyph glyph-name="AlefWaslaFin" unicode="&#x671;" horiz-adv-x="363" arabic-form="final" 
d="M65 728q0 9 6.5 15t16.5 6h172q10 0 16 -6t6 -15v-484q0 -19 7 -25.5t27 -6.5h47v-212h-111q-40 0 -74.5 5.5t-59.5 23t-39 51t-14 90.5v558zM218 990q42 0 70 -24t28 -69q0 -29 -9 -47t-25 -28.5t-38.5 -14t-49.5 -3.5h-147q-13 0 -13 10v48q0 10 13 10h50q9 36 22 58.5
t28.5 36t33 18.5t37.5 5zM211 872q17 0 24.5 7.5t7.5 18.5t-6.5 17.5t-18.5 6.5q-11 0 -22.5 -8t-22.5 -42h38z" />
    <glyph glyph-name="PehSep" unicode="&#x67e;" horiz-adv-x="1061" arabic-form="isolated" 
d="M755 212q15 0 22.5 3.5t7.5 23.5v40.5v56v64v63.5q0 7 5.5 13t16.5 6h168q14 0 19.5 -5.5t6.5 -13.5q2 -58 3 -105.5t1 -88.5v-83t-0.5 -61.5t-2 -46.5t-3.5 -38q-1 -9 -6 -16.5t-17 -9.5q-11 -2 -33 -4t-51 -3.5t-62 -3t-64 -2t-58.5 -1t-45.5 -0.5h-253
q-108 0 -179 19.5t-113 57t-59.5 93t-17.5 127.5q0 32 3.5 62t11.5 66q2 9 6.5 15t15.5 6h152q8 0 14 -5t6 -14q0 -17 -1.5 -36.5t-1.5 -31.5q0 -44 9.5 -72.5t31.5 -45t57 -23t85 -6.5h326zM348 -102q0 8 6 13t14 5h118q8 0 14.5 -5t6.5 -13v-102q0 -8 -6.5 -13t-14.5 -5
h-118q-8 0 -14 5t-6 13v102zM566 -102q0 8 6 13t14 5h118q8 0 14.5 -5t6.5 -13v-102q0 -8 -6.5 -13t-14.5 -5h-118q-8 0 -14 5t-6 13v102zM458 -280q0 8 6 13t13 5h123q8 0 14 -5t6 -13v-87q0 -8 -6 -12.5t-14 -4.5h-123q-7 0 -13 4.5t-6 12.5v87z" />
    <glyph glyph-name="PehFin" unicode="&#x67e;" horiz-adv-x="1085" arabic-form="final" 
d="M754 212q15 0 23 4t8 24v221q0 9 7 15t16 6h173q9 0 15.5 -6t6.5 -15v-245q7 -2 17 -3t18 -1h47v-212h-6q-18 0 -40 0.5t-45.5 4t-46.5 10.5t-42 20q-20 -12 -45.5 -19t-58 -10.5t-72.5 -4.5t-89 -1h-231q-108 0 -179 19.5t-113 57t-59.5 93t-17.5 127.5q0 32 3.5 62
t11.5 66q2 9 6.5 15t15.5 6h152q8 0 14 -5t6 -14q0 -17 -1.5 -36.5t-1.5 -31.5q0 -44 9.5 -72.5t31.5 -45t57 -23t85 -6.5h325zM348 -102q0 8 6 13t14 5h118q8 0 14.5 -5t6.5 -13v-102q0 -8 -6.5 -13t-14.5 -5h-118q-8 0 -14 5t-6 13v102zM566 -102q0 8 6 13t14 5h118
q8 0 14.5 -5t6.5 -13v-102q0 -8 -6.5 -13t-14.5 -5h-118q-8 0 -14 5t-6 13v102zM458 -280q0 8 6 13t13 5h123q8 0 14 -5t6 -13v-87q0 -8 -6 -12.5t-14 -4.5h-123q-7 0 -13 4.5t-6 12.5v87z" />
    <glyph glyph-name="PehIni" unicode="&#x67e;" horiz-adv-x="341" arabic-form="initial" 
d="M-40 203q0 4 12 6.5t18 2.5h45q15 0 22.5 3.5t7.5 23.5v229q0 7 5.5 13t16.5 6h168q14 0 19.5 -5.5t6.5 -13.5q2 -58 3 -107.5t1 -91.5v-83t-0.5 -61.5t-2 -46.5t-3.5 -38q-1 -9 -6 -16.5t-17 -9.5q-16 -3 -43.5 -5.5t-59.5 -4.5t-65 -3t-60 -1h-38q-6 0 -18 2.5t-12 6.5
v194zM-69 -102q0 8 6 13t14 5h118q8 0 14.5 -5t6.5 -13v-102q0 -8 -6.5 -13t-14.5 -5h-118q-8 0 -14 5t-6 13v102zM149 -102q0 8 6 13t14 5h118q8 0 14.5 -5t6.5 -13v-102q0 -8 -6.5 -13t-14.5 -5h-118q-8 0 -14 5t-6 13v102zM41 -280q0 8 6 13t13 5h123q8 0 14 -5t6 -13
v-87q0 -8 -6 -12.5t-14 -4.5h-123q-7 0 -13 4.5t-6 12.5v87z" />
    <glyph glyph-name="PehMed" unicode="&#x67e;" horiz-adv-x="362" arabic-form="medial" 
d="M-42 203q0 2 3.5 3.5t8.5 3t10 2t8 0.5h44q15 0 23 4t8 24v221q0 9 6.5 15t16.5 6h173q9 0 15.5 -6t6.5 -15v-245q7 -2 17 -3t18 -1h47v-212h-14q-51 0 -97.5 6.5t-78.5 28.5q-16 -10 -36.5 -17t-42.5 -11t-44.5 -5.5t-43.5 -1.5h-18q-3 0 -8 0.5t-10 2t-8.5 3t-3.5 3.5
v194zM-18 -102q0 8 6 13t14 5h118q8 0 14.5 -5t6.5 -13v-102q0 -8 -6.5 -13t-14.5 -5h-118q-8 0 -14 5t-6 13v102zM200 -102q0 8 6 13t14 5h118q8 0 14.5 -5t6.5 -13v-102q0 -8 -6.5 -13t-14.5 -5h-118q-8 0 -14 5t-6 13v102zM92 -280q0 8 6 13t13 5h123q8 0 14 -5t6 -13
v-87q0 -8 -6 -12.5t-14 -4.5h-123q-7 0 -13 4.5t-6 12.5v87z" />
    <glyph glyph-name="TtehSep" unicode="&#x679;" horiz-adv-x="1061" arabic-form="isolated" 
d="M755 212q15 0 22.5 3.5t7.5 23.5v40.5v56v64v63.5q0 7 5.5 13t16.5 6h168q14 0 19.5 -5.5t6.5 -13.5q2 -58 3 -105.5t1 -88.5v-83t-0.5 -61.5t-2 -46.5t-3.5 -38q-1 -9 -6 -16.5t-17 -9.5q-11 -2 -33 -4t-51 -3.5t-62 -3t-64 -2t-58.5 -1t-45.5 -0.5h-253
q-108 0 -179 19.5t-113 57t-59.5 93t-17.5 127.5q0 32 3.5 62t11.5 66q2 9 6.5 15t15.5 6h152q8 0 14 -5t6 -14q0 -17 -1.5 -36.5t-1.5 -31.5q0 -44 9.5 -72.5t31.5 -45t57 -23t85 -6.5h326zM577 594q3 0 3 3v9q0 15 -8.5 25.5t-44.5 10.5q-7 0 -21.5 -0.5t-28.5 -2.5v-45
h100zM353 582q0 12 12 12h27v190q0 5 4.5 8.5t9.5 3.5h57q14 0 14 -12v-74q17 5 35 6.5t29 1.5q63 0 93 -29t30 -83v-17q0 -11 -1 -28.5t-3 -28.5q-1 -9 -10 -13q-6 0 -17.5 -0.5t-24.5 -0.5h-25h-19h-200q-11 0 -11 11v53z" />
    <glyph glyph-name="TtehFin" unicode="&#x679;" horiz-adv-x="1085" arabic-form="final" 
d="M754 212q15 0 23 4t8 24v221q0 9 7 15t16 6h173q9 0 15.5 -6t6.5 -15v-245q7 -2 17 -3t18 -1h47v-212h-6q-18 0 -40 0.5t-45.5 4t-46.5 10.5t-42 20q-20 -12 -45.5 -19t-58 -10.5t-72.5 -4.5t-89 -1h-231q-108 0 -179 19.5t-113 57t-59.5 93t-17.5 127.5q0 32 3.5 62
t11.5 66q2 9 6.5 15t15.5 6h152q8 0 14 -5t6 -14q0 -17 -1.5 -36.5t-1.5 -31.5q0 -44 9.5 -72.5t31.5 -45t57 -23t85 -6.5h325zM577 594q3 0 3 3v9q0 15 -8.5 25.5t-44.5 10.5q-7 0 -21.5 -0.5t-28.5 -2.5v-45h100zM353 582q0 12 12 12h27v190q0 5 4.5 8.5t9.5 3.5h57
q14 0 14 -12v-74q17 5 35 6.5t29 1.5q63 0 93 -29t30 -83v-17q0 -11 -1 -28.5t-3 -28.5q-1 -9 -10 -13q-6 0 -17.5 -0.5t-24.5 -0.5h-25h-19h-200q-11 0 -11 11v53z" />
    <glyph glyph-name="TtehIni" unicode="&#x679;" horiz-adv-x="341" arabic-form="initial" 
d="M-40 203q0 4 12 6.5t18 2.5h45q15 0 22.5 3.5t7.5 23.5v229q0 7 5.5 13t16.5 6h168q14 0 19.5 -5.5t6.5 -13.5q2 -58 3 -107.5t1 -91.5v-83t-0.5 -61.5t-2 -46.5t-3.5 -38q-1 -9 -6 -16.5t-17 -9.5q-16 -3 -43.5 -5.5t-59.5 -4.5t-65 -3t-60 -1h-38q-6 0 -18 2.5t-12 6.5
v194zM239 636q3 0 3 3v9q0 15 -8.5 25.5t-44.5 10.5q-7 0 -21.5 -0.5t-28.5 -2.5v-45h100zM15 624q0 12 12 12h27v190q0 5 4.5 8.5t9.5 3.5h57q14 0 14 -12v-74q17 5 35 6.5t29 1.5q63 0 93 -29t30 -83v-17q0 -11 -1 -28.5t-3 -28.5q-1 -9 -10 -13q-6 0 -17.5 -0.5
t-24.5 -0.5h-25h-19h-200q-11 0 -11 11v53z" />
    <glyph glyph-name="TtehMed" unicode="&#x679;" horiz-adv-x="365" arabic-form="medial" 
d="M-40 203q0 2 3.5 3.5t8.5 3t10 2t8 0.5h44q15 0 23 4t8 24v221q0 9 6.5 15t16.5 6h173q9 0 15.5 -6t6.5 -15v-245q7 -2 17 -3t18 -1h47v-212h-14q-51 0 -97.5 6.5t-78.5 28.5q-16 -10 -36.5 -17t-42.5 -11t-44.5 -5.5t-43.5 -1.5h-18q-3 0 -8 0.5t-10 2t-8.5 3t-3.5 3.5
v194zM242 636q3 0 3 3v9q0 15 -8.5 25.5t-44.5 10.5q-7 0 -21.5 -0.5t-28.5 -2.5v-45h100zM18 624q0 12 12 12h27v190q0 5 4.5 8.5t9.5 3.5h57q14 0 14 -12v-74q17 5 35 6.5t29 1.5q63 0 93 -29t30 -83v-17q0 -11 -1 -28.5t-3 -28.5q-1 -9 -10 -13q-6 0 -17.5 -0.5
t-24.5 -0.5h-25h-19h-200q-11 0 -11 11v53z" />
    <glyph glyph-name="VehSep" unicode="&#x6a4;" horiz-adv-x="1162" arabic-form="isolated" 
d="M614 212q-7 13 -11.5 34.5t-4.5 48.5v14q0 65 22.5 111t63 75t96.5 42t123 13q22 0 49.5 -2t54 -4.5t48 -6t31.5 -6.5q13 -4 16.5 -9.5t3.5 -13.5v-276q0 -40 -1.5 -97.5t-6.5 -111.5q-1 -11 -7.5 -14.5t-16.5 -4.5q-45 -2 -88 -3t-80 -1h-497q-108 0 -179 19.5t-113 57
t-59.5 93t-17.5 127.5q0 32 3.5 62.5t11.5 65.5q2 9 6.5 15t15.5 6h150q8 0 14 -5t6 -14q0 -17 -0.5 -36.5t-0.5 -31.5q0 -44 9.5 -72.5t31.5 -45t57 -23t85 -6.5h185zM798 283q0 -38 14 -57t49 -19h41v164q-5 1 -15 1.5t-14 0.5q-38 0 -56.5 -19.5t-18.5 -54.5v-16z
M675 730q0 8 6 13t14 5h118q8 0 14.5 -5t6.5 -13v-103q0 -8 -6.5 -12.5t-14.5 -4.5h-118q-8 0 -14 4.5t-6 12.5v103zM893 730q0 8 6 13t14 5h118q8 0 14.5 -5t6.5 -13v-103q0 -8 -6.5 -12.5t-14.5 -4.5h-118q-8 0 -14 4.5t-6 12.5v103zM785 892q0 8 6 13t13 5h123q8 0 14 -5
t6 -13v-86q0 -8 -6 -13t-14 -5h-123q-7 0 -13 5t-6 13v86z" />
    <glyph glyph-name="VehFin" unicode="&#x6a4;" horiz-adv-x="1183" arabic-form="final" 
d="M614 212q-7 13 -11.5 34t-4.5 48v15q0 65 22.5 111t63 75t96.5 42t123 13q22 0 48.5 -2t52 -4.5t46.5 -6t31 -6.5q13 -4 16.5 -10t3.5 -14v-295h82v-212h-774q-108 0 -179 19.5t-113 57t-59.5 93t-17.5 127.5q0 32 3.5 62t11.5 66q2 9 6.5 15t15.5 6h150q8 0 14 -5t6 -14
q0 -17 -0.5 -36.5t-0.5 -31.5q0 -44 9.5 -72.5t31.5 -45t57 -23t85 -6.5h185zM902 207v164q-5 1 -15 1.5t-14 0.5q-38 0 -56.5 -19.5t-18.5 -54.5v-16q0 -38 14 -57t49 -19h41zM675 730q0 8 6 13t14 5h118q8 0 14.5 -5t6.5 -13v-103q0 -8 -6.5 -12.5t-14.5 -4.5h-118
q-8 0 -14 4.5t-6 12.5v103zM893 730q0 8 6 13t14 5h118q8 0 14.5 -5t6.5 -13v-103q0 -8 -6.5 -12.5t-14.5 -4.5h-118q-8 0 -14 4.5t-6 12.5v103zM785 892q0 8 6 13t13 5h123q8 0 14 -5t6 -13v-86q0 -8 -6 -13t-14 -5h-123q-7 0 -13 5t-6 13v86z" />
    <glyph glyph-name="VehIni" unicode="&#x6a4;" horiz-adv-x="617" arabic-form="initial" 
d="M253 283q0 -38 13.5 -57t46.5 -19h44v164q-5 1 -15 1.5t-14 0.5q-38 0 -56.5 -19.5t-18.5 -54.5v-16zM-40 203q0 2 3.5 3.5t8.5 3t10 2t8 0.5h79q-7 13 -11.5 34t-4.5 48v15q0 65 22.5 111t63 75t96.5 42t123 13q22 0 49.5 -2t54 -4.5t48 -6t31.5 -6.5q13 -4 16.5 -10
t3.5 -14v-275q0 -40 -1.5 -97.5t-6.5 -111.5q-1 -11 -7.5 -14.5t-16.5 -4.5q-45 -2 -85 -3t-82 -1h-372q-3 0 -8 0.5t-10 2t-8.5 3t-3.5 3.5v194zM130 730q0 8 6 13t14 5h118q8 0 14.5 -5t6.5 -13v-103q0 -8 -6.5 -12.5t-14.5 -4.5h-118q-8 0 -14 4.5t-6 12.5v103zM348 730
q0 8 6 13t14 5h118q8 0 14.5 -5t6.5 -13v-103q0 -8 -6.5 -12.5t-14.5 -4.5h-118q-8 0 -14 4.5t-6 12.5v103zM240 892q0 8 6 13t13 5h123q8 0 14 -5t6 -13v-86q0 -8 -6 -13t-14 -5h-123q-7 0 -13 5t-6 13v86z" />
    <glyph glyph-name="VehMed" unicode="&#x6a4;" horiz-adv-x="638" arabic-form="medial" 
d="M-40 203q0 2 3.5 3.5t8.5 3t10 2t8 0.5h79q-7 13 -11.5 34t-4.5 48v15q0 65 22.5 111t63 75t96.5 42t123 13q22 0 48.5 -2t52 -4.5t46.5 -6t31 -6.5q13 -4 16.5 -10t3.5 -14v-295h82v-212h-648q-3 0 -8 0.5t-10 2t-8.5 3t-3.5 3.5v194zM357 207v164q-5 1 -15 1.5t-14 0.5
q-38 0 -56.5 -19.5t-18.5 -54.5v-16q0 -38 13.5 -57t46.5 -19h44zM130 730q0 8 6 13t14 5h118q8 0 14.5 -5t6.5 -13v-103q0 -8 -6.5 -12.5t-14.5 -4.5h-118q-8 0 -14 4.5t-6 12.5v103zM348 730q0 8 6 13t14 5h118q8 0 14.5 -5t6.5 -13v-103q0 -8 -6.5 -12.5t-14.5 -4.5h-118
q-8 0 -14 4.5t-6 12.5v103zM240 892q0 8 6 13t13 5h123q8 0 14 -5t6 -13v-86q0 -8 -6 -13t-14 -5h-123q-7 0 -13 5t-6 13v86z" />
    <glyph glyph-name="TchehSep" unicode="&#x686;" horiz-adv-x="755" arabic-form="isolated" 
d="M40 21q0 21 1.5 44.5t4 45t6 40t8.5 30.5q5 11 9.5 15.5t14.5 6.5q6 1 20.5 1.5t31.5 1l34 1t28 0.5h257l-12 20l-11 18q-11 19 -28.5 39t-43 36t-60 26.5t-80.5 10.5q-22 0 -38.5 -0.5t-31.5 -0.5q-13 0 -16.5 5t-3.5 16v135q0 16 24 21q35 7 62 9.5t65 2.5
q121 0 215 -61.5t162 -197.5l12 -24q8 -17 17.5 -35.5t19.5 -33.5q8 -12 8 -39v-134q0 -8 -6 -14t-14 -6h-400q-11 0 -29.5 -0.5t-29.5 -1.5q-1 -9 -1 -17v-12q0 -16 5 -31t17 -26q12 -9 17 -17q4 -6 4 -19v-136q0 -9 -6.5 -11.5t-15.5 -2.5q-20 0 -43.5 4.5t-47 15
t-45.5 28.5t-38 46q-21 36 -31.5 84.5t-10.5 116.5zM327 -77q0 8 6 13t14 5h101q8 0 14.5 -5t6.5 -13v-102q0 -8 -6.5 -13t-14.5 -5h-101q-8 0 -14 5t-6 13v102zM528 -77q0 8 6 13t14 5h101q8 0 14.5 -5t6.5 -13v-102q0 -8 -6.5 -13t-14.5 -5h-101q-8 0 -14 5t-6 13v102z
M421 -255q0 8 6 13t14 5h114q8 0 14 -5t6 -13v-87q0 -8 -6 -12.5t-14 -4.5h-114q-8 0 -14 4.5t-6 12.5v87z" />
    <glyph glyph-name="TchehFin" unicode="&#x686;" horiz-adv-x="738" arabic-form="final" 
d="M40 21q0 21 1.5 44.5t4 45t6 40t8.5 30.5q5 11 9.5 15.5t14.5 6.5q6 1 20.5 1.5t31.5 1l34 1t28 0.5h247l-11 18l-12 20q-11 19 -27 39t-39.5 36t-56.5 26.5t-79 10.5q-22 0 -38.5 -0.5t-31.5 -0.5q-13 0 -16.5 5t-3.5 16v135q0 16 24 21q35 7 62 9.5t65 2.5
q122 0 210 -60.5t154 -191.5l16 -32l12 -21t9 -13q7 -9 14 -12t18 -3h24v-212h-443q-11 0 -29.5 -0.5t-29.5 -1.5q-1 -9 -1 -17v-12q0 -16 5 -31t17 -26l10.5 -9t6.5 -8q4 -6 4 -19v-136q0 -9 -6.5 -11.5t-15.5 -2.5q-20 0 -43.5 4.5t-47 15t-45.5 28.5t-38 46
q-21 36 -31.5 84.5t-10.5 116.5zM327 -77q0 8 6 13t14 5h101q8 0 14.5 -5t6.5 -13v-102q0 -8 -6.5 -13t-14.5 -5h-101q-8 0 -14 5t-6 13v102zM528 -77q0 8 6 13t14 5h101q8 0 14.5 -5t6.5 -13v-102q0 -8 -6.5 -13t-14.5 -5h-101q-8 0 -14 5t-6 13v102zM421 -255q0 8 6 13
t14 5h114q8 0 14 -5t6 -13v-87q0 -8 -6 -12.5t-14 -4.5h-114q-8 0 -14 4.5t-6 12.5v87z" />
    <glyph glyph-name="TchehIni" unicode="&#x686;" horiz-adv-x="672" arabic-form="initial" 
d="M-40 202q0 4 12.5 7t17.5 3h379l-8 13l-12 20q-11 19 -28.5 39t-43 36t-60 26.5t-80.5 10.5q-21 0 -38 -0.5t-32 -0.5q-13 0 -16.5 5t-3.5 16v135q0 16 24 21q35 7 62.5 9.5t64.5 2.5q121 0 215 -61.5t162 -197.5l12 -24q8 -17 17.5 -35.5t19.5 -33.5q8 -12 8 -39v-134
q0 -8 -6 -14t-14 -6h-622q-3 0 -8 0.5t-10 2t-8.5 3t-3.5 3.5v193zM89 -102q0 8 6 13t14 5h118q8 0 14.5 -5t6.5 -13v-102q0 -8 -6.5 -13t-14.5 -5h-118q-8 0 -14 5t-6 13v102zM307 -102q0 8 6 13t14 5h118q8 0 14.5 -5t6.5 -13v-102q0 -8 -6.5 -13t-14.5 -5h-118
q-8 0 -14 5t-6 13v102zM199 -280q0 8 6 13t13 5h123q8 0 14 -5t6 -13v-87q0 -8 -6 -12.5t-14 -4.5h-123q-7 0 -13 4.5t-6 12.5v87z" />
    <glyph glyph-name="TchehMed" unicode="&#x686;" horiz-adv-x="656" arabic-form="medial" 
d="M-10 0q-3 0 -8 0.5t-10 2t-8.5 3t-3.5 3.5v193q0 4 12.5 7t17.5 3h379l-8 14l-11 19q-11 19 -28.5 39t-43.5 36.5t-60.5 26.5t-80.5 10q-21 0 -38 -0.5t-32 -0.5q-13 0 -16.5 5t-3.5 16v135q0 16 24 21q35 7 65.5 9.5t61.5 2.5q122 0 214.5 -60.5t160.5 -191.5l16 -31
q8 -15 12.5 -22.5t9.5 -13.5q6 -8 11.5 -11t15.5 -3h18v-212h-666zM89 -102q0 8 6 13t14 5h118q8 0 14.5 -5t6.5 -13v-102q0 -8 -6.5 -13t-14.5 -5h-118q-8 0 -14 5t-6 13v102zM307 -102q0 8 6 13t14 5h118q8 0 14.5 -5t6.5 -13v-102q0 -8 -6.5 -13t-14.5 -5h-118
q-8 0 -14 5t-6 13v102zM199 -280q0 8 6 13t13 5h123q8 0 14 -5t6 -13v-87q0 -8 -6 -12.5t-14 -4.5h-123q-7 0 -13 4.5t-6 12.5v87z" />
    <glyph glyph-name="DdalSep" unicode="&#x688;" horiz-adv-x="564" arabic-form="isolated" 
d="M50 192q0 8 6 14t14 6h241l-3 34q-2 21 -8.5 41t-22.5 35.5t-45 25t-76 9.5h-49q-16 0 -16 16v140q0 8 6 14.5t14 8.5q15 3 32 5t33.5 2.5t30.5 1t22 0.5q88 0 143 -29t86.5 -73.5t44.5 -98.5t17 -105q2 -29 3 -60t1 -78q0 -14 -1 -37t-3 -45q-1 -8 -6 -13.5t-18 -5.5
h-426q-8 0 -14 6t-6 14v172zM333 699q3 0 3 3v9q0 15 -8.5 25.5t-44.5 10.5q-7 0 -21.5 -0.5t-28.5 -2.5v-45h100zM109 687q0 12 12 12h27v190q0 5 4.5 8.5t9.5 3.5h57q14 0 14 -12v-74q17 5 35 6.5t29 1.5q63 0 93 -29t30 -83v-17q0 -11 -1 -28.5t-3 -28.5q-1 -9 -10 -13
q-6 0 -17.5 -0.5t-24.5 -0.5h-25h-19h-200q-11 0 -11 11v53z" />
    <glyph glyph-name="DdalFin" unicode="&#x688;" horiz-adv-x="576" arabic-form="final" 
d="M50 192q0 8 6 14t14 6h241l-3 34q-2 21 -8.5 41t-22 35.5t-43.5 25t-73 9.5h-54q-16 0 -16 16v140q0 8 6 14.5t14 8.5q15 3 32 5t33.5 2.5t30.5 1t22 0.5q87 0 141.5 -28.5t86.5 -73t45.5 -98t16.5 -104.5l2 -29h55v-212h-506q-8 0 -14 6t-6 14v172zM333 699q3 0 3 3v9
q0 15 -8.5 25.5t-44.5 10.5q-7 0 -21.5 -0.5t-28.5 -2.5v-45h100zM109 687q0 12 12 12h27v190q0 5 4.5 8.5t9.5 3.5h57q14 0 14 -12v-74q17 5 35 6.5t29 1.5q63 0 93 -29t30 -83v-17q0 -11 -1 -28.5t-3 -28.5q-1 -9 -10 -13q-6 0 -17.5 -0.5t-24.5 -0.5h-25h-19h-200
q-11 0 -11 11v53z" />
    <glyph glyph-name="JehSep" unicode="&#x698;" horiz-adv-x="352" arabic-form="isolated" 
d="M-40 -88q0 20 20 20h18q20 0 35 1.5t25 8.5t15 21t5 38v455q0 9 7 15t16 6h173q9 0 15.5 -6t6.5 -15v-421q0 -48 -5 -91t-24 -85q-28 -60 -80 -84.5t-123 -24.5h-17.5t-25 1t-26 2t-21.5 3q-14 3 -14 22v134zM-4 682q0 8 6 13t14 5h118q8 0 14.5 -5t6.5 -13v-103
q0 -8 -6.5 -12.5t-14.5 -4.5h-118q-8 0 -14 4.5t-6 12.5v103zM214 682q0 8 6 13t14 5h118q8 0 14.5 -5t6.5 -13v-103q0 -8 -6.5 -12.5t-14.5 -4.5h-118q-8 0 -14 4.5t-6 12.5v103zM106 844q0 8 6 13t13 5h123q8 0 14 -5t6 -13v-86q0 -8 -6 -13t-14 -5h-123q-7 0 -13 5t-6 13
v86z" />
    <glyph glyph-name="JehFin" unicode="&#x698;" horiz-adv-x="378" arabic-form="final" 
d="M-40 -88q0 20 20 20h18q20 0 35 1.5t25 8.5t15 21t5 38v455q0 9 7 15t16 6h173q9 0 15.5 -6t6.5 -15v-244h82v-212h-88v-12q0 -78 -23 -129q-28 -60 -80 -84.5t-123 -24.5h-17.5t-25 1t-26 2t-21.5 3q-14 3 -14 22v134zM-4 682q0 8 6 13t14 5h118q8 0 14.5 -5t6.5 -13
v-103q0 -8 -6.5 -12.5t-14.5 -4.5h-118q-8 0 -14 4.5t-6 12.5v103zM214 682q0 8 6 13t14 5h118q8 0 14.5 -5t6.5 -13v-103q0 -8 -6.5 -12.5t-14.5 -4.5h-118q-8 0 -14 4.5t-6 12.5v103zM106 844q0 8 6 13t13 5h123q8 0 14 -5t6 -13v-86q0 -8 -6 -13t-14 -5h-123q-7 0 -13 5
t-6 13v86z" />
    <glyph glyph-name="RrehSep" unicode="&#x691;" horiz-adv-x="352" arabic-form="isolated" 
d="M-40 -88q0 20 20 20h18q20 0 35 1.5t25 8.5t15 21t5 38v455q0 9 7 15t16 6h173q9 0 15.5 -6t6.5 -15v-421q0 -48 -5 -91t-24 -85q-28 -60 -80 -84.5t-123 -24.5h-17.5t-25 1t-26 2t-21.5 3q-14 3 -14 22v134zM251 638q3 0 3 3v9q0 15 -8.5 25.5t-44.5 10.5
q-7 0 -21.5 -0.5t-28.5 -2.5v-45h100zM27 626q0 12 12 12h27v190q0 5 4.5 8.5t9.5 3.5h57q14 0 14 -12v-74q17 5 35 6.5t29 1.5q63 0 93 -29t30 -83v-17q0 -11 -1 -28.5t-3 -28.5q-1 -9 -10 -13q-6 0 -17.5 -0.5t-24.5 -0.5h-25h-19h-200q-11 0 -11 11v53z" />
    <glyph glyph-name="RrehFin" unicode="&#x691;" horiz-adv-x="378" arabic-form="final" 
d="M-40 -88q0 20 20 20h18q20 0 35 1.5t25 8.5t15 21t5 38v455q0 9 7 15t16 6h173q9 0 15.5 -6t6.5 -15v-244h82v-212h-88v-12q0 -78 -23 -129q-28 -60 -80 -84.5t-123 -24.5h-17.5t-25 1t-26 2t-21.5 3q-14 3 -14 22v134zM251 638q3 0 3 3v9q0 15 -8.5 25.5t-44.5 10.5
q-7 0 -21.5 -0.5t-28.5 -2.5v-45h100zM27 626q0 12 12 12h27v190q0 5 4.5 8.5t9.5 3.5h57q14 0 14 -12v-74q17 5 35 6.5t29 1.5q63 0 93 -29t30 -83v-17q0 -11 -1 -28.5t-3 -28.5q-1 -9 -10 -13q-6 0 -17.5 -0.5t-24.5 -0.5h-25h-19h-200q-11 0 -11 11v53z" />
    <glyph glyph-name="KafFarsiSep" unicode="&#x6a9;" horiz-adv-x="1060" arabic-form="isolated" 
d="M30 235q0 5 0.5 15.5t2 23t3.5 25t5 21.5t7.5 15t15.5 6h149q20 0 20 -19q0 -6 -0.5 -19t-0.5 -20q0 -18 4 -31t16.5 -22t36.5 -13.5t63 -4.5h429v23q0 22 -7.5 40.5t-25 32t-45 21.5t-67.5 8h-250q-17 0 -23.5 6.5t-7.5 18.5v9.5t-0.5 16t-0.5 15.5v8q0 28 4.5 53t13 49
t21 49t28.5 54l79 145q4 8 11 13t18 5h169q13 0 13 -11q0 -4 -3 -10l-94 -182l-25 -47q12 1 19.5 2t15 1.5t17.5 0.5h27q106 0 171.5 -27t102.5 -74.5t50 -112t13 -140.5v-39q0 -11 -0.5 -26.5t-2 -32t-3.5 -32t-4 -25.5q-2 -8 -6.5 -13t-16.5 -6q-67 -3 -133.5 -4
t-133.5 -1h-396q-95 0 -150.5 20.5t-84 54t-36.5 75.5t-8 85z" />
    <glyph glyph-name="KafFarsiFin" unicode="&#x6a9;" horiz-adv-x="1079" arabic-form="final" 
d="M30 235q0 5 0.5 15.5t2 23t3.5 25t5 21.5t7.5 15t15.5 6h149q20 0 20 -19q0 -6 -0.5 -19t-0.5 -20q0 -18 4 -31t16.5 -22t36.5 -13.5t63 -4.5h429v22q0 22 -7.5 40.5t-25 32.5t-45 22t-67.5 8h-250q-17 0 -23.5 6.5t-7.5 18.5v9.5t-0.5 15.5t-0.5 15v8q0 28 4.5 52.5
t13 48.5t21 49t28.5 54l79 147q4 8 11 13t18 5h169q13 0 13 -11q0 -4 -3 -10l-94 -182l-25 -47q12 1 20 2t15.5 1.5t17.5 0.5h27q91 0 154 -22.5t102.5 -61.5t58 -91t20.5 -110v-36h75v-212h-770q-95 0 -150.5 20.5t-84 54t-36.5 75.5t-8 85z" />
    <glyph glyph-name="KafFarsiIni" unicode="&#x6a9;" horiz-adv-x="773" arabic-form="initial" 
d="M-49 192q0 8 11 14t19 6h514v23q0 22 -7.5 40.5t-25 32t-45 21.5t-67.5 8h-275q-17 0 -23 6.5t-7 18.5q0 2 -0.5 9.5t-1 16t-0.5 15.5v8q0 28 4.5 53t13.5 49t21.5 49t28.5 54l78 145q5 8 12 13t18 5h168q14 0 14 -11q0 -4 -3 -10l-95 -182l-25 -47q18 1 30.5 2t23 1.5
t22 0.5h28.5q106 0 171.5 -27t102.5 -74.5t50 -112t13 -140.5v-39q0 -7 -0.5 -22t-2 -32.5t-3.5 -34.5t-4 -27q-2 -8 -6.5 -13t-17.5 -6q-19 -2 -50.5 -2.5t-68 -1.5t-75.5 -1h-72h-438q-8 0 -19 6t-11 14v172z" />
    <glyph glyph-name="KafFarsiMed" unicode="&#x6a9;" horiz-adv-x="792" arabic-form="medial" 
d="M-49 192q0 8 11 14t19 6h514v23q0 22 -7.5 40.5t-25 32t-45 21.5t-67.5 8h-275q-17 0 -23 6.5t-7 18.5q0 2 -0.5 9.5t-1 15.5t-0.5 15v8q0 28 4.5 52.5t13.5 48.5t21.5 49t28.5 54l78 147q5 8 12 13t18 5h168q14 0 14 -11q0 -4 -3 -10l-94 -180l-26 -49q18 1 31 2t25 1.5
t24 0.5h29q91 0 153.5 -22.5t101.5 -61.5t56.5 -91t19.5 -110v-36h75v-212h-812q-8 0 -19 6t-11 14v172z" />
    <glyph glyph-name="GafSep" unicode="&#x6af;" horiz-adv-x="1060" arabic-form="isolated" 
d="M30 235q0 5 0.5 15.5t2 23l3 25t4.5 21.5t7.5 15t15.5 6h150q20 0 20 -19q0 -6 -0.5 -19t-0.5 -20q0 -18 4 -31t16.5 -22t36.5 -13.5t63 -4.5h429v23q0 22 -7.5 40.5t-25 32t-45 21.5t-67.5 8h-234q-15 0 -19.5 6.5t-6.5 18.5l-4 25q-1 5 -1.5 9.5t-0.5 8.5q0 10 4 19.5
t13 26.5l167 310q5 8 12 13t18 5h129q13 0 13 -11q0 -4 -3 -10l-94 -180l-26 -49q22 2 34 3t31 1q106 0 171.5 -27t102.5 -74.5t50 -112t13 -140.5v-39q0 -7 -0.5 -22t-2 -32.5t-3.5 -34.5t-4 -27q-2 -8 -6.5 -13t-16.5 -6q-67 -3 -133.5 -4t-133.5 -1h-396
q-95 0 -150.5 20.5t-84 54t-36.5 75.5t-8 85zM322 591q-2 10 -2 16q0 9 5 17l75 139q9 16 28 16h60q14 0 14 -11q0 -4 -3 -10l-139 -259q-4 -6 -10 -6q-7 0 -8 8z" />
    <glyph glyph-name="GafFin" unicode="&#x6af;" horiz-adv-x="1079" arabic-form="final" 
d="M30 235q0 5 0.5 15.5t2 23l3 25t4.5 21.5t7.5 15t15.5 6h150q20 0 20 -19q0 -6 -0.5 -19t-0.5 -20q0 -18 4 -31t16.5 -22t36.5 -13.5t63 -4.5h429v21q0 22 -7.5 41t-25 33t-45 22t-67.5 8h-234q-15 0 -19.5 6.5t-6.5 18.5l-4 25q-1 5 -1.5 9.5t-0.5 8.5q0 10 4 19.5
t13 26.5l167 310q5 8 12 13t18 5h129q13 0 13 -11q0 -4 -3 -10l-94 -180l-26 -49q22 2 34.5 3t31.5 1q91 0 154 -22.5t102.5 -61.5t58 -91t20.5 -110v-36h75v-212h-770q-95 0 -150.5 20.5t-84 54t-36.5 75.5t-8 85zM322 591q-2 10 -2 16q0 9 5 17l75 139q9 16 28 16h60
q14 0 14 -11q0 -4 -3 -10l-139 -259q-4 -6 -10 -6q-7 0 -8 8z" />
    <glyph glyph-name="GafIni" unicode="&#x6af;" horiz-adv-x="852" arabic-form="initial" 
d="M-10 0q-8 0 -19 6t-11 14v172q0 8 11 14t19 6h582q1 2 1 12v11q0 22 -7.5 40.5t-24 32t-44 21.5t-67.5 8h-266q-15 0 -19.5 6.5t-6.5 18.5l-4 25q-1 5 -1.5 9.5t-0.5 8.5q0 10 4 19t13 26l167 311q5 8 12 13t18 5h129q13 0 13 -11q0 -4 -3 -10l-95 -181l-25 -48
q36 2 62 3t43 1q106 0 170.5 -28.5t99 -76.5t46 -112.5t11.5 -136.5v-39q0 -11 -0.5 -26.5t-2 -32t-3.5 -32t-4 -25.5q-2 -8 -7 -13t-17 -6q-64 -3 -131.5 -4t-134.5 -1h-507zM84 591q-2 10 -2 16q0 9 5 17l75 139q9 16 28 16h60q14 0 14 -11q0 -4 -3 -10l-139 -259
q-4 -6 -10 -6q-7 0 -8 8z" />
    <glyph glyph-name="GafMed" unicode="&#x6af;" horiz-adv-x="871" arabic-form="medial" 
d="M-40 192q0 8 11 14t19 6h582q1 2 1 12v11q0 22 -7.5 40.5t-24 32t-44 21.5t-67.5 8h-266q-15 0 -19.5 6.5t-6.5 18.5l-4 25q-1 5 -1.5 9.5t-0.5 8.5q0 10 4 19t13 26l167 311q5 8 12 13t18 5h129q13 0 13 -11q0 -4 -3 -10l-94 -180l-26 -49q32 2 60 3t45 1
q91 0 153 -22.5t100 -61.5t54.5 -91t18.5 -110v-36h75v-212h-881q-8 0 -19 6t-11 14v172zM84 591q-2 10 -2 16q0 9 5 17l75 139q9 16 28 16h60q14 0 14 -11q0 -4 -3 -10l-139 -259q-4 -6 -10 -6q-7 0 -8 8z" />
    <glyph glyph-name="NoonGhunnaSep" unicode="&#x6ba;" horiz-adv-x="734" arabic-form="isolated" 
d="M228 342q8 0 14 -5t6 -13q-1 -18 -1.5 -37t-0.5 -31q0 -59 5 -103t21.5 -73.5t46.5 -44t81 -14.5h25t32 2q2 39 2 78.5v79.5v275q0 9 7 15t16 6h173q9 0 15.5 -6t6.5 -15v-396q0 -53 -1 -101t-5 -94q-2 -19 -22 -24q-54 -14 -108 -22t-119 -8q-82 0 -152 15.5t-121 54
t-80 104.5t-29 167q0 13 1 34t3.5 44t5.5 47t7 45q2 8 6.5 14t16.5 6h148z" />
    <glyph glyph-name="NoonGhunnaFin" unicode="&#x6ba;" horiz-adv-x="756" arabic-form="final" 
d="M228 342q8 0 14 -5t6 -13q-1 -18 -1.5 -37t-0.5 -31q0 -59 5 -103t21.5 -73.5t46.5 -44t81 -14.5h25t32 2q2 39 2 78.5v79.5v275q0 9 7 15t16 6h170q9 0 15.5 -6t6.5 -15v-244h82v-212h-82q-1 -38 -1.5 -69t-2.5 -66q0 -18 -22 -24q-53 -14 -107 -22t-119 -8
q-82 0 -152 15.5t-121 54t-80 104.5t-29 167q0 13 1 34t3.5 44t5.5 47t7 45q2 8 6.5 14t16.5 6h148z" />
    <glyph glyph-name="HehYehAboveSep" unicode="&#x6c0;" horiz-adv-x="594" arabic-form="isolated" 
d="M46 252q0 143 79.5 214.5t237.5 71.5q19 0 42.5 -1.5t46 -4.5t40.5 -6.5t26 -7.5q11 -5 15.5 -9.5t4.5 -12.5v-283q0 -13 -0.5 -35t-1 -47.5t-2 -51.5t-4.5 -48q-2 -11 -7.5 -14.5t-16.5 -5.5q-18 -3 -39.5 -5.5t-43.5 -3.5t-42 -1.5t-36 -0.5h-23q-135 0 -205.5 62.5
t-70.5 178.5v11zM240 270q0 -30 15.5 -48t50.5 -18h38v151q-5 1 -15 1h-14q-40 0 -57.5 -22.5t-17.5 -54.5v-9zM206 617q-13 0 -13 11v54q0 9 13 9h22q-8 13 -11 26.5t-3 28.5q0 45 25.5 68t81.5 23q11 0 31 -1t37 -6q10 -2 10 -10v-48q0 -10 -13 -10h-41q-23 0 -33 -6
t-10 -25q0 -11 3 -22t14 -16h77q13 0 13 -10v-55q0 -11 -13 -11h-190z" />
    <glyph glyph-name="HehYehAboveFin" unicode="&#x6c0;" horiz-adv-x="624" arabic-form="final" 
d="M46 262q0 143 82 212t240 69q19 0 42.5 -1.5t46 -3.5t40.5 -5t26 -6q20 -8 20 -22v-261q0 -19 9 -25.5t29 -6.5h43v-212h-61q-56 0 -96 9t-69 34q-20 -13 -52 -18.5t-65 -5.5h-6q-51 0 -93 14t-72 42.5t-47 71.5t-17 101v14zM240 281q0 -29 12.5 -46t43.5 -17h8
q16 0 30.5 7t14.5 27v114q-9 1 -16.5 1h-11.5q-40 0 -60.5 -20.5t-20.5 -52.5v-13zM211 617q-13 0 -13 11v54q0 9 13 9h22q-8 13 -11 26.5t-3 28.5q0 45 25.5 68t81.5 23q11 0 31 -1t37 -6q10 -2 10 -10v-48q0 -10 -13 -10h-41q-23 0 -33 -6t-10 -25q0 -11 3 -22t14 -16h77
q13 0 13 -10v-55q0 -11 -13 -11h-190z" />
    <glyph glyph-name="HehGoalSep" unicode="&#x6c1;" horiz-adv-x="594" arabic-form="isolated" 
d="M46 252q0 143 79.5 214.5t237.5 71.5q19 0 42.5 -1.5t46 -4.5t40.5 -6.5t26 -7.5q11 -5 15.5 -9.5t4.5 -12.5v-283q0 -13 -0.5 -35t-1 -47.5t-2 -51.5t-4.5 -48q-2 -11 -7.5 -14.5t-16.5 -5.5q-18 -3 -39.5 -5.5t-43.5 -3.5t-42 -1.5t-36 -0.5h-23q-135 0 -205.5 62.5
t-70.5 178.5v11zM240 270q0 -30 15.5 -48t50.5 -18h38v151q-5 1 -15 1h-14q-40 0 -57.5 -22.5t-17.5 -54.5v-9z" />
    <glyph glyph-name="HehGoalFin" unicode="&#x6c1;" horiz-adv-x="716" arabic-form="final" 
d="M433 423q21 0 48 -1t53 -3t48 -4.5t34 -4.5q8 -2 14.5 -6t6.5 -15v-145q0 -19 6.5 -25.5t26.5 -6.5h46v-212h-90q-41 0 -75 5.5t-59.5 23t-39.5 51t-14 90.5v45q-8 1 -10.5 1h-8.5q-52 0 -83 -14.5t-47.5 -48t-21.5 -88.5t-5 -137v-23q0 -19 -20 -19h-165q-11 0 -16 6
t-6 15q-3 26 -4 49t-1 50q0 121 27.5 201.5t78 128.5t121 67.5t156.5 19.5z" />
    <glyph glyph-name="HehGoalIni" unicode="&#x6c1;" horiz-adv-x="341" arabic-form="initial" 
d="M77 -281q-12 0 -17 20q-1 7 -2.5 24t-1.5 37q0 29 4 61.5t12 53.5q3 9 6 14.5t11 5.5h108q10 0 15 -3t3 -14q-5 -27 -7 -53t-2 -55q0 -26 1 -45.5t3 -28.5q2 -11 -3.5 -14t-14.5 -3h-115zM-40 203q0 4 12 6.5t18 2.5h45q15 0 22.5 3.5t7.5 23.5v229q0 7 5.5 13t16.5 6
h168q14 0 19.5 -5.5t6.5 -13.5q2 -58 3 -107.5t1 -91.5v-83t-0.5 -61.5t-2 -46.5t-3.5 -38q-1 -9 -6 -16.5t-17 -9.5q-16 -3 -43.5 -5.5t-59.5 -4.5t-65 -3t-60 -1h-38q-6 0 -18 2.5t-12 6.5v194z" />
    <glyph glyph-name="HehGoalMed" unicode="&#x6c1;" horiz-adv-x="646" arabic-form="medial" 
d="M-40 192q0 8 11 14t19 6h52q1 25 2.5 50.5t4.5 45.5q1 8 6 14t16 6h164q20 0 20 -18t0.5 -41.5t0.5 -35.5q0 -83 3.5 -137t15 -85.5t32.5 -44t56 -12.5h8t11 1l1 25q3 54 16 97t40.5 73t72 46t110.5 16h24v-212h-5q-22 0 -35 -5.5t-20 -17.5t-9 -29.5t-2 -41.5v-123
q0 -11 -6 -15.5t-14 -6.5q-10 -2 -33 -4t-51.5 -4t-58.5 -3.5t-54 -1.5q-63 0 -116.5 13t-94 42.5t-66 77.5t-31.5 119h-60q-8 0 -19 6t-11 14v172z" />
    <glyph glyph-name="HehDoaSep" unicode="&#x6be;" horiz-adv-x="920" arabic-form="isolated" 
d="M50 187q0 8 6 14t14 6h105v49q0 45 14 78.5t39.5 56t60.5 34.5t78 15v125q0 9 6 15t14 8q15 4 32.5 6t34 3.5t31 2t22.5 0.5q69 0 135 -18t117.5 -59.5t83 -108t31.5 -162.5v-46q0 -18 -0.5 -41t-1.5 -46.5t-3 -46t-5 -40.5q-2 -9 -7 -17t-16 -10q-15 -2 -49 -2.5
t-73 -1.5t-76 -1h-59h-514q-8 0 -14 6t-6 14v167zM603 258v-51h42q10 0 15 2.5t5 15.5v24q0 32 -9 61t-27 51.5t-45 36t-63 15.5q39 -21 60.5 -59t21.5 -96zM346 236q0 -14 3 -22.5t9 -12.5t14 -5t17 -1q19 0 31.5 6t12.5 35v11q0 29 -12 37.5t-32 8.5q-19 0 -31 -8.5
t-12 -37.5v-11z" />
    <glyph glyph-name="HehDoaFin" unicode="&#x6be;" horiz-adv-x="775" arabic-form="final" 
d="M70 0q-8 0 -14 6t-6 14v167q0 8 6 14t14 6h103v266q0 14 7 27.5t27 19.5q18 5 41.5 8.5t47.5 5.5t47 3t41 1q65 0 119 -13.5t92.5 -42t60 -73t21.5 -107.5q0 -14 -1 -28.5t-4 -29.5q-3 -18 -9 -36q14 2 28.5 3t29.5 1h54v-212h-32h-19.5h-20t-17 -0.5t-10.5 -1.5v-24
q0 -65 -19.5 -109.5t-54 -72.5t-80.5 -40t-100 -12q-124 0 -186.5 58t-62.5 180v22h-103zM392 203q28 0 45 7.5t26 20t12 27.5t3 30v4q0 40 -26 52t-65 12q-5 0 -10 -0.5t-10 -1.5v-151h25zM402 9q-8 -2 -16.5 -2.5t-17.5 -1.5v-11q0 -41 16.5 -55.5t42.5 -14.5q30 0 45 12
t15 44v25.5t2 22.5q-37 -13 -87 -19z" />
    <glyph glyph-name="HehDoaIni" unicode="&#x6be;" horiz-adv-x="783" arabic-form="initial" 
d="M-40 192q0 8 11 14t19 6h48v44q0 45 14 78.5t39.5 56t60.5 34.5t78 15v125q0 9 6 15t14 8q15 4 32.5 6t34 3.5t31 2t22.5 0.5q69 0 135 -18t117.5 -59.5t83 -108t31.5 -162.5v-46q0 -18 -0.5 -41t-1.5 -46.5t-3 -46t-5 -40.5q-2 -9 -7 -17t-16 -10q-15 -2 -49 -2.5
t-73 -1.5t-76 -1h-59h-457q-8 0 -19 6t-11 14v172zM466 258v-46h42q10 0 15 2.5t5 15.5v19q0 32 -9 61t-27 51.5t-45 36t-63 15.5q39 -21 60.5 -59t21.5 -96zM209 236q0 -14 3 -22.5t9 -12.5t14 -5t17 -1q19 0 31.5 6t12.5 35v11q0 29 -12 37.5t-32 8.5q-19 0 -31 -8.5
t-12 -37.5v-11z" />
    <glyph glyph-name="HehDoaMed" unicode="&#x6be;" horiz-adv-x="645" arabic-form="medial" 
d="M0 0q-6 0 -18 2t-12 6v197q0 3 12 5t18 2h75v263q0 14 7 27.5t27 19.5q18 5 41 8.5t46 5.5t45.5 3t40.5 1q65 0 119.5 -13.5t94 -42.5t61.5 -74t22 -108q0 -14 -1 -28.5t-4 -29.5q-3 -18 -9 -36q14 2 28.5 3t29.5 1h34v-212h-12h-19h-20t-17.5 -0.5t-10.5 -1.5v-24
q0 -65 -19.5 -109.5t-54 -72.5t-81 -40t-100.5 -12q-248 0 -248 242v18h-75zM294 203q28 0 45 7.5t26 20t12 27.5t3 30v4q0 40 -26 53t-65 13q-5 0 -10 -0.5t-10 -1.5v-153h25zM305 9q-8 -2 -17 -2.5t-18 -1.5v-11q0 -41 16.5 -55.5t41.5 -14.5q31 0 46 12t15 44v25.5
t2 22.5q-37 -13 -86 -19z" />
    <glyph glyph-name="YehBarreeSep" unicode="&#x6d2;" horiz-adv-x="1159" arabic-form="isolated" 
d="M50 110q0 50 7 103.5t30 104.5q29 64 70.5 102t91 57.5t105.5 25t115 5.5h74q15 0 22.5 3.5t7.5 24.5v26.5v25.5v33.5t-1 49.5q0 7 6 13t17 6h163q23 0 25 -19q4 -59 5 -90t1 -49v-29q0 -36 -1 -70.5t-5 -69.5q-2 -9 -7 -23.5t-16 -16.5q-14 -3 -43 -5.5t-63 -3.5
t-66.5 -1.5t-54.5 -0.5h-68q-31 0 -62 -2.5t-56.5 -11t-43 -25.5t-21.5 -46l-1 -7q-2 -8 9 -8h799q8 0 14 -6t6 -14v-172q0 -8 -6 -14t-14 -6h-720h-38.5t-54 0.5t-61 1t-59 1.5t-48 2t-28.5 2q-12 2 -17 8.5t-6 14.5q-3 20 -5 40t-2 40z" />
    <glyph glyph-name="YehBarreeFin" unicode="&#x6d2;" horiz-adv-x="875" arabic-form="final" 
d="M899 -79v-156q0 -8 -6 -14t-14 -6h-655h-47t-50.5 1t-45 1.5t-30.5 2.5q-12 2 -16.5 8.5t-6.5 14.5q-2 9 -3.5 23t-2.5 29t-1.5 28.5t-0.5 21.5q0 76 24 144.5t84 116.5q42 33 101 54.5t142 21.5h504v-212h-543q-45 0 -68 -10.5t-31 -40.5l-1 -4q-1 -4 5 -4h642
q8 0 14 -6t6 -14z" />
    <glyph glyph-name="YehBarreeHamzaAboveSep" unicode="&#x6d3;" horiz-adv-x="1159" arabic-form="isolated" 
d="M50 110q0 50 7 103.5t30 104.5q29 64 70.5 102t91 57.5t105.5 25t115 5.5h74q15 0 22.5 3.5t7.5 24.5v26.5v25.5v33.5t-1 49.5q0 7 6 13t17 6h163q23 0 25 -19q4 -59 5 -90t1 -49v-29q0 -36 -1 -70.5t-5 -69.5q-2 -9 -7 -23.5t-16 -16.5q-14 -3 -43 -5.5t-63 -3.5
t-66.5 -1.5t-54.5 -0.5h-68q-31 0 -62 -2.5t-56.5 -11t-43 -25.5t-21.5 -46l-1 -7q-2 -8 9 -8h799q8 0 14 -6t6 -14v-172q0 -8 -6 -14t-14 -6h-720h-38.5t-54 0.5t-61 1t-59 1.5t-48 2t-28.5 2q-12 2 -17 8.5t-6 14.5q-3 20 -5 40t-2 40zM571 760q-13 0 -13 11v54q0 9 13 9
h22q-8 13 -11 26.5t-3 28.5q0 45 25.5 68t81.5 23q11 0 31 -1t37 -6q10 -2 10 -10v-48q0 -10 -13 -10h-41q-23 0 -33 -6t-10 -25q0 -11 3 -22t14 -16h77q13 0 13 -10v-55q0 -11 -13 -11h-190z" />
    <glyph glyph-name="YehBarreeHamzaAboveFin" unicode="&#x6d3;" horiz-adv-x="875" arabic-form="final" 
d="M899 -79v-156q0 -8 -6 -14t-14 -6h-655h-47t-50.5 1t-45 1.5t-30.5 2.5q-12 2 -16.5 8.5t-6.5 14.5q-2 9 -3.5 23t-2.5 29t-1.5 28.5t-0.5 21.5q0 76 24 144.5t84 116.5q42 33 101 54.5t142 21.5h504v-212h-543q-45 0 -68 -10.5t-31 -40.5l-1 -4q-1 -4 5 -4h642
q8 0 14 -6t6 -14zM71 287q-13 0 -13 11v54q0 9 13 9h22q-8 13 -11 26.5t-3 28.5q0 45 25.5 68t81.5 23q11 0 31 -1t37 -6q10 -2 10 -10v-48q0 -10 -13 -10h-41q-23 0 -33 -6t-10 -25q0 -11 3 -22t14 -16h77q13 0 13 -10v-55q0 -11 -13 -11h-190z" />
    <glyph glyph-name="AlefMaqsuraIni" unicode="&#x649;" horiz-adv-x="341" arabic-form="initial" 
d="M-40 203q0 4 12 6.5t18 2.5h45q15 0 22.5 3.5t7.5 23.5v229q0 7 5.5 13t16.5 6h168q14 0 19.5 -5.5t6.5 -13.5q2 -58 3 -107.5t1 -91.5v-83t-0.5 -61.5t-2 -46.5t-3.5 -38q-1 -9 -6 -16.5t-17 -9.5q-16 -3 -43.5 -5.5t-59.5 -4.5t-65 -3t-60 -1h-38q-6 0 -18 2.5t-12 6.5
v194z" />
    <glyph glyph-name="AlefMaqsuraMed" unicode="&#x649;" horiz-adv-x="365" arabic-form="medial" 
d="M-40 203q0 2 3.5 3.5t8.5 3t10 2t8 0.5h44q15 0 23 4t8 24v221q0 9 6.5 15t16.5 6h173q9 0 15.5 -6t6.5 -15v-245q7 -2 17 -3t18 -1h47v-212h-14q-51 0 -97.5 6.5t-78.5 28.5q-16 -10 -36.5 -17t-42.5 -11t-44.5 -5.5t-43.5 -1.5h-18q-3 0 -8 0.5t-10 2t-8.5 3t-3.5 3.5
v194z" />
    <glyph glyph-name="YehFarsiSep" unicode="&#x6cc;" horiz-adv-x="1060" arabic-form="isolated" 
d="M230 342q8 0 14 -5t6 -13q-1 -18 -2.5 -37t-1.5 -31q0 -59 6.5 -104t25.5 -75t54.5 -45.5t93.5 -15.5q10 0 24 0.5t32 2.5q2 39 2.5 73t0.5 74v51q0 260 325 260q23 0 49 -1t50 -3t43.5 -4.5t31.5 -4.5q8 -2 14 -6.5t6 -14.5v-422q0 -9 -6.5 -15t-16.5 -6h-168
q-9 0 -15.5 6t-6.5 15v263q-11 1 -15.5 1h-9.5q-44 0 -58.5 -22.5t-14.5 -67.5v-135q0 -53 -1 -103.5t-3 -99.5q0 -20 -22 -24q-58 -11 -121.5 -16.5t-117.5 -5.5q-91 0 -163 18.5t-122 60.5t-76.5 111t-26.5 170q0 27 4 68t13 83q2 8 6.5 14t16.5 6h150z" />
    <glyph glyph-name="YehFarsiFin" unicode="&#x6cc;" horiz-adv-x="1056" arabic-form="final" 
d="M230 342q8 0 14 -5t6 -13q-1 -18 -2.5 -37t-1.5 -31q0 -59 6.5 -104t25.5 -75t54.5 -45.5t93.5 -15.5q10 0 24 0.5t32 2.5q2 39 2.5 73t0.5 74v52q0 132 80 195.5t245 63.5q47 0 90 -4t66 -9q8 -2 14 -6.5t6 -14.5v-199q0 -19 7 -25.5t27 -6.5h36v-212h-85q-41 0 -75 5.5
t-59.5 23t-39.5 51t-14 90.5v114q-5 1 -8.5 1h-8.5q-44 0 -58.5 -22.5t-14.5 -67.5v-135q0 -53 -1 -103.5t-3 -99.5q0 -20 -22 -24q-58 -11 -121 -16.5t-117 -5.5q-92 0 -164 18.5t-122 60.5t-76.5 110.5t-26.5 169.5q0 27 4 68.5t13 83.5q2 8 6.5 14t16.5 6h150z" />
    <glyph glyph-name="YehFarsiIni" unicode="&#x6cc;" horiz-adv-x="341" arabic-form="initial" 
d="M-40 203q0 4 12 6.5t18 2.5h45q15 0 22.5 3.5t7.5 23.5v229q0 7 5.5 13t16.5 6h168q14 0 19.5 -5.5t6.5 -13.5q2 -58 3 -107.5t1 -91.5v-83t-0.5 -61.5t-2 -46.5t-3.5 -38q-1 -9 -6 -16.5t-17 -9.5q-16 -3 -43.5 -5.5t-59.5 -4.5t-65 -3t-60 -1h-38q-6 0 -18 2.5t-12 6.5
v194zM-69 -102q0 8 6 13t14 5h118q8 0 14.5 -5t6.5 -13v-112q0 -7 -6.5 -12.5t-14.5 -5.5h-118q-8 0 -14 5.5t-6 12.5v112zM149 -102q0 8 6 13t14 5h118q8 0 14.5 -5t6.5 -13v-112q0 -7 -6.5 -12.5t-14.5 -5.5h-118q-8 0 -14 5.5t-6 12.5v112z" />
    <glyph glyph-name="YehFarsiMed" unicode="&#x6cc;" horiz-adv-x="365" arabic-form="medial" 
d="M-40 203q0 2 3.5 3.5t8.5 3t10 2t8 0.5h44q15 0 23 4t8 24v221q0 9 6.5 15t16.5 6h173q9 0 15.5 -6t6.5 -15v-245q7 -2 17 -3t18 -1h47v-212h-14q-51 0 -97.5 6.5t-78.5 28.5q-16 -10 -36.5 -17t-42.5 -11t-44.5 -5.5t-43.5 -1.5h-18q-3 0 -8 0.5t-10 2t-8.5 3t-3.5 3.5
v194zM-23 -102q0 8 6 13t14 5h118q8 0 14.5 -5t6.5 -13v-112q0 -7 -6.5 -12.5t-14.5 -5.5h-118q-8 0 -14 5.5t-6 12.5v112zM195 -102q0 8 6 13t14 5h118q8 0 14.5 -5t6.5 -13v-112q0 -7 -6.5 -12.5t-14.5 -5.5h-118q-8 0 -14 5.5t-6 12.5v112z" />
    <glyph glyph-name="ShaddaDammatanNS" unicode="&#xfc5e;" horiz-adv-x="0" arabic-form="isolated" 
d="M-60 730q-36 0 -50 21.5t-14 59.5q0 13 0.5 21.5t1.5 21.5q2 12 12 12h35q5 0 8.5 -3.5t3.5 -8.5l-1.5 -21t-0.5 -15q0 -22 4 -28t12 -6h3q7 0 11.5 4.5t4.5 17.5v46q0 5 3.5 8t8.5 3h36q5 0 8.5 -3t3.5 -8v-46q0 -13 4.5 -17.5t10.5 -4.5h3q8 0 12.5 6t4.5 28
q0 8 -0.5 15.5t-1.5 20.5q0 5 3.5 8.5t8.5 3.5h35q5 0 8.5 -3.5t3.5 -8.5q2 -16 2 -23v-20q0 -38 -15.5 -59.5t-50.5 -21.5h-4q-17 0 -29.5 3.5t-21.5 15.5h-4q-10 -12 -24 -15.5t-31 -3.5h-4zM-144 995q0 10 13 10h52q10 0 12 -10q2 -15 4 -24q6 -21 27 -21h5
q-1 7 -1.5 12.5t-0.5 13.5q0 35 23.5 55.5t58.5 20.5q38 0 61.5 -19t23.5 -54q0 -38 -23.5 -59.5t-78.5 -21.5h-67q-12 0 -25 1.5t-24 7.5t-19.5 17t-12.5 31h-15q-13 0 -13 10v30zM46 950q16 0 22 7.5t6 18.5t-6 17.5t-18 6.5q-10 0 -17 -7t-7 -21t4 -22h16z" />
    <glyph glyph-name="ShaddaKasratanNS" unicode="&#xfc5f;" horiz-adv-x="0" arabic-form="isolated" 
d="M-60 922q-36 0 -50 21.5t-14 59.5q0 13 0.5 21.5t1.5 21.5q2 12 12 12h35q5 0 8.5 -3.5t3.5 -8.5l-1.5 -21t-0.5 -15q0 -22 4 -28t12 -6h3q7 0 11.5 4.5t4.5 17.5v46q0 5 3.5 8t8.5 3h36q5 0 8.5 -3t3.5 -8v-46q0 -13 4.5 -17.5t10.5 -4.5h3q8 0 12.5 6t4.5 28
q0 8 -0.5 15.5t-1.5 20.5q0 5 3.5 8.5t8.5 3.5h35q5 0 8.5 -3.5t3.5 -8.5q2 -16 2 -23v-20q0 -38 -15.5 -59.5t-50.5 -21.5h-4q-17 0 -29.5 3.5t-21.5 15.5h-4q-10 -12 -24 -15.5t-31 -3.5h-4zM-125 787q0 10 13 10h224q13 0 13 -10v-34q0 -10 -13 -10h-224q-13 0 -13 10v34
zM-125 877q0 10 13 10h224q13 0 13 -10v-34q0 -10 -13 -10h-224q-13 0 -13 10v34z" />
    <glyph glyph-name="ShaddaFathaNS" unicode="&#xfc60;" horiz-adv-x="0" arabic-form="isolated" 
d="M-60 730q-36 0 -50 21.5t-14 59.5q0 13 0.5 21.5t1.5 21.5q2 12 12 12h35q5 0 8.5 -3.5t3.5 -8.5l-1.5 -21t-0.5 -15q0 -22 4 -28t12 -6h3q7 0 11.5 4.5t4.5 17.5v46q0 5 3.5 8t8.5 3h36q5 0 8.5 -3t3.5 -8v-46q0 -13 4.5 -17.5t10.5 -4.5h3q8 0 12.5 6t4.5 28
q0 8 -0.5 15.5t-1.5 20.5q0 5 3.5 8.5t8.5 3.5h35q5 0 8.5 -3.5t3.5 -8.5q2 -16 2 -23v-20q0 -38 -15.5 -59.5t-50.5 -21.5h-4q-17 0 -29.5 3.5t-21.5 15.5h-4q-10 -12 -24 -15.5t-31 -3.5h-4zM-125 947q0 10 13 10h224q13 0 13 -10v-34q0 -10 -13 -10h-224q-13 0 -13 10v34
z" />
    <glyph glyph-name="ShaddaDammaNS" unicode="&#xfc61;" horiz-adv-x="0" arabic-form="isolated" 
d="M-60 730q-36 0 -50 21.5t-14 59.5q0 13 0.5 21.5t1.5 21.5q2 12 12 12h35q5 0 8.5 -3.5t3.5 -8.5l-1.5 -21t-0.5 -15q0 -22 4 -28t12 -6h3q7 0 11.5 4.5t4.5 17.5v46q0 5 3.5 8t8.5 3h36q5 0 8.5 -3t3.5 -8v-46q0 -13 4.5 -17.5t10.5 -4.5h3q8 0 12.5 6t4.5 28
q0 8 -0.5 15.5t-1.5 20.5q0 5 3.5 8.5t8.5 3.5h35q5 0 8.5 -3.5t3.5 -8.5q2 -16 2 -23v-20q0 -38 -15.5 -59.5t-50.5 -21.5h-4q-17 0 -29.5 3.5t-21.5 15.5h-4q-10 -12 -24 -15.5t-31 -3.5h-4zM-129 940q0 10 13 10h82q-2 7 -2 12.5v13.5q0 35 23.5 55.5t58.5 20.5
q38 0 61 -19t23 -54q0 -38 -23.5 -59.5t-77.5 -21.5h-145q-13 0 -13 10v32zM43 950q16 0 22 7.5t6 18.5t-6.5 17.5t-17.5 6.5t-17.5 -7t-6.5 -21q0 -13 3 -22h17z" />
    <glyph glyph-name="ShaddaKasraNS" unicode="&#xfc62;" horiz-adv-x="0" arabic-form="isolated" 
d="M-60 832q-36 0 -50 21.5t-14 59.5q0 13 0.5 21.5t1.5 21.5q2 12 12 12h35q5 0 8.5 -3.5t3.5 -8.5l-1.5 -21t-0.5 -15q0 -22 4 -28t12 -6h3q7 0 11.5 4.5t4.5 17.5v46q0 5 3.5 8t8.5 3h36q5 0 8.5 -3t3.5 -8v-46q0 -13 4.5 -17.5t10.5 -4.5h3q8 0 12.5 6t4.5 28
q0 8 -0.5 15.5t-1.5 20.5q0 5 3.5 8.5t8.5 3.5h35q5 0 8.5 -3.5t3.5 -8.5q2 -16 2 -23v-20q0 -38 -15.5 -59.5t-50.5 -21.5h-4q-17 0 -29.5 3.5t-21.5 15.5h-4q-10 -12 -24 -15.5t-31 -3.5h-4zM-126 787q0 10 13 10h224q13 0 13 -10v-34q0 -10 -13 -10h-224q-13 0 -13 10v34
z" />
    <glyph glyph-name="ShaddaSmallAlefAboveNS" unicode="&#xfc63;" horiz-adv-x="0" arabic-form="isolated" 
d="M-34 1010q0 10 11 10h45q11 0 11 -10v-107q0 -10 -11 -10h-45q-11 0 -11 10v107zM-60 730q-36 0 -50 21t-14 59q0 13 0.5 22t1.5 22q2 12 12 12h35q5 0 8.5 -3.5t3.5 -8.5l-1.5 -21t-0.5 -15q0 -22 4 -28t12 -6h3q7 0 11.5 4t4.5 17v46q0 5 3.5 8.5t8.5 3.5h36
q5 0 8.5 -3.5t3.5 -8.5v-46q0 -13 4.5 -17t10.5 -4h3q8 0 12.5 6t4.5 28q0 8 -0.5 15.5t-1.5 20.5q0 5 3.5 8.5t8.5 3.5h35q5 0 8.5 -3.5t3.5 -8.5q2 -17 2 -24v-20q0 -38 -15.5 -59t-50.5 -21h-4q-17 0 -29.5 3.5t-21.5 14.5h-4q-10 -12 -24 -15t-31 -3h-4z" />
    <glyph glyph-name="HamzaSep" unicode="&#x621;" horiz-adv-x="489" arabic-form="isolated" 
d="M61 29q-16 0 -16 17v136q0 17 16 17h31q-9 28 -9 74q0 57 17.5 93t47 57t68 28.5t80.5 7.5q29 0 51 -2.5t49 -9.5q19 -3 19 -17v-114q0 -10 -2.5 -14.5t-12.5 -3.5q-23 1 -37.5 1.5t-29.5 0.5q-42 0 -58.5 -12t-16.5 -44q0 -33 20 -45h145q16 0 16 -17v-136
q0 -17 -16 -17h-362z" />
    <glyph glyph-name="AlefMaddaSep" unicode="&#x622;" horiz-adv-x="350" arabic-form="isolated" 
d="M65 758q0 9 6.5 15t16.5 6h175q10 0 16 -6t6 -15v-736q0 -9 -6 -15.5t-16 -6.5h-175q-10 0 -16.5 6.5t-6.5 15.5v736zM5 827q-7 0 -11.5 4t-3.5 11q3 26 8 45.5t15 34.5q29 47 92 47q20 0 39 -6.5t37 -14.5q15 -6 29.5 -10t31.5 -4q20 0 31.5 3.5t22.5 8.5t19.5 8.5
t13.5 3.5q11 0 11 -12v-71q0 -12 -10 -19q-17 -11 -39 -17.5t-48 -6.5q-23 0 -44 5t-57 22q-11 5 -17.5 6.5t-11.5 1.5q-11 0 -14 -12l-5 -13q-3 -15 -15 -15h-74z" />
    <glyph glyph-name="AlefMaddaFin" unicode="&#x622;" horiz-adv-x="364" arabic-form="final" 
d="M65 758q0 9 6.5 15t16.5 6h172q10 0 16.5 -6t6.5 -15v-514q0 -19 9 -25.5t29 -6.5h43v-212h-112q-40 0 -74.5 5.5t-59.5 23t-39 51t-14 90.5v588zM4 827q-7 0 -11.5 4t-3.5 11q3 26 8 45.5t15 34.5q29 47 92 47q20 0 39 -6.5t37 -14.5q15 -6 29.5 -10t31.5 -4
q20 0 31.5 3.5t22.5 8.5t19.5 8.5t13.5 3.5q11 0 11 -12v-71q0 -12 -10 -19q-17 -11 -39 -17.5t-48 -6.5q-23 0 -44 5t-57 22q-11 5 -17.5 6.5t-11.5 1.5q-11 0 -14 -12l-5 -13q-3 -15 -15 -15h-74z" />
    <glyph glyph-name="AlefHamzaAboveSep" unicode="&#x623;" horiz-adv-x="350" arabic-form="isolated" 
d="M79 765q-13 0 -13 11v54q0 9 13 9h22q-8 13 -11 26.5t-3 28.5q0 45 25.5 68t81.5 23q11 0 31 -1t37 -6q10 -2 10 -10v-48q0 -10 -13 -10h-41q-23 0 -33 -6t-10 -25q0 -11 3 -22t14 -16h77q13 0 13 -10v-55q0 -11 -13 -11h-190zM65 689q0 9 6.5 15t16.5 6h175q10 0 16 -6
t6 -15v-667q0 -9 -6 -15.5t-16 -6.5h-175q-10 0 -16.5 6.5t-6.5 15.5v667z" />
    <glyph glyph-name="AlefHamzaAboveFin" unicode="&#x623;" horiz-adv-x="364" arabic-form="final" 
d="M77 765q-13 0 -13 11v54q0 9 13 9h22q-8 13 -11 26.5t-3 28.5q0 45 25.5 68t81.5 23q11 0 31 -1t37 -6q10 -2 10 -10v-48q0 -10 -13 -10h-41q-23 0 -33 -6t-10 -25q0 -11 3 -22t14 -16h77q13 0 13 -10v-55q0 -11 -13 -11h-190zM65 689q0 9 6.5 15t16.5 6h172
q10 0 16.5 -6t6.5 -15v-445q0 -19 6.5 -25.5t26.5 -6.5h48v-212h-112q-40 0 -74.5 5.5t-59.5 23t-39 51t-14 90.5v519z" />
    <glyph glyph-name="WawHamzaAboveSep" unicode="&#x624;" horiz-adv-x="604" arabic-form="isolated" 
d="M344 355q-5 1 -15 1h-14q-40 0 -57.5 -22.5t-17.5 -54.5v-13q0 -31 14 -49t52 -18t38 19v137zM82 -85q0 20 20 20h106q38 0 62 3t37.5 9t19 16t7.5 25l2 20q-7 -3 -27 -5.5t-35 -2.5q-48 0 -90 16t-72.5 46.5t-48 75.5t-17.5 103v11q0 143 79.5 214.5t237.5 71.5
q19 0 44.5 -1.5t50 -4.5t44.5 -6.5t28 -7.5q11 -5 15.5 -9.5t4.5 -12.5v-461q0 -95 -28 -151.5t-72 -86t-97 -38.5t-103 -9q-6 0 -27.5 0.5t-46.5 1t-47.5 2t-31.5 4.5q-15 4 -15 22v135zM199 617q-13 0 -13 11v54q0 9 13 9h22q-8 13 -11 26.5t-3 28.5q0 45 25.5 68t81.5 23
q11 0 31 -1t37 -6q10 -2 10 -10v-48q0 -10 -13 -10h-41q-23 0 -33 -6t-10 -25q0 -11 3 -22t14 -16h77q13 0 13 -10v-55q0 -11 -13 -11h-190z" />
    <glyph glyph-name="WawHamzaAboveFin" unicode="&#x624;" horiz-adv-x="629" arabic-form="final" 
d="M82 -85q0 20 20 20h106q38 0 62 3t38 9t19.5 16t7.5 25l1 12h-30q-125 0 -192.5 62.5t-67.5 178.5v11q0 143 79.5 214.5t237.5 71.5q19 0 44 -1.5t49 -4.5t43.5 -6.5t27.5 -7.5q11 -5 15.5 -9.5t4.5 -12.5v-284h82v-212h-85q0 -2 -0.5 -11.5t-1.5 -13.5
q-9 -73 -37.5 -117t-69 -68t-88.5 -32t-97 -8q-6 0 -27.5 0.5t-46.5 1t-47.5 2t-31.5 4.5q-15 4 -15 22v135zM240 271q0 -31 15.5 -49t50.5 -18h38v151q-5 1 -15 1h-14q-39 0 -57 -22.5t-18 -54.5v-8zM199 617q-13 0 -13 11v54q0 9 13 9h22q-8 13 -11 26.5t-3 28.5
q0 45 25.5 68t81.5 23q11 0 31 -1t37 -6q10 -2 10 -10v-48q0 -10 -13 -10h-41q-23 0 -33 -6t-10 -25q0 -11 3 -22t14 -16h77q13 0 13 -10v-55q0 -11 -13 -11h-190z" />
    <glyph glyph-name="AlefHamzaBelowSep" unicode="&#x625;" horiz-adv-x="350" arabic-form="isolated" 
d="M65 758q0 9 6.5 15t16.5 6h175q10 0 16 -6t6 -15v-736q0 -9 -6 -15.5t-16 -6.5h-175q-10 0 -16.5 6.5t-6.5 15.5v736zM70 -277q-13 0 -13 11v54q0 9 13 9h22q-8 13 -11 26.5t-3 28.5q0 45 25.5 68t81.5 23q11 0 31 -1t37 -6q10 -2 10 -10v-48q0 -10 -13 -10h-41
q-23 0 -33 -6t-10 -25q0 -11 3 -22t14 -16h77q13 0 13 -10v-55q0 -11 -13 -11h-190z" />
    <glyph glyph-name="AlefHamzaBelowFin" unicode="&#x625;" horiz-adv-x="364" arabic-form="final" 
d="M65 758q0 9 6.5 15t16.5 6h172q10 0 16.5 -6t6.5 -15v-514q0 -19 9 -25.5t29 -6.5h43v-212h-112q-40 0 -74.5 5.5t-59.5 23t-39 51t-14 90.5v588zM88 -277q-13 0 -13 11v54q0 9 13 9h22q-8 13 -11 26.5t-3 28.5q0 45 25.5 68t81.5 23q11 0 31 -1t37 -6q10 -2 10 -10v-48
q0 -10 -13 -10h-41q-23 0 -33 -6t-10 -25q0 -11 3 -22t14 -16h77q13 0 13 -10v-55q0 -11 -13 -11h-190z" />
    <glyph glyph-name="YehHamzaAboveSep" unicode="&#x626;" horiz-adv-x="1060" arabic-form="isolated" 
d="M230 342q8 0 14 -5t6 -13q-1 -18 -2.5 -37t-1.5 -31q0 -59 6.5 -104t25.5 -75t54.5 -45.5t93.5 -15.5q10 0 24 0.5t32 2.5q2 39 2.5 73t0.5 74v51q0 260 325 260q23 0 49 -1t50 -3t43.5 -4.5t31.5 -4.5q8 -2 14 -6.5t6 -14.5v-422q0 -9 -6.5 -15t-16.5 -6h-168
q-9 0 -15.5 6t-6.5 15v263q-11 1 -15.5 1h-9.5q-44 0 -58.5 -22.5t-14.5 -67.5v-135q0 -53 -1 -103.5t-3 -99.5q0 -20 -22 -24q-58 -11 -121.5 -16.5t-117.5 -5.5q-91 0 -163 18.5t-122 60.5t-76.5 111t-26.5 170q0 27 4 68t13 83q2 8 6.5 14t16.5 6h150zM63 426
q-13 0 -13 11v54q0 9 13 9h22q-8 13 -11 26.5t-3 28.5q0 45 25.5 68t81.5 23q11 0 31 -1t37 -6q10 -2 10 -10v-48q0 -10 -13 -10h-41q-23 0 -33 -6t-10 -25q0 -11 3 -22t14 -16h77q13 0 13 -10v-55q0 -11 -13 -11h-190z" />
    <glyph glyph-name="YehHamzaAboveFin" unicode="&#x626;" horiz-adv-x="1056" arabic-form="final" 
d="M230 342q8 0 14 -5t6 -13q-1 -18 -2.5 -37t-1.5 -31q0 -59 6.5 -104t25.5 -75t54.5 -45.5t93.5 -15.5q10 0 24 0.5t32 2.5q2 39 2.5 73t0.5 74v52q0 132 80 195.5t245 63.5q47 0 90 -4t66 -9q8 -2 14 -6.5t6 -14.5v-199q0 -19 7 -25.5t27 -6.5h36v-212h-85q-41 0 -75 5.5
t-59.5 23t-39.5 51t-14 90.5v114q-5 1 -8.5 1h-8.5q-44 0 -58.5 -22.5t-14.5 -67.5v-135q0 -53 -1 -103.5t-3 -99.5q0 -20 -22 -24q-58 -11 -121 -16.5t-117 -5.5q-92 0 -164 18.5t-122 60.5t-76.5 110.5t-26.5 169.5q0 27 4 68.5t13 83.5q2 8 6.5 14t16.5 6h150zM63 426
q-13 0 -13 11v54q0 9 13 9h22q-8 13 -11 26.5t-3 28.5q0 45 25.5 68t81.5 23q11 0 31 -1t37 -6q10 -2 10 -10v-48q0 -10 -13 -10h-41q-23 0 -33 -6t-10 -25q0 -11 3 -22t14 -16h77q13 0 13 -10v-55q0 -11 -13 -11h-190z" />
    <glyph glyph-name="YehHamzaAboveIni" unicode="&#x626;" horiz-adv-x="341" arabic-form="initial" 
d="M-40 203q0 4 12 6.5t18 2.5h45q15 0 22.5 3.5t7.5 23.5v229q0 7 5.5 13t16.5 6h168q14 0 19.5 -5.5t6.5 -13.5q2 -58 3 -107.5t1 -91.5v-83t-0.5 -61.5t-2 -46.5t-3.5 -38q-1 -9 -6 -16.5t-17 -9.5q-16 -3 -43.5 -5.5t-59.5 -4.5t-65 -3t-60 -1h-38q-6 0 -18 2.5t-12 6.5
v194zM75 562q-13 0 -13 11v54q0 9 13 9h22q-8 13 -11 26.5t-3 28.5q0 45 25.5 68t81.5 23q11 0 31 -1t37 -6q10 -2 10 -10v-48q0 -10 -13 -10h-41q-23 0 -33 -6t-10 -25q0 -11 3 -22t14 -16h77q13 0 13 -10v-55q0 -11 -13 -11h-190z" />
    <glyph glyph-name="YehHamzaAboveMed" unicode="&#x626;" horiz-adv-x="365" arabic-form="medial" 
d="M-40 203q0 2 3.5 3.5t8.5 3t10 2t8 0.5h44q15 0 23 4t8 24v221q0 9 6.5 15t16.5 6h173q9 0 15.5 -6t6.5 -15v-245q7 -2 17 -3t18 -1h47v-212h-14q-51 0 -97.5 6.5t-78.5 28.5q-16 -10 -36.5 -17t-42.5 -11t-44.5 -5.5t-43.5 -1.5h-18q-3 0 -8 0.5t-10 2t-8.5 3t-3.5 3.5
v194zM75 562q-13 0 -13 11v54q0 9 13 9h22q-8 13 -11 26.5t-3 28.5q0 45 25.5 68t81.5 23q11 0 31 -1t37 -6q10 -2 10 -10v-48q0 -10 -13 -10h-41q-23 0 -33 -6t-10 -25q0 -11 3 -22t14 -16h77q13 0 13 -10v-55q0 -11 -13 -11h-190z" />
    <glyph glyph-name="AlefSep" unicode="&#x627;" horiz-adv-x="350" arabic-form="isolated" 
d="M65 758q0 9 6.5 15t16.5 6h175q10 0 16 -6t6 -15v-736q0 -9 -6 -15.5t-16 -6.5h-175q-10 0 -16.5 6.5t-6.5 15.5v736z" />
    <glyph glyph-name="AlefFin" unicode="&#x627;" horiz-adv-x="364" arabic-form="final" 
d="M65 758q0 9 6.5 15t16.5 6h172q10 0 16.5 -6t6.5 -15v-514q0 -19 9 -25.5t29 -6.5h43v-212h-112q-40 0 -74.5 5.5t-59.5 23t-39 51t-14 90.5v588z" />
    <glyph glyph-name="BehSep" unicode="&#x628;" horiz-adv-x="1061" arabic-form="isolated" 
d="M755 212q15 0 22.5 3.5t7.5 23.5v40.5v56v64v63.5q0 7 5.5 13t16.5 6h168q14 0 19.5 -5.5t6.5 -13.5q2 -58 3 -105.5t1 -88.5v-83t-0.5 -61.5t-2 -46.5t-3.5 -38q-1 -9 -6 -16.5t-17 -9.5q-11 -2 -33 -4t-51 -3.5t-62 -3t-64 -2t-58.5 -1t-45.5 -0.5h-253
q-108 0 -179 19.5t-113 57t-59.5 93t-17.5 127.5q0 32 3.5 62t11.5 66q2 9 6.5 15t15.5 6h152q8 0 14 -5t6 -14q0 -17 -1.5 -36.5t-1.5 -31.5q0 -44 9.5 -72.5t31.5 -45t57 -23t85 -6.5h326zM457 -102q0 8 6 13t13 5h119q8 0 14 -5t6 -13v-112q0 -7 -6 -12.5t-14 -5.5h-119
q-7 0 -13 5.5t-6 12.5v112z" />
    <glyph glyph-name="BehFin" unicode="&#x628;" horiz-adv-x="1085" arabic-form="final" 
d="M754 212q15 0 23 4t8 24v221q0 9 7 15t16 6h173q9 0 15.5 -6t6.5 -15v-245q7 -2 17 -3t18 -1h47v-212h-6q-18 0 -40 0.5t-45.5 4t-46.5 10.5t-42 20q-20 -12 -45.5 -19t-58 -10.5t-72.5 -4.5t-89 -1h-231q-108 0 -179 19.5t-113 57t-59.5 93t-17.5 127.5q0 32 3.5 62
t11.5 66q2 9 6.5 15t15.5 6h152q8 0 14 -5t6 -14q0 -17 -1.5 -36.5t-1.5 -31.5q0 -44 9.5 -72.5t31.5 -45t57 -23t85 -6.5h325zM461 -102q0 8 6 13t13 5h119q8 0 14 -5t6 -13v-112q0 -7 -6 -12.5t-14 -5.5h-119q-7 0 -13 5.5t-6 12.5v112z" />
    <glyph glyph-name="BehIni" unicode="&#x628;" horiz-adv-x="341" arabic-form="initial" 
d="M-40 203q0 4 12 6.5t18 2.5h45q15 0 22.5 3.5t7.5 23.5v229q0 7 5.5 13t16.5 6h168q14 0 19.5 -5.5t6.5 -13.5q2 -58 3 -107.5t1 -91.5v-83t-0.5 -61.5t-2 -46.5t-3.5 -38q-1 -9 -6 -16.5t-17 -9.5q-16 -3 -43.5 -5.5t-59.5 -4.5t-65 -3t-60 -1h-38q-6 0 -18 2.5t-12 6.5
v194zM24 -102q0 8 6 13t13 5h119q8 0 14 -5t6 -13v-112q0 -7 -6 -12.5t-14 -5.5h-119q-7 0 -13 5.5t-6 12.5v112z" />
    <glyph glyph-name="BehMed" unicode="&#x628;" horiz-adv-x="365" arabic-form="medial" 
d="M-40 203q0 2 3.5 3.5t8.5 3t10 2t8 0.5h44q15 0 23 4t8 24v221q0 9 6.5 15t16.5 6h173q9 0 15.5 -6t6.5 -15v-245q7 -2 17 -3t18 -1h47v-212h-14q-51 0 -97.5 6.5t-78.5 28.5q-16 -10 -36.5 -17t-42.5 -11t-44.5 -5.5t-43.5 -1.5h-18q-3 0 -8 0.5t-10 2t-8.5 3t-3.5 3.5
v194zM89 -102q0 8 6 13t13 5h119q8 0 14 -5t6 -13v-112q0 -7 -6 -12.5t-14 -5.5h-119q-7 0 -13 5.5t-6 12.5v112z" />
    <glyph glyph-name="TehMarbutaSep" unicode="&#x629;" horiz-adv-x="594" arabic-form="isolated" 
d="M46 252q0 143 79.5 214.5t237.5 71.5q19 0 42.5 -1.5t46 -4.5t40.5 -6.5t26 -7.5q11 -5 15.5 -9.5t4.5 -12.5v-283q0 -13 -0.5 -35t-1 -47.5t-2 -51.5t-4.5 -48q-2 -11 -7.5 -14.5t-16.5 -5.5q-18 -3 -39.5 -5.5t-43.5 -3.5t-42 -1.5t-36 -0.5h-23q-135 0 -205.5 62.5
t-70.5 178.5v11zM240 270q0 -30 15.5 -48t50.5 -18h38v151q-5 1 -15 1h-14q-40 0 -57.5 -22.5t-17.5 -54.5v-9zM114 745q0 8 6 13t14 5h118q8 0 14.5 -5t6.5 -13v-111q0 -8 -6.5 -13t-14.5 -5h-118q-8 0 -14 5t-6 13v111zM332 745q0 8 6 13t14 5h118q8 0 14.5 -5t6.5 -13
v-111q0 -8 -6.5 -13t-14.5 -5h-118q-8 0 -14 5t-6 13v111z" />
    <glyph glyph-name="TehMarbutaFin" unicode="&#x629;" horiz-adv-x="624" arabic-form="final" 
d="M46 262q0 143 82 212t240 69q19 0 42.5 -1.5t46 -3.5t40.5 -5t26 -6q20 -8 20 -22v-261q0 -19 9 -25.5t29 -6.5h43v-212h-61q-56 0 -96 9t-69 34q-20 -13 -52 -18.5t-65 -5.5h-6q-51 0 -93 14t-72 42.5t-47 71.5t-17 101v14zM240 281q0 -29 12.5 -46t43.5 -17h8
q16 0 30.5 7t14.5 27v114q-9 1 -16.5 1h-11.5q-40 0 -60.5 -20.5t-20.5 -52.5v-13zM119 745q0 8 6 13t14 5h118q8 0 14.5 -5t6.5 -13v-111q0 -8 -6.5 -13t-14.5 -5h-118q-8 0 -14 5t-6 13v111zM337 745q0 8 6 13t14 5h118q8 0 14.5 -5t6.5 -13v-111q0 -8 -6.5 -13t-14.5 -5
h-118q-8 0 -14 5t-6 13v111z" />
    <glyph glyph-name="TehSep" unicode="&#x62a;" horiz-adv-x="1061" arabic-form="isolated" 
d="M755 212q15 0 22.5 3.5t7.5 23.5v40.5v56v64v63.5q0 7 5.5 13t16.5 6h168q14 0 19.5 -5.5t6.5 -13.5q2 -58 3 -105.5t1 -88.5v-83t-0.5 -61.5t-2 -46.5t-3.5 -38q-1 -9 -6 -16.5t-17 -9.5q-11 -2 -33 -4t-51 -3.5t-62 -3t-64 -2t-58.5 -1t-45.5 -0.5h-253
q-108 0 -179 19.5t-113 57t-59.5 93t-17.5 127.5q0 32 3.5 62t11.5 66q2 9 6.5 15t15.5 6h152q8 0 14 -5t6 -14q0 -17 -1.5 -36.5t-1.5 -31.5q0 -44 9.5 -72.5t31.5 -45t57 -23t85 -6.5h326zM328 647q0 8 6 13t14 5h118q8 0 14.5 -5t6.5 -13v-111q0 -8 -6.5 -13t-14.5 -5
h-118q-8 0 -14 5t-6 13v111zM546 647q0 8 6 13t14 5h118q8 0 14.5 -5t6.5 -13v-111q0 -8 -6.5 -13t-14.5 -5h-118q-8 0 -14 5t-6 13v111z" />
    <glyph glyph-name="TehFin" unicode="&#x62a;" horiz-adv-x="1085" arabic-form="final" 
d="M754 212q15 0 23 4t8 24v221q0 9 7 15t16 6h173q9 0 15.5 -6t6.5 -15v-245q7 -2 17 -3t18 -1h47v-212h-6q-18 0 -40 0.5t-45.5 4t-46.5 10.5t-42 20q-20 -12 -45.5 -19t-58 -10.5t-72.5 -4.5t-89 -1h-231q-108 0 -179 19.5t-113 57t-59.5 93t-17.5 127.5q0 32 3.5 62
t11.5 66q2 9 6.5 15t15.5 6h152q8 0 14 -5t6 -14q0 -17 -1.5 -36.5t-1.5 -31.5q0 -44 9.5 -72.5t31.5 -45t57 -23t85 -6.5h325zM328 647q0 8 6 13t14 5h118q8 0 14.5 -5t6.5 -13v-111q0 -8 -6.5 -13t-14.5 -5h-118q-8 0 -14 5t-6 13v111zM546 647q0 8 6 13t14 5h118
q8 0 14.5 -5t6.5 -13v-111q0 -8 -6.5 -13t-14.5 -5h-118q-8 0 -14 5t-6 13v111z" />
    <glyph glyph-name="TehIni" unicode="&#x62a;" horiz-adv-x="341" arabic-form="initial" 
d="M-40 203q0 4 12 6.5t18 2.5h45q15 0 22.5 3.5t7.5 23.5v229q0 7 5.5 13t16.5 6h168q14 0 19.5 -5.5t6.5 -13.5q2 -58 3 -107.5t1 -91.5v-83t-0.5 -61.5t-2 -46.5t-3.5 -38q-1 -9 -6 -16.5t-17 -9.5q-16 -3 -43.5 -5.5t-59.5 -4.5t-65 -3t-60 -1h-38q-6 0 -18 2.5t-12 6.5
v194zM-16 691q0 8 6 13t14 5h118q8 0 14.5 -5t6.5 -13v-111q0 -8 -6.5 -13t-14.5 -5h-118q-8 0 -14 5t-6 13v111zM202 691q0 8 6 13t14 5h118q8 0 14.5 -5t6.5 -13v-111q0 -8 -6.5 -13t-14.5 -5h-118q-8 0 -14 5t-6 13v111z" />
    <glyph glyph-name="TehMed" unicode="&#x62a;" horiz-adv-x="365" arabic-form="medial" 
d="M-40 203q0 2 3.5 3.5t8.5 3t10 2t8 0.5h44q15 0 23 4t8 24v221q0 9 6.5 15t16.5 6h173q9 0 15.5 -6t6.5 -15v-245q7 -2 17 -3t18 -1h47v-212h-14q-51 0 -97.5 6.5t-78.5 28.5q-16 -10 -36.5 -17t-42.5 -11t-44.5 -5.5t-43.5 -1.5h-18q-3 0 -8 0.5t-10 2t-8.5 3t-3.5 3.5
v194zM-13 691q0 8 6 13t14 5h118q8 0 14.5 -5t6.5 -13v-111q0 -8 -6.5 -13t-14.5 -5h-118q-8 0 -14 5t-6 13v111zM205 691q0 8 6 13t14 5h118q8 0 14.5 -5t6.5 -13v-111q0 -8 -6.5 -13t-14.5 -5h-118q-8 0 -14 5t-6 13v111z" />
    <glyph glyph-name="ThehSep" unicode="&#x62b;" horiz-adv-x="1061" arabic-form="isolated" 
d="M755 212q15 0 22.5 3.5t7.5 23.5v40.5v56v64v63.5q0 7 5.5 13t16.5 6h168q14 0 19.5 -5.5t6.5 -13.5q2 -58 3 -105.5t1 -88.5v-83t-0.5 -61.5t-2 -46.5t-3.5 -38q-1 -9 -6 -16.5t-17 -9.5q-11 -2 -33 -4t-51 -3.5t-62 -3t-64 -2t-58.5 -1t-45.5 -0.5h-253
q-108 0 -179 19.5t-113 57t-59.5 93t-17.5 127.5q0 32 3.5 62t11.5 66q2 9 6.5 15t15.5 6h152q8 0 14 -5t6 -14q0 -17 -1.5 -36.5t-1.5 -31.5q0 -44 9.5 -72.5t31.5 -45t57 -23t85 -6.5h326zM328 638q0 8 6 13t14 5h118q8 0 14.5 -5t6.5 -13v-103q0 -8 -6.5 -12.5
t-14.5 -4.5h-118q-8 0 -14 4.5t-6 12.5v103zM546 638q0 8 6 13t14 5h118q8 0 14.5 -5t6.5 -13v-103q0 -8 -6.5 -12.5t-14.5 -4.5h-118q-8 0 -14 4.5t-6 12.5v103zM438 800q0 8 6 13t13 5h123q8 0 14 -5t6 -13v-86q0 -8 -6 -13t-14 -5h-123q-7 0 -13 5t-6 13v86z" />
    <glyph glyph-name="ThehFin" unicode="&#x62b;" horiz-adv-x="1085" arabic-form="final" 
d="M754 212q15 0 23 4t8 24v221q0 9 7 15t16 6h173q9 0 15.5 -6t6.5 -15v-245q7 -2 17 -3t18 -1h47v-212h-6q-18 0 -40 0.5t-45.5 4t-46.5 10.5t-42 20q-20 -12 -45.5 -19t-58 -10.5t-72.5 -4.5t-89 -1h-231q-108 0 -179 19.5t-113 57t-59.5 93t-17.5 127.5q0 32 3.5 62
t11.5 66q2 9 6.5 15t15.5 6h152q8 0 14 -5t6 -14q0 -17 -1.5 -36.5t-1.5 -31.5q0 -44 9.5 -72.5t31.5 -45t57 -23t85 -6.5h325zM328 638q0 8 6 13t14 5h118q8 0 14.5 -5t6.5 -13v-103q0 -8 -6.5 -12.5t-14.5 -4.5h-118q-8 0 -14 4.5t-6 12.5v103zM546 638q0 8 6 13t14 5h118
q8 0 14.5 -5t6.5 -13v-103q0 -8 -6.5 -12.5t-14.5 -4.5h-118q-8 0 -14 4.5t-6 12.5v103zM438 800q0 8 6 13t13 5h123q8 0 14 -5t6 -13v-86q0 -8 -6 -13t-14 -5h-123q-7 0 -13 5t-6 13v86z" />
    <glyph glyph-name="ThehIni" unicode="&#x62b;" horiz-adv-x="341" arabic-form="initial" 
d="M-40 203q0 4 12 6.5t18 2.5h45q15 0 22.5 3.5t7.5 23.5v229q0 7 5.5 13t16.5 6h168q14 0 19.5 -5.5t6.5 -13.5q2 -58 3 -107.5t1 -91.5v-83t-0.5 -61.5t-2 -46.5t-3.5 -38q-1 -9 -6 -16.5t-17 -9.5q-16 -3 -43.5 -5.5t-59.5 -4.5t-65 -3t-60 -1h-38q-6 0 -18 2.5t-12 6.5
v194zM-16 682q0 8 6 13t14 5h118q8 0 14.5 -5t6.5 -13v-103q0 -8 -6.5 -12.5t-14.5 -4.5h-118q-8 0 -14 4.5t-6 12.5v103zM202 682q0 8 6 13t14 5h118q8 0 14.5 -5t6.5 -13v-103q0 -8 -6.5 -12.5t-14.5 -4.5h-118q-8 0 -14 4.5t-6 12.5v103zM94 844q0 8 6 13t13 5h123
q8 0 14 -5t6 -13v-86q0 -8 -6 -13t-14 -5h-123q-7 0 -13 5t-6 13v86z" />
    <glyph glyph-name="ThehMed" unicode="&#x62b;" horiz-adv-x="365" arabic-form="medial" 
d="M-40 203q0 2 3.5 3.5t8.5 3t10 2t8 0.5h44q15 0 23 4t8 24v221q0 9 6.5 15t16.5 6h173q9 0 15.5 -6t6.5 -15v-245q7 -2 17 -3t18 -1h47v-212h-14q-51 0 -97.5 6.5t-78.5 28.5q-16 -10 -36.5 -17t-42.5 -11t-44.5 -5.5t-43.5 -1.5h-18q-3 0 -8 0.5t-10 2t-8.5 3t-3.5 3.5
v194zM-13 682q0 8 6 13t14 5h118q8 0 14.5 -5t6.5 -13v-103q0 -8 -6.5 -12.5t-14.5 -4.5h-118q-8 0 -14 4.5t-6 12.5v103zM205 682q0 8 6 13t14 5h118q8 0 14.5 -5t6.5 -13v-103q0 -8 -6.5 -12.5t-14.5 -4.5h-118q-8 0 -14 4.5t-6 12.5v103zM97 844q0 8 6 13t13 5h123
q8 0 14 -5t6 -13v-86q0 -8 -6 -13t-14 -5h-123q-7 0 -13 5t-6 13v86z" />
    <glyph glyph-name="JeemSep" unicode="&#x62c;" horiz-adv-x="706" arabic-form="isolated" 
d="M50 29q0 43 4.5 84.5t9.5 67.5q4 20 24 22q6 0 21.5 1t33.5 1.5t35.5 1t28.5 0.5h199l-12 20l-11 18q-11 19 -28.5 39t-43 36t-60 26.5t-80.5 10.5q-22 0 -38.5 -0.5t-31.5 -0.5q-13 0 -16.5 5t-3.5 16v135q0 16 24 21q35 7 62 9.5t65 2.5q121 0 215 -61.5t162 -197.5
l12 -24q8 -17 17.5 -35.5t19.5 -33.5q8 -12 8 -39v-134q0 -8 -6 -14t-14 -6h-324h-29.5t-29.5 -1v-6.5t1 -11.5q3 -31 16 -46.5t45 -15.5h4q9 0 15 -6.5t6 -14.5v-137q0 -11 -6.5 -18t-15.5 -7h-10q-63 0 -113 16t-84.5 51.5t-52.5 91t-18 134.5zM409 -74q0 8 6 13t13 5h119
q8 0 14 -5t6 -13v-112q0 -7 -6 -12.5t-14 -5.5h-119q-7 0 -13 5.5t-6 12.5v112z" />
    <glyph glyph-name="JeemFin" unicode="&#x62c;" horiz-adv-x="689" arabic-form="final" 
d="M50 29q0 43 4.5 84.5t9.5 67.5q4 20 24 22q6 0 21.5 1t33.5 1.5t35.5 1t28.5 0.5h199l-11 18l-12 20q-11 19 -28.5 39t-43 36t-60 26.5t-80.5 10.5q-22 0 -38.5 -0.5t-31.5 -0.5q-13 0 -16.5 5t-3.5 16v135q0 16 24 21q35 7 62 9.5t65 2.5q122 0 215 -60.5t159 -191.5
l16 -32l12 -21t9 -13q7 -9 14 -12t18 -3h14v-212h-367h-29.5t-29.5 -1v-6.5t1 -11.5q3 -31 16 -46.5t45 -15.5h4q9 0 15 -6.5t6 -14.5v-137q0 -11 -6.5 -18t-15.5 -7h-10q-63 0 -113 16t-84.5 51.5t-52.5 91t-18 134.5zM409 -74q0 8 6 13t13 5h119q8 0 14 -5t6 -13v-112
q0 -7 -6 -12.5t-14 -5.5h-119q-7 0 -13 5.5t-6 12.5v112z" />
    <glyph glyph-name="JeemIni" unicode="&#x62c;" horiz-adv-x="672" arabic-form="initial" 
d="M-40 202q0 4 12.5 7t17.5 3h379l-8 13l-12 20q-11 19 -28.5 39t-43 36t-60 26.5t-80.5 10.5q-21 0 -38 -0.5t-32 -0.5q-13 0 -16.5 5t-3.5 16v135q0 16 24 21q35 7 62.5 9.5t64.5 2.5q121 0 215 -61.5t162 -197.5l12 -24q8 -17 17.5 -35.5t19.5 -33.5q8 -12 8 -39v-134
q0 -8 -6 -14t-14 -6h-622q-3 0 -8 0.5t-10 2t-8.5 3t-3.5 3.5v193zM190 -102q0 8 6 13t13 5h119q8 0 14 -5t6 -13v-112q0 -7 -6 -12.5t-14 -5.5h-119q-7 0 -13 5.5t-6 12.5v112z" />
    <glyph glyph-name="JeemMed" unicode="&#x62c;" horiz-adv-x="656" arabic-form="medial" 
d="M-10 0q-3 0 -8 0.5t-10 2t-8.5 3t-3.5 3.5v193q0 4 12.5 7t17.5 3h379l-8 14l-11 19q-11 19 -28.5 39t-43.5 36.5t-60.5 26.5t-80.5 10q-21 0 -38 -0.5t-32 -0.5q-13 0 -16.5 5t-3.5 16v135q0 16 24 21q35 7 65.5 9.5t61.5 2.5q122 0 214.5 -60.5t160.5 -191.5l16 -31
q8 -15 12.5 -22.5t9.5 -13.5q6 -8 11.5 -11t15.5 -3h18v-212h-666zM190 -102q0 8 6 13t13 5h119q8 0 14 -5t6 -13v-112q0 -7 -6 -12.5t-14 -5.5h-119q-7 0 -13 5.5t-6 12.5v112z" />
    <glyph glyph-name="HahSep" unicode="&#x62d;" horiz-adv-x="706" arabic-form="isolated" 
d="M50 24q0 21 1 43.5t3 43.5t4.5 39t5.5 31q4 20 24 22q6 0 21.5 1t33.5 1.5t35.5 1t28.5 0.5h199l-12 20l-11 18q-11 19 -28.5 39t-43 36t-60 26.5t-80.5 10.5q-22 0 -38.5 -0.5t-31.5 -0.5q-13 0 -16.5 5t-3.5 16v135q0 16 24 21q35 7 62 9.5t65 2.5q121 0 215 -61.5
t162 -197.5l12 -24q8 -17 17.5 -35.5t19.5 -33.5q8 -12 8 -39v-134q0 -8 -6 -14t-14 -6h-324h-29.5t-29.5 -1v-8.5t1 -9.5q4 -31 25.5 -46.5t55.5 -15.5h15q9 0 15 -6.5t6 -14.5v-137q0 -11 -6.5 -18t-15.5 -7h-21q-68 0 -121 15.5t-90.5 50t-57 89t-19.5 133.5z" />
    <glyph glyph-name="HahFin" unicode="&#x62d;" horiz-adv-x="689" arabic-form="final" 
d="M50 24q0 21 1 43.5t3 43.5t4.5 39t5.5 31q4 20 24 22q6 0 21.5 1t33.5 1.5t35.5 1t28.5 0.5h199l-11 18l-12 20q-11 19 -28.5 39t-43 36t-60 26.5t-80.5 10.5q-22 0 -38.5 -0.5t-31.5 -0.5q-13 0 -16.5 5t-3.5 16v135q0 16 24 21q35 7 62 9.5t65 2.5q122 0 215 -60.5
t159 -191.5l16 -32l12 -21t9 -13q7 -9 14 -12t18 -3h14v-212h-367h-29.5t-29.5 -1v-8.5t1 -9.5q4 -31 25.5 -46.5t55.5 -15.5h15q9 0 15 -6.5t6 -14.5v-137q0 -11 -6.5 -18t-15.5 -7h-21q-68 0 -121 15.5t-90.5 50t-57 89t-19.5 133.5z" />
    <glyph glyph-name="HahIni" unicode="&#x62d;" horiz-adv-x="672" arabic-form="initial" 
d="M-40 202q0 4 12.5 7t17.5 3h379l-8 13l-12 20q-11 19 -28.5 39t-43 36t-60 26.5t-80.5 10.5q-21 0 -38 -0.5t-32 -0.5q-13 0 -16.5 5t-3.5 16v135q0 16 24 21q35 7 62.5 9.5t64.5 2.5q121 0 215 -61.5t162 -197.5l12 -24q8 -17 17.5 -35.5t19.5 -33.5q8 -12 8 -39v-134
q0 -8 -6 -14t-14 -6h-622q-3 0 -8 0.5t-10 2t-8.5 3t-3.5 3.5v193z" />
    <glyph glyph-name="HahMed" unicode="&#x62d;" horiz-adv-x="656" arabic-form="medial" 
d="M-10 0q-3 0 -8 0.5t-10 2t-8.5 3t-3.5 3.5v193q0 4 12.5 7t17.5 3h379l-8 14l-11 19q-11 19 -28.5 39t-43.5 36.5t-60.5 26.5t-80.5 10q-21 0 -38 -0.5t-32 -0.5q-13 0 -16.5 5t-3.5 16v135q0 16 24 21q35 7 65.5 9.5t61.5 2.5q122 0 214.5 -60.5t160.5 -191.5l16 -31
q8 -15 12.5 -22.5t9.5 -13.5q6 -8 11.5 -11t15.5 -3h18v-212h-666z" />
    <glyph glyph-name="KhahSep" unicode="&#x62e;" horiz-adv-x="706" arabic-form="isolated" 
d="M50 24q0 21 1 43.5t3 43.5t4.5 39t5.5 31q4 20 24 22q6 0 21.5 1t33.5 1.5t35.5 1t28.5 0.5h199l-12 20l-11 18q-11 19 -28.5 39t-43 36t-60 26.5t-80.5 10.5q-22 0 -38.5 -0.5t-31.5 -0.5q-13 0 -16.5 5t-3.5 16v135q0 16 24 21q35 7 62 9.5t65 2.5q121 0 215 -61.5
t162 -197.5l12 -24q8 -17 17.5 -35.5t19.5 -33.5q8 -12 8 -39v-134q0 -8 -6 -14t-14 -6h-324h-29.5t-29.5 -1v-8.5t1 -9.5q4 -31 25.5 -46.5t55.5 -15.5h15q9 0 15 -6.5t6 -14.5v-137q0 -11 -6.5 -18t-15.5 -7h-21q-68 0 -121 15.5t-90.5 50t-57 89t-19.5 133.5zM213 752
q0 8 5.5 13t13.5 5h127q8 0 13.5 -5t5.5 -13v-111q0 -8 -5.5 -13t-13.5 -5h-127q-8 0 -13.5 5t-5.5 13v111z" />
    <glyph glyph-name="KhahFin" unicode="&#x62e;" horiz-adv-x="689" arabic-form="final" 
d="M50 24q0 21 1 43.5t3 43.5t4.5 39t5.5 31q4 20 24 22q6 0 21.5 1t33.5 1.5t35.5 1t28.5 0.5h199l-11 18l-12 20q-11 19 -28.5 39t-43 36t-60 26.5t-80.5 10.5q-22 0 -38.5 -0.5t-31.5 -0.5q-13 0 -16.5 5t-3.5 16v135q0 16 24 21q35 7 62 9.5t65 2.5q122 0 215 -60.5
t159 -191.5l16 -32l12 -21t9 -13q7 -9 14 -12t18 -3h14v-212h-367h-29.5t-29.5 -1v-8.5t1 -9.5q4 -31 25.5 -46.5t55.5 -15.5h15q9 0 15 -6.5t6 -14.5v-137q0 -11 -6.5 -18t-15.5 -7h-21q-68 0 -121 15.5t-90.5 50t-57 89t-19.5 133.5zM213 752q0 8 5.5 13t13.5 5h127
q8 0 13.5 -5t5.5 -13v-111q0 -8 -5.5 -13t-13.5 -5h-127q-8 0 -13.5 5t-5.5 13v111z" />
    <glyph glyph-name="KhahIni" unicode="&#x62e;" horiz-adv-x="672" arabic-form="initial" 
d="M-40 202q0 4 12.5 7t17.5 3h379l-8 13l-12 20q-11 19 -28.5 39t-43 36t-60 26.5t-80.5 10.5q-21 0 -38 -0.5t-32 -0.5q-13 0 -16.5 5t-3.5 16v135q0 16 24 21q35 7 62.5 9.5t64.5 2.5q121 0 215 -61.5t162 -197.5l12 -24q8 -17 17.5 -35.5t19.5 -33.5q8 -12 8 -39v-134
q0 -8 -6 -14t-14 -6h-622q-3 0 -8 0.5t-10 2t-8.5 3t-3.5 3.5v193zM179 752q0 8 5.5 13t13.5 5h127q8 0 13.5 -5t5.5 -13v-111q0 -8 -5.5 -13t-13.5 -5h-127q-8 0 -13.5 5t-5.5 13v111z" />
    <glyph glyph-name="KhahMed" unicode="&#x62e;" horiz-adv-x="656" arabic-form="medial" 
d="M-10 0q-3 0 -8 0.5t-10 2t-8.5 3t-3.5 3.5v193q0 4 12.5 7t17.5 3h379l-8 14l-11 19q-11 19 -28.5 39t-43.5 36.5t-60.5 26.5t-80.5 10q-21 0 -38 -0.5t-32 -0.5q-13 0 -16.5 5t-3.5 16v135q0 16 24 21q35 7 65.5 9.5t61.5 2.5q122 0 214.5 -60.5t160.5 -191.5l16 -31
q8 -15 12.5 -22.5t9.5 -13.5q6 -8 11.5 -11t15.5 -3h18v-212h-666zM179 752q0 8 5.5 13t13.5 5h127q8 0 13.5 -5t5.5 -13v-111q0 -8 -5.5 -13t-13.5 -5h-127q-8 0 -13.5 5t-5.5 13v111z" />
    <glyph glyph-name="DalSep" unicode="&#x62f;" horiz-adv-x="564" arabic-form="isolated" 
d="M50 192q0 8 6 14t14 6h241l-3 34q-2 21 -8.5 41t-22.5 35.5t-45 25t-76 9.5h-49q-16 0 -16 16v140q0 8 6 14.5t14 8.5q15 3 32 5t33.5 2.5t30.5 1t22 0.5q88 0 143 -29t86.5 -73.5t44.5 -98.5t17 -105q2 -29 3 -60t1 -78q0 -14 -1 -37t-3 -45q-1 -8 -6 -13.5t-18 -5.5
h-426q-8 0 -14 6t-6 14v172z" />
    <glyph glyph-name="DalFin" unicode="&#x62f;" horiz-adv-x="576" arabic-form="final" 
d="M50 192q0 8 6 14t14 6h241l-3 34q-2 21 -8.5 41t-22 35.5t-43.5 25t-73 9.5h-54q-16 0 -16 16v140q0 8 6 14.5t14 8.5q15 3 32 5t33.5 2.5t30.5 1t22 0.5q87 0 141.5 -28.5t86.5 -73t45.5 -98t16.5 -104.5l2 -29h55v-212h-506q-8 0 -14 6t-6 14v172z" />
    <glyph glyph-name="ThalSep" unicode="&#x630;" horiz-adv-x="564" arabic-form="isolated" 
d="M50 192q0 8 6 14t14 6h241l-3 34q-2 21 -8.5 41t-22.5 35.5t-45 25t-76 9.5h-49q-16 0 -16 16v140q0 8 6 14.5t14 8.5q15 3 32 5t33.5 2.5t30.5 1t22 0.5q88 0 143 -29t86.5 -73.5t44.5 -98.5t17 -105q2 -29 3 -60t1 -78q0 -14 -1 -37t-3 -45q-1 -8 -6 -13.5t-18 -5.5
h-426q-8 0 -14 6t-6 14v172zM183 752q0 8 5.5 13t13.5 5h127q8 0 13.5 -5t5.5 -13v-111q0 -8 -5.5 -13t-13.5 -5h-127q-8 0 -13.5 5t-5.5 13v111z" />
    <glyph glyph-name="ThalFin" unicode="&#x630;" horiz-adv-x="576" arabic-form="final" 
d="M50 192q0 8 6 14t14 6h241l-3 34q-2 21 -8.5 41t-22 35.5t-43.5 25t-73 9.5h-54q-16 0 -16 16v140q0 8 6 14.5t14 8.5q15 3 32 5t33.5 2.5t30.5 1t22 0.5q87 0 141.5 -28.5t86.5 -73t45.5 -98t16.5 -104.5l2 -29h55v-212h-506q-8 0 -14 6t-6 14v172zM183 752q0 8 5.5 13
t13.5 5h127q8 0 13.5 -5t5.5 -13v-111q0 -8 -5.5 -13t-13.5 -5h-127q-8 0 -13.5 5t-5.5 13v111z" />
    <glyph glyph-name="RehSep" unicode="&#x631;" horiz-adv-x="352" arabic-form="isolated" 
d="M-40 -88q0 20 20 20h18q20 0 35 1.5t25 8.5t15 21t5 38v455q0 9 7 15t16 6h173q9 0 15.5 -6t6.5 -15v-421q0 -48 -5 -91t-24 -85q-28 -60 -80 -84.5t-123 -24.5h-17.5t-25 1t-26 2t-21.5 3q-14 3 -14 22v134z" />
    <glyph glyph-name="RehFin" unicode="&#x631;" horiz-adv-x="378" arabic-form="final" 
d="M-40 -88q0 20 20 20h18q20 0 35 1.5t25 8.5t15 21t5 38v455q0 9 7 15t16 6h173q9 0 15.5 -6t6.5 -15v-244h82v-212h-88v-12q0 -78 -23 -129q-28 -60 -80 -84.5t-123 -24.5h-17.5t-25 1t-26 2t-21.5 3q-14 3 -14 22v134z" />
    <glyph glyph-name="ZainSep" unicode="&#x632;" horiz-adv-x="352" arabic-form="isolated" 
d="M-40 -88q0 20 20 20h18q20 0 35 1.5t25 8.5t15 21t5 38v455q0 9 7 15t16 6h173q9 0 15.5 -6t6.5 -15v-421q0 -48 -5 -91t-24 -85q-28 -60 -80 -84.5t-123 -24.5h-17.5t-25 1t-26 2t-21.5 3q-14 3 -14 22v134zM106 691q0 8 5.5 13t13.5 5h127q8 0 13.5 -5t5.5 -13v-111
q0 -8 -5.5 -13t-13.5 -5h-127q-8 0 -13.5 5t-5.5 13v111z" />
    <glyph glyph-name="ZainFin" unicode="&#x632;" horiz-adv-x="378" arabic-form="final" 
d="M-40 -88q0 20 20 20h18q20 0 35 1.5t25 8.5t15 21t5 38v455q0 9 7 15t16 6h173q9 0 15.5 -6t6.5 -15v-244h82v-212h-88v-12q0 -78 -23 -129q-28 -60 -80 -84.5t-123 -24.5h-17.5t-25 1t-26 2t-21.5 3q-14 3 -14 22v134zM106 691q0 8 5.5 13t13.5 5h127q8 0 13.5 -5
t5.5 -13v-111q0 -8 -5.5 -13t-13.5 -5h-127q-8 0 -13.5 5t-5.5 13v111z" />
    <glyph glyph-name="SeenSep" unicode="&#x633;" horiz-adv-x="1262" arabic-form="isolated" 
d="M232 342q8 0 14 -5t6 -13q-1 -18 -1.5 -34.5t-0.5 -28.5q0 -63 5.5 -108t22 -74.5t46.5 -43.5t80 -14h15t21 2q2 39 2 78.5v79.5v237q0 9 7 15t16 6h168q9 0 15.5 -6t6.5 -15v-211q7 -2 16.5 -3t16.5 -1h3q15 0 22.5 3.5t7.5 23.5v224q0 9 7 15t16 6h159q10 0 16 -6
t6 -15v-247q8 -2 16 -3t16 -1h2q16 0 24 3.5t8 23.5v46.5t-0.5 69.5t-1 77t-0.5 69q0 7 6 13t16 6h164q23 0 25 -19q2 -30 3 -61t2 -60.5t1 -55.5v-46v-96q0 -36 -0.5 -64.5t-4.5 -63.5q-2 -11 -7 -17t-16 -9q-32 -8 -63.5 -12.5t-76.5 -4.5h-4q-18 0 -43 0.5t-52 4t-54 10
t-48 18.5q-31 -20 -71 -26t-80 -6h-10h-8t-13 1q0 -35 -0.5 -70t-4.5 -71q-2 -20 -23 -26q-42 -11 -94.5 -18.5t-116.5 -7.5q-80 0 -148.5 16t-118 55t-77.5 105.5t-28 167.5q0 13 1 34t3.5 44t5.5 46.5t7 42.5q2 8 6.5 14t16.5 6h148z" />
    <glyph glyph-name="SeenFin" unicode="&#x633;" horiz-adv-x="1276" arabic-form="final" 
d="M228 342q8 0 14 -5t6 -13q-1 -18 -1.5 -34.5t-0.5 -28.5q0 -63 5.5 -108t22 -74.5t46.5 -43.5t80 -14h15t21 2q2 39 2 78.5v79.5v237q0 9 7 15t16 6h168q9 0 15.5 -6t6.5 -15v-211q7 -2 16 -3t16 -1h3q15 0 23 3.5t8 23.5v224q0 9 7 15t16 6h159q10 0 16 -6t6 -15v-247
q8 -2 16 -3t16 -1h2q16 0 23.5 3.5t7.5 23.5v260q0 9 7 15t16 6h163q9 0 15.5 -6t6.5 -15v-274q7 -2 17 -3t18 -1h47v-212h-12q-18 0 -39 1.5t-42.5 5.5t-42 10.5t-36.5 17.5q-27 -20 -60 -27.5t-75 -7.5h-6q-35 0 -68.5 7.5t-62.5 27.5q-31 -20 -71.5 -26t-80.5 -6h-11h-6
t-12 1q0 -35 -1 -70.5t-4 -70.5q-2 -20 -23 -26q-42 -11 -94.5 -18.5t-116.5 -7.5q-80 0 -148.5 16t-118 55t-77.5 105.5t-28 167.5q0 13 1 34t3.5 44t5.5 46.5t7 42.5q2 8 6.5 14t16.5 6h148z" />
    <glyph glyph-name="SeenIni" unicode="&#x633;" horiz-adv-x="854" arabic-form="initial" 
d="M-40 203q0 2 3.5 3.5t8.5 3t10 2t8 0.5h23q15 0 23 4t8 24v178q0 9 6.5 15t16.5 6h158q9 0 15.5 -6t6.5 -15v-211q7 -2 15.5 -3t16.5 -1h4q15 0 22.5 3.5t7.5 23.5v224q0 9 7 15t16 6h159q9 0 15.5 -6t6.5 -15v-247q7 -2 15.5 -3t15.5 -1h5q15 0 22.5 3.5t7.5 23.5v46.5
v69.5t-0.5 77t-1.5 69q0 7 6 13t17 6h162q23 0 25 -19q2 -30 3.5 -61t2 -60.5t1 -55.5t0.5 -46v-96q0 -36 -1 -66t-5 -62q-1 -11 -6 -17t-17 -9q-32 -8 -63.5 -12.5t-75.5 -4.5h-5q-18 0 -40 1t-45 4.5t-45 10t-40 17.5q-29 -20 -66 -27.5t-70 -7.5h-5q-25 0 -44.5 1.5
t-37 5.5t-33.5 10.5t-34 17.5q-29 -21 -71 -28t-83 -7h-21q-3 0 -8 0.5t-10 2t-8.5 3t-3.5 3.5v194z" />
    <glyph glyph-name="SeenMed" unicode="&#x633;" horiz-adv-x="888" arabic-form="medial" 
d="M-40 203q0 2 3.5 3.5t8.5 3t10 2t8 0.5h23q15 0 23 4t8 24v178q0 9 6.5 15t16.5 6h158q9 0 15.5 -6t6.5 -15v-211q7 -2 15 -3t16 -1h4q15 0 23 3.5t8 23.5v224q0 9 7 15t16 6h159q9 0 15.5 -6t6.5 -15v-247q7 -2 15.5 -3t15.5 -1h4q15 0 23 3.5t8 23.5v260q0 9 7 15t16 6
h168q10 0 16 -6t6 -15v-274q8 -2 22.5 -3t22.5 -1h47v-212h-17q-18 0 -39.5 1.5t-44 5.5t-45 10.5t-41.5 17.5q-32 -23 -65.5 -29t-74.5 -6h-5q-34 0 -65 7t-67 28q-32 -22 -63 -28.5t-71 -6.5h-4q-35 0 -64 6.5t-65 28.5q-16 -11 -35.5 -18t-39.5 -11t-39.5 -5t-35.5 -1
h-17q-3 0 -8 0.5t-10 2t-8.5 3t-3.5 3.5v194z" />
    <glyph glyph-name="SheenSep" unicode="&#x634;" horiz-adv-x="1262" arabic-form="isolated" 
d="M232 342q8 0 14 -5t6 -13q-1 -18 -1.5 -34.5t-0.5 -28.5q0 -63 5.5 -108t22 -74.5t46.5 -43.5t80 -14h15t21 2q2 39 2 78.5v79.5v237q0 9 7 15t16 6h168q9 0 15.5 -6t6.5 -15v-211q7 -2 16.5 -3t16.5 -1h3q15 0 22.5 3.5t7.5 23.5v224q0 9 7 15t16 6h159q10 0 16 -6
t6 -15v-247q8 -2 16 -3t16 -1h2q16 0 24 3.5t8 23.5v46.5t-0.5 69.5t-1 77t-0.5 69q0 7 6 13t16 6h164q23 0 25 -19q2 -30 3 -61t2 -60.5t1 -55.5v-46v-96q0 -36 -0.5 -64.5t-4.5 -63.5q-2 -11 -7 -17t-16 -9q-32 -8 -63.5 -12.5t-76.5 -4.5h-4q-18 0 -43 0.5t-52 4t-54 10
t-48 18.5q-31 -20 -71 -26t-80 -6h-10h-8t-13 1q0 -35 -0.5 -70t-4.5 -71q-2 -20 -23 -26q-42 -11 -94.5 -18.5t-116.5 -7.5q-80 0 -148.5 16t-118 55t-77.5 105.5t-28 167.5q0 13 1 34t3.5 44t5.5 46.5t7 42.5q2 8 6.5 14t16.5 6h148zM619 702q0 8 6 13t14 5h118
q8 0 14.5 -5t6.5 -13v-103q0 -8 -6.5 -12.5t-14.5 -4.5h-118q-8 0 -14 4.5t-6 12.5v103zM837 702q0 8 6 13t14 5h118q8 0 14.5 -5t6.5 -13v-103q0 -8 -6.5 -12.5t-14.5 -4.5h-118q-8 0 -14 4.5t-6 12.5v103zM729 864q0 8 6 13t13 5h123q8 0 14 -5t6 -13v-86q0 -8 -6 -13
t-14 -5h-123q-7 0 -13 5t-6 13v86z" />
    <glyph glyph-name="SheenFin" unicode="&#x634;" horiz-adv-x="1280" arabic-form="final" 
d="M232 342q8 0 14 -5t6 -13q-1 -18 -1.5 -34.5t-0.5 -28.5q0 -63 5.5 -108t22 -74.5t46.5 -43.5t80 -14h15t21 2q2 39 2 78.5v79.5v237q0 9 7 15t16 6h168q9 0 15.5 -6t6.5 -15v-211q7 -2 16 -3t16 -1h3q15 0 23 3.5t8 23.5v224q0 9 7 15t16 6h159q10 0 16 -6t6 -15v-247
q8 -2 16 -3t16 -1h2q16 0 23.5 3.5t7.5 23.5v260q0 9 7 15t16 6h163q9 0 15.5 -6t6.5 -15v-274q7 -2 17 -3t18 -1h47v-212h-12q-18 0 -39 1.5t-42.5 5.5t-42 10.5t-36.5 17.5q-27 -20 -60 -27.5t-75 -7.5h-6q-35 0 -68.5 7.5t-62.5 27.5q-31 -20 -71.5 -26t-80.5 -6h-11h-6
t-12 1q0 -35 -1 -70.5t-4 -70.5q-2 -20 -23 -26q-42 -11 -94.5 -18.5t-116.5 -7.5q-80 0 -148.5 16t-118 55t-77.5 105.5t-28 167.5q0 13 1 34t3.5 44t5.5 46.5t7 42.5q2 8 6.5 14t16.5 6h148zM616 702q0 8 6 13t14 5h118q8 0 14.5 -5t6.5 -13v-103q0 -8 -6.5 -12.5
t-14.5 -4.5h-118q-8 0 -14 4.5t-6 12.5v103zM834 702q0 8 6 13t14 5h118q8 0 14.5 -5t6.5 -13v-103q0 -8 -6.5 -12.5t-14.5 -4.5h-118q-8 0 -14 4.5t-6 12.5v103zM726 864q0 8 6 13t13 5h123q8 0 14 -5t6 -13v-86q0 -8 -6 -13t-14 -5h-123q-7 0 -13 5t-6 13v86z" />
    <glyph glyph-name="SheenIni" unicode="&#x634;" horiz-adv-x="854" arabic-form="initial" 
d="M-40 203q0 2 3.5 3.5t8.5 3t10 2t8 0.5h23q15 0 23 4t8 24v178q0 9 6.5 15t16.5 6h158q9 0 15.5 -6t6.5 -15v-211q7 -2 15.5 -3t16.5 -1h4q15 0 22.5 3.5t7.5 23.5v224q0 9 7 15t16 6h159q9 0 15.5 -6t6.5 -15v-247q7 -2 15.5 -3t15.5 -1h5q15 0 22.5 3.5t7.5 23.5v46.5
v69.5t-0.5 77t-1.5 69q0 7 6 13t17 6h162q23 0 25 -19q2 -30 3.5 -61t2 -60.5t1 -55.5t0.5 -46v-96q0 -36 -1 -66t-5 -62q-1 -11 -6 -17t-17 -9q-32 -8 -63.5 -12.5t-75.5 -4.5h-5q-18 0 -40 1t-45 4.5t-45 10t-40 17.5q-29 -20 -66 -27.5t-70 -7.5h-5q-25 0 -44.5 1.5
t-37 5.5t-33.5 10.5t-34 17.5q-29 -21 -71 -28t-83 -7h-21q-3 0 -8 0.5t-10 2t-8.5 3t-3.5 3.5v194zM208 702q0 8 6 13t14 5h118q8 0 14.5 -5t6.5 -13v-103q0 -8 -6.5 -12.5t-14.5 -4.5h-118q-8 0 -14 4.5t-6 12.5v103zM426 702q0 8 6 13t14 5h118q8 0 14.5 -5t6.5 -13v-103
q0 -8 -6.5 -12.5t-14.5 -4.5h-118q-8 0 -14 4.5t-6 12.5v103zM318 864q0 8 6 13t13 5h123q8 0 14 -5t6 -13v-86q0 -8 -6 -13t-14 -5h-123q-7 0 -13 5t-6 13v86z" />
    <glyph glyph-name="SheenMed" unicode="&#x634;" horiz-adv-x="888" arabic-form="medial" 
d="M-40 203q0 2 3.5 3.5t8.5 3t10 2t8 0.5h23q15 0 23 4t8 24v178q0 9 6.5 15t16.5 6h158q9 0 15.5 -6t6.5 -15v-211q7 -2 15 -3t16 -1h4q15 0 23 3.5t8 23.5v224q0 9 7 15t16 6h159q9 0 15.5 -6t6.5 -15v-247q7 -2 15.5 -3t15.5 -1h4q15 0 23 3.5t8 23.5v260q0 9 7 15t16 6
h168q10 0 16 -6t6 -15v-274q8 -2 22.5 -3t22.5 -1h47v-212h-17q-18 0 -39.5 1.5t-44 5.5t-45 10.5t-41.5 17.5q-32 -23 -65.5 -29t-74.5 -6h-5q-34 0 -65 7t-67 28q-32 -22 -63 -28.5t-71 -6.5h-4q-35 0 -64 6.5t-65 28.5q-16 -11 -35.5 -18t-39.5 -11t-39.5 -5t-35.5 -1
h-17q-3 0 -8 0.5t-10 2t-8.5 3t-3.5 3.5v194zM208 702q0 8 6 13t14 5h118q8 0 14.5 -5t6.5 -13v-103q0 -8 -6.5 -12.5t-14.5 -4.5h-118q-8 0 -14 4.5t-6 12.5v103zM426 702q0 8 6 13t14 5h118q8 0 14.5 -5t6.5 -13v-103q0 -8 -6.5 -12.5t-14.5 -4.5h-118q-8 0 -14 4.5
t-6 12.5v103zM318 864q0 8 6 13t13 5h123q8 0 14 -5t6 -13v-86q0 -8 -6 -13t-14 -5h-123q-7 0 -13 5t-6 13v86z" />
    <glyph glyph-name="SadSep" unicode="&#x635;" horiz-adv-x="1240" arabic-form="isolated" 
d="M40 155q0 13 1 34t3.5 44t5.5 46.5t7 42.5q2 8 6.5 14t16.5 6h148q8 0 14 -5t6 -13q-1 -18 -1.5 -42t-0.5 -36q0 -63 7.5 -106t25 -69.5t47 -38t73.5 -11.5h19.5t27.5 2q2 39 2 78.5v79.5v341q0 9 7 15t16 6h168q9 0 15.5 -6t6.5 -15v-28q25 17 55 27t59 15.5t55 7
t44 1.5q66 0 123.5 -14t100.5 -48t67.5 -91t24.5 -142v-44q0 -18 -0.5 -41t-2 -46.5t-3.5 -46t-5 -40.5q-1 -9 -6 -17t-16 -10q-16 -2 -51.5 -2.5t-76 -1.5t-79.5 -1h-61h-228q0 -36 -0.5 -67t-4.5 -67q-2 -20 -23 -26q-50 -13 -102.5 -21t-116.5 -8q-79 0 -147.5 16
t-118.5 55t-79 105.5t-29 167.5zM661 209q18 -1 44.5 -1.5t61.5 -0.5h183q10 0 16 4.5t6 17.5v14q0 25 -7.5 44t-26 32t-49 20t-75.5 7q-18 0 -39 -1.5t-41.5 -5.5t-39.5 -11t-33 -17v-102z" />
    <glyph glyph-name="SadFin" unicode="&#x635;" horiz-adv-x="1265" arabic-form="final" 
d="M40 155q0 13 1 34t3.5 44t5.5 46.5t7 42.5q2 8 6.5 14t16.5 6h148q8 0 14 -5t6 -13q-1 -18 -1.5 -42t-0.5 -36q0 -63 7.5 -106t25 -69.5t47 -38t73.5 -11.5h19.5t27.5 2q2 39 2 78.5v79.5v341q0 9 7 15t16 6h168q9 0 15.5 -6t6.5 -15v-28q25 17 55 27t59.5 15.5t55.5 7
t43 1.5q66 0 123.5 -14t100.5 -48t67.5 -91t24.5 -142v-38h75v-212h-604q0 -36 -0.5 -67t-4.5 -67q-2 -20 -23 -26q-50 -13 -103 -21t-117 -8q-79 0 -147 16t-118.5 55t-79 105.5t-28.5 167.5zM661 209q18 -1 44.5 -1.5t61.5 -0.5h183q10 0 16 4.5t6 17.5v15q0 25 -7.5 44
t-26 32t-49 19.5t-75.5 6.5q-18 0 -39 -1.5t-41.5 -5.5t-39.5 -11t-33 -17v-102z" />
    <glyph glyph-name="SadIni" unicode="&#x635;" horiz-adv-x="857" arabic-form="initial" 
d="M-40 202q0 4 12.5 7t17.5 3h75v310q0 9 7 15t16 6h168q9 0 15.5 -6t6.5 -15v-28q25 17 55 27t59 15.5t55 7t44 1.5q66 0 123.5 -14t100 -48t67.5 -91t25 -142v-44q0 -18 -1 -41t-2.5 -46.5t-3 -46t-4.5 -40.5q-2 -11 -7 -18t-16 -9q-15 -2 -50.5 -2.5t-76.5 -1.5
t-79.5 -1h-60.5h-516q-3 0 -8 0.5t-10 2t-8.5 3t-3.5 3.5v193zM278 209q18 -1 44.5 -1.5t61.5 -0.5h183q10 0 16 4.5t6 17.5v14q0 25 -7.5 44.5t-26 32.5t-49 19.5t-75.5 6.5q-18 0 -39 -1.5t-41.5 -5.5t-39.5 -11t-33 -17v-102z" />
    <glyph glyph-name="SadMed" unicode="&#x635;" horiz-adv-x="882" arabic-form="medial" 
d="M-40 202q0 4 12.5 7t17.5 3h75v310q0 9 7 15t16 6h168q9 0 15.5 -6t6.5 -15v-28q25 17 55 27t59 15.5t55 7t44 1.5q66 0 123.5 -14t100 -47.5t67.5 -89.5t25 -139v-43h75v-212h-892q-3 0 -8 0.5t-10 2t-8.5 3t-3.5 3.5v193zM278 209q18 -1 44.5 -1.5t61.5 -0.5h183
q10 0 16 4.5t6 17.5v13q0 25 -7.5 44.5t-26 32.5t-49 20t-75.5 7q-18 0 -39 -1.5t-41.5 -5.5t-39.5 -11t-33 -17v-102z" />
    <glyph glyph-name="DadSep" unicode="&#x636;" horiz-adv-x="1240" arabic-form="isolated" 
d="M40 155q0 13 1 34t3.5 44t5.5 46.5t7 42.5q2 8 6.5 14t16.5 6h148q8 0 14 -5t6 -13q-1 -18 -1.5 -42t-0.5 -36q0 -63 7.5 -106t25 -69.5t47 -38t73.5 -11.5h19.5t27.5 2q2 39 2 78.5v79.5v341q0 9 7 15t16 6h168q9 0 15.5 -6t6.5 -15v-28q25 17 55 27t59 15.5t55 7
t44 1.5q66 0 123.5 -14t100.5 -48t67.5 -91t24.5 -142v-44q0 -18 -0.5 -41t-2 -46.5t-3.5 -46t-5 -40.5q-1 -9 -6 -17t-16 -10q-16 -2 -51.5 -2.5t-76 -1.5t-79.5 -1h-61h-228q0 -36 -0.5 -67t-4.5 -67q-2 -20 -23 -26q-50 -13 -102.5 -21t-116.5 -8q-79 0 -147.5 16
t-118.5 55t-79 105.5t-29 167.5zM661 209q18 -1 44.5 -1.5t61.5 -0.5h183q10 0 16 4.5t6 17.5v14q0 25 -7.5 44t-26 32t-49 20t-75.5 7q-18 0 -39 -1.5t-41.5 -5.5t-39.5 -11t-33 -17v-102zM748 755q0 8 5.5 13t13.5 5h127q8 0 13.5 -5t5.5 -13v-111q0 -8 -5.5 -13t-13.5 -5
h-127q-8 0 -13.5 5t-5.5 13v111z" />
    <glyph glyph-name="DadFin" unicode="&#x636;" horiz-adv-x="1265" arabic-form="final" 
d="M40 155q0 13 1 34t3.5 44t5.5 46.5t7 42.5q2 8 6.5 14t16.5 6h148q8 0 14 -5t6 -13q-1 -18 -1.5 -42t-0.5 -36q0 -63 7.5 -106t25 -69.5t47 -38t73.5 -11.5h19.5t27.5 2q2 39 2 78.5v79.5v341q0 9 7 15t16 6h168q9 0 15.5 -6t6.5 -15v-28q25 17 55 27t59.5 15.5t55.5 7
t43 1.5q66 0 123.5 -14t100.5 -48t67.5 -91t24.5 -142v-38h75v-212h-604q0 -36 -0.5 -67t-4.5 -67q-2 -20 -23 -26q-50 -13 -103 -21t-117 -8q-79 0 -147 16t-118.5 55t-79 105.5t-28.5 167.5zM661 209q18 -1 44.5 -1.5t61.5 -0.5h183q10 0 16 4.5t6 17.5v15q0 25 -7.5 44
t-26 32t-49 19.5t-75.5 6.5q-18 0 -39 -1.5t-41.5 -5.5t-39.5 -11t-33 -17v-102zM748 755q0 8 5.5 13t13.5 5h127q8 0 13.5 -5t5.5 -13v-111q0 -8 -5.5 -13t-13.5 -5h-127q-8 0 -13.5 5t-5.5 13v111z" />
    <glyph glyph-name="DadIni" unicode="&#x636;" horiz-adv-x="857" arabic-form="initial" 
d="M-40 202q0 4 12.5 7t17.5 3h75v310q0 9 7 15t16 6h168q9 0 15.5 -6t6.5 -15v-28q25 17 55 27t59 15.5t55 7t44 1.5q66 0 123.5 -14t100 -48t67.5 -91t25 -142v-44q0 -18 -1 -41t-2.5 -46.5t-3 -46t-4.5 -40.5q-2 -11 -7 -18t-16 -9q-15 -2 -50.5 -2.5t-76.5 -1.5
t-79.5 -1h-60.5h-516q-3 0 -8 0.5t-10 2t-8.5 3t-3.5 3.5v193zM278 209q18 -1 44.5 -1.5t61.5 -0.5h183q10 0 16 4.5t6 17.5v14q0 25 -7.5 44.5t-26 32.5t-49 19.5t-75.5 6.5q-18 0 -39 -1.5t-41.5 -5.5t-39.5 -11t-33 -17v-102zM374 755q0 8 5.5 13t13.5 5h127q8 0 13.5 -5
t5.5 -13v-111q0 -8 -5.5 -13t-13.5 -5h-127q-8 0 -13.5 5t-5.5 13v111z" />
    <glyph glyph-name="DadMed" unicode="&#x636;" horiz-adv-x="882" arabic-form="medial" 
d="M-40 202q0 4 12.5 7t17.5 3h75v310q0 9 7 15t16 6h168q9 0 15.5 -6t6.5 -15v-28q25 17 55 27t59 15.5t55 7t44 1.5q66 0 123.5 -14t100 -47.5t67.5 -89.5t25 -139v-43h75v-212h-892q-3 0 -8 0.5t-10 2t-8.5 3t-3.5 3.5v193zM278 209q18 -1 44.5 -1.5t61.5 -0.5h183
q10 0 16 4.5t6 17.5v13q0 25 -7.5 44.5t-26 32.5t-49 20t-75.5 7q-18 0 -39 -1.5t-41.5 -5.5t-39.5 -11t-33 -17v-102zM374 755q0 8 5.5 13t13.5 5h127q8 0 13.5 -5t5.5 -13v-111q0 -8 -5.5 -13t-13.5 -5h-127q-8 0 -13.5 5t-5.5 13v111z" />
    <glyph glyph-name="TahSep" unicode="&#x637;" horiz-adv-x="969" arabic-form="isolated" 
d="M50 192q0 8 6 14t14 6h102v546q0 9 7 15t16 6h173q9 0 15.5 -6t6.5 -15v-254q25 15 55 23.5t59 12t55 4.5t44 1q66 0 123.5 -14t100 -47.5t67.5 -89.5t25 -139v-49q0 -18 -1 -41t-2.5 -46.5t-3 -46t-4.5 -40.5q-1 -10 -6.5 -17.5t-16.5 -9.5q-15 -2 -50.5 -2.5
t-76.5 -1.5t-79.5 -1h-60.5h-548q-8 0 -14 6t-6 14v172zM679 207q10 0 16 4.5t6 17.5v13q0 25 -7.5 44.5t-26 33t-49 20t-75.5 6.5q-18 0 -39 -0.5t-42 -3t-40 -7.5t-32 -14v-112q18 -1 44.5 -1.5t61.5 -0.5h183z" />
    <glyph glyph-name="TahFin" unicode="&#x637;" horiz-adv-x="994" arabic-form="final" 
d="M50 192q0 8 6 14t14 6h102v546q0 9 7 15t16 6h173q9 0 15.5 -6t6.5 -15v-254q25 15 55 23.5t59 12t55 4.5t44 1q66 0 123.5 -14t100 -47t67.5 -88t25 -136v-48h75v-212h-924q-8 0 -14 6t-6 14v172zM679 207q10 0 16 4.5t6 17.5v12q0 26 -7.5 45.5t-26 33t-49 20
t-75.5 6.5q-18 0 -39 -0.5t-42 -3t-40 -7.5t-32 -14v-112q18 -1 39.5 -1.5t56.5 -0.5h193z" />
    <glyph glyph-name="TahIni" unicode="&#x637;" horiz-adv-x="872" arabic-form="initial" 
d="M-40 202q0 4 12.5 7t17.5 3h85v546q0 9 7 15t16 6h173q9 0 15.5 -6t6.5 -15v-254q25 15 55 23.5t59 12t55 4.5t44 1q66 0 123.5 -14t100 -47.5t67.5 -89.5t25 -139v-49q0 -18 -1 -41t-2.5 -46.5t-3 -46t-4.5 -40.5q-1 -10 -6.5 -17.5t-16.5 -9.5q-15 -2 -50.5 -2.5
t-76.5 -1.5t-79.5 -1h-60.5h-531q-3 0 -8 0.5t-10 2t-8.5 3t-3.5 3.5v193zM582 207q10 0 16 4.5t6 17.5v13q0 25 -7.5 44.5t-26 33t-49 20t-75.5 6.5q-18 0 -39 -0.5t-42 -3t-40 -7.5t-32 -14v-112q18 -1 44.5 -1.5t61.5 -0.5h183z" />
    <glyph glyph-name="TahMed" unicode="&#x637;" horiz-adv-x="897" arabic-form="medial" 
d="M-40 202q0 4 12.5 7t17.5 3h85v546q0 9 7 15t16 6h173q9 0 15.5 -6t6.5 -15v-254q25 15 55 23.5t59 12t55 4.5t44 1q66 0 123.5 -14t100 -47t67.5 -88t25 -136v-48h75v-212h-907q-3 0 -8 0.5t-10 2t-8.5 3t-3.5 3.5v193zM582 207q10 0 16 4.5t6 17.5v12q0 26 -7.5 45.5
t-26 33t-49 20t-75.5 6.5q-18 0 -39 -0.5t-42 -3t-40 -7.5t-32 -14v-112q18 -1 39.5 -1.5t56.5 -0.5h193z" />
    <glyph glyph-name="ZahSep" unicode="&#x638;" horiz-adv-x="969" arabic-form="isolated" 
d="M50 192q0 8 6 14t14 6h102v546q0 9 7 15t16 6h173q9 0 15.5 -6t6.5 -15v-254q25 15 55 23.5t59 12t55 4.5t44 1q66 0 123.5 -14t100 -47.5t67.5 -89.5t25 -139v-49q0 -18 -1 -41t-2.5 -46.5t-3 -46t-4.5 -40.5q-1 -10 -6.5 -17.5t-16.5 -9.5q-15 -2 -50.5 -2.5
t-76.5 -1.5t-79.5 -1h-60.5h-548q-8 0 -14 6t-6 14v172zM679 207q10 0 16 4.5t6 17.5v13q0 25 -7.5 44.5t-26 33t-49 20t-75.5 6.5q-18 0 -39 -0.5t-42 -3t-40 -7.5t-32 -14v-112q18 -1 44.5 -1.5t61.5 -0.5h183zM506 755q0 8 5.5 13t13.5 5h127q8 0 13.5 -5t5.5 -13v-111
q0 -8 -5.5 -13t-13.5 -5h-127q-8 0 -13.5 5t-5.5 13v111z" />
    <glyph glyph-name="ZahFin" unicode="&#x638;" horiz-adv-x="994" arabic-form="final" 
d="M50 192q0 8 6 14t14 6h102v546q0 9 7 15t16 6h173q9 0 15.5 -6t6.5 -15v-254q25 15 55 23.5t59 12t55 4.5t44 1q66 0 123.5 -14t100 -47t67.5 -88t25 -136v-48h75v-212h-924q-8 0 -14 6t-6 14v172zM679 207q10 0 16 4.5t6 17.5v12q0 26 -7.5 45.5t-26 33t-49 20
t-75.5 6.5q-18 0 -39 -0.5t-42 -3t-40 -7.5t-32 -14v-112q18 -1 39.5 -1.5t56.5 -0.5h193zM506 755q0 8 5.5 13t13.5 5h127q8 0 13.5 -5t5.5 -13v-111q0 -8 -5.5 -13t-13.5 -5h-127q-8 0 -13.5 5t-5.5 13v111z" />
    <glyph glyph-name="ZahIni" unicode="&#x638;" horiz-adv-x="872" arabic-form="initial" 
d="M-40 202q0 4 12.5 7t17.5 3h85v546q0 9 7 15t16 6h173q9 0 15.5 -6t6.5 -15v-254q25 15 55 23.5t59 12t55 4.5t44 1q66 0 123.5 -14t100 -47.5t67.5 -89.5t25 -139v-49q0 -18 -1 -41t-2.5 -46.5t-3 -46t-4.5 -40.5q-1 -10 -6.5 -17.5t-16.5 -9.5q-15 -2 -50.5 -2.5
t-76.5 -1.5t-79.5 -1h-60.5h-531q-3 0 -8 0.5t-10 2t-8.5 3t-3.5 3.5v193zM582 207q10 0 16 4.5t6 17.5v13q0 25 -7.5 44.5t-26 33t-49 20t-75.5 6.5q-18 0 -39 -0.5t-42 -3t-40 -7.5t-32 -14v-112q18 -1 44.5 -1.5t61.5 -0.5h183zM409 755q0 8 5.5 13t13.5 5h127
q8 0 13.5 -5t5.5 -13v-111q0 -8 -5.5 -13t-13.5 -5h-127q-8 0 -13.5 5t-5.5 13v111z" />
    <glyph glyph-name="ZahMed" unicode="&#x638;" horiz-adv-x="897" arabic-form="medial" 
d="M-40 202q0 4 12.5 7t17.5 3h85v546q0 9 7 15t16 6h173q9 0 15.5 -6t6.5 -15v-254q25 15 55 23.5t59 12t55 4.5t44 1q66 0 123.5 -14t100 -47t67.5 -88t25 -136v-48h75v-212h-907q-3 0 -8 0.5t-10 2t-8.5 3t-3.5 3.5v193zM582 207q10 0 16 4.5t6 17.5v12q0 26 -7.5 45.5
t-26 33t-49 20t-75.5 6.5q-18 0 -39 -0.5t-42 -3t-40 -7.5t-32 -14v-112q18 -1 39.5 -1.5t56.5 -0.5h193zM409 755q0 8 5.5 13t13.5 5h127q8 0 13.5 -5t5.5 -13v-111q0 -8 -5.5 -13t-13.5 -5h-127q-8 0 -13.5 5t-5.5 13v111z" />
    <glyph glyph-name="AinSep" unicode="&#x639;" horiz-adv-x="660" arabic-form="isolated" 
d="M381 -239q0 -11 -6.5 -18t-15.5 -7h-21q-68 0 -121 15.5t-90.5 50t-57 89t-19.5 133.5q0 43 3.5 83t8.5 70q2 11 8.5 16t15.5 6l67 2q-8 21 -13 46.5t-5 48.5v23q0 67 26 110.5t68 69t95.5 36t108.5 10.5q38 0 69.5 -3t66.5 -11q24 -5 24 -21v-133q0 -11 -3.5 -16
t-16.5 -5q-28 2 -52.5 2.5t-53.5 0.5q-64 0 -91.5 -16t-27.5 -58v-10q0 -23 9.5 -40t20.5 -23h212q9 0 14.5 -6t5.5 -14v-172q0 -8 -5.5 -14t-14.5 -6h-268h-29.5t-29.5 -1v-8.5t1 -9.5q4 -32 25.5 -47t55.5 -15h15q9 0 15 -6.5t6 -14.5v-137z" />
    <glyph glyph-name="AinFin" unicode="&#x639;" horiz-adv-x="743" arabic-form="final" 
d="M360 -81q9 0 15 -6.5t6 -14.5v-137q0 -11 -6.5 -18t-15.5 -7h-21q-67 0 -120.5 15.5t-90.5 50t-57 89t-20 133.5q0 43 3.5 86t8.5 73q2 11 8.5 16t15.5 6q15 1 33 1.5t37 0.5h8l-32 107q-5 7 -6.5 22t-0.5 25l5 93q1 9 8 16t17 14q20 14 49 26t60.5 20.5t64 13t60.5 4.5
q53 0 102.5 -9.5t88 -33.5t61.5 -65.5t23 -105.5v-29q0 -21 -5 -48.5t-12 -44.5h96v-212h-421h-29.5t-29.5 -1v-8.5t1 -9.5q4 -32 25.5 -47t55.5 -15h15zM402 207q18 0 29.5 7.5t18 19.5t9 27t2.5 29v11q0 31 -17.5 49t-53.5 18q-14 0 -36.5 -2.5t-34.5 -8.5l49 -150h34z
" />
    <glyph glyph-name="AinIni" unicode="&#x639;" horiz-adv-x="552" arabic-form="initial" 
d="M-40 202q0 4 12.5 7t17.5 3h59q-6 17 -9 44.5t-3 49.5v13q0 66 24.5 110t65 69.5t91.5 36t104 10.5q37 0 70.5 -3t68.5 -11q24 -5 24 -21v-133q0 -11 -3.5 -16t-16.5 -5q-28 2 -53 2.5t-54 0.5q-60 0 -86.5 -16.5t-26.5 -57.5v-10q0 -17 7.5 -37t18.5 -26h211
q9 0 14.5 -6t5.5 -14v-172q0 -8 -5.5 -14t-14.5 -6h-492q-3 0 -8 0.5t-10 2t-8.5 3t-3.5 3.5v193z" />
    <glyph glyph-name="AinMed" unicode="&#x639;" horiz-adv-x="654" arabic-form="medial" 
d="M-40 202q0 5 12 7.5t18 2.5h95l-32 102q-5 7 -6.5 22t-0.5 25l5 94q1 9 8 15.5t17 13.5q20 14 49 26t60.5 20.5t64 13t60.5 4.5q53 0 102.5 -9.5t88 -33.5t61.5 -65.5t23 -105.5v-28q0 -21 -5 -49t-12 -45h86v-212h-664q-6 0 -18 2.5t-12 6.5v193zM324 207q17 0 28 7.5
t18 19.5t9.5 27t2.5 29v11q0 34 -19 50.5t-52 16.5q-14 0 -36.5 -2.5t-34.5 -8.5l50 -150h34z" />
    <glyph glyph-name="GhainSep" unicode="&#x63a;" horiz-adv-x="660" arabic-form="isolated" 
d="M381 -239q0 -11 -6.5 -18t-15.5 -7h-21q-68 0 -121 15.5t-90.5 50t-57 89t-19.5 133.5q0 43 3.5 83t8.5 70q2 11 8.5 16t15.5 6l67 2q-8 21 -13 46.5t-5 48.5v23q0 67 26 110.5t68 69t95.5 36t108.5 10.5q38 0 69.5 -3t66.5 -11q24 -5 24 -21v-133q0 -11 -3.5 -16
t-16.5 -5q-28 2 -52.5 2.5t-53.5 0.5q-64 0 -91.5 -16t-27.5 -58v-10q0 -23 9.5 -40t20.5 -23h212q9 0 14.5 -6t5.5 -14v-172q0 -8 -5.5 -14t-14.5 -6h-268h-29.5t-29.5 -1v-8.5t1 -9.5q4 -32 25.5 -47t55.5 -15h15q9 0 15 -6.5t6 -14.5v-137zM306 755q0 8 5.5 13t13.5 5
h127q8 0 13.5 -5t5.5 -13v-111q0 -8 -5.5 -13t-13.5 -5h-127q-8 0 -13.5 5t-5.5 13v111z" />
    <glyph glyph-name="GhainFin" unicode="&#x63a;" horiz-adv-x="743" arabic-form="final" 
d="M360 -81q9 0 15 -6.5t6 -14.5v-137q0 -11 -6.5 -18t-15.5 -7h-21q-67 0 -120.5 15.5t-90.5 50t-57 89t-20 133.5q0 43 3.5 86t8.5 73q2 11 8.5 16t15.5 6q15 1 33 1.5t37 0.5h8l-32 107q-5 7 -6.5 22t-0.5 25l5 93q1 9 8 16t17 14q20 14 49 26t60.5 20.5t64 13t60.5 4.5
q53 0 102.5 -9.5t88 -33.5t61.5 -65.5t23 -105.5v-29q0 -21 -5 -48.5t-12 -44.5h96v-212h-421h-29.5t-29.5 -1v-8.5t1 -9.5q4 -32 25.5 -47t55.5 -15h15zM402 207q18 0 29.5 7.5t18 19.5t9 27t2.5 29v11q0 31 -17.5 49t-53.5 18q-14 0 -36.5 -2.5t-34.5 -8.5l49 -150h34z
M304 755q0 8 5.5 13t13.5 5h127q8 0 13.5 -5t5.5 -13v-111q0 -8 -5.5 -13t-13.5 -5h-127q-8 0 -13.5 5t-5.5 13v111z" />
    <glyph glyph-name="GhainIni" unicode="&#x63a;" horiz-adv-x="552" arabic-form="initial" 
d="M-40 202q0 4 12.5 7t17.5 3h59q-6 17 -9 44.5t-3 49.5v13q0 66 24.5 110t65 69.5t91.5 36t104 10.5q37 0 70.5 -3t68.5 -11q24 -5 24 -21v-133q0 -11 -3.5 -16t-16.5 -5q-28 2 -53 2.5t-54 0.5q-60 0 -86.5 -16.5t-26.5 -57.5v-10q0 -17 7.5 -37t18.5 -26h211
q9 0 14.5 -6t5.5 -14v-172q0 -8 -5.5 -14t-14.5 -6h-492q-3 0 -8 0.5t-10 2t-8.5 3t-3.5 3.5v193zM203 755q0 8 5.5 13t13.5 5h127q8 0 13.5 -5t5.5 -13v-111q0 -8 -5.5 -13t-13.5 -5h-127q-8 0 -13.5 5t-5.5 13v111z" />
    <glyph glyph-name="GhainMed" unicode="&#x63a;" horiz-adv-x="654" arabic-form="medial" 
d="M-40 202q0 5 12 7.5t18 2.5h95l-32 102q-5 7 -6.5 22t-0.5 25l5 94q1 9 8 15.5t17 13.5q20 14 49 26t60.5 20.5t64 13t60.5 4.5q53 0 102.5 -9.5t88 -33.5t61.5 -65.5t23 -105.5v-28q0 -21 -5 -49t-12 -45h86v-212h-664q-6 0 -18 2.5t-12 6.5v193zM324 207q17 0 28 7.5
t18 19.5t9.5 27t2.5 29v11q0 34 -19 50.5t-52 16.5q-14 0 -36.5 -2.5t-34.5 -8.5l50 -150h34zM225 755q0 8 5.5 13t13.5 5h127q8 0 13.5 -5t5.5 -13v-111q0 -8 -5.5 -13t-13.5 -5h-127q-8 0 -13.5 5t-5.5 13v111z" />
    <glyph glyph-name="FehSep" unicode="&#x641;" horiz-adv-x="1162" arabic-form="isolated" 
d="M614 212q-7 13 -11.5 34.5t-4.5 48.5v14q0 65 22.5 111t63 75t96.5 42t123 13q22 0 49.5 -2t54 -4.5t48 -6t31.5 -6.5q13 -4 16.5 -9.5t3.5 -13.5v-276q0 -40 -1.5 -97.5t-6.5 -111.5q-1 -11 -7.5 -14.5t-16.5 -4.5q-45 -2 -88 -3t-80 -1h-497q-108 0 -179 19.5t-113 57
t-59.5 93t-17.5 127.5q0 32 3.5 62.5t11.5 65.5q2 9 6.5 15t15.5 6h150q8 0 14 -5t6 -14q0 -17 -0.5 -36.5t-0.5 -31.5q0 -44 9.5 -72.5t31.5 -45t57 -23t85 -6.5h185zM798 283q0 -38 14 -57t49 -19h41v164q-5 1 -15 1.5t-14 0.5q-38 0 -56.5 -19.5t-18.5 -54.5v-16z
M777 755q0 8 5.5 13t13.5 5h127q8 0 13.5 -5t5.5 -13v-111q0 -8 -5.5 -13t-13.5 -5h-127q-8 0 -13.5 5t-5.5 13v111z" />
    <glyph glyph-name="FehFin" unicode="&#x641;" horiz-adv-x="1183" arabic-form="final" 
d="M614 212q-7 13 -11.5 34t-4.5 48v15q0 65 22.5 111t63 75t96.5 42t123 13q22 0 48.5 -2t52 -4.5t46.5 -6t31 -6.5q13 -4 16.5 -10t3.5 -14v-295h82v-212h-774q-108 0 -179 19.5t-113 57t-59.5 93t-17.5 127.5q0 32 3.5 62t11.5 66q2 9 6.5 15t15.5 6h150q8 0 14 -5t6 -14
q0 -17 -0.5 -36.5t-0.5 -31.5q0 -44 9.5 -72.5t31.5 -45t57 -23t85 -6.5h185zM902 207v164q-5 1 -15 1.5t-14 0.5q-38 0 -56.5 -19.5t-18.5 -54.5v-16q0 -38 14 -57t49 -19h41zM777 755q0 8 5.5 13t13.5 5h127q8 0 13.5 -5t5.5 -13v-111q0 -8 -5.5 -13t-13.5 -5h-127
q-8 0 -13.5 5t-5.5 13v111z" />
    <glyph glyph-name="FehIni" unicode="&#x641;" horiz-adv-x="617" arabic-form="initial" 
d="M253 283q0 -38 13.5 -57t46.5 -19h44v164q-5 1 -15 1.5t-14 0.5q-38 0 -56.5 -19.5t-18.5 -54.5v-16zM-40 203q0 2 3.5 3.5t8.5 3t10 2t8 0.5h79q-7 13 -11.5 34t-4.5 48v15q0 65 22.5 111t63 75t96.5 42t123 13q22 0 49.5 -2t54 -4.5t48 -6t31.5 -6.5q13 -4 16.5 -10
t3.5 -14v-275q0 -40 -1.5 -97.5t-6.5 -111.5q-1 -11 -7.5 -14.5t-16.5 -4.5q-45 -2 -85 -3t-82 -1h-372q-3 0 -8 0.5t-10 2t-8.5 3t-3.5 3.5v194zM232 755q0 8 5.5 13t13.5 5h127q8 0 13.5 -5t5.5 -13v-111q0 -8 -5.5 -13t-13.5 -5h-127q-8 0 -13.5 5t-5.5 13v111z" />
    <glyph glyph-name="FehMed" unicode="&#x641;" horiz-adv-x="638" arabic-form="medial" 
d="M-40 203q0 2 3.5 3.5t8.5 3t10 2t8 0.5h79q-7 13 -11.5 34t-4.5 48v15q0 65 22.5 111t63 75t96.5 42t123 13q22 0 48.5 -2t52 -4.5t46.5 -6t31 -6.5q13 -4 16.5 -10t3.5 -14v-295h82v-212h-648q-3 0 -8 0.5t-10 2t-8.5 3t-3.5 3.5v194zM357 207v164q-5 1 -15 1.5t-14 0.5
q-38 0 -56.5 -19.5t-18.5 -54.5v-16q0 -38 13.5 -57t46.5 -19h44zM232 755q0 8 5.5 13t13.5 5h127q8 0 13.5 -5t5.5 -13v-111q0 -8 -5.5 -13t-13.5 -5h-127q-8 0 -13.5 5t-5.5 13v111z" />
    <glyph glyph-name="QafSep" unicode="&#x642;" horiz-adv-x="862" arabic-form="isolated" 
d="M595 355q-5 1 -14.5 1h-14.5q-40 0 -57.5 -22.5t-17.5 -54.5v-13q0 -31 14 -49t52 -18t38 19v137zM35 89q0 27 3 67t10 81q2 9 6.5 14.5t15.5 5.5h147q9 0 15 -5t6 -13q-1 -20 -1 -40.5v-32.5q0 -63 12 -105t39 -67.5t70 -36.5t104 -11h126v62q-12 -4 -30 -6t-33 -2
q-48 0 -89.5 16t-72.5 46.5t-48.5 74.5t-17.5 101v11q0 147 79.5 218t237.5 71q19 0 44.5 -1.5t50 -4.5t44.5 -6.5t28 -7.5q11 -5 15.5 -9.5t4.5 -12.5v-449q0 -26 -0.5 -62t-1.5 -73.5t-2 -73t-2 -59.5q0 -21 -22 -24q-30 -4 -65.5 -7t-74.5 -4.5t-79 -2t-77 -0.5
q-97 0 -178.5 16.5t-140 56.5t-91 107t-32.5 168zM361 745q0 8 6 13t14 5h118q8 0 14.5 -5t6.5 -13v-111q0 -8 -6.5 -13t-14.5 -5h-118q-8 0 -14 5t-6 13v111zM579 745q0 8 6 13t14 5h118q8 0 14.5 -5t6.5 -13v-111q0 -8 -6.5 -13t-14.5 -5h-118q-8 0 -14 5t-6 13v111z" />
    <glyph glyph-name="QafFin" unicode="&#x642;" horiz-adv-x="880" arabic-form="final" 
d="M595 204v151q-5 1 -14.5 1h-14.5q-40 0 -57.5 -22.5t-17.5 -54.5v-8q0 -31 15 -49t47 -18h42zM35 89q0 27 3 67t10 81q3 20 23 20h147q20 0 20 -18q-1 -18 -1 -40v-34q0 -63 12.5 -105t39.5 -67.5t70 -36t104 -10.5h125v54h-37q-121 0 -187.5 62.5t-66.5 178.5v11
q0 143 79.5 214.5t237.5 71.5q19 0 44 -1.5t49 -4.5t43.5 -6.5t27.5 -7.5q11 -5 15.5 -9.5t4.5 -12.5v-284h82v-212h-83q0 -53 -1 -112.5t-3 -108.5q-2 -21 -22 -24q-30 -4 -65 -7t-73.5 -4.5t-78 -2t-76.5 -0.5q-97 0 -178.5 16.5t-140 56.5t-91.5 107t-33 168zM361 745
q0 8 6 13t14 5h118q8 0 14.5 -5t6.5 -13v-111q0 -8 -6.5 -13t-14.5 -5h-118q-8 0 -14 5t-6 13v111zM579 745q0 8 6 13t14 5h118q8 0 14.5 -5t6.5 -13v-111q0 -8 -6.5 -13t-14.5 -5h-118q-8 0 -14 5t-6 13v111z" />
    <glyph glyph-name="QafIni" unicode="&#x642;" horiz-adv-x="617" arabic-form="initial" 
d="M253 283q0 -38 13.5 -57t46.5 -19h44v164q-5 1 -15 1.5t-14 0.5q-38 0 -56.5 -19.5t-18.5 -54.5v-16zM-40 203q0 2 3.5 3.5t8.5 3t10 2t8 0.5h79q-7 13 -11.5 34t-4.5 48v15q0 65 22.5 111t63 75t96.5 42t123 13q22 0 49.5 -2t54 -4.5t48 -6t31.5 -6.5q13 -4 16.5 -10
t3.5 -14v-275q0 -40 -1.5 -97.5t-6.5 -111.5q-1 -11 -7.5 -14.5t-16.5 -4.5q-45 -2 -85 -3t-82 -1h-372q-3 0 -8 0.5t-10 2t-8.5 3t-3.5 3.5v194zM127 755q0 8 6 13t14 5h118q8 0 14.5 -5t6.5 -13v-111q0 -8 -6.5 -13t-14.5 -5h-118q-8 0 -14 5t-6 13v111zM345 755q0 8 6 13
t14 5h118q8 0 14.5 -5t6.5 -13v-111q0 -8 -6.5 -13t-14.5 -5h-118q-8 0 -14 5t-6 13v111z" />
    <glyph glyph-name="QafMed" unicode="&#x642;" horiz-adv-x="638" arabic-form="medial" 
d="M-40 203q0 2 3.5 3.5t8.5 3t10 2t8 0.5h79q-7 13 -11.5 34t-4.5 48v15q0 65 22.5 111t63 75t96.5 42t123 13q22 0 48.5 -2t52 -4.5t46.5 -6t31 -6.5q13 -4 16.5 -10t3.5 -14v-295h82v-212h-648q-3 0 -8 0.5t-10 2t-8.5 3t-3.5 3.5v194zM357 207v164q-5 1 -15 1.5t-14 0.5
q-38 0 -56.5 -19.5t-18.5 -54.5v-16q0 -38 13.5 -57t46.5 -19h44zM127 755q0 8 6 13t14 5h118q8 0 14.5 -5t6.5 -13v-111q0 -8 -6.5 -13t-14.5 -5h-118q-8 0 -14 5t-6 13v111zM345 755q0 8 6 13t14 5h118q8 0 14.5 -5t6.5 -13v-111q0 -8 -6.5 -13t-14.5 -5h-118q-8 0 -14 5
t-6 13v111z" />
    <glyph glyph-name="KafSep" unicode="&#x643;" horiz-adv-x="942" arabic-form="isolated" 
d="M210 365q20 0 20 -18v-44q0 -22 4 -39t17.5 -28.5t39.5 -17.5t69 -6h266q15 0 22.5 3.5t7.5 23.5v519q0 9 6.5 15t16.5 6h176q10 0 16 -6t6 -15v-590q0 -36 -1.5 -64.5t-4.5 -63.5q-2 -9 -6.5 -16.5t-16.5 -9.5q-16 -3 -48 -6t-70 -4.5t-76 -2.5t-65 -1h-273
q-95 0 -151.5 22t-86.5 57.5t-39 79t-9 86.5q0 5 1 17.5t2.5 27.5t3.5 30t5 25q3 8 7.5 14t15.5 6h145zM308 481q0 6 4.5 10t10.5 4h17q-4 11 -5.5 24t-1.5 24q0 52 31.5 80.5t93.5 28.5q10 0 28.5 -1.5t37.5 -6.5q6 -2 10.5 -6t4.5 -12v-69q0 -10 -14 -10h-45
q-17 0 -22.5 -7.5t-5.5 -17.5q0 -19 8 -25h76q6 0 10.5 -4t4.5 -10v-75q0 -6 -4.5 -10t-10.5 -4h-213q-6 0 -10.5 4.5t-4.5 10.5v72z" />
    <glyph glyph-name="KafFin" unicode="&#x643;" horiz-adv-x="956" arabic-form="final" 
d="M210 365q20 0 20 -18v-44q0 -22 4 -39t17.5 -28.5t39.5 -17.5t69 -6h265q15 0 23 4t8 24v518q0 9 6.5 15t16.5 6h173q9 0 15.5 -6t6.5 -15v-542q7 -2 17 -3t18 -1h47v-212h-12q-18 0 -39 1t-43.5 4t-45 8t-42.5 12q-16 -8 -36.5 -12.5t-42.5 -7.5t-44.5 -4t-42.5 -1h-292
q-95 0 -151.5 22t-86.5 58t-39 80.5t-9 89.5q0 5 1 16.5t2.5 26t3.5 28.5t5 24q3 8 7.5 14t15.5 6h145zM308 481q0 6 4.5 10t10.5 4h17q-4 11 -5.5 24t-1.5 24q0 52 31.5 80.5t93.5 28.5q10 0 28.5 -1.5t37.5 -6.5q6 -2 10.5 -6t4.5 -12v-69q0 -10 -14 -10h-45
q-17 0 -22.5 -7.5t-5.5 -17.5q0 -19 8 -25h76q6 0 10.5 -4t4.5 -10v-75q0 -6 -4.5 -10t-10.5 -4h-213q-6 0 -10.5 4.5t-4.5 10.5v72z" />
    <glyph glyph-name="KafIni" unicode="&#x643;" horiz-adv-x="783" arabic-form="initial" 
d="M-40 192q0 8 11 14t19 6h514v23q0 22 -7.5 40.5t-25 32t-45 21.5t-67.5 8h-275q-17 0 -23 6.5t-7 18.5q0 2 -0.5 9.5t-1 16t-0.5 15.5v8q0 28 4.5 53t13.5 49t21.5 49t28.5 54l78 145q5 8 12 13t18 5h168q14 0 14 -11q0 -4 -3 -10l-95 -182l-25 -47q18 1 30.5 2t23 1.5
t22 0.5h28.5q106 0 171.5 -27t102.5 -74.5t50 -112t13 -140.5v-39q0 -7 -0.5 -22t-2 -32.5t-3.5 -34.5t-4 -27q-2 -8 -6.5 -13t-17.5 -6q-19 -2 -50.5 -2.5t-68 -1.5t-75.5 -1h-72h-438q-8 0 -19 6t-11 14v172z" />
    <glyph glyph-name="KafMed" unicode="&#x643;" horiz-adv-x="802" arabic-form="medial" 
d="M-40 192q0 8 11 14t19 6h514v23q0 22 -7.5 40.5t-25 32t-45 21.5t-67.5 8h-275q-17 0 -23 6.5t-7 18.5q0 2 -0.5 9.5t-1 15.5t-0.5 15v8q0 28 4.5 52.5t13.5 48.5t21.5 49t28.5 54l78 147q5 8 12 13t18 5h168q14 0 14 -11q0 -4 -3 -10l-94 -180l-26 -49q18 1 31 2t25 1.5
t24 0.5h29q91 0 153.5 -22.5t101.5 -61.5t56.5 -91t19.5 -110v-36h75v-212h-812q-8 0 -19 6t-11 14v172z" />
    <glyph glyph-name="LamSep" unicode="&#x644;" horiz-adv-x="744" arabic-form="isolated" 
d="M228 342q9 0 15 -5t5 -14q-1 -17 -1.5 -36t-0.5 -31q0 -59 5 -103t21.5 -73.5t46.5 -44t81 -14.5h25t32 2q2 39 2 78.5v79.5v577q0 10 7 15.5t16 5.5h175q9 0 15.5 -5.5t6.5 -15.5v-661q0 -19 -0.5 -49t-1.5 -63t-2.5 -65t-3.5 -55q-2 -19 -22 -24q-54 -14 -108 -22
t-119 -8q-82 0 -152 15.5t-121 54t-80 104.5t-29 167q0 13 1 34t3.5 44t5.5 47t7 45q3 20 23 20h148z" />
    <glyph glyph-name="LamFin" unicode="&#x644;" horiz-adv-x="759" arabic-form="final" 
d="M228 342q9 0 15 -5t5 -14q-1 -17 -1.5 -36t-0.5 -31q0 -59 5 -103t21.5 -73.5t46.5 -44t81 -14.5h25t32 2q2 39 2 78.5v79.5v577q0 10 7 15.5t16 5.5h173q9 0 15.5 -5.5t6.5 -15.5v-546h82v-212h-84q-1 -38 -2.5 -69t-3.5 -66q-1 -9 -5.5 -15t-15.5 -9q-53 -14 -107 -22
t-119 -8q-82 0 -152 15.5t-121 54t-80 104.5t-29 167q0 13 1 33.5t3.5 44t5.5 47.5t7 44q3 21 23 21h148z" />
    <glyph glyph-name="LamIni" unicode="&#x644;" horiz-adv-x="350" arabic-form="initial" 
d="M-40 202q0 4 12.5 7t17.5 3h45q15 0 22.5 3.5t7.5 23.5v519q0 9 6.5 15t16.5 6h175q10 0 16 -6t6 -15v-590q0 -36 -1 -64.5t-5 -63.5q-1 -10 -6 -17t-17 -9q-16 -3 -45 -6t-63 -4.5t-68.5 -2.5t-61.5 -1h-28q-3 0 -8 0.5t-10 2t-8.5 3t-3.5 3.5v193z" />
    <glyph glyph-name="LamMed" unicode="&#x644;" horiz-adv-x="365" arabic-form="medial" 
d="M-40 203q0 2 3.5 3.5t8.5 3t10 2t8 0.5h44q15 0 23 4t8 24v518q0 9 7 15t16 6h173q10 0 16 -6t6 -15v-542q8 -2 17.5 -3t17.5 -1h47v-212h-14q-51 0 -97.5 6.5t-78.5 28.5q-16 -10 -36.5 -17t-42.5 -11t-44.5 -5.5t-43.5 -1.5h-18q-3 0 -8 0.5t-10 2t-8.5 3t-3.5 3.5v194
z" />
    <glyph glyph-name="MeemSep" unicode="&#x645;" horiz-adv-x="732" arabic-form="isolated" 
d="M30 60q0 42 11 71.5t31 48t47.5 26.5t60.5 8v79q0 61 19.5 106t54 75t80.5 44.5t100 14.5t100.5 -14.5t80 -43.5t53 -73.5t19.5 -105.5v-69q0 -65 -19.5 -110t-53.5 -73t-81 -41t-101 -13q-42 0 -88.5 8.5t-81.5 34.5q-17 0 -20.5 -5t-3.5 -12v-244q0 -9 -7 -15t-16 -6
h-163q-9 0 -15.5 6t-6.5 15v288zM378 249q0 -35 13.5 -49t40.5 -14q11 0 21 2.5t17.5 9t12 19t4.5 32.5v41q0 40 -16.5 53t-38.5 13q-21 0 -37.5 -13t-16.5 -53v-41z" />
    <glyph glyph-name="MeemFin" unicode="&#x645;" horiz-adv-x="768" arabic-form="final" 
d="M30 60q0 42 11 71.5t31 48t47.5 26.5t60.5 8v79q0 61 19.5 106t54 75t80.5 44.5t100 14.5t100 -14.5t79.5 -43.5t52.5 -73.5t19 -105.5v-56v-10.5t-1 -13.5q7 -2 19.5 -3t19.5 -1h45v-212h-22q-35 0 -77.5 5.5t-82.5 19.5q-30 -18 -69.5 -26.5t-84.5 -8.5
q-42 0 -88.5 8.5t-81.5 34.5q-17 0 -20.5 -5t-3.5 -12v-244q0 -9 -7 -15t-16 -6h-163q-9 0 -15.5 6t-6.5 15v288zM378 249q0 -33 13.5 -48t40.5 -15q11 0 21 2.5t17.5 9t12 19t4.5 32.5v41q0 40 -16.5 53t-38.5 13q-21 0 -37.5 -13t-16.5 -53v-41z" />
    <glyph glyph-name="MeemIni" unicode="&#x645;" horiz-adv-x="605" arabic-form="initial" 
d="M-40 203q0 2 3.5 3.5t8.5 3t10 2t8 0.5h32q11 0 19.5 2t10.5 12q0 2 0.5 4.5t0.5 5.5v57q0 61 19.5 106t54 75t81 44.5t100.5 14.5t100 -14.5t80 -43.5t53 -73.5t19 -105.5v-69q0 -65 -19.5 -110t-53.5 -73t-80.5 -41t-100.5 -13q-21 0 -46 2t-49 6.5t-45 11t-34 15.5
q-26 -14 -54 -19.5t-69 -5.5h-19q-3 0 -8 0.5t-10 2t-8.5 3t-3.5 3.5v194zM251 250q0 -7 0.5 -13t1.5 -11q4 -25 19.5 -32.5t33.5 -7.5q10 0 20 2.5t17.5 9t12 19t4.5 32.5v42q0 40 -16.5 52.5t-37.5 12.5q-22 0 -38.5 -12.5t-16.5 -52.5v-41z" />
    <glyph glyph-name="MeemMed" unicode="&#x645;" horiz-adv-x="641" arabic-form="medial" 
d="M-40 203q0 2 3.5 3.5t8.5 3t10 2t8 0.5h32q11 0 19 2.5t10 10.5q2 6 2 14v54q0 61 19.5 106t54 75t81 44.5t100.5 14.5t100 -14.5t79 -43.5t52 -73.5t19 -105.5v-59v-9.5t-1 -11.5q8 -2 20 -3t19 -1h45v-212h-32q-35 0 -72.5 5.5t-76.5 19.5q-31 -18 -70.5 -26.5
t-83.5 -8.5q-21 0 -46 2t-49 6.5t-45 11t-34 15.5q-24 -13 -55.5 -19t-57.5 -6h-29q-3 0 -8 0.5t-10 2t-8.5 3t-3.5 3.5v194zM251 290v-41q0 -7 0.5 -12.5t1.5 -10.5q4 -25 19.5 -32.5t33.5 -7.5q10 0 20 2.5t17.5 9t12 19t4.5 32.5v41q0 40 -16.5 53t-37.5 13
q-22 0 -38.5 -13t-16.5 -53z" />
    <glyph glyph-name="NoonSep" unicode="&#x646;" horiz-adv-x="734" arabic-form="isolated" 
d="M228 342q8 0 14 -5t6 -13q-1 -18 -1.5 -37t-0.5 -31q0 -59 5 -103t21.5 -73.5t46.5 -44t81 -14.5h25t32 2q2 39 2 78.5v79.5v275q0 9 7 15t16 6h173q9 0 15.5 -6t6.5 -15v-396q0 -53 -1 -101t-5 -94q-2 -19 -22 -24q-54 -14 -108 -22t-119 -8q-82 0 -152 15.5t-121 54
t-80 104.5t-29 167q0 13 1 34t3.5 44t5.5 47t7 45q2 8 6.5 14t16.5 6h148zM269 667q0 8 5.5 13t13.5 5h127q8 0 13.5 -5t5.5 -13v-111q0 -8 -5.5 -13t-13.5 -5h-127q-8 0 -13.5 5t-5.5 13v111z" />
    <glyph glyph-name="NoonFin" unicode="&#x646;" horiz-adv-x="756" arabic-form="final" 
d="M228 342q8 0 14 -5t6 -13q-1 -18 -1.5 -37t-0.5 -31q0 -59 5 -103t21.5 -73.5t46.5 -44t81 -14.5h25t32 2q2 39 2 78.5v79.5v275q0 9 7 15t16 6h170q9 0 15.5 -6t6.5 -15v-244h82v-212h-82q-1 -38 -1.5 -69t-2.5 -66q0 -18 -22 -24q-53 -14 -107 -22t-119 -8
q-82 0 -152 15.5t-121 54t-80 104.5t-29 167q0 13 1 34t3.5 44t5.5 47t7 45q2 8 6.5 14t16.5 6h148zM269 667q0 8 5.5 13t13.5 5h127q8 0 13.5 -5t5.5 -13v-111q0 -8 -5.5 -13t-13.5 -5h-127q-8 0 -13.5 5t-5.5 13v111z" />
    <glyph glyph-name="NoonIni" unicode="&#x646;" horiz-adv-x="341" arabic-form="initial" 
d="M-40 203q0 4 12 6.5t18 2.5h45q15 0 22.5 3.5t7.5 23.5v229q0 7 5.5 13t16.5 6h168q14 0 19.5 -5.5t6.5 -13.5q2 -58 3 -107.5t1 -91.5v-83t-0.5 -61.5t-2 -46.5t-3.5 -38q-1 -9 -6 -16.5t-17 -9.5q-16 -3 -43.5 -5.5t-59.5 -4.5t-65 -3t-60 -1h-38q-6 0 -18 2.5t-12 6.5
v194zM90 691q0 8 5.5 13t13.5 5h127q8 0 13.5 -5t5.5 -13v-111q0 -8 -5.5 -13t-13.5 -5h-127q-8 0 -13.5 5t-5.5 13v111z" />
    <glyph glyph-name="NoonMed" unicode="&#x646;" horiz-adv-x="365" arabic-form="medial" 
d="M-40 203q0 2 3.5 3.5t8.5 3t10 2t8 0.5h44q15 0 23 4t8 24v221q0 9 6.5 15t16.5 6h173q9 0 15.5 -6t6.5 -15v-245q7 -2 17 -3t18 -1h47v-212h-14q-51 0 -97.5 6.5t-78.5 28.5q-16 -10 -36.5 -17t-42.5 -11t-44.5 -5.5t-43.5 -1.5h-18q-3 0 -8 0.5t-10 2t-8.5 3t-3.5 3.5
v194zM92 691q0 8 5.5 13t13.5 5h127q8 0 13.5 -5t5.5 -13v-111q0 -8 -5.5 -13t-13.5 -5h-127q-8 0 -13.5 5t-5.5 13v111z" />
    <glyph glyph-name="HehSep" unicode="&#x647;" horiz-adv-x="594" arabic-form="isolated" 
d="M46 252q0 143 79.5 214.5t237.5 71.5q19 0 42.5 -1.5t46 -4.5t40.5 -6.5t26 -7.5q11 -5 15.5 -9.5t4.5 -12.5v-283q0 -13 -0.5 -35t-1 -47.5t-2 -51.5t-4.5 -48q-2 -11 -7.5 -14.5t-16.5 -5.5q-18 -3 -39.5 -5.5t-43.5 -3.5t-42 -1.5t-36 -0.5h-23q-135 0 -205.5 62.5
t-70.5 178.5v11zM240 270q0 -30 15.5 -48t50.5 -18h38v151q-5 1 -15 1h-14q-40 0 -57.5 -22.5t-17.5 -54.5v-9z" />
    <glyph glyph-name="HehFin" unicode="&#x647;" horiz-adv-x="624" arabic-form="final" 
d="M46 262q0 143 82 212t240 69q19 0 42.5 -1.5t46 -3.5t40.5 -5t26 -6q20 -8 20 -22v-261q0 -19 9 -25.5t29 -6.5h43v-212h-61q-56 0 -96 9t-69 34q-20 -13 -52 -18.5t-65 -5.5h-6q-51 0 -93 14t-72 42.5t-47 71.5t-17 101v14zM240 281q0 -29 12.5 -46t43.5 -17h8
q16 0 30.5 7t14.5 27v114q-9 1 -16.5 1h-11.5q-40 0 -60.5 -20.5t-20.5 -52.5v-13z" />
    <glyph glyph-name="HehIni" unicode="&#x647;" horiz-adv-x="783" arabic-form="initial" 
d="M-40 192q0 8 11 14t19 6h48v44q0 45 14 78.5t39.5 56t60.5 34.5t78 15v125q0 9 6 15t14 8q15 4 32.5 6t34 3.5t31 2t22.5 0.5q69 0 135 -18t117.5 -59.5t83 -108t31.5 -162.5v-46q0 -18 -0.5 -41t-1.5 -46.5t-3 -46t-5 -40.5q-2 -9 -7 -17t-16 -10q-15 -2 -49 -2.5
t-73 -1.5t-76 -1h-59h-457q-8 0 -19 6t-11 14v172zM466 258v-46h42q10 0 15 2.5t5 15.5v19q0 32 -9 61t-27 51.5t-45 36t-63 15.5q39 -21 60.5 -59t21.5 -96zM209 236q0 -14 3 -22.5t9 -12.5t14 -5t17 -1q19 0 31.5 6t12.5 35v11q0 29 -12 37.5t-32 8.5q-19 0 -31 -8.5
t-12 -37.5v-11z" />
    <glyph glyph-name="HehMed" unicode="&#x647;" horiz-adv-x="647" arabic-form="medial" 
d="M-10 0q-6 0 -18 2t-12 6v197q0 3 12 5t18 2h75v263q0 14 7 27.5t27 19.5q18 5 41 8.5t46 5.5t45.5 3t40.5 1q65 0 119.5 -13.5t94 -42.5t61.5 -74t22 -108q0 -14 -1 -28.5t-4 -29.5q-3 -18 -9 -36q14 2 28.5 3t29.5 1h34v-212h-12h-19h-20t-17.5 -0.5t-10.5 -1.5v-24
q0 -65 -19.5 -109.5t-54 -72.5t-81 -40t-100.5 -12q-248 0 -248 242v18h-75zM284 203q28 0 45 7.5t26 20t12 27.5t3 30v4q0 40 -26 53t-65 13q-5 0 -10 -0.5t-10 -1.5v-153h25zM295 9q-8 -2 -17 -2.5t-18 -1.5v-11q0 -41 16.5 -55.5t41.5 -14.5q31 0 46 12t15 44v25.5
t2 22.5q-37 -13 -86 -19z" />
    <glyph glyph-name="WawSep" unicode="&#x648;" horiz-adv-x="604" arabic-form="isolated" 
d="M344 355q-5 1 -15 1h-14q-40 0 -57.5 -22.5t-17.5 -54.5v-13q0 -31 14 -49t52 -18t38 19v137zM82 -85q0 20 20 20h106q38 0 62 3t37.5 9t19 16t7.5 25l2 20q-7 -3 -27 -5.5t-35 -2.5q-48 0 -90 16t-72.5 46.5t-48 75.5t-17.5 103v11q0 143 79.5 214.5t237.5 71.5
q19 0 44.5 -1.5t50 -4.5t44.5 -6.5t28 -7.5q11 -5 15.5 -9.5t4.5 -12.5v-461q0 -95 -28 -151.5t-72 -86t-97 -38.5t-103 -9q-6 0 -27.5 0.5t-46.5 1t-47.5 2t-31.5 4.5q-15 4 -15 22v135z" />
    <glyph glyph-name="WawFin" unicode="&#x648;" horiz-adv-x="629" arabic-form="final" 
d="M82 -85q0 20 20 20h106q38 0 62 3t38 9t19.5 16t7.5 25l1 12h-30q-125 0 -192.5 62.5t-67.5 178.5v11q0 143 79.5 214.5t237.5 71.5q19 0 44 -1.5t49 -4.5t43.5 -6.5t27.5 -7.5q11 -5 15.5 -9.5t4.5 -12.5v-284h82v-212h-85q0 -2 -0.5 -11.5t-1.5 -13.5
q-9 -73 -37.5 -117t-69 -68t-88.5 -32t-97 -8q-6 0 -27.5 0.5t-46.5 1t-47.5 2t-31.5 4.5q-15 4 -15 22v135zM240 271q0 -31 15.5 -49t50.5 -18h38v151q-5 1 -15 1h-14q-39 0 -57 -22.5t-18 -54.5v-8z" />
    <glyph glyph-name="AlefMaqsuraSep" unicode="&#x649;" horiz-adv-x="1060" arabic-form="isolated" 
d="M230 342q8 0 14 -5t6 -13q-1 -18 -2.5 -37t-1.5 -31q0 -59 6.5 -104t25.5 -75t54.5 -45.5t93.5 -15.5q10 0 24 0.5t32 2.5q2 39 2.5 73t0.5 74v51q0 260 325 260q23 0 49 -1t50 -3t43.5 -4.5t31.5 -4.5q8 -2 14 -6.5t6 -14.5v-422q0 -9 -6.5 -15t-16.5 -6h-168
q-9 0 -15.5 6t-6.5 15v263q-11 1 -15.5 1h-9.5q-44 0 -58.5 -22.5t-14.5 -67.5v-135q0 -53 -1 -103.5t-3 -99.5q0 -20 -22 -24q-58 -11 -121.5 -16.5t-117.5 -5.5q-91 0 -163 18.5t-122 60.5t-76.5 111t-26.5 170q0 27 4 68t13 83q2 8 6.5 14t16.5 6h150z" />
    <glyph glyph-name="AlefMaqsuraFin" unicode="&#x649;" horiz-adv-x="1056" arabic-form="final" 
d="M230 342q8 0 14 -5t6 -13q-1 -18 -2.5 -37t-1.5 -31q0 -59 6.5 -104t25.5 -75t54.5 -45.5t93.5 -15.5q10 0 24 0.5t32 2.5q2 39 2.5 73t0.5 74v52q0 132 80 195.5t245 63.5q47 0 90 -4t66 -9q8 -2 14 -6.5t6 -14.5v-199q0 -19 7 -25.5t27 -6.5h36v-212h-85q-41 0 -75 5.5
t-59.5 23t-39.5 51t-14 90.5v114q-5 1 -8.5 1h-8.5q-44 0 -58.5 -22.5t-14.5 -67.5v-135q0 -53 -1 -103.5t-3 -99.5q0 -20 -22 -24q-58 -11 -121 -16.5t-117 -5.5q-92 0 -164 18.5t-122 60.5t-76.5 110.5t-26.5 169.5q0 27 4 68.5t13 83.5q2 8 6.5 14t16.5 6h150z" />
    <glyph glyph-name="YehSep" unicode="&#x64a;" horiz-adv-x="1060" arabic-form="isolated" 
d="M40 172q0 26 4 67t13 83q2 8 6.5 14t16.5 6h150q8 0 14 -5t6 -13q-1 -18 -2.5 -42t-1.5 -36q0 -53 4.5 -93.5t20.5 -67.5t47.5 -40.5t85.5 -13.5q21 0 39 1t39 3q1 19 1.5 35.5t1 32t0.5 32v36.5v45q0 261 325 261q23 0 48 -1t48.5 -3t43.5 -4t33 -5q9 -2 15 -7t6 -17
v-419q0 -9 -6.5 -15t-16.5 -6h-168q-9 0 -15.5 6t-6.5 15v263q-11 1 -15.5 1h-9.5q-44 0 -58.5 -22.5t-14.5 -67.5v-135q0 -53 -1 -97.5t-3 -93.5q0 -9 -5 -15.5t-17 -8.5q-60 -8 -125.5 -13.5t-133.5 -5.5q-91 0 -160 18t-115 59t-69.5 107t-23.5 162zM168 -258q0 8 6 13
t14 5h118q8 0 14.5 -5t6.5 -13v-105q0 -7 -6.5 -12.5t-14.5 -5.5h-118q-8 0 -14 5.5t-6 12.5v105zM386 -258q0 8 6 13t14 5h118q8 0 14.5 -5t6.5 -13v-105q0 -7 -6.5 -12.5t-14.5 -5.5h-118q-8 0 -14 5.5t-6 12.5v105z" />
    <glyph glyph-name="YehFin" unicode="&#x64a;" horiz-adv-x="1056" arabic-form="final" 
d="M40 172q0 26 4 67t13 83q2 8 6.5 14t16.5 6h150q8 0 14 -5t6 -13q-1 -18 -2.5 -42t-1.5 -36q0 -53 4.5 -93.5t20.5 -67.5t47.5 -40.5t85.5 -13.5q21 0 39 1t39 3q1 19 1.5 35.5t1 32t0.5 32v36.5v45q0 132 79 196.5t236 64.5q54 0 98.5 -4t67.5 -9q8 -2 14 -6.5t6 -14.5
v-199q0 -19 7 -25.5t27 -6.5h36v-212h-87q-41 0 -75 5.5t-58.5 23t-38.5 51t-14 90.5v114q-5 1 -8.5 1h-8.5q-44 0 -58.5 -22.5t-14.5 -67.5v-135q0 -53 -1 -97.5t-3 -93.5q0 -9 -5 -15.5t-17 -8.5q-60 -8 -125.5 -13.5t-133.5 -5.5q-91 0 -160 18t-115 59t-69.5 107
t-23.5 162zM168 -258q0 8 6 13t14 5h118q8 0 14.5 -5t6.5 -13v-105q0 -7 -6.5 -12.5t-14.5 -5.5h-118q-8 0 -14 5.5t-6 12.5v105zM386 -258q0 8 6 13t14 5h118q8 0 14.5 -5t6.5 -13v-105q0 -7 -6.5 -12.5t-14.5 -5.5h-118q-8 0 -14 5.5t-6 12.5v105z" />
    <glyph glyph-name="YehIni" unicode="&#x64a;" horiz-adv-x="341" arabic-form="initial" 
d="M-40 203q0 4 12 6.5t18 2.5h45q15 0 22.5 3.5t7.5 23.5v229q0 7 5.5 13t16.5 6h168q14 0 19.5 -5.5t6.5 -13.5q2 -58 3 -107.5t1 -91.5v-83t-0.5 -61.5t-2 -46.5t-3.5 -38q-1 -9 -6 -16.5t-17 -9.5q-16 -3 -43.5 -5.5t-59.5 -4.5t-65 -3t-60 -1h-38q-6 0 -18 2.5t-12 6.5
v194zM-69 -102q0 8 6 13t14 5h118q8 0 14.5 -5t6.5 -13v-112q0 -7 -6.5 -12.5t-14.5 -5.5h-118q-8 0 -14 5.5t-6 12.5v112zM149 -102q0 8 6 13t14 5h118q8 0 14.5 -5t6.5 -13v-112q0 -7 -6.5 -12.5t-14.5 -5.5h-118q-8 0 -14 5.5t-6 12.5v112z" />
    <glyph glyph-name="YehMed" unicode="&#x64a;" horiz-adv-x="365" arabic-form="medial" 
d="M-40 203q0 2 3.5 3.5t8.5 3t10 2t8 0.5h44q15 0 23 4t8 24v221q0 9 6.5 15t16.5 6h173q9 0 15.5 -6t6.5 -15v-245q7 -2 17 -3t18 -1h47v-212h-14q-51 0 -97.5 6.5t-78.5 28.5q-16 -10 -36.5 -17t-42.5 -11t-44.5 -5.5t-43.5 -1.5h-18q-3 0 -8 0.5t-10 2t-8.5 3t-3.5 3.5
v194zM-23 -102q0 8 6 13t14 5h118q8 0 14.5 -5t6.5 -13v-112q0 -7 -6.5 -12.5t-14.5 -5.5h-118q-8 0 -14 5.5t-6 12.5v112zM195 -102q0 8 6 13t14 5h118q8 0 14.5 -5t6.5 -13v-112q0 -7 -6.5 -12.5t-14.5 -5.5h-118q-8 0 -14 5.5t-6 12.5v112z" />
    <glyph glyph-name=".notdef" horiz-adv-x="500" 
d="M12 665h475v-665h-475v665zM250 375l161 243h-323zM60 91l7 10t18 27t25.5 39t29.5 45q35 54 81 121l-161 242v-484zM278 333l162 -243v485zM250 290l-162 -242h323z" />
    <glyph glyph-name=".null" horiz-adv-x="0" 
 />
    <glyph glyph-name="nonmarkingreturn" horiz-adv-x="333" 
 />
    <glyph glyph-name="space" unicode=" " horiz-adv-x="242" 
 />
    <glyph glyph-name="exclam" unicode="!" horiz-adv-x="309" 
d="M269 758l-30 -482q-1 -9 -6 -15.5t-14 -6.5h-127q-9 0 -15 6.5t-7 15.5l-30 482v1q0 8 7 14t15 6h187q8 0 14 -6t6 -14v-1zM262 20q0 -8 -6 -14t-14 -6h-175q-8 0 -14 6t-6 14v152q0 8 6 14t14 6h175q8 0 14 -6t6 -14v-152z" />
    <glyph glyph-name="quotedbl" unicode="&#x22;" horiz-adv-x="497" 
d="M524 768q0 -2 -2 -8l-88 -242q-4 -10 -7.5 -14.5t-11.5 -4.5h-145q-9 0 -9 10q0 6 1 9l61 242q5 19 20 19h169q12 0 12 -11zM267 768q0 -2 -2 -8l-88 -242q-4 -10 -7.5 -14.5t-11.5 -4.5h-145q-9 0 -9 10q0 6 1 9l61 242q5 19 20 19h169q12 0 12 -11z" />
    <glyph glyph-name="numbersign" unicode="#" horiz-adv-x="715" 
d="M688 552l-11 -101q-1 -8 -6.5 -12t-13.5 -4h-72l-12 -129h73q7 0 12.5 -4t5.5 -11v-2l-11 -101q-1 -8 -6.5 -12t-13.5 -4h-72l-13 -153q-1 -8 -5.5 -13.5t-12.5 -5.5h-149q-8 0 -12 5t-4 12v2l13 153h-80l-13 -153q-1 -8 -5.5 -13.5t-12.5 -5.5h-150q-7 0 -11.5 5
t-4.5 12v2l13 153h-69q-7 0 -12.5 3.5t-5.5 10.5v2l11 101q1 8 6.5 12.5t13.5 4.5h68l12 129h-69q-7 0 -12.5 3.5t-5.5 10.5v2l11 101q1 8 6.5 12.5t13.5 4.5h67l14 155q1 8 6 13.5t13 5.5h150q7 0 11 -5t4 -12v-2l-14 -155h80l14 155q1 8 6 13.5t13 5.5h149q8 0 11.5 -5
t3.5 -12v-2l-14 -155h74q7 0 12.5 -4t5.5 -11v-2zM322 435l-12 -129h80l12 129h-80z" />
    <glyph glyph-name="dollar" unicode="$" 
d="M612 229q0 -37 -11.5 -73t-35.5 -67t-62 -54.5t-91 -35.5v-101q0 -8 -6 -14t-14 -6h-148q-8 0 -14 6t-6 14v97q-35 4 -64.5 10.5t-55.5 14.5q-8 2 -14.5 7t-6.5 13v149q0 8 5.5 14t13.5 6h2q16 -2 42 -5t56.5 -5.5t61 -4.5t55.5 -2q22 0 29.5 8.5t7.5 22.5q0 8 -5.5 14.5
t-22.5 16.5l-150 87q-36 21 -59 45t-36.5 50.5t-19 55t-5.5 58.5q0 33 8 64t27.5 56.5t51 44.5t79.5 29v91q0 8 6 14t14 6h148q8 0 14 -6t6 -14v-86q48 -4 91 -10.5t66 -13.5q8 -2 14 -7t6 -13v-149q0 -8 -5 -14t-13 -6h-2q-20 2 -50 4.5t-63.5 5t-67.5 4t-62 1.5
q-13 0 -17 -5t-4 -11q0 -7 6 -13t31 -19l142 -75q68 -36 98 -85t30 -114z" />
    <glyph glyph-name="percent" unicode="%" horiz-adv-x="896" 
d="M861 174q0 -92 -40.5 -136t-117.5 -44t-117.5 44t-40.5 136v60q0 92 40.5 136t117.5 44t117.5 -44t40.5 -136v-60zM747 732q0 -6 -3 -10l-414 -700q-7 -11 -11.5 -16.5t-13.5 -5.5h-142q-13 0 -13 13q0 6 2 9l414 700q7 11 12.5 16t14.5 5h142q12 0 12 -11zM351 508
q0 -92 -40.5 -136t-117.5 -44t-117.5 44t-40.5 136v60q0 92 40.5 136t117.5 44t117.5 -44t40.5 -136v-60zM730 234q0 23 -2 36.5t-5.5 21t-8.5 9.5t-11 2t-11.5 -2t-9 -9.5t-5.5 -21t-2 -36.5v-60q0 -23 2 -36.5t5.5 -21t9 -10t11.5 -2.5t11 2.5t8.5 10t5.5 21t2 36.5v60z
M220 568q0 23 -2 36.5t-5.5 21t-8.5 9.5t-11 2t-11.5 -2t-9 -9.5t-5.5 -21t-2 -36.5v-60q0 -23 2 -36.5t5.5 -21t9 -10t11.5 -2.5t11 2.5t8.5 10t5.5 21t2 36.5v60z" />
    <glyph glyph-name="ampersand" unicode="&#x26;" horiz-adv-x="761" 
d="M770 15q0 -7 -4.5 -11t-10.5 -4h-202q-7 0 -10 2t-8 7l-17 17q-37 -17 -81 -26.5t-96 -9.5q-69 0 -124.5 10.5t-95 34.5t-61 63t-21.5 96v18q0 34 9.5 62t26.5 51t39.5 41.5t49.5 35.5l-9 11q-21 25 -35.5 44.5t-24 36t-13.5 32t-4 33.5v8q0 36 13 70t42.5 59.5t78.5 41
t121 15.5q70 0 118.5 -13t79 -37.5t44 -59.5t13.5 -78v-8q0 -29 -6.5 -52t-19 -42.5t-31.5 -36.5t-44 -34l-43 -30l81 -84q4 15 5.5 32.5t1.5 34.5v13q0 8 6 14t14 6h134q8 0 14 -6t6 -14v-13q0 -54 -13.5 -104.5t-40.5 -94.5l111 -117q7 -7 7 -14zM379 565q0 15 -10.5 27
t-35.5 12q-29 0 -37.5 -12t-8.5 -27v-8q0 -17 5.5 -30t20.5 -28l6 -6l20 13q26 17 33 27t7 24v8zM291 267q-17 -12 -21.5 -28t-4.5 -32v-8q0 -23 17 -39.5t59 -16.5q30 0 59 8z" />
    <glyph glyph-name="quotesingle" unicode="'" horiz-adv-x="240" 
d="M267 768q0 -2 -2 -8l-88 -242q-4 -10 -7.5 -14.5t-11.5 -4.5h-145q-9 0 -9 10q0 6 1 9l61 242q5 19 20 19h169q12 0 12 -11z" />
    <glyph glyph-name="parenleft" unicode="(" horiz-adv-x="402" 
d="M377 -185q0 -10 -12 -10h-160q-11 0 -19.5 3t-14.5 11q-32 45 -56.5 92.5t-41 101.5t-25 116t-8.5 135v19q0 145 33.5 251t97.5 195q6 8 14.5 11t19.5 3h160q12 0 12 -10q0 -8 -5 -16q-21 -38 -40.5 -83.5t-34.5 -99.5t-24 -116.5t-9 -134.5v-19q0 -72 9 -134.5t24 -116
t34.5 -99t40.5 -83.5q5 -8 5 -16z" />
    <glyph glyph-name="parenright" unicode=")" horiz-adv-x="402" 
d="M362 264q0 -73 -8.5 -135t-25 -116t-41 -101.5t-56.5 -92.5q-6 -8 -14.5 -11t-19.5 -3h-160q-12 0 -12 10q0 8 5 16q21 38 40.5 83.5t34.5 99t24 116t9 134.5v19q0 72 -9 134.5t-24 116.5t-34.5 99.5t-40.5 83.5q-5 8 -5 16q0 10 12 10h160q11 0 19.5 -3t14.5 -11
q64 -89 97.5 -195t33.5 -251v-19z" />
    <glyph glyph-name="asterisk" unicode="*" horiz-adv-x="480" 
d="M461 549q0 -12 -16 -17l-107 -30l68 -90q6 -8 6 -15q0 -9 -7 -13l-75 -54q-5 -3 -10 -3q-10 0 -17 10l-63 94l-63 -94q-7 -10 -17 -10q-6 0 -10 3l-75 54q-7 4 -7 13q0 7 6 15l68 90l-106 30q-17 5 -17 18q0 3 1 5l29 89q4 11 15 11q2 0 10 -2l106 -37l-3 111v1q0 9 4 15
t12 6h94q9 0 12.5 -6.5t3.5 -14.5v-1l-2 -111l105 37q8 2 10 2q11 0 15 -11l29 -89q1 -2 1 -6z" />
    <glyph glyph-name="plus" unicode="+" 
d="M578 326q0 -8 -6 -12t-14 -4h-142v-141q0 -8 -4 -14t-12 -6h-130q-8 0 -12 6t-4 14v141h-141q-8 0 -14 4t-6 12v130q0 8 6 12t14 4h141v142q0 8 4 14t12 6h130q8 0 12 -6t4 -14v-142h142q8 0 14 -4t6 -12v-130z" />
    <glyph glyph-name="comma" unicode="," horiz-adv-x="296" 
d="M265 178q0 -4 -1 -6l-112 -252q-3 -8 -7.5 -14t-12.5 -6h-127q-8 0 -14 4.5t-6 12.5v3l70 252q2 8 7.5 14t13.5 6h173q7 0 11.5 -4.5t4.5 -9.5z" />
    <glyph glyph-name="hyphen" unicode="-" horiz-adv-x="262" 
d="M247 238q0 -8 -6 -14t-14 -6h-192q-8 0 -14 6t-6 14v118q0 8 6 14t14 6h192q8 0 14 -6t6 -14v-118z" />
    <glyph glyph-name="period" unicode="." horiz-adv-x="296" 
d="M256 20q0 -8 -6.5 -14t-14.5 -6h-174q-8 0 -14.5 6t-6.5 14v152q0 8 6.5 14t14.5 6h174q8 0 14.5 -6t6.5 -14v-152z" />
    <glyph glyph-name="slash" unicode="/" horiz-adv-x="445" 
d="M435 726q0 -2 -0.5 -2.5t-0.5 -1.5l-200 -700q-2 -8 -7 -15t-14 -7h-180q-8 0 -15.5 5.5t-7.5 13.5v3l200 700q2 8 8 14.5t15 6.5h180q8 0 15 -5t7 -12z" />
    <glyph glyph-name="zero" unicode="0" 
d="M622 317q0 -167 -74 -247t-213 -80q-140 0 -213.5 80t-73.5 247v109q0 166 73.5 246.5t213.5 80.5q139 0 213 -80.5t74 -246.5v-109zM385 426q0 42 -3.5 66.5t-10 38t-16 17.5t-20.5 4t-20.5 -4t-16 -17.5t-10 -38t-3.5 -66.5v-109q0 -42 3.5 -66.5t10 -38t16 -17.5
t20.5 -4t20.5 4t16 17.5t10 38t3.5 66.5v109z" />
    <glyph glyph-name="one" unicode="1" 
d="M227 199v311l-120 -39q-8 -3 -12 -3q-10 0 -10 12v169q0 14 14 20l181 69l10.5 3.5t11.5 1.5h140q8 0 14 -6t6 -14v-524h121q8 0 14.5 -6t6.5 -14v-159q0 -8 -6.5 -14t-14.5 -6h-477q-8 0 -14.5 6t-6.5 14v159q0 8 6.5 14t14.5 6h121z" />
    <glyph glyph-name="two" unicode="2" 
d="M605 548q0 -41 -14 -74t-37.5 -61t-54.5 -51t-65 -43q-54 -32 -94.5 -60t-54.5 -60h287q8 0 14.5 -6t6.5 -14v-159q0 -8 -6.5 -14t-14.5 -6h-486q-8 0 -14.5 6t-6.5 14v110q0 58 15 103.5t40.5 81t58.5 64t69 52.5q42 28 66 43.5t36.5 25t16 17t3.5 19.5q0 7 -2.5 13
t-10.5 9.5t-25 5.5t-45 2q-49 0 -97.5 -3t-95.5 -7h-1q-8 0 -13.5 6t-5.5 14v115q0 8 6 12.5t14 7.5q48 18 108 30t129 12q76 0 128 -13t84.5 -39t47 -64t14.5 -89z" />
    <glyph glyph-name="three" unicode="3" 
d="M604 211q0 -120 -72.5 -170.5t-207.5 -50.5q-32 0 -67 3.5t-67.5 9.5t-59 13.5t-42.5 14.5q-8 4 -14.5 8t-6.5 12v116q0 8 6 14t14 6h1q20 -2 46.5 -3.5t56 -3t59 -2.5t54.5 -1q43 0 57.5 16.5t14.5 39.5q0 22 -13 39t-46 17h-173q-8 0 -14 6t-6 14v129q0 8 6 14t14 6
h161q37 0 53.5 17t16.5 40q0 24 -17 37.5t-54 13.5q-25 0 -53.5 -1t-56.5 -2.5t-53.5 -3.5t-45.5 -3h-1q-8 0 -14 6t-6 14v116q0 8 6.5 12t14.5 8q16 7 41.5 14.5t56.5 13.5t65 9.5t66 3.5q67 0 119.5 -10.5t88 -35t54 -65t18.5 -100.5q0 -32 -7 -57t-20 -45t-30 -35
t-36 -28q93 -47 93 -166z" />
    <glyph glyph-name="four" unicode="4" 
d="M632 162q0 -8 -6 -14t-14 -6h-50v-122q0 -8 -6 -14t-14 -6h-195q-8 0 -14 6t-6 14v122h-268q-8 0 -14 6t-6 14v130q0 15 10 28l332 418q5 5 13 5h148q8 0 14 -6t6 -14v-404h50q8 0 14 -6t6 -14v-137zM338 481l-128 -162h128v162z" />
    <glyph glyph-name="five" unicode="5" 
d="M599 235q0 -65 -22 -111.5t-61.5 -76t-94 -43.5t-119.5 -14q-56 0 -109.5 10t-98.5 27q-8 3 -14.5 7.5t-6.5 12.5v120q0 8 5.5 14t13.5 6h2q11 -1 34.5 -3t48.5 -3.5t45.5 -2.5t26.5 -1q36 0 58 3t33 10t14.5 18t3.5 27v12q0 12 -2.5 21t-10 16t-21.5 10.5t-37 3.5h-194
q-8 0 -14.5 5.5t-6.5 13.5v1l31 405q1 8 6.5 14t13.5 6h439q8 0 14 -6t6 -14v-147q0 -8 -6 -14t-14 -6h-272l-7 -81h53q80 0 131 -18t80.5 -48.5t40.5 -72t11 -89.5v-12z" />
    <glyph glyph-name="six" unicode="6" 
d="M614 254q0 -60 -17.5 -109t-52 -83.5t-86.5 -53t-122 -18.5t-122.5 18.5t-87.5 52.5t-52.5 83t-17.5 110v228q0 73 24 125t63 84t89.5 47t103.5 15q72 0 126 -9t96 -22q14 -5 17.5 -11.5t3.5 -14.5v-124q0 -20 -18 -20h-5q-18 2 -39.5 4.5t-44.5 4.5t-46.5 3.5t-45.5 1.5
q-24 0 -42 -3t-29 -12t-16.5 -25.5t-5.5 -43.5v-5q5 1 14.5 2t21 2t22 2t16.5 1q54 0 100.5 -11t80 -37.5t53 -69.5t19.5 -106v-6zM384 260q0 43 -12.5 56.5t-35.5 13.5q-16 0 -28.5 -1t-20.5 -2v-73q0 -55 14 -73t35 -18t34.5 18.5t13.5 72.5v6z" />
    <glyph glyph-name="seven" unicode="7" 
d="M600 612q0 -14 -4 -25t-8 -19l-269 -548q-4 -8 -8 -14t-12 -6h-213q-16 0 -16 10q0 4 3 10l270 536h-250q-8 0 -14.5 6t-6.5 14v147q0 8 6.5 14t14.5 6h487q8 0 14 -6t6 -14v-111z" />
    <glyph glyph-name="eight" unicode="8" 
d="M625 210q0 -45 -16 -85t-50.5 -70t-88.5 -47.5t-129 -17.5h-12q-75 0 -129 17.5t-88.5 47.5t-50.5 70t-16 85v20q0 48 20 87.5t55 66.5q-29 23 -49.5 54.5t-20.5 82.5v26q0 45 15.5 83t49 65.5t86.5 42.5t128 15h12q75 0 128 -15t86.5 -42.5t49 -65.5t15.5 -83v-26
q0 -51 -20.5 -82.5t-49.5 -54.5q35 -27 55 -66.5t20 -87.5v-20zM396 522q0 10 -2.5 20.5t-9 19.5t-17 14.5t-26.5 5.5h-12q-16 0 -26.5 -5.5t-17 -14.5t-9 -19.5t-2.5 -20.5v-8q0 -29 16 -42t39 -13h12q23 0 39 13t16 42v8zM397 235q0 32 -13.5 50t-42.5 18h-12
q-29 0 -42.5 -18t-13.5 -50v-11q0 -29 15 -46.5t41 -17.5h12q26 0 41 17.5t15 46.5v11z" />
    <glyph glyph-name="nine" unicode="9" 
d="M608 261q0 -74 -24 -125.5t-63 -83.5t-89.5 -47t-103.5 -15q-72 0 -126 9t-96 22q-14 5 -17.5 11.5t-3.5 14.5v124q0 20 18 20h5q18 -2 39.5 -4.5t44.5 -4.5t46.5 -3.5t45.5 -1.5q24 0 42 3t29 12t16.5 25.5t5.5 43.5v5q-5 -1 -14.5 -2t-21 -2t-22 -2t-16.5 -1
q-54 0 -100.5 11t-80 37.5t-53 69.5t-19.5 106v6q0 60 17.5 109t52 83.5t86.5 53t122 18.5q139 0 209.5 -71t70.5 -193v-228zM377 489q0 55 -14 73t-35 18t-34.5 -18.5t-13.5 -72.5v-6q0 -43 12.5 -56.5t35.5 -13.5q16 0 28.5 1t20.5 2v73z" />
    <glyph glyph-name="colon" unicode=":" horiz-adv-x="296" 
d="M256 379q0 -8 -6.5 -14t-14.5 -6h-174q-8 0 -14.5 6t-6.5 14v152q0 8 6.5 14t14.5 6h174q8 0 14.5 -6t6.5 -14v-152zM256 20q0 -8 -6.5 -14t-14.5 -6h-174q-8 0 -14.5 6t-6.5 14v152q0 8 6.5 14t14.5 6h174q8 0 14.5 -6t6.5 -14v-152z" />
    <glyph glyph-name="semicolon" unicode=";" horiz-adv-x="296" 
d="M259 379q0 -8 -6.5 -14t-14.5 -6h-174q-8 0 -14.5 6t-6.5 14v152q0 8 6.5 14t14.5 6h174q8 0 14.5 -6t6.5 -14v-152zM237 192q8 0 14 -4.5t1 -15.5l-112 -252q-3 -8 -7.5 -14t-12.5 -6h-127q-8 0 -15.5 4.5t-4.5 15.5l70 252q2 8 7.5 14t13.5 6h173z" />
    <glyph glyph-name="less" unicode="&#x3c;" 
d="M580 145q0 -11 -13 -11h-197q-17 0 -28 10l-236 218q-15 15 -15 29t15 29l236 218q11 10 28 10h197q13 0 13 -11q0 -6 -7 -12l-256 -234l256 -234q7 -6 7 -12z" />
    <glyph glyph-name="equal" unicode="=" 
d="M578 468q0 -8 -6 -12t-14 -4h-445q-8 0 -14 4t-6 12v130q0 8 6 12t14 4h445q8 0 14 -4t6 -12v-130zM578 184q0 -8 -6 -12t-14 -4h-445q-8 0 -14 4t-6 12v130q0 8 6 12t14 4h445q8 0 14 -4t6 -12v-130z" />
    <glyph glyph-name="greater" unicode="&#x3e;" 
d="M579 391q0 -14 -15 -29l-236 -218q-11 -10 -28 -10h-197q-13 0 -13 11q0 6 7 12l256 234l-256 234q-7 6 -7 12q0 11 13 11h197q17 0 28 -10l236 -218q15 -15 15 -29z" />
    <glyph glyph-name="question" unicode="?" horiz-adv-x="500" 
d="M470 604q0 -47 -13.5 -76t-33.5 -58l-132 -197q-14 -20 -32 -20h-134q-8 0 -14 6t-6 14v41q0 25 2 42t6.5 32t12.5 30.5t21 37.5l48 82q7 12 10 19.5t3 15.5q0 13 -18 13q-3 0 -11 -0.5t-24.5 -1.5t-42 -3t-62.5 -6q-13 -2 -16.5 5t-3.5 15v144q0 8 6 12.5t14 7.5
q33 13 78 21t94 8q62 0 108.5 -9.5t77.5 -31t46.5 -56.5t15.5 -87zM310 20q0 -8 -6.5 -14t-14.5 -6h-174q-8 0 -14.5 6t-6.5 14v152q0 8 6.5 14t14.5 6h174q8 0 14.5 -6t6.5 -14v-152z" />
    <glyph glyph-name="at" unicode="@" horiz-adv-x="792" 
d="M762 355q0 -85 -30 -145t-82 -98.5t-122 -56.5t-149 -18q-38 0 -72 8.5t-59.5 26.5t-40.5 47t-15 70q0 5 0.5 8.5t0.5 8.5l9 115q4 50 22 84t46.5 55t66 30t80.5 9q18 0 37.5 -1.5t38 -4t34.5 -5t28 -5.5q14 -3 23 -10.5t7 -26.5l-27 -287q22 5 41 22t33 43t22 59.5
t8 71.5q0 42 -11 83t-37.5 72.5t-71 51t-110.5 19.5q-132 0 -201.5 -57t-81.5 -181l-16 -169q-1 -8 -1.5 -15.5t-0.5 -15.5q0 -53 18.5 -88.5t51.5 -56.5t78.5 -30t99.5 -9q19 0 41 1l44 2t41 2.5t31 2.5h1q5 0 6.5 -3.5t1.5 -8.5v-49q0 -10 -8 -11q-11 -2 -29.5 -4.5
t-40.5 -4.5t-45 -3.5t-43 -1.5q-70 0 -133 14t-111 45.5t-76 81t-28 121.5q0 8 0.5 19.5t1.5 20.5l16 167q15 155 113 236.5t270 81.5q87 0 149.5 -26.5t102.5 -70t59 -100t19 -116.5zM428 373q-18 3 -29 3q-13 0 -21.5 -2t-13.5 -8.5t-8 -18.5t-5 -31l-11 -108
q-1 -5 -1 -10v-9q0 -22 11.5 -26.5t28.5 -4.5h11.5t18.5 1z" />
    <glyph glyph-name="A" unicode="A" horiz-adv-x="716" 
d="M473 0q-8 0 -13.5 6t-7.5 14l-18 112h-152l-18 -112q-2 -8 -7.5 -14t-13.5 -6h-208q-10 0 -13.5 6t-1.5 14l119 604q7 38 25 63t46 39.5t65 20.5t83 6t83 -6t64.5 -20.5t45.5 -39.5t26 -63l119 -604q2 -8 -1.5 -14t-13.5 -6h-208zM367 549q-1 6 -2.5 9.5t-6.5 3.5
t-6.5 -3.5t-2.5 -9.5l-37 -233h92z" />
    <glyph glyph-name="B" unicode="B" horiz-adv-x="704" 
d="M664 228q0 -79 -32 -126t-81.5 -72t-109.5 -32.5t-115 -7.5q-14 0 -39 0.5t-54.5 2t-58 3.5t-49.5 6q-20 4 -33.5 9t-21.5 15t-11.5 25t-3.5 38v566q0 23 3.5 38t11.5 24.5t21.5 15t33.5 8.5q19 3 47.5 5t58 3.5t55.5 2.5t40 1q77 0 138.5 -9.5t105 -34t67 -67
t23.5 -108.5v-16q0 -47 -20.5 -82.5t-48.5 -54.5q28 -20 50.5 -59t22.5 -83v-11zM434 515q0 18 -14 33t-53 15h-82v-112h82q39 0 53 14t14 34v16zM437 243q0 25 -15.5 40t-54.5 15h-82v-118h82q40 0 55 17.5t15 39.5v6z" />
    <glyph glyph-name="C" unicode="C" horiz-adv-x="548" 
d="M513 31q0 -10 -4 -13.5t-17 -8.5q-24 -8 -56.5 -13.5t-74.5 -5.5q-163 0 -242 88t-79 253v81q0 166 79 253.5t242 87.5q42 0 76 -5.5t55 -13.5q13 -5 17 -8.5t4 -13.5v-158q0 -21 -20 -18q-16 2 -47 5.5t-63 3.5q-23 0 -42.5 -4.5t-33 -19t-21 -40.5t-7.5 -69v-81
q0 -45 7.5 -71.5t21.5 -40t33 -17.5t43 -4q27 0 51.5 2.5t57.5 6.5q11 2 15.5 -2t4.5 -16v-158z" />
    <glyph glyph-name="D" unicode="D" horiz-adv-x="706" 
d="M666 326q0 -89 -24 -153t-67.5 -104.5t-104.5 -59.5t-135 -19q-81 0 -139.5 5.5t-105.5 13.5q-18 3 -26.5 11.5t-8.5 31.5v639q0 23 8.5 31.5t26.5 11.5q47 8 105.5 13.5t139.5 5.5q74 0 135 -19t104.5 -59.5t67.5 -104.5t24 -153v-91zM427 417q0 40 -4.5 66t-15 41
t-28.5 21t-44 6h-44v-359h44q26 0 44 6t28.5 21t15 41t4.5 66v91z" />
    <glyph glyph-name="E" unicode="E" horiz-adv-x="595" 
d="M540 21q0 -8 -6 -13.5t-14 -6.5q-31 -4 -83 -7.5t-118 -3.5q-47 0 -95 7.5t-86.5 32.5t-63 71t-24.5 123v295q0 77 24.5 123t63 71t86.5 32.5t95 7.5q66 0 118 -3.5t83 -7.5q8 -1 14 -6.5t6 -13.5v-151q0 -8 -6 -14t-14 -6h-201q-19 0 -26 -6.5t-7 -25.5v-54h234
q8 0 14 -6t6 -14v-141q0 -8 -6 -14t-14 -6h-234v-60q0 -19 7 -25.5t26 -6.5h201q8 0 14 -6t6 -14v-151z" />
    <glyph glyph-name="F" unicode="F" horiz-adv-x="590" 
d="M540 304q0 -8 -6 -14t-14 -6h-234v-264q0 -8 -6 -14t-14 -6h-195q-8 0 -14.5 6t-6.5 14v499q0 77 24.5 123t63 71t86.5 32.5t95 7.5q66 0 118 -3.5t83 -7.5q8 -1 14 -6.5t6 -13.5v-151q0 -8 -6 -14t-14 -6h-201q-19 0 -26 -6.5t-7 -25.5v-54h234q8 0 14 -6t6 -14v-141z
" />
    <glyph glyph-name="G" unicode="G" horiz-adv-x="673" 
d="M618 40q0 -13 -3.5 -16t-17.5 -6q-46 -10 -107 -19t-132 -9q-32 0 -68 5t-71 19t-67.5 37.5t-57.5 61.5t-39.5 91t-14.5 125v85q0 110 32.5 176.5t81.5 102.5t106.5 48t107.5 12q81 0 138.5 -10.5t90.5 -20.5q15 -5 18 -8.5t3 -13.5v-147q0 -11 -3 -15.5t-14 -2.5
q-11 1 -31.5 3t-45 3.5t-51 2.5t-49.5 1q-41 0 -68.5 -5t-44.5 -19.5t-24.5 -40t-7.5 -66.5v-87q0 -49 8 -76.5t20 -40.5t26 -15.5t25 -2.5q7 0 16.5 0.5t16.5 2.5v180q0 8 6 14t14 6h187q8 0 14 -6t6 -14v-335z" />
    <glyph glyph-name="H" unicode="H" horiz-adv-x="753" 
d="M698 20q0 -8 -6 -14t-14 -6h-195q-8 0 -14.5 6t-6.5 14v255h-171v-255q0 -8 -6 -14t-14 -6h-195q-8 0 -14.5 6t-6.5 14v703q0 8 6.5 14t14.5 6h195q8 0 14 -6t6 -14v-246h171v246q0 8 6.5 14t14.5 6h195q8 0 14 -6t6 -14v-703z" />
    <glyph glyph-name="I" unicode="I" horiz-adv-x="356" 
d="M296 20q0 -8 -6 -14t-14 -6h-195q-8 0 -14.5 6t-6.5 14v703q0 8 6.5 14t14.5 6h195q8 0 14 -6t6 -14v-703z" />
    <glyph glyph-name="J" unicode="J" horiz-adv-x="356" 
d="M296 5q0 -59 -14 -99.5t-39 -65t-60 -35.5t-77 -11q-22 0 -54 1t-57 5q-8 2 -14 7t-6 13v134q0 8 6 14t14 6h43q14 0 18 6t4 25v718q0 8 6.5 14t14.5 6h195q8 0 14 -6t6 -14v-718z" />
    <glyph glyph-name="K" unicode="K" horiz-adv-x="744" 
d="M721 12q0 -12 -12 -12h-236q-16 0 -22 6t-10 14l-150 307v-307q0 -8 -6 -14t-14 -6h-195q-8 0 -14.5 6t-6.5 14v703q0 8 6.5 14t14.5 6h195q8 0 14 -6t6 -14v-315l165 315q4 8 8.5 14t12.5 6h231q12 0 12 -12q0 -5 -2 -8l-198 -350l199 -353q2 -3 2 -8z" />
    <glyph glyph-name="L" unicode="L" horiz-adv-x="520" 
d="M495 21q0 -8 -6 -13t-14 -7q-30 -5 -71 -8t-80 -3q-47 0 -95 7.5t-86.5 32.5t-63 71t-24.5 123v499q0 8 6.5 14t14.5 6h195q8 0 14 -6t6 -14v-499q0 -19 7 -25.5t26 -6.5h151q8 0 14 -6t6 -14v-151z" />
    <glyph glyph-name="M" unicode="M" horiz-adv-x="866" 
d="M806 11q0 -8 -5.5 -9.5t-10.5 -1.5h-197q-6 0 -10 6t-4 14v313q0 6 -0.5 7.5t-5.5 1.5q-4 0 -10 -9l-74 -110q-8 -11 -13.5 -15t-13.5 -4h-58q-8 0 -13.5 4t-13.5 15l-74 110q-6 9 -10 9q-5 0 -5.5 -1.5t-0.5 -7.5v-313q0 -8 -4 -14t-10 -6h-197q-5 0 -10.5 1.5t-5.5 9.5
v697q0 14 10.5 24.5t24.5 10.5h131q23 0 35.5 -8t22.5 -25l137 -221q6 -11 12 -11t12 11l137 221q10 17 22.5 25t35.5 8h131q14 0 24.5 -10.5t10.5 -24.5v-697z" />
    <glyph glyph-name="N" unicode="N" horiz-adv-x="763" 
d="M703 35q0 -14 -10.5 -24.5t-24.5 -10.5h-171q-11 0 -19 6.5t-13 15.5l-165 275q-5 8 -10 8t-5 -9v-276q0 -8 -6.5 -14t-14.5 -6h-183q-8 0 -14.5 6t-6.5 14v688q0 14 10.5 24.5t24.5 10.5h164q14 0 23 -8.5t15 -19.5l168 -276q4 -7 6 -8t4 -1t3.5 1t1.5 8v284q0 8 6 14
t14 6h183q8 0 14 -6t6 -14v-688z" />
    <glyph glyph-name="O" unicode="O" horiz-adv-x="716" 
d="M676 328q0 -96 -26.5 -160.5t-70.5 -104t-101.5 -56.5t-119.5 -17t-119.5 17t-101.5 56.5t-70.5 104t-26.5 160.5v87q0 96 26.5 160.5t70.5 104t101.5 56.5t119.5 17t119.5 -17t101.5 -56.5t70.5 -104t26.5 -160.5v-87zM437 415q0 72 -18.5 101t-60.5 29t-60.5 -29
t-18.5 -101v-87q0 -72 18.5 -101t60.5 -29t60.5 29t18.5 101v87z" />
    <glyph glyph-name="P" unicode="P" horiz-adv-x="698" 
d="M668 485q0 -78 -30 -128.5t-77 -80t-103.5 -41t-108.5 -11.5q-15 0 -27.5 0.5t-33.5 1.5v-206q0 -8 -6 -14t-14 -6h-192q-8 0 -14.5 4t-6.5 12v640q0 23 3.5 38t11.5 24.5t21.5 14.5t33.5 8q19 3 45.5 5t56.5 3.5t60.5 2.5t56.5 1q55 0 112.5 -11.5t104.5 -40.5t77 -79.5
t30 -129.5v-7zM434 492q0 34 -23.5 49t-61.5 15h-61v-135h61q38 0 61.5 16t23.5 48v7z" />
    <glyph glyph-name="Q" unicode="Q" horiz-adv-x="716" 
d="M676 328q0 -74 -15.5 -129t-43.5 -94t-65.5 -63.5t-81.5 -36.5v-19q0 -9 2 -10.5t10 -1.5h76q11 0 18 -4t7 -12v-123q0 -17 -25 -24q-32 -9 -63 -13t-73 -4q-32 0 -63 8.5t-55.5 30t-39.5 58.5t-15 95v18q-44 12 -82.5 36.5t-66.5 64t-44 94.5t-16 129v87
q0 96 26.5 160.5t70.5 104t101.5 56.5t119.5 17t119.5 -17t101.5 -56.5t70.5 -104t26.5 -160.5v-87zM437 415q0 72 -18.5 101t-60.5 29t-60.5 -29t-18.5 -101v-87q0 -72 18.5 -101t60.5 -29t60.5 29t18.5 101v87z" />
    <glyph glyph-name="R" unicode="R" horiz-adv-x="731" 
d="M696 18q0 -8 -5.5 -13t-12.5 -5h-209q-14 0 -18.5 6t-8.5 14l-119 235h-32v-235q0 -8 -6 -14t-14 -6h-195q-8 0 -14.5 6t-6.5 14v636q0 23 3.5 38t11.5 24.5t21.5 14.5t33.5 8q13 2 39 4t57.5 4t64 3t58.5 1q75 0 135.5 -12.5t103 -41.5t65 -76.5t22.5 -118.5v-20
q0 -40 -10.5 -72t-27 -56t-37 -40.5t-40.5 -25.5l138 -261q3 -6 3 -11zM435 503q0 26 -15.5 39.5t-53.5 13.5h-75v-126h75q38 0 53.5 16.5t15.5 36.5v20z" />
    <glyph glyph-name="S" unicode="S" horiz-adv-x="624" 
d="M589 229q0 -44 -16.5 -87t-51.5 -76.5t-90.5 -54.5t-134.5 -21q-65 0 -119 8.5t-96 21.5q-8 2 -14.5 7t-6.5 13v149q0 8 4.5 15t16.5 5q16 -2 42 -4.5t56.5 -5.5t61 -5t55.5 -2q22 0 29.5 8.5t7.5 22.5q0 8 -5.5 14.5t-22.5 16.5l-150 87q-36 21 -59 45t-36.5 50.5
t-19 55t-5.5 58.5q0 41 12.5 78t43 64.5t82.5 44t130 16.5q32 0 68 -2.5t69.5 -6.5t61 -9t44.5 -10q8 -2 14 -7t6 -13v-149q0 -9 -3.5 -15.5t-16.5 -4.5q-20 2 -50 4.5t-63.5 5t-67.5 4t-62 1.5q-13 0 -17 -5t-4 -11q0 -7 6 -13t31 -19l142 -75q68 -36 98 -85t30 -114z" />
    <glyph glyph-name="T" unicode="T" horiz-adv-x="602" 
d="M577 571q0 -8 -6.5 -14t-14.5 -6h-136v-531q0 -8 -6 -14t-14 -6h-195q-8 0 -14 6t-6 14v531h-140q-8 0 -14 6t-6 14v152q0 8 6 14t14 6h511q8 0 14.5 -6t6.5 -14v-152z" />
    <glyph glyph-name="U" unicode="U" horiz-adv-x="752" 
d="M692 286q0 -96 -27.5 -154.5t-72.5 -90t-101.5 -41.5t-114.5 -10t-114.5 10t-101.5 41.5t-72.5 90t-27.5 154.5v437q0 8 6.5 14t14.5 6h195q8 0 14 -6t6 -14v-437q0 -30 5 -48.5t15.5 -29t25 -14.5t34.5 -4q19 0 34 4t25.5 14.5t15.5 29t5 48.5v437q0 8 6 14t14 6h195
q8 0 14.5 -6t6.5 -14v-437z" />
    <glyph glyph-name="V" unicode="V" horiz-adv-x="726" 
d="M686 743q10 0 13.5 -6t1.5 -14l-119 -604q-8 -38 -26 -63t-45.5 -39.5t-64.5 -20.5t-83 -6t-83 6t-65 20.5t-46 39.5t-25 63l-119 604q-2 8 1.5 14t13.5 6h208q8 0 13.5 -6t7.5 -14l85 -529q1 -6 2.5 -9.5t6.5 -3.5t6.5 3.5t2.5 9.5l85 529q2 8 7.5 14t13.5 6h208z" />
    <glyph glyph-name="W" unicode="W" horiz-adv-x="945" 
d="M904 743q8 0 12 -1.5t3 -9.5l-94 -669q-6 -42 -26 -57.5t-55 -15.5h-103q-37 0 -54 15t-29 50l-77 228q-3 11 -9 11t-9 -11l-77 -228q-12 -35 -29 -50t-54 -15h-103q-35 0 -55 15.5t-26 57.5l-94 669q-1 8 4.5 9.5t10.5 1.5h205q10 0 11.5 -6t2.5 -14l41 -353
q2 -12 7 -12q6 0 9 12l45 133q7 21 18.5 29.5t37.5 8.5h110q26 0 37.5 -8.5t18.5 -29.5l45 -133q3 -12 8 -12t6 3.5t2 8.5l41 353q1 8 3.5 14t10.5 6h205z" />
    <glyph glyph-name="X" unicode="X" horiz-adv-x="740" 
d="M470 0q-13 0 -18 4.5t-12 15.5l-86 146l-75 -146q-6 -11 -10.5 -15.5t-12.5 -4.5h-227q-8 0 -10 7t1 13l200 374l-194 329q-4 6 -1.5 13t10.5 7h248q8 0 13.5 -6.5t9.5 -13.5l81 -137l65 137q4 8 9.5 14t13.5 6h228q8 0 10.5 -7t-1.5 -13l-197 -355l205 -348
q4 -6 1.5 -13t-10.5 -7h-241z" />
    <glyph glyph-name="Y" unicode="Y" horiz-adv-x="709" 
d="M681 743q8 0 12 -6.5t1 -13.5l-147 -344q-17 -39 -35 -61t-40 -31v-267q0 -8 -6.5 -14t-14.5 -6h-195q-8 0 -14 6t-6 14v267q-22 9 -40 31t-35 61l-146 344q-3 7 0 13.5t12 6.5h213q12 0 16.5 -6t7.5 -14l84 -248q1 -6 6 -6q4 0 6 6l85 248q3 8 7.5 14t18.5 6h210z" />
    <glyph glyph-name="Z" unicode="Z" horiz-adv-x="629" 
d="M579 20q0 -8 -6.5 -14t-14.5 -6h-488q-8 0 -14 6t-6 14v130q0 13 4.5 25.5t15.5 29.5l200 315q5 8 5 13q0 8 -12 8h-190q-8 0 -14 6t-6 14v162q0 8 6 14t14 6h482q8 0 14 -6t6 -14v-140q0 -16 -7 -31t-15 -28l-196 -302q-4 -7 -4 -12q0 -8 13 -8h192q8 0 14.5 -6t6.5 -14
v-162z" />
    <glyph glyph-name="bracketleft" unicode="[" horiz-adv-x="408" 
d="M378 -178q0 -16 -19 -16h-292q-8 0 -12.5 5.5t-4.5 13.5v899q0 8 4.5 13.5t12.5 5.5h292q19 0 19 -17v-138q0 -16 -19 -16h-85v-595h85q19 0 19 -17v-138z" />
    <glyph glyph-name="backslash" unicode="\" horiz-adv-x="445" 
d="M434 19q0 -8 -7.5 -13.5t-15.5 -5.5h-180q-9 0 -14 7t-7 15l-200 700q0 1 -0.5 1.5t-0.5 2.5q0 7 7 12t15 5h180q9 0 15 -6.5t8 -14.5l200 -700v-3z" />
    <glyph glyph-name="bracketright" unicode="]" horiz-adv-x="408" 
d="M358 -175q0 -8 -4.5 -13.5t-12.5 -5.5h-292q-19 0 -19 16v138q0 17 19 17h85v595h-85q-19 0 -19 16v138q0 17 19 17h292q8 0 12.5 -5.5t4.5 -13.5v-899z" />
    <glyph glyph-name="asciicircum" unicode="^" 
d="M629 576q0 -10 -12 -10h-187q-14 0 -20 3t-13 10l-62 64l-62 -64q-7 -7 -13 -10t-20 -3h-187q-12 0 -12 10q0 5 5 12l108 146q8 11 15 15t23 4h286q16 0 23 -4t15 -15l108 -146q5 -7 5 -12z" />
    <glyph glyph-name="underscore" unicode="_" horiz-adv-x="580" 
d="M613 -114q0 -8 -6 -12t-14 -4h-605q-8 0 -14 4t-6 12v68q0 8 6 12t14 4h605q8 0 14 -4t6 -12v-68z" />
    <glyph glyph-name="grave" unicode="`" horiz-adv-x="500" 
d="M334 642q0 -7 -9 -7h-150q-11 0 -15.5 2.5t-9.5 7.5l-130 119q-5 5 -5 8q0 7 12 7h185q12 0 17 -3.5t12 -11.5l89 -112q4 -4 4 -10z" />
    <glyph glyph-name="a" unicode="a" horiz-adv-x="590" 
d="M540 20q0 -8 -6 -14t-14 -6h-165q-8 0 -14 6t-6 14v21q-31 -24 -62.5 -37.5t-78.5 -13.5q-26 0 -55 9t-53 31t-40 57.5t-16 88.5v16q0 46 18.5 76.5t52.5 48.5t83 25.5t111 7.5h24v21q0 15 -4.5 24.5t-12 14t-16.5 6t-17 1.5q-24 0 -51 -0.5t-51 -1.5t-43.5 -2t-29.5 -2
q-13 -2 -16.5 5.5t-3.5 15.5v114q0 9 6 15.5t14 9.5q11 4 33 9t48 9.5t53.5 7.5t50.5 3q55 0 102.5 -10t83 -36t55.5 -70t20 -113v-351zM326 238h-31q-22 0 -39 -10t-17 -36v-11q0 -20 11 -28t27 -8q13 0 26 3t23 6v84z" />
    <glyph glyph-name="b" unicode="b" horiz-adv-x="636" 
d="M601 256q0 -66 -20 -115.5t-56 -83t-86.5 -50.5t-112.5 -17q-78 0 -139.5 8.5t-96.5 15.5q-26 5 -33 13.5t-7 21.5v709q0 9 7 15t16 6h179q9 0 14.5 -6t5.5 -15v-164q10 2 27.5 4t26.5 2q69 0 121 -19t86 -54t51 -84t17 -109v-78zM379 334q0 35 -11 58.5t-42 23.5
q-17 0 -29.5 -1t-24.5 -2v-236q14 -2 24 -2.5t30 -0.5q31 0 42 23t11 59v78z" />
    <glyph glyph-name="c" unicode="c" horiz-adv-x="475" 
d="M440 26q0 -9 -5.5 -13t-14.5 -6q-29 -7 -63 -12t-78 -5q-62 0 -107.5 19.5t-76 55t-45.5 85.5t-15 112v66q0 61 15 111.5t45.5 86t76 55t107.5 19.5q44 0 82 -6t59 -11q8 -2 14 -6t6 -13v-136q0 -8 -3.5 -15t-18.5 -6q-24 2 -51 4t-57 2q-31 0 -42 -20t-11 -65v-66
q0 -45 11 -65t42 -20q30 0 57 2t51 4q15 2 18.5 -5.5t3.5 -15.5v-136z" />
    <glyph glyph-name="d" unicode="d" horiz-adv-x="636" 
d="M586 49q0 -13 -7 -21.5t-33 -13.5q-35 -7 -96.5 -15.5t-139.5 -8.5q-62 0 -112.5 17t-86.5 50.5t-56 83t-20 115.5v78q0 60 17 109t51 84t86 54t121 19q9 0 26.5 -2t27.5 -4v164q0 9 5.5 15t14.5 6h179q9 0 16 -6t7 -15v-709zM364 413q-12 1 -24.5 2t-29.5 1
q-31 0 -42 -23.5t-11 -58.5v-78q0 -36 11 -59t42 -23q20 0 30 0.5t24 2.5v236z" />
    <glyph glyph-name="e" unicode="e" horiz-adv-x="614" 
d="M579 258q0 -9 -6.5 -15t-15.5 -6h-302q0 -19 4 -31t13.5 -19.5t26 -10.5t42.5 -3q16 0 42.5 0.5t54.5 1.5t53 2.5t38 2.5q11 1 16.5 -2.5t5.5 -15.5v-105q0 -13 -4 -18.5t-15 -10.5q-48 -20 -108 -29t-121 -9q-56 0 -104.5 15.5t-85 48t-57.5 83t-21 121.5v61
q0 72 19.5 125t55.5 87.5t87.5 51.5t115.5 17q69 0 119.5 -20t83 -57t48 -88.5t15.5 -115.5v-61zM368 349q0 36 -11.5 59.5t-45.5 23.5q-31 0 -43.5 -23.5t-12.5 -59.5h113z" />
    <glyph glyph-name="f" unicode="f" horiz-adv-x="423" 
d="M398 448q0 -9 -6 -15.5t-15 -6.5h-63v-404q0 -9 -6.5 -15.5t-15.5 -6.5h-180q-9 0 -15.5 6.5t-6.5 15.5v404l-48 9q-9 2 -15.5 7.5t-6.5 14.5v112q0 9 6.5 15t15.5 6h48v14q0 59 14 97t40 60t61.5 30.5t79.5 8.5q20 0 45 -3t47 -8q9 -2 15 -7t6 -14v-109q0 -9 -6 -15
t-15 -6h-34q-18 0 -23.5 -6.5t-5.5 -27.5v-14h63q9 0 15 -6t6 -15v-121z" />
    <glyph glyph-name="g" unicode="g" horiz-adv-x="629" 
d="M619 481q0 -9 -6.5 -14.5t-14.5 -7.5l-26 -5q6 -11 10 -27t4 -31v-13q0 -53 -18.5 -90.5t-53 -61t-84.5 -34.5t-112 -11q-25 0 -51.5 2.5t-41.5 7.5q-11 -8 -11 -18q0 -5 3.5 -10t14.5 -7l109 -20q46 -9 92 -19t83 -27t59.5 -44t22.5 -69v-20q0 -47 -19.5 -79t-57.5 -52
t-93.5 -29t-126.5 -9q-132 0 -199 42t-67 120v22q0 27 14.5 53t40.5 46l-13 7q-9 5 -22.5 24.5t-13.5 54.5q0 32 16.5 56t36.5 37q-24 24 -36.5 52t-12.5 76v13q0 45 14 81t44 61t77 38.5t114 13.5h304q9 0 15 -6.5t6 -15.5v-87zM372 396q0 20 -11 33t-43 13t-43 -13
t-11 -33v-13q0 -20 11 -33.5t43 -13.5t43 13.5t11 33.5v13zM363 -21q0 10 -12.5 18.5t-57.5 16.5l-44 8q-5 -6 -8 -11t-3 -18v-22q0 -14 15.5 -27.5t47.5 -13.5q20 0 32 3t19 8t9 11t2 13v14z" />
    <glyph glyph-name="h" unicode="h" horiz-adv-x="652" 
d="M602 22q0 -9 -6 -15.5t-15 -6.5h-180q-9 0 -15.5 6.5t-6.5 15.5v346q0 26 -15 37.5t-36 11.5q-28 0 -55 -15v-380q0 -9 -5.5 -15.5t-14.5 -6.5h-180q-9 0 -16 6.5t-7 15.5v737q0 8 6 14t14 6h182q8 0 14 -6t6 -14v-201q35 25 70 33.5t77 8.5q55 0 90.5 -18.5t56 -50.5
t28.5 -74t8 -89v-346z" />
    <glyph glyph-name="i" unicode="i" horiz-adv-x="329" 
d="M282 656q0 -9 -7 -15t-16 -6h-189q-9 0 -16 6t-7 15v102q0 9 7 15t16 6h189q9 0 16 -6t7 -15v-102zM277 22q0 -9 -6.5 -15.5t-15.5 -6.5h-179q-9 0 -16 6.5t-7 15.5v547q0 9 7 15t16 6h179q9 0 15.5 -6t6.5 -15v-547z" />
    <glyph glyph-name="j" unicode="j" horiz-adv-x="329" 
d="M282 656q0 -9 -7 -15t-16 -6h-189q-9 0 -16 6t-7 15v102q0 9 7 15t16 6h189q9 0 16 -6t7 -15v-102zM277 -11q0 -58 -13.5 -96t-37.5 -61t-57 -32.5t-72 -9.5q-26 0 -51.5 3t-55.5 8q-9 2 -15 7.5t-6 14.5v108q0 9 6 15t15 6h42q14 0 17.5 11t3.5 26v580q0 9 7 15t16 6
h179q9 0 15.5 -6t6.5 -15v-580z" />
    <glyph glyph-name="k" unicode="k" horiz-adv-x="669" 
d="M645 14q0 -5 -2.5 -9.5t-10.5 -4.5h-216q-9 0 -16.5 3.5t-15.5 18.5l-112 229v-229q0 -9 -5.5 -15.5t-14.5 -6.5h-179q-9 0 -16 6.5t-7 15.5v736q0 9 7 15t16 6h179q9 0 14.5 -6t5.5 -15v-418l120 229q8 15 15.5 18t16.5 3h199q16 0 16 -14q0 -5 -3 -11l-157 -260
l164 -281q2 -3 2 -10z" />
    <glyph glyph-name="l" unicode="l" horiz-adv-x="324" 
d="M274 22q0 -9 -6 -15.5t-15 -6.5h-180q-9 0 -16 6.5t-7 15.5v736q0 9 7 15t16 6h180q9 0 15 -6t6 -15v-736z" />
    <glyph glyph-name="m" unicode="m" horiz-adv-x="929" 
d="M879 22q0 -9 -6 -15.5t-15 -6.5h-180q-9 0 -15.5 6.5t-6.5 15.5v342q0 27 -10 35t-28 8q-20 0 -44 -6q1 -11 1.5 -17.5t0.5 -19.5v-342q0 -9 -6 -15.5t-15 -6.5h-180q-9 0 -15.5 6.5t-6.5 15.5v342q0 27 -9.5 35t-27.5 8q-10 0 -22.5 -1.5t-20.5 -4.5v-379
q0 -9 -5.5 -15.5t-14.5 -6.5h-180q-9 0 -16 6.5t-7 15.5v548q0 8 6 14t14 6h165q8 0 14 -6t6 -14v-30q40 37 79.5 48.5t81.5 11.5q37 0 70.5 -13.5t53.5 -46.5q18 18 34.5 29.5t34.5 18.5t39 9.5t48 2.5q183 0 183 -236v-342z" />
    <glyph glyph-name="n" unicode="n" horiz-adv-x="652" 
d="M602 22q0 -9 -6 -15.5t-15 -6.5h-180q-9 0 -15.5 6.5t-6.5 15.5v346q0 26 -15 37.5t-36 11.5q-28 0 -55 -15v-380q0 -9 -5.5 -15.5t-14.5 -6.5h-180q-9 0 -16 6.5t-7 15.5v548q0 8 6 14t14 6h165q8 0 14 -6t6 -14v-28q18 14 33.5 25t34 18.5t41.5 11t55 3.5
q55 0 90.5 -18.5t56 -50.5t28.5 -74t8 -89v-346z" />
    <glyph glyph-name="o" unicode="o" horiz-adv-x="620" 
d="M585 272q0 -145 -73.5 -213.5t-201.5 -68.5t-201.5 68.5t-73.5 213.5v46q0 145 73.5 213.5t201.5 68.5t201.5 -68.5t73.5 -213.5v-46zM363 318q0 58 -14 78t-39 20q-26 0 -39.5 -20t-13.5 -78v-46q0 -29 3.5 -48t10 -30t16.5 -15.5t23 -4.5t22.5 4.5t16.5 15.5t10.5 30
t3.5 48v46z" />
    <glyph glyph-name="p" unicode="p" horiz-adv-x="636" 
d="M601 256q0 -60 -17 -109t-51 -84t-86 -54t-121 -19q-9 0 -26.5 2t-27.5 4v-164q0 -9 -5.5 -15t-14.5 -6h-179q-9 0 -16 6t-7 15v709q0 13 7 21.5t33 13.5q35 7 96.5 15.5t139.5 8.5q62 0 112.5 -17t86.5 -50.5t56 -83t20 -115.5v-78zM379 334q0 36 -11 59t-42 23
q-20 0 -30 -0.5t-24 -2.5v-236q12 -1 24.5 -2t29.5 -1q31 0 42 23.5t11 58.5v78z" />
    <glyph glyph-name="q" unicode="q" horiz-adv-x="636" 
d="M586 -168q0 -9 -7 -15t-16 -6h-179q-9 0 -14.5 6t-5.5 15v164q-10 -2 -27.5 -4t-26.5 -2q-69 0 -121 19t-86 54t-51 84t-17 109v78q0 66 20 115.5t56 83t86.5 50.5t112.5 17q78 0 139.5 -8.5t96.5 -15.5q26 -5 33 -13.5t7 -21.5v-709zM364 413q-14 2 -24 2.5t-30 0.5
q-31 0 -42 -23t-11 -59v-78q0 -35 11 -58.5t42 -23.5q17 0 29.5 1t24.5 2v236z" />
    <glyph glyph-name="r" unicode="r" horiz-adv-x="439" 
d="M413 442q0 -8 -3 -15.5t-17 -7.5h-8q-29 0 -57.5 -2t-54.5 -15v-380q0 -9 -5.5 -15.5t-14.5 -6.5h-180q-9 0 -16 6.5t-7 15.5v548q0 8 6 14t14 6h165q8 0 14 -6t6 -14v-29q16 18 34.5 29t36 18t33.5 9.5t28 2.5h6q14 0 17 -6t3 -14v-138z" />
    <glyph glyph-name="s" unicode="s" horiz-adv-x="540" 
d="M500 180q0 -40 -14.5 -75t-45 -60.5t-78 -40t-113.5 -14.5q-65 0 -111 8t-76 18q-8 3 -13.5 8t-5.5 14v125q0 13 5.5 19t20.5 4q22 -3 47.5 -6.5t49 -6.5t44 -4.5t33.5 -1.5q20 0 27.5 4.5t7.5 15.5q0 5 -4 10t-19 13l-114 58q-53 26 -77 66.5t-24 100.5q0 78 57 121.5
t178 43.5q56 0 107 -9t84 -18q8 -2 14.5 -7t6.5 -14v-130q0 -10 -4 -16.5t-17 -4.5q-11 2 -35 5t-51 6t-52 5t-40 2q-21 0 -21 -11q0 -9 13 -15l110 -54q61 -30 85.5 -72.5t24.5 -86.5z" />
    <glyph glyph-name="t" unicode="t" horiz-adv-x="429" 
d="M410 448q0 -9 -6 -15.5t-15 -6.5h-72v-245q0 -15 3.5 -22t17.5 -7h48q9 0 15 -6t6 -15v-109q0 -9 -6 -14.5t-15 -7.5q-15 -3 -27 -4.5l-24 -3t-25 -2t-30 -0.5q-39 0 -73 8.5t-59.5 30t-40 59.5t-14.5 97v241l-57 10q-9 2 -15.5 7.5t-6.5 14.5v111q0 9 6.5 15t15.5 6h57
v82q0 9 6.5 14t15.5 7l180 31q12 2 17 -5t5 -16v-113h72q9 0 15 -6t6 -15v-121z" />
    <glyph glyph-name="u" unicode="u" horiz-adv-x="652" 
d="M602 20q0 -8 -6 -14t-14 -6h-165q-8 0 -14 6t-6 14v28q-16 -13 -31.5 -24t-34.5 -18.5t-42.5 -11.5t-55.5 -4q-55 0 -90.5 18.5t-56 50.5t-28.5 74t-8 89v346q0 9 6 15.5t15 6.5h180q9 0 15.5 -6.5t6.5 -15.5v-346q0 -26 15 -37.5t36 -11.5q28 0 55 15v380q0 9 5.5 15.5
t14.5 6.5h180q9 0 16 -6.5t7 -15.5v-548z" />
    <glyph glyph-name="v" unicode="v" horiz-adv-x="651" 
d="M619 590q8 0 14.5 -4t2.5 -17l-120 -440q-13 -48 -34 -75.5t-46 -42t-53.5 -18t-56.5 -3.5t-56.5 3.5t-53.5 18t-46 42t-34 75.5l-120 440q-4 13 2.5 17t14.5 4h197q9 0 14.5 -6.5t7.5 -14.5l65 -337l3.5 -10.5t5.5 -4.5t5.5 4.5l3.5 10.5l65 337q2 8 7.5 14.5t14.5 6.5
h197z" />
    <glyph glyph-name="w" unicode="w" horiz-adv-x="898" 
d="M648 574q2 16 14 16h199q6 0 11.5 -2.5t3.5 -12.5l-93 -502q-6 -30 -13 -46.5t-17.5 -25t-25 -10t-34.5 -1.5h-94q-21 0 -34.5 3t-23.5 11.5t-17.5 23.5t-16.5 40l-49 144q-3 9 -9 9t-9 -9l-49 -144q-9 -25 -16.5 -40t-17.5 -23.5t-23.5 -11.5t-34.5 -3h-94
q-20 0 -34.5 1.5t-25 10t-17.5 25t-13 46.5l-93 502q-2 10 3.5 12.5t11.5 2.5h199q12 0 14 -16l38 -298q1 -7 7 -7q7 0 9 7l49 138q8 21 17 28.5t29 7.5h100q20 0 29 -7.5t17 -28.5l49 -138q2 -7 9 -7q6 0 7 7z" />
    <glyph glyph-name="x" unicode="x" horiz-adv-x="667" 
d="M408 0q-9 0 -13 7t-9 15l-71 119l-62 -120q-4 -8 -9.5 -14.5t-14.5 -6.5h-195q-11 0 -13 7.5t2 13.5l168 292l-171 256q-3 6 -0.5 13.5t12.5 7.5h219q9 0 14.5 -6.5t10.5 -14.5l65 -108l57 108q4 8 9.5 14.5t14.5 6.5h197q11 0 13 -7t-2 -14l-164 -282l179 -265
q5 -6 2.5 -14t-13.5 -8h-226z" />
    <glyph glyph-name="y" unicode="y" horiz-adv-x="656" 
d="M625 590q9 0 13.5 -5.5t1.5 -15.5l-171 -600q-11 -39 -28 -71.5t-45 -55.5t-70.5 -35.5t-105.5 -12.5q-17 0 -38 1.5t-42.5 4.5t-40 7t-29.5 8q-8 3 -15.5 7t-7.5 13v114q0 8 4 16t19 6q16 -1 35 -2.5t39.5 -2.5t40 -1.5t35.5 -0.5q20 0 28 5t12 18l9 34h-6
q-22 0 -38 2.5t-29 14t-24 34.5t-23 64l-133 433q-3 11 2 16t15 5h201q9 0 13.5 -6.5t6.5 -14.5l68 -312q3 -14 9 -14h7l64 326q2 8 7.5 14.5t14.5 6.5h201z" />
    <glyph glyph-name="z" unicode="z" horiz-adv-x="567" 
d="M517 20q0 -8 -6 -14t-14 -6h-427q-8 0 -14 6t-6 14v105q0 16 2.5 26t13.5 24l166 222q5 7 5 11q0 7 -11 7h-155q-16 0 -16 16v139q0 8 6 14t14 6h421q8 0 14 -6t6 -14v-107q0 -8 -0.5 -14t-3 -12t-7.5 -13.5t-13 -18.5l-156 -211q-5 -7 -5 -11q0 -8 11 -8h158
q17 0 17 -16v-139z" />
    <glyph glyph-name="braceleft" unicode="{" horiz-adv-x="436" 
d="M406 -185q0 -17 -19 -17h-67q-78 0 -126 11t-73.5 36.5t-34 68.5t-8.5 108v100q0 27 -15.5 50t-37.5 36v125q22 13 37.5 36t15.5 50v100q0 64 8.5 107.5t34 69t73.5 36.5t126 11h67q19 0 19 -17v-138q0 -16 -19 -16h-47q-26 0 -32 -13t-6 -40v-100q0 -51 -22.5 -89.5
t-70.5 -58.5q48 -20 70.5 -59t22.5 -90v-100q0 -27 6 -40t32 -13h47q19 0 19 -16v-138z" />
    <glyph glyph-name="bar" unicode="|" horiz-adv-x="324" 
d="M274 -172q0 -9 -6 -15.5t-15 -6.5h-180q-9 0 -16 6.5t-7 15.5v894q0 9 7 15t16 6h180q9 0 15 -6t6 -15v-894z" />
    <glyph glyph-name="braceright" unicode="}" horiz-adv-x="436" 
d="M411 208q-22 -13 -37.5 -36t-15.5 -50v-100q0 -65 -8.5 -108t-34 -68.5t-73.5 -36.5t-126 -11h-67q-19 0 -19 17v138q0 16 19 16h47q26 0 32 13t6 40v100q0 51 22.5 90t70.5 59q-48 20 -70.5 58.5t-22.5 89.5v100q0 27 -6 40t-32 13h-47q-19 0 -19 16v138q0 17 19 17h67
q78 0 126 -11t73.5 -36.5t34 -69t8.5 -107.5v-100q0 -27 15.5 -50t37.5 -36v-125z" />
    <glyph glyph-name="asciitilde" unicode="~" 
d="M622 490q0 -49 -13 -82.5t-37 -53.5t-58.5 -29t-77.5 -9q-8 0 -20.5 2t-26 5.5t-27.5 8t-24 10.5l-50 26q-33 17 -47 17q-20 0 -20 -19v-21q0 -22 -23 -22h-126q-11 0 -17.5 5.5t-6.5 16.5v21q0 48 13 81.5t38 54t59.5 29.5t78.5 9q17 0 41.5 -4.5t53.5 -19.5l50 -26
q36 -19 51 -19q10 0 13 5t3 15v21q0 22 23 22h126q11 0 17.5 -5.5t6.5 -16.5v-22z" />
    <glyph glyph-name="exclamdown" unicode="&#xa1;" horiz-adv-x="309" 
d="M262 418q0 -8 -6 -14t-14 -6h-175q-8 0 -14 6t-6 14v152q0 8 6 14t14 6h175q8 0 14 -6t6 -14v-152zM269 -169q0 -8 -7 -14t-15 -6h-187q-8 0 -14 6t-6 14v1l30 482q1 9 6 15.5t14 6.5h127q9 0 15 -6.5t7 -15.5l30 -482v-1z" />
    <glyph glyph-name="cent" unicode="&#xa2;" 
d="M538 26q0 -9 -5.5 -13t-14.5 -6q-16 -4 -32.5 -7.5t-35.5 -5.5v-61q0 -8 -6 -14t-14 -6h-141q-8 0 -14 6t-6 14v77q-69 29 -102.5 94t-33.5 158v66q0 93 33.5 158t102.5 94v74q0 8 6 14t14 6h141q8 0 14 -6t6 -14v-59q21 -3 38.5 -6t29.5 -6q8 -2 14 -6t6 -13v-136
q0 -8 -6.5 -14.5t-14.5 -6.5h-1q-24 2 -51 4t-57 2q-31 0 -42 -20t-11 -65v-66q0 -45 11 -65t42 -20q30 0 57 2t51 4h1q8 0 14.5 -6.5t6.5 -14.5v-136z" />
    <glyph glyph-name="sterling" unicode="&#xa3;" 
d="M606 20q0 -8 -6 -14t-14 -6h-473q-8 0 -14 6t-6 14v110q0 11 3 16t7 10q4 4 9.5 13t10 19.5t7.5 21.5t3 21v49h-48q-8 0 -14 6t-6 14v141q0 8 6 14t14 6h48v23q0 77 18 128.5t53.5 83t88.5 44.5t123 13q25 0 51 -2t48.5 -4.5t40.5 -5.5t29 -5q14 -3 17.5 -7.5t3.5 -14.5
v-158q0 -18 -17 -18h-3q-30 2 -76.5 6.5t-93.5 4.5q-18 0 -29 -2t-17 -8.5t-8.5 -18.5t-2.5 -32v-27h136q8 0 14 -6t6 -14v-141q0 -8 -6 -14t-14 -6h-136v-49q0 -13 -3.5 -27.5t-8.5 -22.5h239q8 0 14 -6t6 -14v-141z" />
    <glyph glyph-name="currency" unicode="&#xa4;" 
d="M605 547q0 -8 -7 -15l-87 -87q16 -38 16 -75q0 -43 -18 -80l85 -85q7 -7 7 -15q0 -6 -5 -11l-75 -75q-5 -5 -11 -5q-8 0 -15 7l-88 88q-32 -13 -69 -13t-75 16l-87 -87q-3 -3 -7 -5.5t-9 -2.5t-10 5l-75 75q-5 5 -5 12q0 8 7 15l87 86q-16 38 -16 75q0 38 13 70l-88 88
q-7 7 -7 15q0 6 5 11l75 75q5 5 11 5q8 0 15 -7l85 -85q19 9 39.5 13t41.5 4q39 0 75 -15l86 87q7 7 15 7q6 0 11 -5l75 -75q5 -5 5 -11zM407 372q0 28 -19.5 47.5t-47.5 19.5t-48 -19.5t-20 -47.5t20 -48t48 -20t47.5 20t19.5 48z" />
    <glyph glyph-name="yen" unicode="&#xa5;" 
d="M667 730q0 -3 -2 -7l-103 -218h73q8 0 14 -6t6 -14v-97q0 -8 -6 -14t-14 -6h-139l-42 -87h181q8 0 14 -6t6 -14v-97q0 -8 -6 -14t-14 -6h-182v-124q0 -8 -6.5 -14t-14.5 -6h-195q-8 0 -14 6t-6 14v124h-181q-8 0 -14 6t-6 14v97q0 8 6 14t14 6h181l-40 87h-141
q-8 0 -14 6t-6 14v97q0 8 6 14t14 6h75l-105 218q-2 4 -2 7q0 13 14 13h216q8 0 13 -6t8 -14l80 -219l81 219q3 8 8 14t13 6h215q15 0 15 -13z" />
    <glyph glyph-name="brokenbar" unicode="&#xa6;" horiz-adv-x="324" 
d="M274 364q0 -9 -6 -15.5t-15 -6.5h-180q-9 0 -16 6.5t-7 15.5v343q0 9 7 15t16 6h180q9 0 15 -6t6 -15v-343zM274 -189q0 -9 -6 -15.5t-15 -6.5h-180q-9 0 -16 6.5t-7 15.5v343q0 9 7 15t16 6h180q9 0 15 -6t6 -15v-343z" />
    <glyph glyph-name="section" unicode="&#xa7;" horiz-adv-x="624" 
d="M592 235q0 -27 -8 -56t-22 -57q12 -23 19.5 -47t7.5 -53q0 -44 -16.5 -87t-51.5 -76.5t-90.5 -54.5t-134.5 -21q-65 0 -119 8.5t-96 21.5q-8 2 -14.5 7t-6.5 13v149q0 8 5.5 14t13.5 6h2q16 -2 42 -5t56.5 -5.5t61 -4.5t55.5 -2q22 0 29.5 8.5t7.5 22.5q0 8 -5.5 15
t-22.5 16l-150 80q-61 32 -91.5 85t-30.5 114q0 32 8.5 64.5t24.5 61.5q-14 17 -22.5 43t-8.5 55q0 41 12.5 78t43 64.5t82.5 44t130 16.5q32 0 68 -2.5t69.5 -6.5t61 -9t44.5 -10q8 -2 14 -7t6 -13v-149q0 -8 -5 -14t-13 -6h-2q-20 2 -50 4.5t-63.5 5t-67.5 4t-62 1.5
q-13 0 -17 -5t-4 -11q0 -7 6 -13t31 -19l142 -75q63 -33 97 -83t34 -110zM397 231q0 14 -3 25t-11 21t-22.5 20.5t-38.5 22.5l-59 31q-23 11 -38 28q-14 -14 -14 -43q0 -24 13.5 -42t54.5 -40l57 -30q18 -9 30.5 -18.5t21.5 -17.5q9 18 9 43z" />
    <glyph glyph-name="dieresis" unicode="&#xa8;" horiz-adv-x="500" 
d="M458 656q0 -9 -7 -15t-16 -6h-139q-9 0 -16 6t-7 15v102q0 9 7 15t16 6h139q9 0 16 -6t7 -15v-102zM228 656q0 -9 -7 -15t-16 -6h-139q-9 0 -16 6t-7 15v102q0 9 7 15t16 6h139q9 0 16 -6t7 -15v-102z" />
    <glyph glyph-name="copyright" unicode="&#xa9;" horiz-adv-x="750" 
d="M715 374q0 -71 -27 -132.5t-73 -107.5t-108.5 -72.5t-132.5 -26.5q-71 0 -132.5 26.5t-107.5 72.5t-72.5 107.5t-26.5 132.5q0 70 26.5 132.5t72.5 109t107.5 73.5t132.5 27q70 0 132.5 -27t108.5 -73.5t73 -109t27 -132.5zM656 374q0 58 -22.5 109.5t-60.5 90t-89.5 61
t-109.5 22.5t-109 -22.5t-89 -61t-60 -90t-22 -109.5t22 -109t60 -89t89 -60t109 -22t109.5 22t89.5 60t60.5 89t22.5 109zM478 182q0 -5 -2 -7.5t-10 -4.5q-14 -5 -33 -8t-42 -3q-94 0 -138.5 50t-44.5 144v47q0 95 45 144.5t138 49.5q23 0 43 -3t32 -8q8 -2 10 -4.5
t2 -7.5v-90q0 -11 -10 -11h-2q-9 1 -16 2t-15 1.5t-18 1t-26 0.5q-9 0 -17 -2.5t-15 -10.5t-11 -22.5t-4 -39.5v-47q0 -26 4 -40.5t11 -22.5t15 -10t17 -2q26 0 41 1.5t34 3.5h2q10 0 10 -10v-91z" />
    <glyph glyph-name="ordfeminine" unicode="&#xaa;" horiz-adv-x="401" 
d="M366 392q0 -13 -7 -15q-37 -9 -75.5 -14.5t-76.5 -5.5q-172 0 -172 123v7q0 30 13 50t36 32t54.5 17t68.5 5h16v13q0 20 -11 25t-22 5q-32 0 -65.5 -1t-47.5 -3h-1q-5 0 -8.5 4.5t-3.5 9.5v74q0 6 4 10t9 6q7 3 20 6t28.5 6t32.5 5t32 2q36 0 68 -6t56 -22.5t38 -45.5
t14 -75v-212zM227 518h-20q-14 0 -25 -7t-11 -24v-7q0 -17 11 -21t25 -4q5 0 10 0.5t10 1.5v61z" />
    <glyph glyph-name="guillemotleft" unicode="&#xab;" horiz-adv-x="776" 
d="M751 67q0 -10 -12 -10h-175q-8 0 -15.5 1.5t-12.5 8.5l-156 198q-6 8 -10.5 14.5t-4.5 14.5t4.5 14.5t10.5 14.5l156 198q5 7 12.5 8.5t15.5 1.5h175q12 0 12 -10q0 -6 -6 -13l-166 -214l166 -214q6 -8 6 -13zM411 67q0 -10 -12 -10h-175q-8 0 -15.5 1.5t-12.5 8.5
l-156 198q-6 8 -10.5 14.5t-4.5 14.5t4.5 14.5t10.5 14.5l156 198q5 7 12.5 8.5t15.5 1.5h175q12 0 12 -10q0 -6 -6 -13l-166 -214l166 -214q6 -8 6 -13z" />
    <glyph glyph-name="logicalnot" unicode="&#xac;" 
d="M578 188q0 -8 -4 -14t-12 -6h-130q-8 0 -12 6t-4 14v264h-303q-8 0 -14 4t-6 12v130q0 8 6 12t14 4h445q8 0 14 -4t6 -12v-410z" />
    <glyph glyph-name="uni00AD" unicode="&#xad;" horiz-adv-x="262" 
d="M247 238q0 -8 -6 -14t-14 -6h-192q-8 0 -14 6t-6 14v118q0 8 6 14t14 6h192q8 0 14 -6t6 -14v-118z" />
    <glyph glyph-name="registered" unicode="&#xae;" horiz-adv-x="646" 
d="M611 483q0 -60 -22.5 -112t-61.5 -91t-91.5 -61.5t-112.5 -22.5t-112.5 22.5t-91.5 61.5t-61.5 91t-22.5 112t22.5 112.5t61.5 91.5t91.5 61.5t112.5 22.5t112.5 -22.5t91.5 -61.5t61.5 -91.5t22.5 -112.5zM553 483q0 48 -18 89.5t-49.5 73t-73 49.5t-89.5 18t-89.5 -18
t-72.5 -49.5t-49 -73t-18 -89.5t18 -89.5t49 -72.5t72.5 -49t89.5 -18t89.5 18t73 49t49.5 72.5t18 89.5zM470 329q0 -8 -8 -8h-97q-4 0 -5.5 3t-3.5 6l-54 106h-14v-106q0 -9 -9 -9h-88q-9 0 -9 9v286q0 21 6.5 28t24.5 10q6 1 17.5 2t26 2t29 1.5t26.5 0.5q68 0 107 -24.5
t39 -88.5v-10q0 -32 -15.5 -52.5t-35.5 -31.5l62 -119q1 -2 1 -5zM357 547q0 13 -8 20t-28 7h-37v-64h37q19 0 27.5 8.5t8.5 18.5v10z" />
    <glyph glyph-name="macron" unicode="&#xaf;" horiz-adv-x="500" 
d="M447 655q0 -8 -6 -14t-14 -6h-354q-8 0 -14 6t-6 14v104q0 8 6 14t14 6h354q8 0 14 -6t6 -14v-104z" />
    <glyph glyph-name="degree" unicode="&#xb0;" horiz-adv-x="376" 
d="M351 590q0 -34 -13 -63.5t-35 -51.5t-51.5 -35t-63.5 -13q-33 0 -63 13t-52 35t-35 51.5t-13 63.5t13 63.5t35 51.5t52 35t63 13q34 0 63.5 -13t51.5 -35t35 -51.5t13 -63.5zM248 590q0 25 -18 42.5t-42 17.5t-41.5 -17.5t-17.5 -42.5q0 -24 17 -41.5t42 -17.5t42.5 17
t17.5 42z" />
    <glyph glyph-name="plusminus" unicode="&#xb1;" 
d="M578 326q0 -8 -6 -12t-14 -4h-142v-141q0 -8 -4 -14t-12 -6h-130q-8 0 -12 6t-4 14v141h-141q-8 0 -14 4t-6 12v130q0 8 6 12t14 4h141v142q0 8 4 14t12 6h130q8 0 12 -6t4 -14v-142h142q8 0 14 -4t6 -12v-130zM578 -14q0 -8 -6 -12t-14 -4h-445q-8 0 -14 4t-6 12v101
q0 8 6 12t14 4h445q8 0 14 -4t6 -12v-101z" />
    <glyph glyph-name="twosuperior" unicode="&#xb2;" horiz-adv-x="367" 
d="M332 638q0 -23 -8 -41.5t-20.5 -34t-29.5 -28.5t-35 -23q-16 -10 -40 -25.5t-35 -35.5h146q6 0 11 -4t5 -11v-86q0 -7 -5 -11t-11 -4h-259q-6 0 -11 4t-5 11v59q0 32 8.5 58t22 46.5t31.5 37t38 29.5q22 15 34.5 23.5t19.5 13.5q6 5 7 7.5t1 7.5q0 7 -6.5 9.5t-32.5 2.5
t-51.5 -2t-50.5 -4h-1q-7 0 -11 5t-4 11v62q0 10 14 15q26 10 58 16.5t69 6.5q82 0 116.5 -29t34.5 -86z" />
    <glyph glyph-name="threesuperior" unicode="&#xb3;" horiz-adv-x="366" 
d="M331 457q0 -65 -40.5 -94t-113.5 -29q-12 0 -30 1.5t-36.5 4.5t-36 7.5t-29.5 10.5q-4 2 -7 5t-3 8v63q0 15 15 15h1q21 -2 54.5 -3.5t60.5 -1.5q21 0 27 7.5t6 17.5q0 11 -5.5 18t-20.5 7h-92q-16 0 -16 16v69q0 16 16 16h85q18 0 25.5 7.5t7.5 17.5t-7 16.5t-26 6.5
q-27 0 -58.5 -1.5t-52.5 -3.5h-1q-6 0 -10.5 4t-4.5 11v63q0 7 4.5 10t9.5 5q9 4 23 8t30.5 7t35 5t35.5 2q73 0 113.5 -25.5t40.5 -92.5q0 -34 -13 -54t-33 -34q46 -28 46 -90z" />
    <glyph glyph-name="acute" unicode="&#xb4;" horiz-adv-x="500" 
d="M485 772q0 -3 -5 -8l-130 -119q-5 -5 -9.5 -7.5t-15.5 -2.5h-150q-9 0 -9 7q0 6 4 10l89 112q7 8 12 11.5t17 3.5h185q12 0 12 -7z" />
    <glyph glyph-name="uni00B5" unicode="&#xb5;" horiz-adv-x="652" 
d="M602 46q0 -13 -7 -21t-33 -14q-38 -8 -93.5 -14.5t-141.5 -6.5q-28 0 -53 3v-162q0 -8 -6 -14t-14 -6h-184q-8 0 -14 6t-6 14v737q0 9 6 15.5t15 6.5h179q9 0 15.5 -6.5t6.5 -15.5v-359q0 -40 54 -40q32 0 53 3v396q0 9 5.5 15.5t14.5 6.5h180q9 0 16 -6.5t7 -15.5v-522z
" />
    <glyph glyph-name="paragraph" unicode="&#xb6;" horiz-adv-x="689" 
d="M639 -176q0 -8 -4.5 -13.5t-12.5 -5.5h-60q-8 0 -12.5 5.5t-4.5 13.5v825h-66v-825q0 -8 -4.5 -13.5t-12.5 -5.5h-60q-8 0 -12.5 5.5t-4.5 13.5v401h-89q-52 0 -97.5 14.5t-79.5 43t-54 70t-20 95.5v72q0 54 20 95.5t54 70t79.5 43t97.5 14.5h327q16 0 16 -19v-900z" />
    <glyph glyph-name="periodcentered" unicode="&#xb7;" horiz-adv-x="296" 
d="M256 297q0 -8 -6.5 -14t-14.5 -6h-174q-8 0 -14.5 6t-6.5 14v152q0 8 6.5 14t14.5 6h174q8 0 14.5 -6t6.5 -14v-152z" />
    <glyph glyph-name="cedilla" unicode="&#xb8;" horiz-adv-x="500" 
d="M381 -44q0 -3 -5 -8l-130 -119q-5 -5 -9.5 -7.5t-15.5 -2.5h-150q-9 0 -9 7q0 6 4 10l89 112q7 8 12 11.5t17 3.5h185q12 0 12 -7z" />
    <glyph glyph-name="onesuperior" unicode="&#xb9;" horiz-adv-x="277" 
d="M242 346q0 -11 -11 -11h-117q-11 0 -11 11v265l-56 -22q-6 -2 -7 -2q-5 0 -5 7v98q0 8 8 11l89 38q6 3 12 3h87q11 0 11 -11v-387z" />
    <glyph glyph-name="ordmasculine" unicode="&#xba;" horiz-adv-x="417" 
d="M387 540q0 -94 -47 -138.5t-131 -44.5t-131.5 44.5t-47.5 138.5v30q0 94 47.5 138.5t131.5 44.5t131 -44.5t47 -138.5v-30zM243 570q0 38 -8.5 50.5t-25.5 12.5t-26 -12.5t-9 -50.5v-30q0 -38 9 -51t26 -13t25.5 13t8.5 51v30z" />
    <glyph glyph-name="guillemotright" unicode="&#xbb;" horiz-adv-x="776" 
d="M751 294q0 -8 -4.5 -14.5t-10.5 -14.5l-156 -198q-5 -7 -12.5 -8.5t-15.5 -1.5h-175q-12 0 -12 10q0 5 6 13l166 214l-166 214q-6 7 -6 13q0 10 12 10h175q8 0 15.5 -1.5t12.5 -8.5l156 -198q6 -8 10.5 -14.5t4.5 -14.5zM411 294q0 -8 -4.5 -14.5t-10.5 -14.5l-156 -198
q-5 -7 -12.5 -8.5t-15.5 -1.5h-175q-12 0 -12 10q0 5 6 13l166 214l-166 214q-6 7 -6 13q0 10 12 10h175q8 0 15.5 -1.5t12.5 -8.5l156 -198q6 -8 10.5 -14.5t4.5 -14.5z" />
    <glyph glyph-name="onequarter" unicode="&#xbc;" horiz-adv-x="836" 
d="M801 92q0 -16 -16 -16h-21v-60q0 -16 -16 -16h-104q-16 0 -16 16v60h-138q-15 0 -15 16v70q0 9 6 18l175 221q3 4 8 6t10 2h74q16 0 16 -16v-212h21q16 0 16 -15v-74zM692 732q0 -6 -3 -10l-418 -707q-6 -10 -9.5 -12.5t-11.5 -2.5h-142q-13 0 -13 13q0 6 2 9l418 706
q5 9 9.5 12t13.5 3h142q12 0 12 -11zM242 345q0 -11 -11 -11h-117q-11 0 -11 11v265l-56 -22q-6 -2 -7 -2q-5 0 -5 7v98q0 8 8 11l89 38q6 3 12 3h87q11 0 11 -11v-387zM634 255l-58 -74h58v74z" />
    <glyph glyph-name="onehalf" unicode="&#xbd;" horiz-adv-x="855" 
d="M820 299q0 -23 -8 -41.5t-20.5 -34t-29.5 -28.5t-35 -23q-16 -10 -40 -24.5t-35 -31.5h146q6 0 11 -4t5 -11v-86q0 -7 -5 -11t-11 -4h-259q-6 0 -11 4t-5 11v59q0 32 8.5 57t22 45t31.5 35.5t38 28.5q22 15 34.5 23.5t19.5 13.5q6 5 7.5 7.5t1.5 7.5q0 7 -7 9.5t-33 2.5
t-51.5 -2t-50.5 -4h-1q-7 0 -11 5t-4 11v62q0 10 14 15q26 10 58.5 16.5t69.5 6.5q82 0 116 -29t34 -86zM692 732q0 -6 -3 -10l-418 -707q-6 -10 -9.5 -12.5t-11.5 -2.5h-142q-13 0 -13 13q0 6 2 9l418 706q5 9 9.5 12t13.5 3h142q12 0 12 -11zM242 345q0 -11 -11 -11h-117
q-11 0 -11 11v265l-56 -22q-6 -2 -7 -2q-5 0 -5 7v98q0 8 8 11l89 38q6 3 12 3h87q11 0 11 -11v-387z" />
    <glyph glyph-name="threequarters" unicode="&#xbe;" horiz-adv-x="886" 
d="M851 92q0 -16 -16 -16h-21v-60q0 -16 -16 -16h-104q-16 0 -16 16v60h-138q-15 0 -15 16v70q0 9 6 18l175 221q3 4 8 6t10 2h74q16 0 16 -16v-212h21q16 0 16 -15v-74zM771 732q0 -4 -3 -10l-418 -707q-6 -10 -9.5 -12.5t-11.5 -2.5h-142q-14 0 -14 14q0 3 3 8l418 706
q5 9 9.5 12t13.5 3h142q12 0 12 -11zM331 457q0 -65 -40.5 -94t-113.5 -29q-12 0 -30 1.5t-36.5 4.5t-36 7.5t-29.5 10.5q-4 2 -7 5t-3 8v63q0 15 15 15h1q21 -2 54.5 -3.5t60.5 -1.5q21 0 27 7.5t6 17.5q0 11 -5.5 18t-20.5 7h-92q-16 0 -16 16v69q0 16 16 16h85
q18 0 25.5 7.5t7.5 17.5t-7 16.5t-26 6.5q-27 0 -58.5 -1.5t-52.5 -3.5h-1q-6 0 -10.5 4t-4.5 11v63q0 7 4.5 10t9.5 5q9 4 23 8t30.5 7t35 5t35.5 2q73 0 113.5 -25.5t40.5 -92.5q0 -34 -13 -54t-33 -34q46 -28 46 -90zM684 255l-58 -74h58v74z" />
    <glyph glyph-name="questiondown" unicode="&#xbf;" horiz-adv-x="500" 
d="M470 -149q0 -8 -6 -12.5t-14 -7.5q-33 -13 -78 -21t-94 -8q-62 0 -108.5 9.5t-77.5 31t-46.5 56.5t-15.5 87q0 47 13.5 76t33.5 58l132 197q8 11 15.5 15.5t16.5 4.5h134q8 0 14 -6t6 -14v-41q0 -25 -2 -42t-6.5 -32t-12.5 -30.5t-21 -37.5l-48 -82q-7 -12 -10 -19.5
t-3 -15.5q0 -13 23 -13h8l127 11h1q8 0 13.5 -6t5.5 -14v-144zM406 418q0 -8 -6.5 -14t-14.5 -6h-174q-8 0 -14.5 6t-6.5 14v152q0 8 6.5 14t14.5 6h174q8 0 14.5 -6t6.5 -14v-152z" />
    <glyph glyph-name="Agrave" unicode="&#xc0;" horiz-adv-x="716" 
d="M696 15q0 -15 -15 -15h-208q-8 0 -13.5 6t-7.5 14l-18 112h-152l-18 -112q-2 -8 -7.5 -14t-13.5 -6h-208q-15 0 -15 15v5l119 604q7 38 25 63t46 39.5t65 20.5t83 6t83 -6t64.5 -20.5t45.5 -39.5t26 -63l119 -604v-5zM494 801q0 -7 -9 -7h-150q-11 0 -15.5 2.5t-9.5 7.5
l-130 119q-5 5 -5 8q0 7 12 7h185q12 0 17 -3.5t12 -11.5l89 -112q4 -4 4 -10zM367 549q-1 6 -2 9.5t-7 3.5t-7 -3.5t-2 -9.5l-37 -233h92z" />
    <glyph glyph-name="Aacute" unicode="&#xc1;" horiz-adv-x="716" 
d="M696 15q0 -15 -15 -15h-208q-8 0 -13.5 6t-7.5 14l-18 112h-152l-18 -112q-2 -8 -7.5 -14t-13.5 -6h-208q-15 0 -15 15v5l119 604q7 38 25 63t46 39.5t65 20.5t83 6t83 -6t64.5 -20.5t45.5 -39.5t26 -63l119 -604v-5zM571 931q0 -3 -5 -8l-130 -119q-5 -5 -9.5 -7.5
t-15.5 -2.5h-150q-9 0 -9 7q0 6 4 10l89 112q7 8 12 11.5t17 3.5h185q12 0 12 -7zM367 549q-1 6 -2 9.5t-7 3.5t-7 -3.5t-2 -9.5l-37 -233h92z" />
    <glyph glyph-name="Acircumflex" unicode="&#xc2;" horiz-adv-x="716" 
d="M696 15q0 -15 -15 -15h-208q-8 0 -13.5 6t-7.5 14l-18 112h-152l-18 -112q-2 -8 -7.5 -14t-13.5 -6h-208q-15 0 -15 15v5l119 604q7 38 25 63t46 39.5t65 20.5t83 6t83 -6t64.5 -20.5t45.5 -39.5t26 -63l119 -604v-5zM595 801q0 -7 -9 -7h-144q-11 0 -15.5 2.5t-9.5 7.5
l-48 49l-48 -49q-5 -5 -9.5 -7.5t-15.5 -2.5h-144q-9 0 -9 7q0 5 4 10l83 112q7 9 12 12t17 3h220q12 0 17 -3t12 -12l83 -112q4 -5 4 -10zM367 549q-1 6 -2 9.5t-7 3.5t-7 -3.5t-2 -9.5l-37 -233h92z" />
    <glyph glyph-name="Atilde" unicode="&#xc3;" horiz-adv-x="716" 
d="M696 15q0 -15 -15 -15h-208q-8 0 -13.5 6t-7.5 14l-18 112h-152l-18 -112q-2 -8 -7.5 -14t-13.5 -6h-208q-15 0 -15 15v5l119 604q7 38 25 63t46 39.5t65 20.5t83 6t83 -6t64.5 -20.5t45.5 -39.5t26 -63l119 -604v-5zM588 921q0 -38 -10 -63.5t-28.5 -41.5t-45.5 -22.5
t-60 -6.5q-13 0 -35 6t-39 14l-39 20q-14 7 -22.5 9.5t-14.5 2.5q-5 0 -9.5 -2.5t-4.5 -10.5v-16q0 -17 -18 -17h-97q-18 0 -18 17v16q0 74 39 104t106 30q13 0 34.5 -5.5t38.5 -13.5l39 -20q26 -13 38 -13q13 0 13 14v16q0 17 18 17h97q18 0 18 -17v-17zM367 549
q-1 6 -2 9.5t-7 3.5t-7 -3.5t-2 -9.5l-37 -233h92z" />
    <glyph glyph-name="Adieresis" unicode="&#xc4;" horiz-adv-x="716" 
d="M696 15q0 -15 -15 -15h-208q-8 0 -13.5 6t-7.5 14l-18 112h-152l-18 -112q-2 -8 -7.5 -14t-13.5 -6h-208q-15 0 -15 15v5l119 604q7 38 25 63t46 39.5t65 20.5t83 6t83 -6t64.5 -20.5t45.5 -39.5t26 -63l119 -604v-5zM335 815q0 -9 -7 -15t-16 -6h-139q-9 0 -16 6t-7 15
v102q0 9 7 15t16 6h139q9 0 16 -6t7 -15v-102zM565 815q0 -9 -7 -15t-16 -6h-139q-9 0 -16 6t-7 15v102q0 9 7 15t16 6h139q9 0 16 -6t7 -15v-102zM367 549q-1 6 -2 9.5t-7 3.5t-7 -3.5t-2 -9.5l-37 -233h92z" />
    <glyph glyph-name="Aring" unicode="&#xc5;" horiz-adv-x="716" 
d="M696 15q0 -15 -15 -15h-208q-8 0 -13.5 6t-7.5 14l-18 112h-152l-18 -112q-2 -8 -7.5 -14t-13.5 -6h-208q-15 0 -15 15v5l119 604q7 38 25 63t46 39.5t65 20.5t83 6t83 -6t64.5 -20.5t45.5 -39.5t26 -63l119 -604v-5zM484 909q0 -27 -10 -50t-27.5 -40.5t-40.5 -27.5
t-50 -10t-50 10t-40.5 27.5t-27.5 40.5t-10 50t10 50t27.5 40.5t40.5 27.5t50 10t50 -10t40.5 -27.5t27.5 -40.5t10 -50zM367 549q-1 6 -2 9.5t-7 3.5t-7 -3.5t-2 -9.5l-37 -233h92zM394 910q0 15 -11 26t-26 11q-14 0 -25 -10.5t-11 -26.5t11 -26.5t25 -10.5q15 0 26 11
t11 26z" />
    <glyph glyph-name="AE" unicode="&#xc6;" horiz-adv-x="968" 
d="M913 21q0 -8 -6 -13.5t-14 -6.5q-31 -4 -73 -7.5t-108 -3.5q-39 0 -79 5t-75 20t-62 43t-41 74h-172l-19 -112q-2 -8 -7.5 -14t-13.5 -6h-208q-16 0 -16 15q0 2 0.5 2.5t0.5 2.5l119 594q7 38 25 63t46 39.5t65 20.5t83 6h535q8 0 14 -6t6 -14v-162q0 -8 -6 -14t-14 -6
h-214v-76h214q8 0 14 -6t6 -14v-141q0 -8 -6 -14t-14 -6h-214v-60q0 -19 7 -25.5t26 -6.5h181q8 0 14 -6t6 -14v-151zM443 541h-78q-14 0 -17 -21l-34 -204h129v225z" />
    <glyph glyph-name="Ccedilla" unicode="&#xc7;" horiz-adv-x="548" 
d="M513 31q0 -10 -4 -13.5t-17 -8.5q-24 -8 -56.5 -13.5t-74.5 -5.5q-163 0 -242 88t-79 253v81q0 166 79 253.5t242 87.5q42 0 76 -5.5t55 -13.5q13 -5 17 -8.5t4 -13.5v-158q0 -18 -16 -18h-4q-16 2 -28.5 3.5t-26.5 3t-32 2t-45 0.5q-15 0 -29.5 -4.5t-26.5 -19
t-19 -40.5t-7 -69v-81q0 -45 7 -71.5t19 -40t26.5 -17.5t29.5 -4q44 0 72 2.5t60 6.5h4q16 0 16 -18v-158zM451 -44q0 -3 -5 -8l-130 -119q-5 -5 -9.5 -7.5t-15.5 -2.5h-150q-9 0 -9 7q0 6 4 10l89 112q7 8 12 11.5t17 3.5h185q12 0 12 -7z" />
    <glyph glyph-name="Egrave" unicode="&#xc8;" horiz-adv-x="595" 
d="M540 21q0 -8 -6 -13.5t-14 -6.5q-31 -4 -83 -7.5t-118 -3.5q-47 0 -95 7.5t-86.5 32.5t-63 71t-24.5 123v295q0 77 24.5 123t63 71t86.5 32.5t95 7.5q66 0 118 -3.5t83 -7.5q8 -1 14 -6.5t6 -13.5v-151q0 -8 -6 -14t-14 -6h-201q-19 0 -26 -6.5t-7 -25.5v-54h234
q8 0 14 -6t6 -14v-141q0 -8 -6 -14t-14 -6h-234v-60q0 -19 7 -25.5t26 -6.5h201q8 0 14 -6t6 -14v-151zM438 801q0 -7 -9 -7h-150q-11 0 -15.5 2.5t-9.5 7.5l-130 119q-5 5 -5 8q0 7 12 7h185q12 0 17 -3.5t12 -11.5l89 -112q4 -4 4 -10z" />
    <glyph glyph-name="Eacute" unicode="&#xc9;" horiz-adv-x="595" 
d="M540 21q0 -8 -6 -13.5t-14 -6.5q-31 -4 -83 -7.5t-118 -3.5q-47 0 -95 7.5t-86.5 32.5t-63 71t-24.5 123v295q0 77 24.5 123t63 71t86.5 32.5t95 7.5q66 0 118 -3.5t83 -7.5q8 -1 14 -6.5t6 -13.5v-151q0 -8 -6 -14t-14 -6h-201q-19 0 -26 -6.5t-7 -25.5v-54h234
q8 0 14 -6t6 -14v-141q0 -8 -6 -14t-14 -6h-234v-60q0 -19 7 -25.5t26 -6.5h201q8 0 14 -6t6 -14v-151zM505 931q0 -3 -5 -8l-130 -119q-5 -5 -9.5 -7.5t-15.5 -2.5h-150q-9 0 -9 7q0 6 4 10l89 112q7 8 12 11.5t17 3.5h185q12 0 12 -7z" />
    <glyph glyph-name="Ecircumflex" unicode="&#xca;" horiz-adv-x="595" 
d="M540 21q0 -8 -6 -13.5t-14 -6.5q-31 -4 -83 -7.5t-118 -3.5q-47 0 -95 7.5t-86.5 32.5t-63 71t-24.5 123v295q0 77 24.5 123t63 71t86.5 32.5t95 7.5q66 0 118 -3.5t83 -7.5q8 -1 14 -6.5t6 -13.5v-151q0 -8 -6 -14t-14 -6h-201q-19 0 -26 -6.5t-7 -25.5v-54h234
q8 0 14 -6t6 -14v-141q0 -8 -6 -14t-14 -6h-234v-60q0 -19 7 -25.5t26 -6.5h201q8 0 14 -6t6 -14v-151zM530 801q0 -7 -9 -7h-144q-11 0 -15.5 2.5t-9.5 7.5l-48 49l-48 -49q-5 -5 -9.5 -7.5t-15.5 -2.5h-144q-9 0 -9 7q0 5 4 10l83 112q7 9 12 12t17 3h220q12 0 17 -3
t12 -12l83 -112q4 -5 4 -10z" />
    <glyph glyph-name="Edieresis" unicode="&#xcb;" horiz-adv-x="595" 
d="M540 21q0 -8 -6 -13.5t-14 -6.5q-31 -4 -83 -7.5t-118 -3.5q-47 0 -95 7.5t-86.5 32.5t-63 71t-24.5 123v295q0 77 24.5 123t63 71t86.5 32.5t95 7.5q66 0 118 -3.5t83 -7.5q8 -1 14 -6.5t6 -13.5v-151q0 -8 -6 -14t-14 -6h-201q-19 0 -26 -6.5t-7 -25.5v-54h234
q8 0 14 -6t6 -14v-141q0 -8 -6 -14t-14 -6h-234v-60q0 -19 7 -25.5t26 -6.5h201q8 0 14 -6t6 -14v-151zM506 815q0 -9 -7 -15t-16 -6h-139q-9 0 -16 6t-7 15v102q0 9 7 15t16 6h139q9 0 16 -6t7 -15v-102zM276 815q0 -9 -7 -15t-16 -6h-139q-9 0 -16 6t-7 15v102q0 9 7 15
t16 6h139q9 0 16 -6t7 -15v-102z" />
    <glyph glyph-name="Igrave" unicode="&#xcc;" horiz-adv-x="356" 
d="M296 20q0 -8 -6 -14t-14 -6h-195q-8 0 -14.5 6t-6.5 14v703q0 8 6.5 14t14.5 6h195q8 0 14 -6t6 -14v-703zM304 801q0 -7 -9 -7h-150q-11 0 -15.5 2.5t-9.5 7.5l-130 119q-5 5 -5 8q0 7 12 7h185q12 0 17 -3.5t12 -11.5l89 -112q4 -4 4 -10z" />
    <glyph glyph-name="Iacute" unicode="&#xcd;" horiz-adv-x="356" 
d="M296 20q0 -8 -6 -14t-14 -6h-195q-8 0 -14.5 6t-6.5 14v703q0 8 6.5 14t14.5 6h195q8 0 14 -6t6 -14v-703zM377 931q0 -3 -5 -8l-130 -119q-5 -5 -9.5 -7.5t-15.5 -2.5h-150q-9 0 -9 7q0 6 4 10l89 112q7 8 12 11.5t17 3.5h185q12 0 12 -7z" />
    <glyph glyph-name="Icircumflex" unicode="&#xce;" horiz-adv-x="356" 
d="M296 20q0 -8 -6 -14t-14 -6h-195q-8 0 -14.5 6t-6.5 14v703q0 8 6.5 14t14.5 6h195q8 0 14 -6t6 -14v-703zM403 801q0 -7 -9 -7h-144q-11 0 -15.5 2.5t-9.5 7.5l-48 49l-48 -49q-5 -5 -9.5 -7.5t-15.5 -2.5h-144q-9 0 -9 7q0 5 4 10l83 112q7 9 12 12t17 3h220
q12 0 17 -3t12 -12l83 -112q4 -5 4 -10z" />
    <glyph glyph-name="Idieresis" unicode="&#xcf;" horiz-adv-x="356" 
d="M296 20q0 -8 -6 -14t-14 -6h-195q-8 0 -14.5 6t-6.5 14v703q0 8 6.5 14t14.5 6h195q8 0 14 -6t6 -14v-703zM384 815q0 -9 -7 -15t-16 -6h-139q-9 0 -16 6t-7 15v102q0 9 7 15t16 6h139q9 0 16 -6t7 -15v-102zM154 815q0 -9 -7 -15t-16 -6h-139q-9 0 -16 6t-7 15v102
q0 9 7 15t16 6h139q9 0 16 -6t7 -15v-102z" />
    <glyph glyph-name="Eth" unicode="&#xd0;" horiz-adv-x="706" 
d="M666 326q0 -89 -24 -153t-67.5 -104.5t-104.5 -59.5t-135 -19q-81 0 -139.5 5.5t-105.5 13.5q-18 3 -26.5 11.5t-8.5 31.5v232h-48q-8 0 -14 6t-6 14v141q0 8 6 14t14 6h48v226q0 23 8.5 31.5t26.5 11.5q47 8 105.5 13.5t139.5 5.5q74 0 135 -19t104.5 -59.5t67.5 -104.5
t24 -153v-91zM427 417q0 40 -4.5 66t-15 41t-28.5 21t-44 6h-44v-86h44q8 0 14 -6t6 -14v-141q0 -8 -6 -14t-14 -6h-44v-92h44q26 0 44 6t28.5 21t15 41t4.5 66v91z" />
    <glyph glyph-name="Ntilde" unicode="&#xd1;" horiz-adv-x="763" 
d="M703 35q0 -14 -10.5 -24.5t-24.5 -10.5h-171q-11 0 -19 6.5t-13 15.5l-165 275q-4 6 -5.5 7t-3.5 1h-1q-5 0 -5 -9v-276q0 -8 -6.5 -14t-14.5 -6h-183q-8 0 -14.5 6t-6.5 14v688q0 14 10.5 24.5t24.5 10.5h164q14 0 23 -8.5t15 -19.5l168 -276q4 -7 6 -8t4 -1t3.5 1
t1.5 8v284q0 8 6 14t14 6h183q8 0 14 -6t6 -14v-688zM596 921q0 -38 -10 -63.5t-28.5 -41.5t-45.5 -22.5t-60 -6.5q-13 0 -35 6t-39 14l-39 20q-14 7 -22.5 9.5t-14.5 2.5q-5 0 -9.5 -2.5t-4.5 -10.5v-16q0 -17 -18 -17h-97q-18 0 -18 17v16q0 74 39 104t106 30
q13 0 34.5 -5.5t38.5 -13.5l39 -20q26 -13 38 -13q13 0 13 14v16q0 17 18 17h97q18 0 18 -17v-17z" />
    <glyph glyph-name="Ograve" unicode="&#xd2;" horiz-adv-x="716" 
d="M676 328q0 -96 -26.5 -160.5t-70.5 -104t-101.5 -56.5t-119.5 -17t-119.5 17t-101.5 56.5t-70.5 104t-26.5 160.5v87q0 96 26.5 160.5t70.5 104t101.5 56.5t119.5 17t119.5 -17t101.5 -56.5t70.5 -104t26.5 -160.5v-87zM437 415q0 72 -18.5 101t-60.5 29t-60.5 -29
t-18.5 -101v-87q0 -72 18.5 -101t60.5 -29t60.5 29t18.5 101v87zM463 801q0 -7 -9 -7h-150q-11 0 -15.5 2.5t-9.5 7.5l-130 119q-5 5 -5 8q0 7 12 7h185q12 0 17 -3.5t12 -11.5l89 -112q4 -4 4 -10z" />
    <glyph glyph-name="Oacute" unicode="&#xd3;" horiz-adv-x="716" 
d="M676 328q0 -96 -26.5 -160.5t-70.5 -104t-101.5 -56.5t-119.5 -17t-119.5 17t-101.5 56.5t-70.5 104t-26.5 160.5v87q0 96 26.5 160.5t70.5 104t101.5 56.5t119.5 17t119.5 -17t101.5 -56.5t70.5 -104t26.5 -160.5v-87zM437 415q0 72 -18.5 101t-60.5 29t-60.5 -29
t-18.5 -101v-87q0 -72 18.5 -101t60.5 -29t60.5 29t18.5 101v87zM571 931q0 -3 -5 -8l-130 -119q-5 -5 -9.5 -7.5t-15.5 -2.5h-150q-9 0 -9 7q0 6 4 10l89 112q7 8 12 11.5t17 3.5h185q12 0 12 -7z" />
    <glyph glyph-name="Ocircumflex" unicode="&#xd4;" horiz-adv-x="716" 
d="M676 328q0 -96 -26.5 -160.5t-70.5 -104t-101.5 -56.5t-119.5 -17t-119.5 17t-101.5 56.5t-70.5 104t-26.5 160.5v87q0 96 26.5 160.5t70.5 104t101.5 56.5t119.5 17t119.5 -17t101.5 -56.5t70.5 -104t26.5 -160.5v-87zM437 415q0 72 -18.5 101t-60.5 29t-60.5 -29
t-18.5 -101v-87q0 -72 18.5 -101t60.5 -29t60.5 29t18.5 101v87zM584 802q0 -7 -9 -7h-144q-11 0 -15.5 2.5t-9.5 7.5l-48 49l-48 -49q-5 -5 -9.5 -7.5t-15.5 -2.5h-144q-9 0 -9 7q0 5 4 10l83 112q7 9 12 12t17 3h220q12 0 17 -3t12 -12l83 -112q4 -5 4 -10z" />
    <glyph glyph-name="Otilde" unicode="&#xd5;" horiz-adv-x="716" 
d="M676 328q0 -96 -26.5 -160.5t-70.5 -104t-101.5 -56.5t-119.5 -17t-119.5 17t-101.5 56.5t-70.5 104t-26.5 160.5v87q0 96 26.5 160.5t70.5 104t101.5 56.5t119.5 17t119.5 -17t101.5 -56.5t70.5 -104t26.5 -160.5v-87zM437 415q0 72 -18.5 101t-60.5 29t-60.5 -29
t-18.5 -101v-87q0 -72 18.5 -101t60.5 -29t60.5 29t18.5 101v87zM590 922q0 -38 -10 -63.5t-28.5 -41.5t-45.5 -22.5t-60 -6.5q-13 0 -35 6t-39 14l-39 20q-14 7 -22.5 9.5t-14.5 2.5q-5 0 -9.5 -2.5t-4.5 -10.5v-16q0 -17 -18 -17h-97q-18 0 -18 17v16q0 74 39 104t106 30
q13 0 34.5 -5.5t38.5 -13.5l39 -20q26 -13 38 -13q13 0 13 14v16q0 17 18 17h97q18 0 18 -17v-17z" />
    <glyph glyph-name="Odieresis" unicode="&#xd6;" horiz-adv-x="716" 
d="M676 328q0 -96 -26.5 -160.5t-70.5 -104t-101.5 -56.5t-119.5 -17t-119.5 17t-101.5 56.5t-70.5 104t-26.5 160.5v87q0 96 26.5 160.5t70.5 104t101.5 56.5t119.5 17t119.5 -17t101.5 -56.5t70.5 -104t26.5 -160.5v-87zM437 415q0 72 -18.5 101t-60.5 29t-60.5 -29
t-18.5 -101v-87q0 -72 18.5 -101t60.5 -29t60.5 29t18.5 101v87zM565 815q0 -9 -7 -15t-16 -6h-139q-9 0 -16 6t-7 15v102q0 9 7 15t16 6h139q9 0 16 -6t7 -15v-102zM335 815q0 -9 -7 -15t-16 -6h-139q-9 0 -16 6t-7 15v102q0 9 7 15t16 6h139q9 0 16 -6t7 -15v-102z" />
    <glyph glyph-name="multiply" unicode="&#xd7;" 
d="M558 505q0 -8 -8 -16l-100 -100l99 -100q8 -8 8 -15q0 -5 -5 -10l-92 -92q-5 -5 -10 -5q-7 0 -15 8l-100 99l-100 -99q-8 -8 -15 -8q-5 0 -10 5l-92 92q-5 5 -5 10q0 7 8 15l99 100l-100 100q-8 8 -8 16q0 5 5 10l92 92q5 5 11 5q7 0 15 -8l100 -101l100 101q8 8 15 8
q6 0 11 -5l92 -92q5 -5 5 -10z" />
    <glyph glyph-name="Oslash" unicode="&#xd8;" horiz-adv-x="716" 
d="M709 742q0 -4 -3 -8l-81 -112q23 -38 36 -89.5t13 -117.5v-87q0 -96 -26.5 -160.5t-70.5 -104t-101.5 -56.5t-119.5 -17q-43 0 -84 8t-77 25l-11 -14q-5 -6 -11.5 -12.5t-14.5 -6.5h-140q-11 0 -11 11q0 3 3 8l79 109q-24 38 -37.5 90t-13.5 120v87q0 96 26.5 160.5
t70.5 104t101.5 56.5t119.5 17q44 0 85.5 -8.5t78.5 -26.5l12 16q5 6 11.5 12.5t14.5 6.5h140q11 0 11 -11zM391 539q-15 6 -35 6q-42 0 -60.5 -29t-18.5 -101v-35zM435 357l-111 -154q15 -5 32 -5q42 0 60.5 29t18.5 101v29z" />
    <glyph glyph-name="Ugrave" unicode="&#xd9;" horiz-adv-x="752" 
d="M692 286q0 -96 -27.5 -154.5t-72.5 -90t-101.5 -41.5t-114.5 -10t-114.5 10t-101.5 41.5t-72.5 90t-27.5 154.5v437q0 8 6.5 14t14.5 6h195q8 0 14 -6t6 -14v-437q0 -30 5 -48.5t15.5 -29t25 -14.5t34.5 -4q19 0 34 4t25.5 14.5t15.5 29t5 48.5v437q0 8 6 14t14 6h195
q8 0 14.5 -6t6.5 -14v-437zM493 801q0 -7 -9 -7h-150q-11 0 -15.5 2.5t-9.5 7.5l-130 119q-5 5 -5 8q0 7 12 7h185q12 0 17 -3.5t12 -11.5l89 -112q4 -4 4 -10z" />
    <glyph glyph-name="Uacute" unicode="&#xda;" horiz-adv-x="752" 
d="M692 286q0 -96 -27.5 -154.5t-72.5 -90t-101.5 -41.5t-114.5 -10t-114.5 10t-101.5 41.5t-72.5 90t-27.5 154.5v437q0 8 6.5 14t14.5 6h195q8 0 14 -6t6 -14v-437q0 -30 5 -48.5t15.5 -29t25 -14.5t34.5 -4q19 0 34 4t25.5 14.5t15.5 29t5 48.5v437q0 8 6 14t14 6h195
q8 0 14.5 -6t6.5 -14v-437zM583 931q0 -3 -5 -8l-130 -119q-5 -5 -9.5 -7.5t-15.5 -2.5h-150q-9 0 -9 7q0 6 4 10l89 112q7 8 12 11.5t17 3.5h185q12 0 12 -7z" />
    <glyph glyph-name="Ucircumflex" unicode="&#xdb;" horiz-adv-x="752" 
d="M692 286q0 -96 -27.5 -154.5t-72.5 -90t-101.5 -41.5t-114.5 -10t-114.5 10t-101.5 41.5t-72.5 90t-27.5 154.5v437q0 8 6.5 14t14.5 6h195q8 0 14 -6t6 -14v-437q0 -30 5 -48.5t15.5 -29t25 -14.5t34.5 -4q19 0 34 4t25.5 14.5t15.5 29t5 48.5v437q0 8 6 14t14 6h195
q8 0 14.5 -6t6.5 -14v-437zM601 801q0 -7 -9 -7h-144q-11 0 -15.5 2.5t-9.5 7.5l-48 49l-48 -49q-5 -5 -9.5 -7.5t-15.5 -2.5h-144q-9 0 -9 7q0 5 4 10l83 112q7 9 12 12t17 3h220q12 0 17 -3t12 -12l83 -112q4 -5 4 -10z" />
    <glyph glyph-name="Udieresis" unicode="&#xdc;" horiz-adv-x="752" 
d="M692 286q0 -96 -27.5 -154.5t-72.5 -90t-101.5 -41.5t-114.5 -10t-114.5 10t-101.5 41.5t-72.5 90t-27.5 154.5v437q0 8 6.5 14t14.5 6h195q8 0 14 -6t6 -14v-437q0 -30 5 -48.5t15.5 -29t25 -14.5t34.5 -4q19 0 34 4t25.5 14.5t15.5 29t5 48.5v437q0 8 6 14t14 6h195
q8 0 14.5 -6t6.5 -14v-437zM583 815q0 -9 -7 -15t-16 -6h-139q-9 0 -16 6t-7 15v102q0 9 7 15t16 6h139q9 0 16 -6t7 -15v-102zM353 815q0 -9 -7 -15t-16 -6h-139q-9 0 -16 6t-7 15v102q0 9 7 15t16 6h139q9 0 16 -6t7 -15v-102z" />
    <glyph glyph-name="Yacute" unicode="&#xdd;" horiz-adv-x="709" 
d="M695 730q0 -5 -1 -7l-147 -344q-17 -39 -35 -61t-40 -31v-267q0 -8 -6.5 -14t-14.5 -6h-195q-8 0 -14 6t-6 14v267q-22 9 -40 31t-35 61l-146 344q-2 4 -2 7q0 13 14 13h216q8 0 13 -6t8 -14l84 -248q1 -6 6 -6q4 0 6 6l85 248q3 8 8 14t13 6h215q14 0 14 -13zM565 931
q0 -3 -5 -8l-130 -119q-5 -5 -9.5 -7.5t-15.5 -2.5h-150q-9 0 -9 7q0 6 4 10l89 112q7 8 12 11.5t17 3.5h185q12 0 12 -7z" />
    <glyph glyph-name="Thorn" unicode="&#xde;" horiz-adv-x="698" 
d="M668 405q0 -78 -30 -128.5t-77 -80t-103.5 -41t-108.5 -11.5q-15 0 -28 0.5t-34 1.5v-126q0 -8 -6 -14t-14 -6h-192q-8 0 -14 6t-6 14v703q0 8 6 14t14 6h192q8 0 14 -6t6 -14v-51h22q9 0 18.5 0.5t16.5 0.5q55 0 112.5 -11.5t104.5 -40.5t77 -79.5t30 -129.5v-7z
M434 412q0 34 -23.5 49t-61.5 15h-62v-135h62q38 0 61.5 16t23.5 48v7z" />
    <glyph glyph-name="germandbls" unicode="&#xdf;" horiz-adv-x="696" 
d="M656 232q0 -60 -20.5 -105.5t-55 -75.5t-79 -45.5t-93.5 -15.5q-14 0 -35 1.5t-37 5.5q-8 2 -14 7t-6 13v143q0 8 6 14t14 6h46q27 0 38.5 13t11.5 39v30q0 25 -14 39.5t-56 14.5h-23q-8 0 -14 6t-6 14v114q0 8 6 14t14 6h23q39 0 52.5 14t13.5 34v31q0 18 -14.5 33
t-53.5 15q-42 0 -64 -16t-22 -65v-496q0 -8 -6 -14t-14 -6h-184q-8 0 -14 6t-6 14v496q0 140 76.5 205.5t233.5 65.5q82 0 137.5 -19t89.5 -50t49 -71t15 -83v-31q0 -47 -21.5 -80.5t-49.5 -52.5q36 -24 56 -59t20 -79v-30z" />
    <glyph glyph-name="agrave" unicode="&#xe0;" horiz-adv-x="590" 
d="M540 20q0 -8 -6 -14t-14 -6h-165q-8 0 -14 6t-6 14v21q-31 -24 -62.5 -37.5t-78.5 -13.5q-26 0 -55 9t-53 31t-40 57.5t-16 88.5v16q0 46 18.5 76.5t52.5 48.5t83 25.5t111 7.5h24v21q0 15 -4.5 24.5t-12 14t-16.5 6t-17 1.5q-24 0 -51 -0.5t-51 -1.5t-43.5 -2t-29.5 -2
h-2q-8 0 -13 6.5t-5 14.5v114q0 9 6 15.5t14 9.5q11 4 33 9t48 9.5t53.5 7.5t50.5 3q55 0 102.5 -10t83 -36t55.5 -70t20 -113v-351zM420 642q0 -7 -9 -7h-150q-11 0 -15.5 2.5t-9.5 7.5l-130 119q-5 5 -5 8q0 7 12 7h185q12 0 17 -3.5t12 -11.5l89 -112q4 -4 4 -10z
M326 238h-31q-22 0 -39 -10t-17 -36v-11q0 -20 11 -28t27 -8q13 0 26 3t23 6v84z" />
    <glyph glyph-name="aacute" unicode="&#xe1;" horiz-adv-x="590" 
d="M540 20q0 -8 -6 -14t-14 -6h-165q-8 0 -14 6t-6 14v21q-31 -24 -62.5 -37.5t-78.5 -13.5q-26 0 -55 9t-53 31t-40 57.5t-16 88.5v16q0 46 18.5 76.5t52.5 48.5t83 25.5t111 7.5h24v21q0 15 -4.5 24.5t-12 14t-16.5 6t-17 1.5q-24 0 -51 -0.5t-51 -1.5t-43.5 -2t-29.5 -2
h-2q-8 0 -13 6.5t-5 14.5v114q0 9 6 15.5t14 9.5q11 4 33 9t48 9.5t53.5 7.5t50.5 3q55 0 102.5 -10t83 -36t55.5 -70t20 -113v-351zM520 772q0 -3 -5 -8l-130 -119q-5 -5 -9.5 -7.5t-15.5 -2.5h-150q-9 0 -9 7q0 6 4 10l89 112q7 8 12 11.5t17 3.5h185q12 0 12 -7zM326 238
h-31q-22 0 -39 -10t-17 -36v-11q0 -20 11 -28t27 -8q13 0 26 3t23 6v84z" />
    <glyph glyph-name="acircumflex" unicode="&#xe2;" horiz-adv-x="590" 
d="M540 20q0 -8 -6 -14t-14 -6h-165q-8 0 -14 6t-6 14v21q-31 -24 -62.5 -37.5t-78.5 -13.5q-26 0 -55 9t-53 31t-40 57.5t-16 88.5v16q0 46 18.5 76.5t52.5 48.5t83 25.5t111 7.5h24v21q0 15 -4.5 24.5t-12 14t-16.5 6t-17 1.5q-24 0 -51 -0.5t-51 -1.5t-43.5 -2t-29.5 -2
h-2q-8 0 -13 6.5t-5 14.5v114q0 9 6 15.5t14 9.5q11 4 33 9t48 9.5t53.5 7.5t50.5 3q55 0 102.5 -10t83 -36t55.5 -70t20 -113v-351zM532 642q0 -7 -9 -7h-144q-11 0 -15.5 2.5t-9.5 7.5l-48 49l-48 -49q-5 -5 -9.5 -7.5t-15.5 -2.5h-144q-9 0 -9 7q0 5 4 10l83 112
q7 9 12 12t17 3h220q12 0 17 -3t12 -12l83 -112q4 -5 4 -10zM326 238h-31q-22 0 -39 -10t-17 -36v-11q0 -20 11 -28t27 -8q13 0 26 3t23 6v84z" />
    <glyph glyph-name="atilde" unicode="&#xe3;" horiz-adv-x="590" 
d="M540 20q0 -8 -6 -14t-14 -6h-165q-8 0 -14 6t-6 14v21q-31 -24 -62.5 -37.5t-78.5 -13.5q-26 0 -55 9t-53 31t-40 57.5t-16 88.5v16q0 46 18.5 76.5t52.5 48.5t83 25.5t111 7.5h24v21q0 15 -4.5 24.5t-12 14t-16.5 6t-17 1.5q-24 0 -51 -0.5t-51 -1.5t-43.5 -2t-29.5 -2
h-2q-8 0 -13 6.5t-5 14.5v114q0 9 6 15.5t14 9.5q11 4 33 9t48 9.5t53.5 7.5t50.5 3q55 0 102.5 -10t83 -36t55.5 -70t20 -113v-351zM535 759q0 -38 -10 -63.5t-28.5 -41.5t-45.5 -22.5t-60 -6.5q-13 0 -35 6t-39 14l-39 20q-14 7 -22.5 9.5t-14.5 2.5q-5 0 -9.5 -2.5
t-4.5 -10.5v-16q0 -17 -18 -17h-97q-18 0 -18 17v16q0 74 39 104t106 30q13 0 34.5 -5.5t38.5 -13.5l39 -20q26 -13 38 -13q13 0 13 14v16q0 17 18 17h97q18 0 18 -17v-17zM326 238h-31q-22 0 -39 -10t-17 -36v-11q0 -20 11 -28t27 -8q13 0 26 3t23 6v84z" />
    <glyph glyph-name="adieresis" unicode="&#xe4;" horiz-adv-x="590" 
d="M540 20q0 -8 -6 -14t-14 -6h-165q-8 0 -14 6t-6 14v21q-31 -24 -62.5 -37.5t-78.5 -13.5q-26 0 -55 9t-53 31t-40 57.5t-16 88.5v16q0 46 18.5 76.5t52.5 48.5t83 25.5t111 7.5h24v21q0 15 -4.5 24.5t-12 14t-16.5 6t-17 1.5q-24 0 -51 -0.5t-51 -1.5t-43.5 -2t-29.5 -2
h-2q-8 0 -13 6.5t-5 14.5v114q0 9 6 15.5t14 9.5q11 4 33 9t48 9.5t53.5 7.5t50.5 3q55 0 102.5 -10t83 -36t55.5 -70t20 -113v-351zM286 656q0 -9 -7 -15t-16 -6h-139q-9 0 -16 6t-7 15v102q0 9 7 15t16 6h139q9 0 16 -6t7 -15v-102zM516 656q0 -9 -7 -15t-16 -6h-139
q-9 0 -16 6t-7 15v102q0 9 7 15t16 6h139q9 0 16 -6t7 -15v-102zM326 238h-31q-22 0 -39 -10t-17 -36v-11q0 -20 11 -28t27 -8q13 0 26 3t23 6v84z" />
    <glyph glyph-name="aring" unicode="&#xe5;" horiz-adv-x="590" 
d="M540 20q0 -8 -6 -14t-14 -6h-165q-8 0 -14 6t-6 14v21q-31 -24 -62.5 -37.5t-78.5 -13.5q-26 0 -55 9t-53 31t-40 57.5t-16 88.5v16q0 46 18.5 76.5t52.5 48.5t83 25.5t111 7.5h24v21q0 15 -4.5 24.5t-12 14t-16.5 6t-17 1.5q-24 0 -51 -0.5t-51 -1.5t-43.5 -2t-29.5 -2
h-2q-8 0 -13 6.5t-5 14.5v114q0 9 6 15.5t14 9.5q11 4 33 9t48 9.5t53.5 7.5t50.5 3q55 0 102.5 -10t83 -36t55.5 -70t20 -113v-351zM427 763q0 -27 -10 -50t-27.5 -40.5t-40.5 -27.5t-50 -10t-50 10t-40.5 27.5t-27.5 40.5t-10 50t10 50t27.5 40.5t40.5 27.5t50 10t50 -10
t40.5 -27.5t27.5 -40.5t10 -50zM326 238h-31q-22 0 -39 -10t-17 -36v-11q0 -20 11 -28t27 -8q13 0 26 3t23 6v84zM337 764q0 15 -11 26t-26 11q-14 0 -25 -10.5t-11 -26.5t11 -26.5t25 -10.5q15 0 26 11t11 26z" />
    <glyph glyph-name="ae" unicode="&#xe6;" horiz-adv-x="903" 
d="M868 258q0 -9 -6.5 -15t-15.5 -6h-302q0 -19 4 -31t13.5 -19.5t26 -10.5t42.5 -3q16 0 42.5 0.5t54.5 1.5t53 2.5t38 2.5h4q18 0 18 -18v-105q0 -13 -4 -18.5t-15 -10.5q-48 -20 -108 -29t-121 -9q-31 0 -73 7t-77 24q-39 -14 -85 -23t-93 -9q-44 0 -85.5 9.5t-73.5 31.5
t-51 59t-19 91v10q0 46 20 77t55.5 49.5t84 26t105.5 7.5h24v21q0 15 -4.5 24.5t-12 14t-16.5 6t-17 1.5q-24 0 -51 -0.5t-51 -1.5t-43.5 -2t-29.5 -2q-13 -1 -16.5 5.5t-3.5 15.5v114q0 9 6 15.5t14 9.5q11 4 31.5 9t44.5 9.5t50 7.5t49 3q51 0 95.5 -10.5t79.5 -34.5
q34 23 70.5 34t82.5 11q69 0 119.5 -20t83 -57t48 -88.5t15.5 -115.5v-61zM657 349q0 36 -11.5 59.5t-45.5 23.5q-31 0 -43.5 -23.5t-12.5 -59.5h113zM331 238h-31q-22 0 -39 -11t-17 -37v-10q0 -13 5 -20.5t13.5 -11.5t19 -5t21.5 -1q8 0 15 0.5t13 1.5v94z" />
    <glyph glyph-name="ccedilla" unicode="&#xe7;" horiz-adv-x="475" 
d="M440 26q0 -9 -5.5 -13t-14.5 -6q-29 -7 -63 -12t-78 -5q-62 0 -107.5 19.5t-76 55t-45.5 85.5t-15 112v66q0 61 15 111.5t45.5 86t76 55t107.5 19.5q44 0 82 -6t59 -11q8 -2 14 -6t6 -13v-136q0 -8 -6.5 -14.5t-14.5 -6.5h-1q-24 2 -51 4t-57 2q-31 0 -42 -20t-11 -65
v-66q0 -45 11 -65t42 -20q30 0 57 2t51 4h1q8 0 14.5 -6.5t6.5 -14.5v-136zM362 -44q0 -3 -5 -8l-130 -119q-5 -5 -9.5 -7.5t-15.5 -2.5h-150q-9 0 -9 7q0 6 4 10l89 112q7 8 12 11.5t17 3.5h185q12 0 12 -7z" />
    <glyph glyph-name="egrave" unicode="&#xe8;" horiz-adv-x="614" 
d="M579 258q0 -9 -6.5 -15t-15.5 -6h-302q0 -19 4 -31t13.5 -19.5t26 -10.5t42.5 -3q16 0 42.5 0.5t54.5 1.5t53 2.5t38 2.5h4q18 0 18 -18v-105q0 -13 -4 -18.5t-15 -10.5q-48 -20 -108 -29t-121 -9q-56 0 -104.5 15.5t-85 48t-57.5 83t-21 121.5v61q0 72 19.5 125
t55.5 87.5t87.5 51.5t115.5 17q69 0 119.5 -20t83 -57t48 -88.5t15.5 -115.5v-61zM402 642q0 -7 -9 -7h-150q-11 0 -15.5 2.5t-9.5 7.5l-130 119q-5 5 -5 8q0 7 12 7h185q12 0 17 -3.5t12 -11.5l89 -112q4 -4 4 -10zM368 349q0 36 -11.5 59.5t-45.5 23.5q-31 0 -43.5 -23.5
t-12.5 -59.5h113z" />
    <glyph glyph-name="eacute" unicode="&#xe9;" horiz-adv-x="614" 
d="M579 258q0 -9 -6.5 -15t-15.5 -6h-302q0 -19 4 -31t13.5 -19.5t26 -10.5t42.5 -3q16 0 42.5 0.5t54.5 1.5t53 2.5t38 2.5h4q18 0 18 -18v-105q0 -13 -4 -18.5t-15 -10.5q-48 -20 -108 -29t-121 -9q-56 0 -104.5 15.5t-85 48t-57.5 83t-21 121.5v61q0 72 19.5 125
t55.5 87.5t87.5 51.5t115.5 17q69 0 119.5 -20t83 -57t48 -88.5t15.5 -115.5v-61zM530 772q0 -3 -5 -8l-130 -119q-5 -5 -9.5 -7.5t-15.5 -2.5h-150q-9 0 -9 7q0 6 4 10l89 112q7 8 12 11.5t17 3.5h185q12 0 12 -7zM368 349q0 36 -11.5 59.5t-45.5 23.5q-31 0 -43.5 -23.5
t-12.5 -59.5h113z" />
    <glyph glyph-name="ecircumflex" unicode="&#xea;" horiz-adv-x="614" 
d="M579 258q0 -9 -6.5 -15t-15.5 -6h-302q0 -19 4 -31t13.5 -19.5t26 -10.5t42.5 -3q16 0 42.5 0.5t54.5 1.5t53 2.5t38 2.5h4q18 0 18 -18v-105q0 -13 -4 -18.5t-15 -10.5q-48 -20 -108 -29t-121 -9q-56 0 -104.5 15.5t-85 48t-57.5 83t-21 121.5v61q0 72 19.5 125
t55.5 87.5t87.5 51.5t115.5 17q69 0 119.5 -20t83 -57t48 -88.5t15.5 -115.5v-61zM540 642q0 -7 -9 -7h-144q-11 0 -15.5 2.5t-9.5 7.5l-48 49l-48 -49q-5 -5 -9.5 -7.5t-15.5 -2.5h-144q-9 0 -9 7q0 5 4 10l83 112q7 9 12 12t17 3h220q12 0 17 -3t12 -12l83 -112
q4 -5 4 -10zM368 349q0 36 -11.5 59.5t-45.5 23.5q-31 0 -43.5 -23.5t-12.5 -59.5h113z" />
    <glyph glyph-name="edieresis" unicode="&#xeb;" horiz-adv-x="614" 
d="M579 258q0 -9 -6.5 -15t-15.5 -6h-302q0 -19 4 -31t13.5 -19.5t26 -10.5t42.5 -3q16 0 42.5 0.5t54.5 1.5t53 2.5t38 2.5h4q18 0 18 -18v-105q0 -13 -4 -18.5t-15 -10.5q-48 -20 -108 -29t-121 -9q-56 0 -104.5 15.5t-85 48t-57.5 83t-21 121.5v61q0 72 19.5 125
t55.5 87.5t87.5 51.5t115.5 17q69 0 119.5 -20t83 -57t48 -88.5t15.5 -115.5v-61zM288 656q0 -9 -7 -15t-16 -6h-139q-9 0 -16 6t-7 15v102q0 9 7 15t16 6h139q9 0 16 -6t7 -15v-102zM518 656q0 -9 -7 -15t-16 -6h-139q-9 0 -16 6t-7 15v102q0 9 7 15t16 6h139q9 0 16 -6
t7 -15v-102zM368 349q0 36 -11.5 59.5t-45.5 23.5q-31 0 -43.5 -23.5t-12.5 -59.5h113z" />
    <glyph glyph-name="igrave" unicode="&#xec;" horiz-adv-x="329" 
d="M277 22q0 -9 -6.5 -15.5t-15.5 -6.5h-179q-9 0 -16 6.5t-7 15.5v547q0 9 7 15t16 6h179q9 0 15.5 -6t6.5 -15v-547zM283 642q0 -7 -9 -7h-150q-11 0 -15.5 2.5t-9.5 7.5l-130 119q-5 5 -5 8q0 7 12 7h185q12 0 17 -3.5t12 -11.5l89 -112q4 -4 4 -10z" />
    <glyph glyph-name="iacute" unicode="&#xed;" horiz-adv-x="329" 
d="M277 22q0 -9 -6.5 -15.5t-15.5 -6.5h-179q-9 0 -16 6.5t-7 15.5v547q0 9 7 15t16 6h179q9 0 15.5 -6t6.5 -15v-547zM373 772q0 -3 -5 -8l-130 -119q-5 -5 -9.5 -7.5t-15.5 -2.5h-150q-9 0 -9 7q0 6 4 10l89 112q7 8 12 11.5t17 3.5h185q12 0 12 -7z" />
    <glyph glyph-name="icircumflex" unicode="&#xee;" horiz-adv-x="329" 
d="M277 22q0 -9 -6.5 -15.5t-15.5 -6.5h-179q-9 0 -16 6.5t-7 15.5v547q0 9 7 15t16 6h179q9 0 15.5 -6t6.5 -15v-547zM396 642q0 -7 -9 -7h-144q-11 0 -15.5 2.5t-9.5 7.5l-48 49l-48 -49q-5 -5 -9.5 -7.5t-15.5 -2.5h-144q-9 0 -9 7q0 5 4 10l83 112q7 9 12 12t17 3h220
q12 0 17 -3t12 -12l83 -112q4 -5 4 -10z" />
    <glyph glyph-name="idieresis" unicode="&#xef;" horiz-adv-x="329" 
d="M277 22q0 -9 -6.5 -15.5t-15.5 -6.5h-179q-9 0 -16 6.5t-7 15.5v547q0 9 7 15t16 6h179q9 0 15.5 -6t6.5 -15v-547zM373 656q0 -9 -7 -15t-16 -6h-139q-9 0 -16 6t-7 15v102q0 9 7 15t16 6h139q9 0 16 -6t7 -15v-102zM143 656q0 -9 -7 -15t-16 -6h-139q-9 0 -16 6t-7 15
v102q0 9 7 15t16 6h139q9 0 16 -6t7 -15v-102z" />
    <glyph glyph-name="eth" unicode="&#xf0;" horiz-adv-x="620" 
d="M585 272q0 -145 -73.5 -213.5t-201.5 -68.5t-201.5 68.5t-73.5 213.5v11q0 145 73 213.5t202 68.5h4q-34 26 -86 51l-62 -48q-8 -6 -13 -6t-11 6l-24 27q-3 3 -3 8q0 9 10 16l33 25l-43 15q-6 2 -11 5.5t-5 9.5q0 3 1 5l32 88q4 11 13 11q4 0 10 -2q34 -9 64.5 -19
t58.5 -21l66 50q7 5 14 5t11 -5l24 -27q4 -6 4 -8q0 -6 -10 -14l-42 -32q124 -66 182 -173.5t58 -247.5v-12zM363 283q0 58 -14 78t-39 20q-26 0 -39.5 -20t-13.5 -78v-11q0 -29 3.5 -48t10 -30t16.5 -15.5t23 -4.5t22.5 4.5t16.5 15.5t10.5 30t3.5 48v11z" />
    <glyph glyph-name="ntilde" unicode="&#xf1;" horiz-adv-x="652" 
d="M602 22q0 -9 -6 -15.5t-15 -6.5h-180q-9 0 -15.5 6.5t-6.5 15.5v346q0 26 -15 37.5t-36 11.5q-28 0 -55 -15v-380q0 -9 -5.5 -15.5t-14.5 -6.5h-180q-9 0 -16 6.5t-7 15.5v548q0 8 6 14t14 6h165q8 0 14 -6t6 -14v-28q18 14 33.5 25t34 18.5t41.5 11t55 3.5
q55 0 90.5 -18.5t56 -50.5t28.5 -74t8 -89v-346zM544 759q0 -38 -10 -63.5t-28.5 -41.5t-45.5 -22.5t-60 -6.5q-13 0 -35 6t-39 14l-39 20q-14 7 -22.5 9.5t-14.5 2.5q-5 0 -9.5 -2.5t-4.5 -10.5v-16q0 -17 -18 -17h-97q-18 0 -18 17v16q0 74 39 104t106 30q13 0 34.5 -5.5
t38.5 -13.5l39 -20q26 -13 38 -13q13 0 13 14v16q0 17 18 17h97q18 0 18 -17v-17z" />
    <glyph glyph-name="ograve" unicode="&#xf2;" horiz-adv-x="620" 
d="M585 272q0 -145 -73.5 -213.5t-201.5 -68.5t-201.5 68.5t-73.5 213.5v46q0 145 73.5 213.5t201.5 68.5t201.5 -68.5t73.5 -213.5v-46zM363 318q0 58 -14 78t-39 20q-26 0 -39.5 -20t-13.5 -78v-46q0 -29 3.5 -48t10 -30t16.5 -15.5t23 -4.5t22.5 4.5t16.5 15.5t10.5 30
t3.5 48v46zM424 642q0 -7 -9 -7h-150q-11 0 -15.5 2.5t-9.5 7.5l-130 119q-5 5 -5 8q0 7 12 7h185q12 0 17 -3.5t12 -11.5l89 -112q4 -4 4 -10z" />
    <glyph glyph-name="oacute" unicode="&#xf3;" horiz-adv-x="620" 
d="M585 272q0 -145 -73.5 -213.5t-201.5 -68.5t-201.5 68.5t-73.5 213.5v46q0 145 73.5 213.5t201.5 68.5t201.5 -68.5t73.5 -213.5v-46zM363 318q0 58 -14 78t-39 20q-26 0 -39.5 -20t-13.5 -78v-46q0 -29 3.5 -48t10 -30t16.5 -15.5t23 -4.5t22.5 4.5t16.5 15.5t10.5 30
t3.5 48v46zM515 772q0 -3 -5 -8l-130 -119q-5 -5 -9.5 -7.5t-15.5 -2.5h-150q-9 0 -9 7q0 6 4 10l89 112q7 8 12 11.5t17 3.5h185q12 0 12 -7z" />
    <glyph glyph-name="ocircumflex" unicode="&#xf4;" horiz-adv-x="620" 
d="M585 272q0 -145 -73.5 -213.5t-201.5 -68.5t-201.5 68.5t-73.5 213.5v46q0 145 73.5 213.5t201.5 68.5t201.5 -68.5t73.5 -213.5v-46zM363 318q0 58 -14 78t-39 20q-26 0 -39.5 -20t-13.5 -78v-46q0 -29 3.5 -48t10 -30t16.5 -15.5t23 -4.5t22.5 4.5t16.5 15.5t10.5 30
t3.5 48v46zM536 642q0 -7 -9 -7h-144q-11 0 -15.5 2.5t-9.5 7.5l-48 49l-48 -49q-5 -5 -9.5 -7.5t-15.5 -2.5h-144q-9 0 -9 7q0 5 4 10l83 112q7 9 12 12t17 3h220q12 0 17 -3t12 -12l83 -112q4 -5 4 -10z" />
    <glyph glyph-name="otilde" unicode="&#xf5;" horiz-adv-x="620" 
d="M585 272q0 -145 -73.5 -213.5t-201.5 -68.5t-201.5 68.5t-73.5 213.5v46q0 145 73.5 213.5t201.5 68.5t201.5 -68.5t73.5 -213.5v-46zM363 318q0 58 -14 78t-39 20q-26 0 -39.5 -20t-13.5 -78v-46q0 -29 3.5 -48t10 -30t16.5 -15.5t23 -4.5t22.5 4.5t16.5 15.5t10.5 30
t3.5 48v46zM530 759q0 -38 -10 -63.5t-28.5 -41.5t-45.5 -22.5t-60 -6.5q-13 0 -35 6t-39 14l-39 20q-14 7 -22.5 9.5t-14.5 2.5q-5 0 -9.5 -2.5t-4.5 -10.5v-16q0 -17 -18 -17h-97q-18 0 -18 17v16q0 74 39 104t106 30q13 0 34.5 -5.5t38.5 -13.5l39 -20q26 -13 38 -13
q13 0 13 14v16q0 17 18 17h97q18 0 18 -17v-17z" />
    <glyph glyph-name="odieresis" unicode="&#xf6;" horiz-adv-x="620" 
d="M585 272q0 -145 -73.5 -213.5t-201.5 -68.5t-201.5 68.5t-73.5 213.5v46q0 145 73.5 213.5t201.5 68.5t201.5 -68.5t73.5 -213.5v-46zM363 318q0 58 -14 78t-39 20q-26 0 -39.5 -20t-13.5 -78v-46q0 -29 3.5 -48t10 -30t16.5 -15.5t23 -4.5t22.5 4.5t16.5 15.5t10.5 30
t3.5 48v46zM517 656q0 -9 -7 -15t-16 -6h-139q-9 0 -16 6t-7 15v102q0 9 7 15t16 6h139q9 0 16 -6t7 -15v-102zM287 656q0 -9 -7 -15t-16 -6h-139q-9 0 -16 6t-7 15v102q0 9 7 15t16 6h139q9 0 16 -6t7 -15v-102z" />
    <glyph glyph-name="divide" unicode="&#xf7;" 
d="M443 572q0 -8 -6.5 -14t-14.5 -6h-174q-8 0 -14.5 6t-6.5 14v132q0 8 6.5 14t14.5 6h174q8 0 14.5 -6t6.5 -14v-132zM578 326q0 -8 -6 -12t-14 -4h-445q-8 0 -14 4t-6 12v130q0 8 6 12t14 4h445q8 0 14 -4t6 -12v-130zM443 57q0 -8 -6.5 -14t-14.5 -6h-174q-8 0 -14.5 6
t-6.5 14v132q0 8 6.5 14t14.5 6h174q8 0 14.5 -6t6.5 -14v-132z" />
    <glyph glyph-name="oslash" unicode="&#xf8;" horiz-adv-x="620" 
d="M590 617q0 -7 -4 -11l-64 -86q63 -71 63 -202v-46q0 -145 -73 -213.5t-202 -68.5q-92 0 -154 34l-36 -49q-5 -7 -8 -8.5t-8 -1.5h-65q-8 0 -8 8q0 6 4 11l63 86q-63 71 -63 202v46q0 145 73 213.5t202 68.5q92 0 154 -34l37 49q5 7 8 8.5t8 1.5h65q8 0 8 -8zM344 403
q-13 13 -34 13q-26 0 -39.5 -20t-13.5 -78v-33zM363 305l-87 -118q13 -13 34 -13q13 0 22.5 4.5t16.5 15.5t10.5 30t3.5 48v33z" />
    <glyph glyph-name="ugrave" unicode="&#xf9;" horiz-adv-x="652" 
d="M602 20q0 -8 -6 -14t-14 -6h-165q-8 0 -14 6t-6 14v28q-16 -13 -31.5 -24t-34.5 -18.5t-42.5 -11.5t-55.5 -4q-55 0 -90.5 18.5t-56 50.5t-28.5 74t-8 89v346q0 9 6 15.5t15 6.5h180q9 0 15.5 -6.5t6.5 -15.5v-346q0 -26 15 -37.5t36 -11.5q28 0 55 15v380q0 9 5.5 15.5
t14.5 6.5h180q9 0 16 -6.5t7 -15.5v-548zM434 642q0 -7 -9 -7h-150q-11 0 -15.5 2.5t-9.5 7.5l-130 119q-5 5 -5 8q0 7 12 7h185q12 0 17 -3.5t12 -11.5l89 -112q4 -4 4 -10z" />
    <glyph glyph-name="uacute" unicode="&#xfa;" horiz-adv-x="652" 
d="M602 20q0 -8 -6 -14t-14 -6h-165q-8 0 -14 6t-6 14v28q-16 -13 -31.5 -24t-34.5 -18.5t-42.5 -11.5t-55.5 -4q-55 0 -90.5 18.5t-56 50.5t-28.5 74t-8 89v346q0 9 6 15.5t15 6.5h180q9 0 15.5 -6.5t6.5 -15.5v-346q0 -26 15 -37.5t36 -11.5q28 0 55 15v380q0 9 5.5 15.5
t14.5 6.5h180q9 0 16 -6.5t7 -15.5v-548zM545 772q0 -3 -5 -8l-130 -119q-5 -5 -9.5 -7.5t-15.5 -2.5h-150q-9 0 -9 7q0 6 4 10l89 112q7 8 12 11.5t17 3.5h185q12 0 12 -7z" />
    <glyph glyph-name="ucircumflex" unicode="&#xfb;" horiz-adv-x="652" 
d="M602 20q0 -8 -6 -14t-14 -6h-165q-8 0 -14 6t-6 14v28q-16 -13 -31.5 -24t-34.5 -18.5t-42.5 -11.5t-55.5 -4q-55 0 -90.5 18.5t-56 50.5t-28.5 74t-8 89v346q0 9 6 15.5t15 6.5h180q9 0 15.5 -6.5t6.5 -15.5v-346q0 -26 15 -37.5t36 -11.5q28 0 55 15v380q0 9 5.5 15.5
t14.5 6.5h180q9 0 16 -6.5t7 -15.5v-548zM551 642q0 -7 -9 -7h-144q-11 0 -15.5 2.5t-9.5 7.5l-48 49l-48 -49q-5 -5 -9.5 -7.5t-15.5 -2.5h-144q-9 0 -9 7q0 5 4 10l83 112q7 9 12 12t17 3h220q12 0 17 -3t12 -12l83 -112q4 -5 4 -10z" />
    <glyph glyph-name="udieresis" unicode="&#xfc;" horiz-adv-x="652" 
d="M602 20q0 -8 -6 -14t-14 -6h-165q-8 0 -14 6t-6 14v28q-16 -13 -31.5 -24t-34.5 -18.5t-42.5 -11.5t-55.5 -4q-55 0 -90.5 18.5t-56 50.5t-28.5 74t-8 89v346q0 9 6 15.5t15 6.5h180q9 0 15.5 -6.5t6.5 -15.5v-346q0 -26 15 -37.5t36 -11.5q28 0 55 15v380q0 9 5.5 15.5
t14.5 6.5h180q9 0 16 -6.5t7 -15.5v-548zM536 656q0 -9 -7 -15t-16 -6h-139q-9 0 -16 6t-7 15v102q0 9 7 15t16 6h139q9 0 16 -6t7 -15v-102zM306 656q0 -9 -7 -15t-16 -6h-139q-9 0 -16 6t-7 15v102q0 9 7 15t16 6h139q9 0 16 -6t7 -15v-102z" />
    <glyph glyph-name="yacute" unicode="&#xfd;" horiz-adv-x="656" 
d="M641 573q0 -1 -0.5 -2t-0.5 -2l-171 -600q-11 -39 -28 -71.5t-45 -55.5t-70.5 -35.5t-105.5 -12.5q-17 0 -38 1.5t-42.5 4.5t-40 7t-29.5 8q-8 3 -15.5 7t-7.5 13v114q0 8 7 15t15 7h1q16 -1 35 -2.5t39.5 -2.5t40 -1.5t35.5 -0.5q33 0 40 23l9 34h-13q-20 0 -34.5 2.5
t-26.5 14t-23 34.5t-23 64l-133 433q-1 2 -1 7q0 14 23 14h196q9 0 13.5 -6.5t6.5 -14.5l68 -312q3 -14 9 -14h7l64 326q2 8 7.5 14.5t14.5 6.5h195q8 0 15 -4.5t7 -12.5zM549 772q0 -3 -5 -8l-130 -119q-5 -5 -9.5 -7.5t-15.5 -2.5h-150q-9 0 -9 7q0 6 4 10l89 112
q7 8 12 11.5t17 3.5h185q12 0 12 -7z" />
    <glyph glyph-name="thorn" unicode="&#xfe;" horiz-adv-x="636" 
d="M601 256q0 -60 -17 -109t-51 -84t-86 -54t-121 -19q-9 0 -26.5 2t-27.5 4v-164q0 -9 -5.5 -15t-14.5 -6h-179q-9 0 -16 6t-7 15v927q0 8 6 14t14 6h182q8 0 14 -6t6 -14v-160q13 1 26.5 1h27.5q62 0 112.5 -17t86.5 -50.5t56 -83t20 -115.5v-78zM379 334q0 36 -11 59
t-42 23q-20 0 -30 -0.5t-24 -2.5v-236q12 -1 24.5 -2t29.5 -1q31 0 42 23.5t11 58.5v78z" />
    <glyph glyph-name="ydieresis" unicode="&#xff;" horiz-adv-x="656" 
d="M641 573q0 -1 -0.5 -2t-0.5 -2l-171 -600q-11 -39 -28 -71.5t-45 -55.5t-70.5 -35.5t-105.5 -12.5q-17 0 -38 1.5t-42.5 4.5t-40 7t-29.5 8q-8 3 -15.5 7t-7.5 13v114q0 8 7 15t15 7h1q16 -1 35 -2.5t39.5 -2.5t40 -1.5t35.5 -0.5q33 0 40 23l9 34h-13q-20 0 -34.5 2.5
t-26.5 14t-23 34.5t-23 64l-133 433q-1 2 -1 7q0 14 23 14h196q9 0 13.5 -6.5t6.5 -14.5l68 -312q3 -14 9 -14h7l64 326q2 8 7.5 14.5t14.5 6.5h195q8 0 15 -4.5t7 -12.5zM534 656q0 -9 -7 -15t-16 -6h-139q-9 0 -16 6t-7 15v102q0 9 7 15t16 6h139q9 0 16 -6t7 -15v-102z
M304 656q0 -9 -7 -15t-16 -6h-139q-9 0 -16 6t-7 15v102q0 9 7 15t16 6h139q9 0 16 -6t7 -15v-102z" />
    <glyph glyph-name="dotlessi" unicode="&#x131;" horiz-adv-x="329" 
d="M277 22q0 -9 -6.5 -15.5t-15.5 -6.5h-179q-9 0 -16 6.5t-7 15.5v547q0 9 7 15t16 6h179q9 0 15.5 -6t6.5 -15v-547z" />
    </font>
</defs>
</svg>
