<?xml version="1.0" standalone="no"?>
<!DOCTYPE svg PUBLIC "-//W3C//DTD SVG 1.1//EN" "http://www.w3.org/Graphics/SVG/1.1/DTD/svg11.dtd" >
<svg xmlns="http://www.w3.org/2000/svg" xmlns:xlink="http://www.w3.org/1999/xlink" version="1.1">
<metadata>
Created by FontForge 20170731 at Thu Dec  9 20:02:47 2010
 By Aleksey,,,
Copyright 2004 - 2010 Monotype Imaging, Inc. All rights reserved.
</metadata>
<defs>
<font id="NeoSansArabic-Black" horiz-adv-x="666" >
  <font-face 
    font-family="Neo Sans Arabic Black"
    font-weight="900"
    font-stretch="normal"
    units-per-em="1000"
    panose-1="2 11 9 4 3 5 4 4 2 4"
    ascent="765"
    descent="-235"
    x-height="582"
    cap-height="743"
    bbox="-177.182 -447 1543 1157"
    underline-thickness="90"
    underline-position="-169"
    unicode-range="U+0020-FEFC"
  />
<missing-glyph horiz-adv-x="500" 
d="M12 665h475v-665h-475v665zM250 375l161 243h-323zM60 91l7 10t18 27t25.5 39t29.5 45q35 54 81 121l-161 242v-484zM278 333l162 -243v485zM250 290l-162 -242h323z" />
    <glyph glyph-name="f_i" unicode="fi" horiz-adv-x="730" 
d="M670 22q0 -8 -6.5 -15t-14.5 -7h-150q-8 0 -15 7t-7 15v418h-174v-420q0 -8 -6 -14t-14 -6h-152q-8 0 -14 6t-6 14v420l-66 15q-8 2 -14.5 7.5t-6.5 13.5v84q0 8 6 15t15 7h66v27q0 56 12.5 91.5t36 55.5t56 27.5t72.5 7.5q21 0 45 -2.5t44 -6.5q9 -2 15 -7t6 -13v-94
q0 -8 -6 -13.5t-15 -5.5h-42q-19 0 -25.5 -8.5t-6.5 -31.5v-27h346q8 0 14.5 -6.5t6.5 -14.5v-539zM675 657q0 -8 -7 -14t-15 -6h-158q-8 0 -15 6t-7 14v98q0 8 7 14t15 6h158q8 0 15 -6t7 -14v-98z" />
    <glyph glyph-name="f_l" unicode="fl" horiz-adv-x="725" 
d="M399 460q0 -8 -6 -14t-14 -6h-76v-420q0 -8 -6 -14t-14 -6h-152q-8 0 -14 6t-6 14v420l-66 15q-8 2 -14.5 7.5t-6.5 13.5v84q0 8 6 15t15 7h66v27q0 58 13.5 94t41 55.5t70.5 26t102 6.5q54 0 92 -5.5t69 -12.5h151q8 0 14 -6t6 -14v-731q0 -8 -6 -15t-14 -7h-151
q-8 0 -15 7t-7 15v627h-115q-35 0 -47 -6t-12 -34v-27h76q8 0 14 -6t6 -14v-102z" />
    <glyph glyph-name="Allah" unicode="&#x627;&#xfedf;&#xfee0;&#x670;&#x651;&#xfeea;" horiz-adv-x="1608" arabic-form="isolated" 
d="M49 260q0 134 76 202t225 68q19 0 42 -1t45 -3.5t40 -5.5t28 -6q11 -4 14.5 -9t3.5 -13v-270q0 -23 11 -30.5t33 -7.5h82q16 0 28 4t12 26v381q0 9 6.5 15t15.5 6h145q9 0 15 -6t6 -15v-403q8 -5 21.5 -6.5t23.5 -1.5h83q18 0 25.5 4t7.5 25v539q0 9 6.5 15t15.5 6h146
q9 0 15 -6t6 -15v-587q0 -33 -1.5 -63t-4.5 -62q-2 -9 -6.5 -16.5t-16.5 -10.5q-14 -3 -39.5 -5.5t-56 -4t-61.5 -2.5t-56 -1h-37q-46 0 -90.5 6.5t-74.5 28.5q-30 -20 -74 -27.5t-83 -7.5h-78q-17 0 -37 2t-41 7t-40.5 15t-34.5 27q-20 -15 -51.5 -22t-57.5 -7h-8
q-112 0 -170.5 55t-58.5 169v14zM1354 752q0 9 6 15t16 6h146q9 0 15 -6t6 -15v-730q0 -9 -6 -15.5t-15 -6.5h-146q-10 0 -16 6.5t-6 15.5v730zM716 660q-41 0 -56.5 24t-15.5 66q0 14 0.5 23.5t2.5 23.5t14 14h35q5 0 9.5 -4t3.5 -10q-1 -15 -1 -23v-17q0 -24 5 -31.5
t14 -7.5h4q8 0 14.5 5t6.5 20v51q0 6 4.5 10t9.5 4h36q13 0 13 -14v-51q0 -15 6.5 -20t13.5 -5h4q9 0 15 7.5t6 31.5q0 9 -0.5 17.5t-1.5 22.5q0 6 4.5 10t9.5 4h35q12 0 14 -14q2 -17 2 -25v-22q0 -42 -17 -66t-58 -24h-5q-18 0 -32 4.5t-25 17.5h-3q-11 -14 -27 -18
t-35 -4h-5zM218 270q0 -40 17 -59t56 -19h10q20 0 34.5 8t14.5 29v143q-8 1 -18 1h-18q-47 0 -71.5 -24t-24.5 -65v-14zM748 975q0 13 13 13h45q13 0 13 -13v-118q0 -13 -13 -13h-45q-13 0 -13 13v118z" />
    <glyph glyph-name="LamAlefMaddaSep" unicode="&#xfedf;&#xfe82;" horiz-adv-x="727" arabic-form="isolated" 
d="M146 679q0 10 6.5 15.5t15.5 5.5h134q9 0 15 -5.5t6 -15.5v-419q0 -9 -6.5 -15t-15.5 -6h-134q-9 0 -15 6t-6 15v419zM49 164q0 8 5.5 14t13.5 6h376q18 0 25.5 4t7.5 25v539q0 9 6.5 15t15.5 6h145q10 0 15.5 -6t5.5 -15v-587q0 -37 -1 -65.5t-4 -59.5q-1 -10 -6 -17
t-17 -10q-14 -3 -42.5 -5.5t-61.5 -4t-67 -2.5t-59 -1h-339q-8 0 -13.5 5.5t-5.5 13.5v145zM78 749q-7 0 -11.5 4t-3.5 10q5 47 22 73q28 42 84 42q20 0 38 -6.5t37 -14.5q15 -5 29.5 -9t31.5 -4q20 0 31.5 3.5t22.5 8.5t19.5 8.5t13.5 3.5q11 0 11 -11v-60q0 -12 -10 -19
q-17 -11 -39.5 -17.5t-48.5 -6.5q-23 0 -44 5t-57 21q-11 5 -17.5 6.5t-11.5 1.5q-12 0 -15 -12l-5 -12q-5 -15 -15 -15h-62z" />
    <glyph glyph-name="LamAlefMaddaFin" unicode="&#xfee0;&#xfe82;" horiz-adv-x="750" arabic-form="final" 
d="M78 748q-7 0 -11.5 4t-3.5 10q5 47 22 73q28 42 84 42q20 0 38 -6.5t37 -14.5q15 -5 29.5 -9t31.5 -4q20 0 31.5 3.5t22.5 8.5t19.5 8.5t13.5 3.5q11 0 11 -11v-60q0 -12 -10 -19q-17 -11 -39.5 -17.5t-48.5 -6.5q-23 0 -44 5t-57 21q-11 5 -17.5 6.5t-11.5 1.5
q-12 0 -15 -12l-5 -12q-5 -15 -15 -15h-62zM146 679q0 10 6.5 15.5t15.5 5.5h134q9 0 15 -5.5t6 -15.5v-419q0 -9 -6.5 -15t-15.5 -6h-134q-9 0 -15 6t-6 15v419zM49 164q0 8 5.5 14t13.5 6h369q16 0 28 4t12 26v538q0 9 6.5 15t15.5 6h145q10 0 15.5 -6t5.5 -15v-560
q8 -5 21.5 -6.5t23.5 -1.5h40v-184h-12q-45 0 -84.5 7t-74.5 28q-15 -12 -34.5 -18.5t-40.5 -10.5t-42 -5t-40 -1h-354q-8 0 -13.5 5.5t-5.5 13.5v145z" />
    <glyph glyph-name="LamAlefHamzaAboveSep" unicode="&#xfedf;&#xfe84;" horiz-adv-x="727" arabic-form="isolated" 
d="M146 679q0 10 6.5 15.5t15.5 5.5h134q9 0 15 -5.5t6 -15.5v-419q0 -9 -6.5 -15t-15.5 -6h-134q-9 0 -15 6t-6 15v419zM49 164q0 8 5.5 14t13.5 6h376q18 0 25.5 4t7.5 25v539q0 9 6.5 15t15.5 6h145q10 0 15.5 -6t5.5 -15v-587q0 -37 -1 -65.5t-4 -59.5q-1 -10 -6 -17
t-17 -10q-14 -3 -42.5 -5.5t-61.5 -4t-67 -2.5t-59 -1h-339q-8 0 -13.5 5.5t-5.5 13.5v145zM144 760q-14 0 -14 12v45q0 9 14 9h21q-8 13 -11.5 27t-3.5 29q0 89 105 89q10 0 27.5 -1t33.5 -6q10 -2 10 -10v-41q0 -10 -13 -10h-39q-23 0 -34 -7t-11 -27q0 -14 4 -25t14 -16
h75q14 0 14 -10v-46q0 -12 -14 -12h-178z" />
    <glyph glyph-name="LamAlefHamzaAboveFin" unicode="&#xfee0;&#xfe84;" horiz-adv-x="750" arabic-form="final" 
d="M146 679q0 10 6.5 15.5t15.5 5.5h134q9 0 15 -5.5t6 -15.5v-419q0 -9 -6.5 -15t-15.5 -6h-134q-9 0 -15 6t-6 15v419zM49 164q0 8 5.5 14t13.5 6h369q16 0 28 4t12 26v538q0 9 6.5 15t15.5 6h145q10 0 15.5 -6t5.5 -15v-560q8 -5 21.5 -6.5t23.5 -1.5h40v-184h-12
q-45 0 -84.5 7t-74.5 28q-15 -12 -34.5 -18.5t-40.5 -10.5t-42 -5t-40 -1h-354q-8 0 -13.5 5.5t-5.5 13.5v145zM144 760q-14 0 -14 12v45q0 9 14 9h21q-8 13 -11.5 27t-3.5 29q0 89 105 89q10 0 27.5 -1t33.5 -6q10 -2 10 -10v-41q0 -10 -13 -10h-39q-23 0 -34 -7t-11 -27
q0 -14 4 -25t14 -16h75q14 0 14 -10v-46q0 -12 -14 -12h-178z" />
    <glyph glyph-name="LamAlefHamzaBelowSep" unicode="&#xfedf;&#xfe88;" horiz-adv-x="727" arabic-form="isolated" 
d="M146 700q0 9 6.5 14.5t15.5 5.5h134q9 0 15 -5.5t6 -14.5v-440q0 -9 -6.5 -15t-15.5 -6h-134q-9 0 -15 6t-6 15v440zM49 164q0 8 5.5 14t13.5 6h376q18 0 25.5 4t7.5 25v539q0 9 6.5 15t15.5 6h145q10 0 15.5 -6t5.5 -15v-587q0 -37 -1 -65t-4 -60q-1 -10 -6 -17t-17 -10
q-14 -3 -42.5 -5.5t-61.5 -4t-67 -2.5t-59 -1h-339q-8 0 -13.5 5.5t-5.5 13.5v145zM138 -269q-14 0 -14 12v45q0 9 14 9h21q-8 13 -11.5 27t-3.5 29q0 89 105 89q10 0 27.5 -1t33.5 -6q10 -2 10 -10v-41q0 -10 -13 -10h-39q-23 0 -34 -7t-11 -27q0 -14 4 -25t14 -16h75
q14 0 14 -10v-46q0 -12 -14 -12h-178z" />
    <glyph glyph-name="LamAlefHamzaBelowFin" unicode="&#xfee0;&#xfe88;" horiz-adv-x="750" arabic-form="final" 
d="M146 700q0 9 6.5 14.5t15.5 5.5h134q9 0 15 -5.5t6 -14.5v-440q0 -9 -6.5 -15t-15.5 -6h-134q-9 0 -15 6t-6 15v440zM49 164q0 8 5.5 14t13.5 6h369q16 0 28 4t12 26v538q0 9 6.5 15t15.5 6h145q10 0 15.5 -6t5.5 -15v-560q8 -5 21.5 -6.5t23.5 -1.5h40v-184h-12
q-45 0 -84.5 7t-74.5 28q-15 -12 -34.5 -18.5t-40.5 -10.5t-42 -5t-40 -1h-354q-8 0 -13.5 5.5t-5.5 13.5v145zM138 -269q-14 0 -14 12v45q0 9 14 9h21q-8 13 -11.5 27t-3.5 29q0 89 105 89q10 0 27.5 -1t33.5 -6q10 -2 10 -10v-41q0 -10 -13 -10h-39q-23 0 -34 -7t-11 -27
q0 -14 4 -25t14 -16h75q14 0 14 -10v-46q0 -12 -14 -12h-178z" />
    <glyph glyph-name="LamAlefSep" unicode="&#xfedf;&#xfe8e;" horiz-adv-x="727" arabic-form="isolated" 
d="M146 700q0 9 6.5 14.5t15.5 5.5h134q9 0 15 -5.5t6 -14.5v-440q0 -9 -6.5 -15t-15.5 -6h-134q-9 0 -15 6t-6 15v440zM49 164q0 8 5.5 14t13.5 6h376q18 0 25.5 4t7.5 25v539q0 9 6.5 15t15.5 6h145q10 0 15.5 -6t5.5 -15v-587q0 -37 -1 -65t-4 -60q-1 -10 -6 -17t-17 -10
q-14 -3 -42.5 -5.5t-61.5 -4t-67 -2.5t-59 -1h-339q-8 0 -13.5 5.5t-5.5 13.5v145z" />
    <glyph glyph-name="LamAlefFin" unicode="&#xfee0;&#xfe8e;" horiz-adv-x="750" arabic-form="final" 
d="M146 700q0 9 6.5 14.5t15.5 5.5h134q9 0 15 -5.5t6 -14.5v-440q0 -9 -6.5 -15t-15.5 -6h-134q-9 0 -15 6t-6 15v440zM49 164q0 8 5.5 14t13.5 6h369q16 0 28 4t12 26v538q0 9 6.5 15t15.5 6h145q10 0 15.5 -6t5.5 -15v-560q8 -5 21.5 -6.5t23.5 -1.5h40v-184h-12
q-45 0 -84.5 7t-74.5 28q-15 -12 -34.5 -18.5t-40.5 -10.5t-42 -5t-40 -1h-354q-8 0 -13.5 5.5t-5.5 13.5v145z" />
    <glyph glyph-name="LamAlefWaslaSep" unicode="&#xfedf;&#xfb51;" horiz-adv-x="727" 
d="M146 679q0 10 6.5 15.5t15.5 5.5h134q9 0 15 -5.5t6 -15.5v-419q0 -9 -6.5 -15t-15.5 -6h-134q-9 0 -15 6t-6 15v419zM49 164q0 8 5.5 14t13.5 6h376q18 0 25.5 4t7.5 25v539q0 9 6.5 15t15.5 6h145q10 0 15.5 -6t5.5 -15v-587q0 -37 -1 -65.5t-4 -59.5q-1 -10 -6 -17
t-17 -10q-14 -3 -42.5 -5.5t-61.5 -4t-67 -2.5t-59 -1h-339q-8 0 -13.5 5.5t-5.5 13.5v145zM281 937q42 0 68 -23t26 -65q0 -27 -8 -44t-23 -27t-36.5 -14t-47.5 -4h-148q-14 0 -14 10v41q0 10 14 10h52q9 35 21 57.5t27 35.5t32.5 18t36.5 5zM273 821q19 0 27.5 8t8.5 20
q0 26 -28 26q-13 0 -25 -9t-23 -45h40z" />
    <glyph glyph-name="LamAlefWaslaFin" unicode="&#xfee0;&#xfb51;" horiz-adv-x="750" 
d="M146 679q0 10 6.5 15.5t15.5 5.5h134q9 0 15 -5.5t6 -15.5v-419q0 -9 -6.5 -15t-15.5 -6h-134q-9 0 -15 6t-6 15v419zM49 164q0 8 5.5 14t13.5 6h369q16 0 28 4t12 26v538q0 9 6.5 15t15.5 6h145q10 0 15.5 -6t5.5 -15v-560q8 -5 21.5 -6.5t23.5 -1.5h40v-184h-12
q-45 0 -84.5 7t-74.5 28q-15 -12 -34.5 -18.5t-40.5 -10.5t-42 -5t-40 -1h-354q-8 0 -13.5 5.5t-5.5 13.5v145zM281 936q42 0 68 -23t26 -65q0 -27 -8 -44t-23 -27t-36.5 -14t-47.5 -4h-148q-14 0 -14 10v41q0 10 14 10h52q9 35 21 57.5t27 35.5t32.5 18t36.5 5zM273 820
q19 0 27.5 8t8.5 20q0 26 -28 26q-13 0 -25 -9t-23 -45h40z" />
    <glyph glyph-name="Llah" unicode="&#xfedf;&#xfee0;&#xfeea;" horiz-adv-x="1288" 
d="M49 260q0 134 76 202t225 68q19 0 42 -1t45 -3.5t40 -5.5t28 -6q11 -4 14.5 -9t3.5 -13v-270q0 -23 11 -30.5t33 -7.5h82q16 0 28 4t12 26v381q0 9 6.5 15t15.5 6h145q9 0 15 -6t6 -15v-403q8 -5 21.5 -6.5t23.5 -1.5h83q18 0 25.5 4t7.5 25v539q0 9 6.5 15t15.5 6h146
q9 0 15 -6t6 -15v-587q0 -33 -1.5 -63t-4.5 -62q-2 -9 -6.5 -16.5t-16.5 -10.5q-14 -3 -39.5 -5.5t-56 -4t-61.5 -2.5t-56 -1h-39q-45 0 -89 6q-44 7 -74 29q-30 -20 -74 -27.5t-83 -7.5h-78q-17 0 -37 2t-41 7t-40.5 15t-34.5 27q-20 -15 -51.5 -22t-57.5 -7h-8
q-112 0 -170.5 55t-58.5 169v14zM716 660q-41 0 -56.5 24t-15.5 66q0 14 0.5 23.5t2.5 23.5t14 14h35q5 0 9.5 -4t3.5 -10q-1 -15 -1 -23v-17q0 -24 5 -31.5t14 -7.5h4q8 0 14.5 5t6.5 20v51q0 6 4.5 10t9.5 4h36q13 0 13 -14v-51q0 -15 6.5 -20t13.5 -5h4q9 0 15 7.5
t6 31.5q0 9 -0.5 17.5t-1.5 22.5q0 6 4.5 10t9.5 4h35q12 0 14 -14q2 -17 2 -25v-22q0 -42 -17 -66t-58 -24h-5q-18 0 -32 4.5t-25 17.5h-3q-11 -14 -27 -18t-35 -4h-5zM218 270q0 -40 17 -59t56 -19h10q20 0 34.5 8t14.5 29v143q-8 1 -18 1h-18q-47 0 -71.5 -24t-24.5 -65
v-14zM748 975q0 13 13 13h45q13 0 13 -13v-118q0 -13 -13 -13h-45q-13 0 -13 13v118z" />
    <glyph glyph-name="HehGoalHamzaAboveFin" unicode="&#x6c2;" horiz-adv-x="674" 
d="M222 484q-14 0 -14 12v45q0 9 14 9h21q-8 13 -11.5 27t-3.5 29q0 89 105 89q10 0 27.5 -1t33.5 -6q10 -2 10 -10v-41q0 -10 -13 -10h-39q-23 0 -34 -7t-11 -27q0 -14 4 -25t14 -16h75q14 0 14 -10v-46q0 -12 -14 -12h-178zM395 402q21 0 47 -1t51.5 -3t46.5 -4.5t33 -4.5
q8 -2 14.5 -6t6.5 -15v-151q0 -20 7 -26.5t30 -6.5h43v-184h-85q-39 0 -70.5 5t-54 21.5t-35 47t-12.5 81.5v65q-8 2 -13.5 2h-20.5q-50 0 -80 -13.5t-46 -44t-21 -81t-5 -123.5v-55q0 -19 -19 -19h-138q-11 0 -16 6t-5 14q-2 11 -2.5 26t-1.5 31t-1 31.5v26.5
q0 106 23 178.5t67.5 117.5t109 65t147.5 20z" />
    <glyph glyph-name="TehMarbutaGoalFin" unicode="&#x6c3;" horiz-adv-x="674" 
d="M136 608q0 8 7 14t15 6h104q8 0 15.5 -6t7.5 -14v-103q0 -8 -7.5 -14t-15.5 -6h-104q-8 0 -15 6t-7 14v103zM348 608q0 8 7 14t15 6h104q8 0 15 -6t7 -14v-103q0 -8 -7 -14t-15 -6h-104q-8 0 -15 6t-7 14v103zM395 402q21 0 47 -1t51.5 -3t46.5 -4.5t33 -4.5
q8 -2 14.5 -6t6.5 -15v-151q0 -20 7 -26.5t30 -6.5h43v-184h-85q-39 0 -70.5 5t-54 21.5t-35 47t-12.5 81.5v65q-8 2 -13.5 2h-20.5q-50 0 -80 -13.5t-46 -44t-21 -81t-5 -123.5v-55q0 -19 -19 -19h-138q-11 0 -16 6t-5 14q-2 11 -2.5 26t-1.5 31t-1 31.5v26.5
q0 106 23 178.5t67.5 117.5t109 65t147.5 20z" />
    <glyph glyph-name="AlefWaslaSep" unicode="&#x671;" horiz-adv-x="323" arabic-form="isolated" 
d="M67 717q0 9 6 15t16 6h147q9 0 15 -6t6 -15v-695q0 -9 -6 -15.5t-15 -6.5h-147q-10 0 -16 6.5t-6 15.5v695zM206 975q42 0 68 -23t26 -65q0 -27 -8 -44t-23 -27t-36.5 -14t-47.5 -4h-148q-14 0 -14 10v41q0 10 14 10h52q9 35 21 57.5t27 35.5t32.5 18t36.5 5zM198 859
q19 0 27.5 8t8.5 20q0 26 -28 26q-13 0 -25 -9t-23 -45h40z" />
    <glyph glyph-name="AlefWaslaFin" unicode="&#x671;" horiz-adv-x="338" arabic-form="final" 
d="M67 717q0 9 6.5 15t15.5 6h144q10 0 15.5 -6t5.5 -15v-495q0 -24 9.5 -31t32.5 -7h42v-184h-97q-38 0 -70 5.5t-55 22.5t-36 48.5t-13 83.5v557zM205 975q42 0 68 -23t26 -65q0 -27 -8 -44t-23 -27t-36.5 -14t-47.5 -4h-148q-14 0 -14 10v41q0 10 14 10h52q9 35 21 57.5
t27 35.5t32.5 18t36.5 5zM197 859q19 0 27.5 8t8.5 20q0 26 -28 26q-13 0 -25 -9t-23 -45h40z" />
    <glyph glyph-name="PehSep" unicode="&#x67e;" horiz-adv-x="1005" arabic-form="isolated" 
d="M325 -105q0 9 7 15t15 6h104q8 0 15.5 -6t7.5 -15v-94q0 -10 -7.5 -15t-15.5 -5h-104q-8 0 -15 5t-7 15v94zM537 -105q0 9 7 15t15 6h104q8 0 15 -6t7 -15v-94q0 -10 -7 -15t-15 -5h-104q-8 0 -15 5t-7 15v94zM432 -278q0 8 6.5 13.5t14.5 5.5h104q8 0 15 -5.5t7 -13.5
v-79q0 -9 -7 -14.5t-16 -5.5h-104q-8 0 -14 5.5t-6 14.5v79zM723 184q18 0 25.5 4t7.5 25v45.5v57.5v64v65q0 8 5.5 13.5t15.5 5.5h138q24 0 24 -19q2 -60 3 -104t1 -89q0 -42 -0.5 -74.5t-1 -57.5t-1.5 -44.5t-3 -35.5q-1 -9 -6 -16.5t-17 -10.5q-14 -3 -49.5 -5.5
t-78.5 -4t-85.5 -2.5t-69.5 -1h-232q-105 0 -174 19.5t-109.5 56.5t-57 91t-16.5 123q0 29 3 57.5t10 63.5q2 9 6.5 14.5t15.5 5.5h125q19 0 19 -19t-1.5 -37t-1.5 -32q0 -44 9.5 -74.5t32 -49.5t60 -27t94.5 -8h309z" />
    <glyph glyph-name="PehFin" unicode="&#x67e;" horiz-adv-x="1028" arabic-form="final" 
d="M717 184q16 0 28 4t12 26v230q0 8 6.5 14t15.5 6h143q8 0 14.5 -6t6.5 -14v-252q6 -5 20 -6.5t24 -1.5h41v-184h-7q-17 0 -38 1t-43 4.5t-43.5 10.5t-38.5 19q-37 -24 -94.5 -29.5t-143.5 -5.5h-221q-105 0 -174 19.5t-109.5 56.5t-57 91t-16.5 123q0 29 3 57.5t10 63.5
q2 9 6.5 14.5t15.5 5.5h125q19 0 19 -19t-1.5 -37t-1.5 -32q0 -44 9.5 -74.5t32 -49.5t60 -27t94.5 -8h303zM326 -105q0 9 7 15t15 6h104q8 0 15.5 -6t7.5 -15v-94q0 -10 -7.5 -15t-15.5 -5h-104q-8 0 -15 5t-7 15v94zM538 -105q0 9 7 15t15 6h104q8 0 15 -6t7 -15v-94
q0 -10 -7 -15t-15 -5h-104q-8 0 -15 5t-7 15v94zM433 -278q0 8 6.5 13.5t14.5 5.5h104q8 0 15 -5.5t7 -13.5v-79q0 -9 -7 -14.5t-16 -5.5h-104q-8 0 -14 5.5t-6 14.5v79z" />
    <glyph glyph-name="PehIni" unicode="&#x67e;" horiz-adv-x="325" arabic-form="initial" 
d="M-40 174q0 4 11.5 7t19.5 3h52q18 0 25.5 4t7.5 25v46.5v59v65.5t-1 66q0 7 5.5 13t15.5 6h139q13 0 18.5 -5.5t6.5 -13.5q2 -60 2.5 -106.5t0.5 -91.5v-74.5t-1 -57.5t-1.5 -44.5t-2.5 -35.5q-1 -9 -6 -16.5t-17 -10.5q-14 -3 -38.5 -5.5t-53 -4t-58.5 -2.5t-55 -1h-39
q-8 0 -19.5 2.5t-11.5 7.5v164zM-68 -105q0 9 7 15t15 6h104q8 0 15.5 -6t7.5 -15v-94q0 -10 -7.5 -15t-15.5 -5h-104q-8 0 -15 5t-7 15v94zM144 -105q0 9 7 15t15 6h104q8 0 15 -6t7 -15v-94q0 -10 -7 -15t-15 -5h-104q-8 0 -15 5t-7 15v94zM39 -278q0 8 6.5 13.5t14.5 5.5
h104q8 0 15 -5.5t7 -13.5v-79q0 -9 -7 -14.5t-16 -5.5h-104q-8 0 -14 5.5t-6 14.5v79z" />
    <glyph glyph-name="PehMed" unicode="&#x67e;" horiz-adv-x="347" arabic-form="medial" 
d="M-40 174q0 4 11.5 7t19.5 3h46q16 0 28 4t12 26v230q0 8 6 14t16 6h143q8 0 14.5 -6t6.5 -14v-252q7 -5 21.5 -6.5t23.5 -1.5h39v-184h-13q-46 0 -90.5 6.5t-74.5 28.5q-15 -10 -34 -17t-40 -11t-42.5 -5.5t-40.5 -1.5h-21q-8 0 -19.5 2.5t-11.5 7.5v164zM-12 -105
q0 9 7 15t15 6h104q8 0 15.5 -6t7.5 -15v-94q0 -10 -7.5 -15t-15.5 -5h-104q-8 0 -15 5t-7 15v94zM200 -105q0 9 7 15t15 6h104q8 0 15 -6t7 -15v-94q0 -10 -7 -15t-15 -5h-104q-8 0 -15 5t-7 15v94zM95 -278q0 8 6.5 13.5t14.5 5.5h104q8 0 15 -5.5t7 -13.5v-79
q0 -9 -7 -14.5t-16 -5.5h-104q-8 0 -14 5.5t-6 14.5v79z" />
    <glyph glyph-name="TtehSep" unicode="&#x679;" horiz-adv-x="1005" arabic-form="isolated" 
d="M556 575q3 0 3 4v11q0 17 -10.5 27.5t-45.5 10.5q-7 0 -23 -0.5t-31 -2.5v-50h107zM335 563q0 12 13 12h25v187q0 5 4.5 8.5t9.5 3.5h48q14 0 14 -12v-73q17 5 36 6.5t30 1.5q58 0 88.5 -27t30.5 -79v-16q0 -11 -1 -27.5t-3 -27.5q-2 -9 -10 -12q-6 0 -17.5 -0.5
t-23.5 -0.5h-23h-18h-191q-12 0 -12 11v45zM723 184q18 0 25.5 4t7.5 25v45.5v57.5v64v65q0 8 5.5 13.5t15.5 5.5h138q24 0 24 -19q2 -60 3 -104t1 -89q0 -42 -0.5 -74.5t-1 -57.5t-1.5 -44.5t-3 -35.5q-1 -9 -6 -16.5t-17 -10.5q-14 -3 -49.5 -5.5t-78.5 -4t-85.5 -2.5
t-69.5 -1h-232q-105 0 -174 19.5t-109.5 56.5t-57 91t-16.5 123q0 29 3 57.5t10 63.5q2 9 6.5 14.5t15.5 5.5h125q19 0 19 -19t-1.5 -37t-1.5 -32q0 -44 9.5 -74.5t32 -49.5t60 -27t94.5 -8h309z" />
    <glyph glyph-name="TtehFin" unicode="&#x679;" horiz-adv-x="1028" arabic-form="final" 
d="M556 575q3 0 3 4v11q0 17 -10.5 27.5t-45.5 10.5q-7 0 -23 -0.5t-31 -2.5v-50h107zM335 563q0 12 13 12h25v187q0 5 4.5 8.5t9.5 3.5h48q14 0 14 -12v-73q17 5 36 6.5t30 1.5q58 0 88.5 -27t30.5 -79v-16q0 -11 -1 -27.5t-3 -27.5q-2 -9 -10 -12q-6 0 -17.5 -0.5
t-23.5 -0.5h-23h-18h-191q-12 0 -12 11v45zM717 184q16 0 28 4t12 26v230q0 8 6.5 14t15.5 6h143q8 0 14.5 -6t6.5 -14v-252q6 -5 20 -6.5t24 -1.5h41v-184h-7q-17 0 -38 1t-43 4.5t-43.5 10.5t-38.5 19q-37 -24 -94.5 -29.5t-143.5 -5.5h-221q-105 0 -174 19.5t-109.5 56.5
t-57 91t-16.5 123q0 29 3 57.5t10 63.5q2 9 6.5 14.5t15.5 5.5h125q19 0 19 -19t-1.5 -37t-1.5 -32q0 -44 9.5 -74.5t32 -49.5t60 -27t94.5 -8h303z" />
    <glyph glyph-name="TtehIni" unicode="&#x679;" horiz-adv-x="325" arabic-form="initial" 
d="M236 621q3 0 3 4v11q0 17 -10.5 27.5t-45.5 10.5q-7 0 -23 -0.5t-31 -2.5v-50h107zM15 609q0 12 13 12h25v187q0 5 4.5 8.5t9.5 3.5h48q14 0 14 -12v-73q17 5 36 6.5t30 1.5q58 0 88.5 -27t30.5 -79v-16q0 -11 -1 -27.5t-3 -27.5q-2 -9 -10 -12q-6 0 -17.5 -0.5
t-23.5 -0.5h-23h-18h-191q-12 0 -12 11v45zM-40 174q0 4 11.5 7t19.5 3h52q18 0 25.5 4t7.5 25v46.5v59v65.5t-1 66q0 7 5.5 13t15.5 6h139q13 0 18.5 -5.5t6.5 -13.5q2 -60 2.5 -106.5t0.5 -91.5v-74.5t-1 -57.5t-1.5 -44.5t-2.5 -35.5q-1 -9 -6 -16.5t-17 -10.5
q-14 -3 -38.5 -5.5t-53 -4t-58.5 -2.5t-55 -1h-39q-8 0 -19.5 2.5t-11.5 7.5v164z" />
    <glyph glyph-name="TtehMed" unicode="&#x679;" horiz-adv-x="347" arabic-form="medial" 
d="M-40 174q0 4 11.5 7t19.5 3h46q16 0 28 4t12 26v230q0 8 6 14t16 6h143q8 0 14.5 -6t6.5 -14v-252q7 -5 21.5 -6.5t23.5 -1.5h39v-184h-13q-46 0 -90.5 6.5t-74.5 28.5q-15 -10 -34 -17t-40 -11t-42.5 -5.5t-40.5 -1.5h-21q-8 0 -19.5 2.5t-11.5 7.5v164zM239 621
q3 0 3 4v11q0 17 -10.5 27.5t-45.5 10.5q-7 0 -23 -0.5t-31 -2.5v-50h107zM18 609q0 12 13 12h25v187q0 5 4.5 8.5t9.5 3.5h48q14 0 14 -12v-73q17 5 36 6.5t30 1.5q58 0 88.5 -27t30.5 -79v-16q0 -11 -1 -27.5t-3 -27.5q-2 -9 -10 -12q-6 0 -17.5 -0.5t-23.5 -0.5h-23h-18
h-191q-12 0 -12 11v45z" />
    <glyph glyph-name="VehSep" unicode="&#x6a4;" horiz-adv-x="1119" arabic-form="isolated" 
d="M647 714q0 9 7 14.5t15 5.5h104q8 0 15.5 -5.5t7.5 -14.5v-95q0 -8 -7.5 -13.5t-15.5 -5.5h-104q-8 0 -15 5.5t-7 13.5v95zM859 714q0 9 7 14.5t15 5.5h104q8 0 15 -5.5t7 -14.5v-95q0 -8 -7 -13.5t-15 -5.5h-104q-8 0 -15 5.5t-7 13.5v95zM756 872q0 9 6.5 14.5
t14.5 5.5h104q9 0 15.5 -5.5t6.5 -14.5v-78q0 -9 -7 -14.5t-15 -5.5h-104q-8 0 -14.5 5.5t-6.5 14.5v78zM597 184q-24 30 -24 97v15q0 61 21 105.5t59.5 73.5t91.5 42.5t117 13.5q21 0 47.5 -1.5t51 -4.5t45.5 -6t32 -6q12 -4 15.5 -9t3.5 -13v-273q0 -19 -0.5 -43t-1 -49.5
t-2 -52t-3.5 -50.5q-1 -10 -7.5 -14t-16.5 -5q-44 -2 -86 -3t-80 -1h-460q-104 0 -173 19t-110 56t-58 91t-17 124q0 29 3 58t11 62q2 10 6 15.5t15 5.5h124q8 0 14 -5t5 -14q0 -19 -0.5 -37t-0.5 -32q0 -45 9.5 -75.5t32 -49t60.5 -26.5t94 -8h182zM749 271q0 -46 17.5 -69
t60.5 -23h10h15.5t15.5 0.5t10 0.5v192q-9 1 -20 1.5t-19 0.5q-46 0 -68 -23t-22 -65v-15z" />
    <glyph glyph-name="VehFin" unicode="&#x6a4;" horiz-adv-x="1139" arabic-form="final" 
d="M597 184q-24 30 -24 96v15q0 61 21 106t59.5 73.5t91.5 42.5t117 14q21 0 47 -1.5t50.5 -4.5t44.5 -6t31 -6q12 -4 15.5 -9.5t3.5 -13.5v-306h85v-184h-737q-105 0 -174.5 19t-110.5 56t-58 91t-17 124q0 29 3 57.5t11 62.5q2 10 6 15.5t15 5.5h124q8 0 14 -5t5 -14
q0 -19 -0.5 -37t-0.5 -32q0 -45 9.5 -75.5t32.5 -49t60.5 -26.5t94.5 -8h181zM878 179v193q-9 1 -20 1.5t-19 0.5q-90 0 -90 -88v-14q0 -46 17.5 -69.5t60.5 -23.5h51zM647 714q0 9 7 14.5t15 5.5h104q8 0 15.5 -5.5t7.5 -14.5v-95q0 -8 -7.5 -13.5t-15.5 -5.5h-104
q-8 0 -15 5.5t-7 13.5v95zM859 714q0 9 7 14.5t15 5.5h104q8 0 15 -5.5t7 -14.5v-95q0 -8 -7 -13.5t-15 -5.5h-104q-8 0 -15 5.5t-7 13.5v95zM756 872q0 9 6.5 14.5t14.5 5.5h104q9 0 15.5 -5.5t6.5 -14.5v-78q0 -9 -7 -14.5t-15 -5.5h-104q-8 0 -14.5 5.5t-6.5 14.5v78z
" />
    <glyph glyph-name="VehIni" unicode="&#x6a4;" horiz-adv-x="603" arabic-form="initial" 
d="M233 270q0 -45 17.5 -68t58.5 -23h10.5h16.5t16.5 0.5t9.5 0.5v192q-8 1 -19.5 1.5t-20.5 0.5q-45 0 -67 -22.5t-22 -64.5v-17zM-40 174q0 4 11.5 7t19.5 3h90q-24 30 -24 95v16q0 62 21 106.5t59.5 73.5t91.5 42.5t117 13.5q21 0 47.5 -1.5t51 -4.5t45.5 -6t32 -6
q12 -4 15.5 -9.5t3.5 -13.5v-272q0 -19 -0.5 -43t-1 -49.5t-2 -52t-3.5 -50.5q-1 -10 -7.5 -14t-16.5 -5q-44 -2 -83.5 -3t-81.5 -1h-354q-8 0 -19.5 2.5t-11.5 7.5v164zM140 714q0 9 7 14.5t15 5.5h104q8 0 15.5 -5.5t7.5 -14.5v-95q0 -8 -7.5 -13.5t-15.5 -5.5h-104
q-8 0 -15 5.5t-7 13.5v95zM352 714q0 9 7 14.5t15 5.5h104q8 0 15 -5.5t7 -14.5v-95q0 -8 -7 -13.5t-15 -5.5h-104q-8 0 -15 5.5t-7 13.5v95zM249 872q0 9 6.5 14.5t14.5 5.5h104q9 0 15.5 -5.5t6.5 -14.5v-78q0 -9 -7 -14.5t-15 -5.5h-104q-8 0 -14.5 5.5t-6.5 14.5v78z
" />
    <glyph glyph-name="VehMed" unicode="&#x6a4;" horiz-adv-x="623" arabic-form="medial" 
d="M141 714q0 9 7 14.5t15 5.5h104q8 0 15.5 -5.5t7.5 -14.5v-95q0 -8 -7.5 -13.5t-15.5 -5.5h-104q-8 0 -15 5.5t-7 13.5v95zM353 714q0 9 7 14.5t15 5.5h104q8 0 15 -5.5t7 -14.5v-95q0 -8 -7 -13.5t-15 -5.5h-104q-8 0 -15 5.5t-7 13.5v95zM250 872q0 9 6.5 14.5
t14.5 5.5h104q9 0 15.5 -5.5t6.5 -14.5v-78q0 -9 -7 -14.5t-15 -5.5h-104q-8 0 -14.5 5.5t-6.5 14.5v78zM-40 174q0 4 11.5 7t19.5 3h90q-11 14 -17.5 38.5t-6.5 56.5v16q0 62 21 106.5t59.5 73.5t91.5 42.5t117 13.5q21 0 47 -1.5t50 -4.5t44.5 -6t31.5 -6q12 -4 15.5 -9.5
t3.5 -13.5v-306h85v-184h-632q-8 0 -19.5 2.5t-11.5 7.5v164zM362 179v193q-8 1 -19.5 1.5t-19.5 0.5q-90 0 -90 -88v-16q0 -45 17.5 -68t58.5 -23h53z" />
    <glyph glyph-name="TchehSep" unicode="&#x686;" horiz-adv-x="712" arabic-form="isolated" 
d="M45 11q0 19 1 39.5t3.5 40t5.5 36t7 27.5q5 11 9.5 15.5t14.5 6.5q6 1 19.5 1.5t29.5 1t32.5 0.5h27.5h254l-18 36l-14 26q-12 23 -29.5 45t-43 38.5t-60.5 26.5t-81 10q-20 0 -34 -0.5t-31 -0.5q-13 0 -17 4.5t-4 14.5v115q0 16 23 20q31 6 55.5 8.5t57.5 2.5
q60 0 111.5 -14t96 -44.5t82.5 -78.5t71 -116l12 -24q8 -17 19 -40t19 -38q8 -12 8 -37v-112q0 -9 -6 -15t-16 -6h-369q-12 0 -32.5 -0.5t-32.5 -1.5q-1 -9 -1 -16.5v-11.5q0 -55 28 -78l18 -16q8 -5 8 -18v-113q0 -10 -7 -12.5t-18 -2.5q-17 0 -37 3.5t-40.5 13t-40.5 25
t-36 39.5q-23 34 -34 82.5t-11 117.5zM307 -76q0 8 6 13.5t14 5.5h91q8 0 15 -5.5t7 -13.5v-90q0 -8 -7 -13.5t-15 -5.5h-91q-8 0 -14 5.5t-6 13.5v90zM495 -76q0 8 6 13.5t14 5.5h91q8 0 14.5 -5.5t6.5 -13.5v-90q0 -8 -6.5 -13.5t-14.5 -5.5h-91q-8 0 -14 5.5t-6 13.5v90z
M397 -241q0 8 6 13.5t14 5.5h99q8 0 14 -5.5t6 -13.5v-77q0 -8 -6 -13t-14 -5h-99q-8 0 -14 5t-6 13v77z" />
    <glyph glyph-name="TchehFin" unicode="&#x686;" horiz-adv-x="696" arabic-form="final" 
d="M45 11q0 19 1 39.5t3.5 40t5.5 36t7 27.5q5 11 9.5 15.5t14.5 6.5q6 1 19.5 1.5t29.5 1t32.5 0.5h27.5h249l-17 35l-15 27q-12 23 -29 45t-41.5 38.5t-58.5 26.5t-80 10q-20 0 -34 -0.5t-31 -0.5q-13 0 -17 4.5t-4 14.5v115q0 16 23 20q31 6 55.5 8.5t57.5 2.5
q60 0 110.5 -14t94 -43.5t80.5 -76.5t69 -113l15 -31q7 -14 13.5 -28t11.5 -21q6 -9 12 -11.5t17 -2.5h20v-184h-415q-12 0 -32.5 -0.5t-32.5 -1.5q-1 -9 -1 -16.5v-11.5q0 -55 28 -78q5 -5 10 -9t8 -7q8 -5 8 -18v-113q0 -10 -7 -12.5t-18 -2.5q-17 0 -37 3.5t-40.5 13
t-40.5 25t-36 39.5q-23 34 -34 82.5t-11 117.5zM307 -76q0 8 6 13.5t14 5.5h91q8 0 15 -5.5t7 -13.5v-90q0 -8 -7 -13.5t-15 -5.5h-91q-8 0 -14 5.5t-6 13.5v90zM495 -76q0 8 6 13.5t14 5.5h91q8 0 14.5 -5.5t6.5 -13.5v-90q0 -8 -6.5 -13.5t-14.5 -5.5h-91q-8 0 -14 5.5
t-6 13.5v90zM397 -241q0 8 6 13.5t14 5.5h99q8 0 14 -5.5t6 -13.5v-77q0 -8 -6 -13t-14 -5h-99q-8 0 -14 5t-6 13v77z" />
    <glyph glyph-name="TchehIni" unicode="&#x686;" horiz-adv-x="644" arabic-form="initial" 
d="M-40 173q0 5 11.5 8t19.5 3h391l-15 29l-15 28q-12 23 -31 45t-46 38.5t-63 26.5t-83 10q-13 0 -29.5 -0.5t-27.5 -0.5q-12 0 -16 4.5t-4 14.5v115q0 16 22 20q32 6 57 8.5t57 2.5q118 0 206.5 -58t153.5 -192l13 -27q7 -14 17.5 -37.5t18.5 -39.5q7 -13 7 -38v-112
q0 -9 -5.5 -15t-16.5 -6h-591q-8 0 -19.5 3t-11.5 7v163zM96 -105q0 9 7 15t15 6h104q8 0 15.5 -6t7.5 -15v-94q0 -10 -7.5 -15t-15.5 -5h-104q-8 0 -15 5t-7 15v94zM308 -105q0 9 7 15t15 6h104q8 0 15 -6t7 -15v-94q0 -10 -7 -15t-15 -5h-104q-8 0 -15 5t-7 15v94z
M203 -278q0 8 6.5 13.5t14.5 5.5h104q8 0 15 -5.5t7 -13.5v-79q0 -9 -7 -14.5t-16 -5.5h-104q-8 0 -14 5.5t-6 14.5v79z" />
    <glyph glyph-name="TchehMed" unicode="&#x686;" horiz-adv-x="630" arabic-form="medial" 
d="M-9 0q-8 0 -19.5 3t-11.5 7v163q0 5 11.5 8t19.5 3h391l-15 30l-14 27q-13 24 -32 45.5t-46 38t-63 26.5t-83 10q-13 0 -29.5 -0.5t-27.5 -0.5q-12 0 -16 4.5t-4 14.5v115q0 16 22 20q32 6 58 8.5t56 2.5q59 0 110.5 -14t96 -43.5t82.5 -76.5t70 -113l15 -30
q8 -16 15 -29.5t12 -20.5q6 -8 11 -11t15 -3h15v-184h-639zM96 -105q0 9 7 15t15 6h104q8 0 15.5 -6t7.5 -15v-94q0 -10 -7.5 -15t-15.5 -5h-104q-8 0 -15 5t-7 15v94zM308 -105q0 9 7 15t15 6h104q8 0 15 -6t7 -15v-94q0 -10 -7 -15t-15 -5h-104q-8 0 -15 5t-7 15v94z
M203 -278q0 8 6.5 13.5t14.5 5.5h104q8 0 15 -5.5t7 -13.5v-79q0 -9 -7 -14.5t-16 -5.5h-104q-8 0 -14 5.5t-6 14.5v79z" />
    <glyph glyph-name="DdalSep" unicode="&#x688;" horiz-adv-x="543" arabic-form="isolated" 
d="M49 164q0 8 6 14t14 6h247l-3 52q-2 27 -9.5 50t-25.5 40t-48 27t-77 10h-9.5h-16.5t-17 -0.5t-11 -0.5q-17 0 -17 16v117q0 8 5.5 14.5t14.5 8.5q15 3 31 4.5t31.5 2t28.5 1t21 0.5q83 0 136 -26.5t84 -69t44.5 -95t16.5 -103.5q2 -24 2.5 -58.5t0.5 -72.5q0 -14 -1 -38
t-3 -44q0 -8 -5.5 -13.5t-17.5 -5.5h-402q-8 0 -14 5.5t-6 13.5v145zM327 681q3 0 3 4v11q0 17 -10.5 27.5t-45.5 10.5q-7 0 -23 -0.5t-31 -2.5v-50h107zM106 669q0 12 13 12h25v187q0 5 4.5 8.5t9.5 3.5h48q14 0 14 -12v-73q17 5 36 6.5t30 1.5q58 0 88.5 -27t30.5 -79v-16
q0 -11 -1 -27.5t-3 -27.5q-2 -9 -10 -12q-6 0 -17.5 -0.5t-23.5 -0.5h-23h-18h-191q-12 0 -12 11v45z" />
    <glyph glyph-name="DdalFin" unicode="&#x688;" horiz-adv-x="553" arabic-form="final" 
d="M327 681q3 0 3 4v11q0 17 -10.5 27.5t-45.5 10.5q-7 0 -23 -0.5t-31 -2.5v-50h107zM106 669q0 12 13 12h25v187q0 5 4.5 8.5t9.5 3.5h48q14 0 14 -12v-73q17 5 36 6.5t30 1.5q58 0 88.5 -27t30.5 -79v-16q0 -11 -1 -27.5t-3 -27.5q-2 -9 -10 -12q-6 0 -17.5 -0.5
t-23.5 -0.5h-23h-18h-191q-12 0 -12 11v45zM49 164q0 8 6 14t14 6h247l-3 52q-2 27 -9.5 50t-25 40t-47 27t-74.5 10h-10h-18t-18.5 -0.5t-11.5 -0.5q-17 0 -17 16v117q0 8 5.5 14.5t14.5 8.5q15 3 31 4.5t31.5 2t28.5 1t21 0.5q82 0 135 -26.5t84 -68.5t44.5 -94t16.5 -103
l2 -50h57v-184h-484q-8 0 -14 5.5t-6 13.5v145z" />
    <glyph glyph-name="JehSep" unicode="&#x698;" horiz-adv-x="335" arabic-form="isolated" 
d="M-3 668q0 9 7 14.5t15 5.5h104q8 0 15.5 -5.5t7.5 -14.5v-95q0 -8 -7.5 -13.5t-15.5 -5.5h-104q-8 0 -15 5.5t-7 13.5v95zM209 668q0 9 7 14.5t15 5.5h104q8 0 15 -5.5t7 -14.5v-95q0 -8 -7 -13.5t-15 -5.5h-104q-8 0 -15 5.5t-7 13.5v95zM106 826q0 9 6.5 14.5t14.5 5.5
h104q9 0 15.5 -5.5t6.5 -14.5v-78q0 -9 -7 -14.5t-15 -5.5h-104q-8 0 -14.5 5.5t-6.5 14.5v78zM-39 -107q0 19 19 19h19q23 0 39.5 2t27.5 9.5t16 22.5t5 42v454q0 8 6.5 14t15.5 6h143q8 0 14.5 -6t6.5 -14v-427q0 -45 -5 -85t-22 -78q-26 -54 -74 -76t-116 -22h-15.5
t-22.5 1t-23.5 1.5t-19.5 2.5q-14 3 -14 21v113z" />
    <glyph glyph-name="JehFin" unicode="&#x698;" horiz-adv-x="357" arabic-form="final" 
d="M-3 668q0 9 7 14.5t15 5.5h104q8 0 15.5 -5.5t7.5 -14.5v-95q0 -8 -7.5 -13.5t-15.5 -5.5h-104q-8 0 -15 5.5t-7 13.5v95zM209 668q0 9 7 14.5t15 5.5h104q8 0 15 -5.5t7 -14.5v-95q0 -8 -7 -13.5t-15 -5.5h-104q-8 0 -15 5.5t-7 13.5v95zM106 826q0 9 6.5 14.5t14.5 5.5
h104q9 0 15.5 -5.5t6.5 -14.5v-78q0 -9 -7 -14.5t-15 -5.5h-104q-8 0 -14.5 5.5t-6.5 14.5v78zM-39 -107q0 19 19 19h19q23 0 39.5 2t27.5 9.5t16 22.5t5 42v454q0 8 6.5 14t15.5 6h143q8 0 14.5 -6t6.5 -14v-258h84v-184h-89v-24q0 -77 -22 -124q-26 -54 -74 -76t-116 -22
h-15.5t-22.5 1t-23.5 1.5t-19.5 2.5q-14 3 -14 21v113z" />
    <glyph glyph-name="RrehSep" unicode="&#x691;" horiz-adv-x="335" arabic-form="isolated" 
d="M247 624q3 0 3 4v11q0 17 -10.5 27.5t-45.5 10.5q-7 0 -23 -0.5t-31 -2.5v-50h107zM26 612q0 12 13 12h25v187q0 5 4.5 8.5t9.5 3.5h48q14 0 14 -12v-73q17 5 36 6.5t30 1.5q58 0 88.5 -27t30.5 -79v-16q0 -11 -1 -27.5t-3 -27.5q-2 -9 -10 -12q-6 0 -17.5 -0.5
t-23.5 -0.5h-23h-18h-191q-12 0 -12 11v45zM-39 -107q0 19 19 19h19q23 0 39.5 2t27.5 9.5t16 22.5t5 42v454q0 8 6.5 14t15.5 6h143q8 0 14.5 -6t6.5 -14v-427q0 -45 -5 -85t-22 -78q-26 -54 -74 -76t-116 -22h-15.5t-22.5 1t-23.5 1.5t-19.5 2.5q-14 3 -14 21v113z" />
    <glyph glyph-name="RrehFin" unicode="&#x691;" horiz-adv-x="357" arabic-form="final" 
d="M247 624q3 0 3 4v11q0 17 -10.5 27.5t-45.5 10.5q-7 0 -23 -0.5t-31 -2.5v-50h107zM26 612q0 12 13 12h25v187q0 5 4.5 8.5t9.5 3.5h48q14 0 14 -12v-73q17 5 36 6.5t30 1.5q58 0 88.5 -27t30.5 -79v-16q0 -11 -1 -27.5t-3 -27.5q-2 -9 -10 -12q-6 0 -17.5 -0.5
t-23.5 -0.5h-23h-18h-191q-12 0 -12 11v45zM-39 -107q0 19 19 19h19q23 0 39.5 2t27.5 9.5t16 22.5t5 42v454q0 8 6.5 14t15.5 6h143q8 0 14.5 -6t6.5 -14v-258h84v-184h-89v-24q0 -77 -22 -124q-26 -54 -74 -76t-116 -22h-15.5t-22.5 1t-23.5 1.5t-19.5 2.5q-14 3 -14 21
v113z" />
    <glyph glyph-name="KafFarsiSep" unicode="&#x6a9;" horiz-adv-x="1020" arabic-form="isolated" 
d="M33 228q0 5 0.5 14.5t2 21t3.5 22.5t4 20q3 10 7 15.5t15 5.5h124q19 0 19 -19q0 -8 -0.5 -20t-0.5 -18q0 -23 6 -39t21.5 -26.5t42.5 -15.5t69 -5h425v39q0 59 -39.5 89.5t-124.5 30.5h-232q-15 0 -21 5.5t-7 16.5q0 2 -0.5 9t-0.5 14.5v13.5v7q0 27 4.5 51t13 48
t20.5 49t28 54l77 143q10 19 29 19h143q14 0 14 -11q0 -5 -3 -11l-94 -181q-2 -3 -7 -12.5t-9.5 -19.5t-8.5 -18.5t-4 -9.5q14 1 24 2t19 1.5t19 0.5h23q98 0 161.5 -23.5t100.5 -66.5t51.5 -103.5t14.5 -135.5v-39q0 -12 -0.5 -28.5t-2 -33.5t-3.5 -33t-4 -27
q-2 -8 -6.5 -13t-15.5 -6q-61 -3 -125 -4t-127 -1h-368q-90 0 -144.5 18.5t-84 49.5t-39 72.5t-9.5 87.5z" />
    <glyph glyph-name="KafFarsiFin" unicode="&#x6a9;" horiz-adv-x="1035" arabic-form="final" 
d="M33 228q0 5 0.5 14.5t2 21t3.5 22.5t4 20q3 10 7 15.5t15 5.5h124q19 0 19 -19q0 -8 -0.5 -20t-0.5 -18q0 -23 6 -39t21.5 -26.5t42.5 -15.5t69 -5h425v38q0 59 -39.5 90t-124.5 31h-232q-15 0 -21 5.5t-7 16.5q0 2 -0.5 8.5t-0.5 14v13.5v7q0 27 4.5 51t13 47.5
t20.5 48.5t28 54l77 145q10 19 29 19h143q14 0 14 -11q0 -5 -3 -11l-94 -181q-2 -3 -7 -12.5t-9.5 -19t-8.5 -18t-4 -10.5q13 1 23 2t19.5 1.5t19.5 0.5h23q86 0 147.5 -20.5t101 -57.5t58 -88t20.5 -111v-15v-19t-1 -19h75v-184h-725q-90 0 -144.5 18.5t-84 49.5t-39 72.5
t-9.5 87.5z" />
    <glyph glyph-name="KafFarsiIni" unicode="&#x6a9;" horiz-adv-x="745" arabic-form="initial" 
d="M-44 164q0 8 10.5 14t20.5 6h510q0 7 0.5 20t0.5 19q0 59 -40 89.5t-125 30.5h-249q-15 0 -21 5t-7 16q0 2 -0.5 9t-1 14.5t-0.5 14v7.5q0 27 4.5 51t13 48t21 49t28.5 54l77 143q10 19 30 19h142q14 0 14 -11q0 -5 -3 -11l-95 -181q-2 -3 -6.5 -12.5t-9.5 -19.5
t-8.5 -18.5t-3.5 -9.5q18 1 31.5 2t25 1.5t22 0.5h23.5q99 0 162.5 -24t100 -68t51 -105.5t14.5 -136.5v-34q0 -9 -0.5 -25t-2 -34t-3 -35t-3.5 -28q-2 -8 -7 -13t-17 -6q-18 -2 -47.5 -2.5t-64.5 -1.5t-71.5 -1h-67.5h-417q-10 0 -20.5 5.5t-10.5 13.5v145z" />
    <glyph glyph-name="KafFarsiMed" unicode="&#x6a9;" horiz-adv-x="761" arabic-form="medial" 
d="M-44 164q0 8 10.5 14t20.5 6h509q0 6 0.5 19.5t0.5 19.5q0 59 -39.5 89.5t-124.5 30.5h-249q-15 0 -21 5t-7 16q0 2 -0.5 9t-1 14.5t-0.5 13.5v7q0 27 4.5 51t13 47.5t21 48.5t28.5 54l77 145q10 19 30 19h142q14 0 14 -11q0 -5 -3 -11l-94 -179q-2 -4 -6.5 -13.5
t-9.5 -19.5t-9 -18.5t-4 -10.5q36 2 58.5 3t47.5 1q87 0 147.5 -20.5t99 -57.5t56.5 -88t20 -111v-53h75v-184h-775q-10 0 -20.5 5.5t-10.5 13.5v145z" />
    <glyph glyph-name="GafSep" unicode="&#x6af;" horiz-adv-x="1018" arabic-form="isolated" 
d="M33 228q0 5 0.5 14.5t1.5 21t3 22.5t4 20q3 10 7 15.5t15 5.5h125q19 0 19 -19q0 -8 -0.5 -20t-0.5 -18q0 -23 6 -39t21.5 -26.5t42.5 -15.5t69 -5h422q1 7 1 20v19q0 59 -39.5 89.5t-124.5 30.5h-216q-14 0 -18 5t-6 16l-5 25q-1 4 -1.5 8.5t0.5 8.5q0 9 4.5 19t13.5 27
l163 302q10 19 29 19h113q13 0 13 -11q0 -5 -3 -11l-94 -179l-33 -62q24 2 37 3t30 1q99 0 162.5 -23.5t100 -66.5t51 -103.5t14.5 -135.5v-39q0 -9 -0.5 -25t-1.5 -34t-3 -35t-4 -28q-2 -8 -6.5 -13t-16.5 -6q-61 -3 -125 -4t-127 -1h-366q-90 0 -144.5 18.5t-84 49.5
t-39 72.5t-9.5 87.5zM311 570q-2 10 -2 15q0 10 5 19l82 152q9 17 28 17h50q14 0 14 -11q0 -5 -3 -11l-139 -259q-4 -6 -10 -6q-7 0 -8 8z" />
    <glyph glyph-name="GafFin" unicode="&#x6af;" horiz-adv-x="1034" arabic-form="final" 
d="M33 228q0 5 0.5 14.5t1.5 21t3 22.5t4 20q3 10 7 15.5t15 5.5h125q19 0 19 -19q0 -8 -0.5 -20t-0.5 -18q0 -23 6 -39t21.5 -26.5t42.5 -15.5t69 -5h422q1 6 1 18.5v18.5q0 60 -39.5 91t-124.5 31h-216q-14 0 -18 5t-6 16l-5 25q-1 4 -1.5 8.5t0.5 8.5q0 9 4.5 19t13.5 27
l163 302q10 19 29 19h113q13 0 13 -11q0 -5 -3 -11l-94 -179l-33 -62q24 2 37.5 3t30.5 1q86 0 147 -20.5t100.5 -57.5t58.5 -88t20 -111v-53h75v-184h-724q-90 0 -144.5 18.5t-84 49.5t-39 72.5t-9.5 87.5zM311 570q-2 10 -2 15q0 10 5 19l82 152q9 17 28 17h50
q14 0 14 -11q0 -5 -3 -11l-139 -259q-4 -6 -10 -6q-7 0 -8 8z" />
    <glyph glyph-name="GafIni" unicode="&#x6af;" horiz-adv-x="816" arabic-form="initial" 
d="M-9 0q-10 0 -20.5 5.5t-10.5 13.5v145q0 8 10.5 14t20.5 6h575q1 7 1.5 20t0.5 19q0 59 -39 89.5t-124 30.5h-240q-13 0 -17.5 5t-6.5 16l-5 25q-1 4 -1.5 9t0.5 9q1 9 5 18t13 26l163 303q10 19 29 19h113q13 0 13 -11q0 -5 -3 -11l-94 -180q-2 -3 -7 -12.5t-10.5 -19.5
t-9.5 -18.5t-5 -10.5q35 2 57.5 3t38.5 1q99 0 161.5 -24.5t97.5 -68.5t48 -104t13 -132v-39q0 -12 -1 -28.5t-2.5 -33.5t-3 -33t-3.5 -27q-2 -8 -7.5 -13t-16.5 -6q-58 -3 -122.5 -4t-127.5 -1h-483zM87 570q-2 10 -2 15t1 9.5t5 9.5l82 152q5 8 10.5 12.5t16.5 4.5h50
q15 0 15 -11q0 -5 -3 -11l-139 -259q-4 -6 -10 -6q-8 0 -9 8z" />
    <glyph glyph-name="GafMed" unicode="&#x6af;" horiz-adv-x="831" arabic-form="medial" 
d="M-40 164q0 8 10.5 14t20.5 6h574q1 6 1.5 19.5t0.5 19.5q0 59 -38.5 89.5t-123.5 30.5h-240q-14 0 -18 5t-6 16l-5 25q-1 4 -1.5 8.5t0.5 8.5q0 9 4.5 18.5t13.5 26.5l163 303q10 19 29 19h113q13 0 13 -11q0 -5 -3 -11l-94 -179l-33 -62q32 2 56.5 3t40.5 1
q86 0 146.5 -20.5t98.5 -57.5t55.5 -88t18.5 -111v-15v-19t-1 -19h75v-184h-840q-10 0 -20.5 5.5t-10.5 13.5v145zM87 570q-2 10 -2 15q0 10 5 19l82 152q9 17 28 17h50q14 0 14 -11q0 -5 -3 -11l-139 -259q-4 -6 -10 -6q-7 0 -8 8z" />
    <glyph glyph-name="NoonGhunnaSep" unicode="&#x6ba;" horiz-adv-x="702" arabic-form="isolated" 
d="M202 327q19 0 19 -18q-2 -20 -2.5 -40t-0.5 -33q0 -59 6.5 -103.5t25.5 -74.5t53.5 -45.5t90.5 -15.5q14 0 25.5 0.5t33.5 2.5q1 43 1 81v79v282q0 8 7 14t15 6h143q8 0 14.5 -6t6.5 -14v-394q0 -48 -1 -95t-4 -89q0 -18 -22 -24q-50 -12 -100.5 -18.5t-108.5 -6.5
q-82 0 -149 16.5t-114 55t-73 102.5t-26 159q0 12 1 31.5t3 42t4.5 45t6.5 40.5q2 9 6.5 14.5t15.5 5.5h123z" />
    <glyph glyph-name="NoonGhunnaFin" unicode="&#x6ba;" horiz-adv-x="723" arabic-form="final" 
d="M202 327q19 0 19 -18q-2 -20 -2.5 -40t-0.5 -33q0 -59 6.5 -103.5t25.5 -74.5t53.5 -45.5t90.5 -15.5q14 0 25.5 0.5t33.5 2.5q1 43 1 81v79v282q0 8 7 14t15 6h142q9 0 15 -6t6 -14v-258h84v-184h-84q-1 -36 -1.5 -70t-2.5 -66q0 -18 -21 -24q-50 -12 -101 -18.5
t-109 -6.5q-82 0 -149 16.5t-114 55t-73 102.5t-26 159q0 12 1 31.5t3 42t4.5 45t6.5 40.5q2 9 6.5 14.5t15.5 5.5h123z" />
    <glyph glyph-name="HehYehAboveSep" unicode="&#x6c0;" horiz-adv-x="582" arabic-form="isolated" 
d="M48 248q0 134 75 203.5t224 69.5q19 0 42 -1.5t45 -4t40 -6t27 -7.5q11 -5 15 -9t4 -12v-287q0 -42 -1 -85t-6 -81q-2 -11 -7 -14.5t-16 -5.5q-32 -5 -66 -6.5t-73 -1.5h-22q-145 0 -213 60.5t-68 173.5v14zM219 259q0 -40 18.5 -61t60.5 -21h49v182q-8 1 -18.5 1h-19.5
q-47 0 -68.5 -25.5t-21.5 -66.5v-9zM204 605q-14 0 -14 12v45q0 9 14 9h21q-8 13 -11.5 27t-3.5 29q0 89 105 89q10 0 27.5 -1t33.5 -6q10 -2 10 -10v-41q0 -10 -13 -10h-39q-23 0 -34 -7t-11 -27q0 -14 4 -25t14 -16h75q14 0 14 -10v-46q0 -12 -14 -12h-178z" />
    <glyph glyph-name="HehYehAboveFin" unicode="&#x6c0;" horiz-adv-x="610" arabic-form="final" 
d="M46 260q0 134 76 202t225 68q19 0 42 -1t45 -3.5t40 -5.5t28 -6q11 -4 14.5 -9t3.5 -13v-270q0 -23 11 -30.5t33 -7.5h46v-184h-65q-17 0 -37 2t-41 7t-40.5 15t-34.5 27q-20 -15 -51.5 -22t-57.5 -7h-8q-112 0 -170.5 55t-58.5 169v14zM215 270q0 -40 17 -59t56 -19h10
q20 0 34.5 8t14.5 29v143q-8 1 -18 1h-18q-47 0 -71.5 -24t-24.5 -65v-14zM204 605q-14 0 -14 12v45q0 9 14 9h21q-8 13 -11.5 27t-3.5 29q0 89 105 89q10 0 27.5 -1t33.5 -6q10 -2 10 -10v-41q0 -10 -13 -10h-39q-23 0 -34 -7t-11 -27q0 -14 4 -25t14 -16h75q14 0 14 -10
v-46q0 -12 -14 -12h-178z" />
    <glyph glyph-name="HehGoalSep" unicode="&#x6c1;" horiz-adv-x="582" arabic-form="isolated" 
d="M48 248q0 134 75 203.5t224 69.5q19 0 42 -1.5t45 -4t40 -6t27 -7.5q11 -5 15 -9t4 -12v-287q0 -42 -1 -85t-6 -81q-2 -11 -7 -14.5t-16 -5.5q-32 -5 -66 -6.5t-73 -1.5h-22q-145 0 -213 60.5t-68 173.5v14zM219 259q0 -40 18.5 -61t60.5 -21h49v182q-8 1 -18.5 1h-19.5
q-47 0 -68.5 -25.5t-21.5 -66.5v-9z" />
    <glyph glyph-name="HehGoalFin" unicode="&#x6c1;" horiz-adv-x="674" arabic-form="final" 
d="M395 402q21 0 47 -1t51.5 -3t46.5 -4.5t33 -4.5q8 -2 14.5 -6t6.5 -15v-151q0 -20 7 -26.5t30 -6.5h43v-184h-85q-39 0 -70.5 5t-54 21.5t-35 47t-12.5 81.5v65q-8 2 -13.5 2h-20.5q-50 0 -80 -13.5t-46 -44t-21 -81t-5 -123.5v-55q0 -19 -19 -19h-138q-11 0 -16 6t-5 14
q-2 11 -2.5 26t-1.5 31t-1 31.5v26.5q0 106 23 178.5t67.5 117.5t109 65t147.5 20z" />
    <glyph glyph-name="HehGoalIni" unicode="&#x6c1;" horiz-adv-x="325" arabic-form="initial" 
d="M83 -276q-7 0 -11 6t-6 15q-1 7 -2.5 23t-1.5 34q0 29 4 60t10 52q3 9 6.5 15t11.5 6h94q9 0 14 -3.5t3 -14.5q-5 -28 -6.5 -53t-1.5 -54q0 -23 1 -41t2 -27q2 -11 -3.5 -14.5t-13.5 -3.5h-100zM-40 174q0 4 11.5 7t19.5 3h52q18 0 25.5 4t7.5 25v46.5v59v65.5t-1 66
q0 7 5.5 13t15.5 6h139q13 0 18.5 -5.5t6.5 -13.5q2 -60 2.5 -106.5t0.5 -91.5v-74.5t-1 -57.5t-1.5 -44.5t-2.5 -35.5q-1 -9 -6 -16.5t-17 -10.5q-14 -3 -38.5 -5.5t-53 -4t-58.5 -2.5t-55 -1h-39q-8 0 -19.5 2.5t-11.5 7.5v164z" />
    <glyph glyph-name="HehGoalMed" unicode="&#x6c1;" horiz-adv-x="630" arabic-form="medial" 
d="M-40 164q0 8 10.5 14t20.5 6h61q0 10 0.5 23t1.5 26.5t2 26t2 20.5t5.5 14t15.5 6h138q9 0 14.5 -5t5.5 -13v-110q0 -74 5.5 -121.5t19.5 -74.5t37 -37.5t58 -10.5h15t17 2l1 38q2 50 14 90t37.5 68t66.5 43t101 15h21v-184h-6q-22 0 -35 -5t-20 -16t-9 -28t-2 -41v-126
q0 -11 -6 -15.5t-14 -6.5q-10 -2 -31 -4t-47.5 -3.5t-54.5 -3t-52 -1.5q-62 0 -113.5 13t-90 42t-62 77t-28.5 118h-68q-10 0 -20.5 5.5t-10.5 13.5v145z" />
    <glyph glyph-name="HehDoaSep" unicode="&#x6be;" horiz-adv-x="901" arabic-form="isolated" 
d="M52 162q0 8 6 13.5t14 5.5h119q-4 5 -5.5 18.5t-1.5 21.5v28q0 86 49.5 130.5t132.5 49.5v114q0 17 19 22q14 3 30.5 5t32 3t28 1.5t20.5 0.5q69 0 133 -17.5t113.5 -56.5t79 -102t29.5 -155v-44q0 -35 -2 -80.5t-9 -86.5q-2 -9 -7.5 -17.5t-18.5 -10.5q-15 -2 -47 -2.5
t-68.5 -1.5t-71.5 -1h-57h-498q-8 0 -14 5.5t-6 13.5v143zM593 250v-29q0 -8 -2 -22.5t-6 -19.5h63q11 0 16 5.5t5 27.5v27q0 78 -43.5 126t-124.5 48h-7q47 -19 73 -58.5t26 -104.5zM335 225q0 -32 13 -44t40 -12t41 12t14 44v16q0 34 -13.5 47t-40.5 13t-40.5 -13
t-13.5 -47v-16z" />
    <glyph glyph-name="HehDoaFin" unicode="&#x6be;" horiz-adv-x="743" arabic-form="final" 
d="M68 0q-8 0 -14 5.5t-6 13.5v143q0 8 6 13.5t14 5.5h106v278q0 15 9 27t28 17q18 5 39 8.5t43.5 5.5t44.5 3t40 1q62 0 113 -13t87.5 -40.5t56.5 -71t20 -103.5q0 -11 -1.5 -27t-3.5 -31q-2 -14 -5.5 -28t-8.5 -28q14 2 29 3.5t31 1.5h47v-184h-25h-18.5h-20t-16.5 -0.5
t-10 -1.5v-26q0 -62 -17.5 -105.5t-49 -71.5t-75 -40.5t-95.5 -12.5q-126 0 -184 58.5t-58 176.5v23h-106zM381 178q31 0 50 8t30 21.5t15 31.5t4 38v8q0 46 -27.5 62t-72.5 16q-16 0 -32 -3v-182h33zM413 9q-14 -2 -30.5 -3.5t-34.5 -2.5v-13q0 -48 17 -68t53 -20
q35 0 50.5 17.5t16.5 58.5q0 14 0.5 26t1.5 23q-33 -12 -74 -18z" />
    <glyph glyph-name="HehDoaIni" unicode="&#x6be;" horiz-adv-x="765" arabic-form="initial" 
d="M-40 164q0 8 10.5 14t20.5 6h64q-4 7 -5.5 17.5t-1.5 22.5v25q0 86 49.5 130t132.5 50v114q0 17 20 22q14 3 30 5t31.5 3t28.5 1.5t21 0.5q68 0 132 -17.5t113.5 -56.5t79 -102t29.5 -155v-44q0 -35 -2 -80.5t-9 -86.5q-2 -9 -7.5 -17.5t-18.5 -10.5q-15 -2 -47 -2.5
t-68.5 -1.5t-72 -1h-56.5h-443q-10 0 -20.5 5.5t-10.5 13.5v145zM457 250v-26q0 -12 -1.5 -23.5t-6.5 -18.5h62q11 0 16.5 5t5.5 27v25q0 78 -43.5 126t-124.5 48h-7q47 -19 73 -58.5t26 -104.5zM199 225q0 -32 13.5 -44t39.5 -12q28 0 41.5 12t13.5 44v16q0 34 -13.5 47
t-40.5 13t-40.5 -13t-13.5 -47v-16z" />
    <glyph glyph-name="HehDoaMed" unicode="&#x6be;" horiz-adv-x="633" arabic-form="medial" 
d="M-4 0q-8 0 -19.5 2.5t-11.5 6.5v166q0 4 11.5 6.5t19.5 2.5h84v276q0 15 9 27t28 17q18 5 39 8.5t43 5.5t43.5 3t39.5 1q62 0 113.5 -13t88 -41t57 -71.5t20.5 -103.5q0 -15 -1.5 -29t-3.5 -29q-2 -14 -5.5 -27.5t-8.5 -27.5q14 2 29 3t31 1h37v-184h-15q-17 0 -38 -0.5
t-27 -1.5v-26q0 -62 -17.5 -105.5t-49 -71.5t-75.5 -40.5t-96 -12.5q-126 0 -183.5 59.5t-57.5 177.5v21h-84zM287 178q31 0 50 8t30 21.5t15 31.5t4 38v7q0 47 -27.5 63.5t-72.5 16.5q-10 0 -17 -0.5t-15 -2.5v-183h33zM320 9q-27 -4 -66 -6v-13q0 -48 17 -68t52 -20
q37 0 52 17.5t16 58.5q0 26 3 49q-33 -12 -74 -18z" />
    <glyph glyph-name="YehBarreeSep" unicode="&#x6d2;" horiz-adv-x="1111" arabic-form="isolated" 
d="M55 106q0 54 7 105.5t30 99.5q27 57 66 91t85.5 51.5t99.5 23t108 5.5h89q18 0 25.5 4t7.5 26v31.5v26.5v33t-1 51q0 7 5.5 13t16.5 6h137q11 0 16.5 -5.5t6.5 -13.5q4 -55 4.5 -83.5t0.5 -47.5v-27q0 -33 -0.5 -68t-4.5 -67q-2 -9 -7 -22.5t-16 -15.5q-13 -3 -39 -5.5
t-56 -3.5t-59.5 -1.5t-50.5 -0.5h-84q-35 0 -67.5 -4t-59 -15t-44 -32t-20.5 -55l-1 -9q0 -7 2 -10t10 -3h780q8 0 14 -6t6 -14v-145q0 -8 -6 -13.5t-14 -5.5h-677h-37.5t-52 0.5t-58 1t-56 1t-46 1.5t-27.5 2q-13 2 -18.5 9t-7.5 16q-3 18 -5 36.5t-2 38.5z" />
    <glyph glyph-name="YehBarreeFin" unicode="&#x6d2;" horiz-adv-x="843" arabic-form="final" 
d="M873 -101v-131q0 -8 -6 -14t-14 -6h-619h-48t-53 1t-48 1.5t-33 2.5q-13 2 -18.5 9t-7.5 15t-3.5 21t-2.5 26.5t-1.5 26t-0.5 20.5q0 72 23 135.5t78 107.5q41 32 100 51t140 19h484v-184h-516q-56 0 -87 -13t-37 -53l-1 -6q-1 -9 8 -9h643q8 0 14 -6t6 -14z" />
    <glyph glyph-name="YehBarreeHamzaAboveSep" unicode="&#x6d3;" horiz-adv-x="1111" arabic-form="isolated" 
d="M55 106q0 54 7 105.5t30 99.5q27 57 66 91t85.5 51.5t99.5 23t108 5.5h89q18 0 25.5 4t7.5 26v31.5v26.5v33t-1 51q0 7 5.5 13t16.5 6h137q11 0 16.5 -5.5t6.5 -13.5q4 -55 4.5 -83.5t0.5 -47.5v-27q0 -33 -0.5 -68t-4.5 -67q-2 -9 -7 -22.5t-16 -15.5q-13 -3 -39 -5.5
t-56 -3.5t-59.5 -1.5t-50.5 -0.5h-84q-35 0 -67.5 -4t-59 -15t-44 -32t-20.5 -55l-1 -9q0 -7 2 -10t10 -3h780q8 0 14 -6t6 -14v-145q0 -8 -6 -13.5t-14 -5.5h-677h-37.5t-52 0.5t-58 1t-56 1t-46 1.5t-27.5 2q-13 2 -18.5 9t-7.5 16q-3 18 -5 36.5t-2 38.5zM563 741
q-14 0 -14 12v45q0 9 14 9h21q-8 13 -11.5 27t-3.5 29q0 89 105 89q10 0 27.5 -1t33.5 -6q10 -2 10 -10v-41q0 -10 -13 -10h-39q-23 0 -34 -7t-11 -27q0 -14 4 -25t14 -16h75q14 0 14 -10v-46q0 -12 -14 -12h-178z" />
    <glyph glyph-name="YehBarreeHamzaAboveFin" unicode="&#x6d3;" horiz-adv-x="843" arabic-form="final" 
d="M65 262q-14 0 -14 12v45q0 9 14 9h21q-8 13 -11.5 27t-3.5 29q0 89 105 89q10 0 27.5 -1t33.5 -6q10 -2 10 -10v-41q0 -10 -13 -10h-39q-23 0 -34 -7t-11 -27q0 -14 4 -25t14 -16h75q14 0 14 -10v-46q0 -12 -14 -12h-178zM873 -101v-131q0 -8 -6 -14t-14 -6h-619h-48
t-53 1t-48 1.5t-33 2.5q-13 2 -18.5 9t-7.5 15t-3.5 21t-2.5 26.5t-1.5 26t-0.5 20.5q0 72 23 135.5t78 107.5q41 32 100 51t140 19h484v-184h-516q-56 0 -87 -13t-37 -53l-1 -6q-1 -9 8 -9h643q8 0 14 -6t6 -14z" />
    <glyph glyph-name="AlefMaqsuraIni" unicode="&#x649;" horiz-adv-x="325" arabic-form="initial" 
d="M-40 174q0 4 11.5 7t19.5 3h52q18 0 25.5 4t7.5 25v46.5v59v65.5t-1 66q0 7 5.5 13t15.5 6h139q13 0 18.5 -5.5t6.5 -13.5q2 -60 2.5 -106.5t0.5 -91.5v-74.5t-1 -57.5t-1.5 -44.5t-2.5 -35.5q-1 -9 -6 -16.5t-17 -10.5q-14 -3 -38.5 -5.5t-53 -4t-58.5 -2.5t-55 -1h-39
q-8 0 -19.5 2.5t-11.5 7.5v164z" />
    <glyph glyph-name="AlefMaqsuraMed" unicode="&#x649;" horiz-adv-x="347" arabic-form="medial" 
d="M-40 174q0 4 11.5 7t19.5 3h46q16 0 28 4t12 26v230q0 8 6 14t16 6h143q8 0 14.5 -6t6.5 -14v-252q7 -5 21.5 -6.5t23.5 -1.5h39v-184h-13q-46 0 -90.5 6.5t-74.5 28.5q-15 -10 -34 -17t-40 -11t-42.5 -5.5t-40.5 -1.5h-21q-8 0 -19.5 2.5t-11.5 7.5v164z" />
    <glyph glyph-name="YehFarsiSep" unicode="&#x6cc;" horiz-adv-x="1024" arabic-form="isolated" 
d="M205 327q19 0 19 -18q-1 -20 -2.5 -39t-1.5 -32q0 -58 6 -103.5t25.5 -77t56 -48t97.5 -16.5q17 0 33 0.5t35 3.5q2 43 2.5 76.5t0.5 73.5v65q0 126 76 186.5t228 60.5q21 0 45 -1t46 -3t41 -4.5t31 -4.5q8 -2 13.5 -6.5t5.5 -14.5v-404q0 -9 -6 -15t-16 -6h-141
q-8 0 -14.5 6t-6.5 15v269q-14 2 -19.5 2h-13.5q-48 0 -68 -23.5t-20 -75.5v-145q0 -48 -1 -97t-3 -94q0 -20 -22 -23q-53 -9 -112 -14t-115 -5q-89 0 -156.5 19t-113 60.5t-68.5 107.5t-23 160q0 25 4 66t12 79q2 9 6.5 14.5t15.5 5.5h124z" />
    <glyph glyph-name="YehFarsiFin" unicode="&#x6cc;" horiz-adv-x="1029" arabic-form="final" 
d="M206 327q19 0 19 -18q-2 -20 -3.5 -39t-1.5 -32q0 -58 6 -103.5t25.5 -77t56 -48t97.5 -16.5q17 0 33 0.5t35 3.5q2 43 2.5 76.5t0.5 73.5v64q0 248 304 248q43 0 85 -4t66 -9q8 -2 13.5 -6.5t5.5 -14.5v-208q0 -20 8 -26.5t30 -6.5h41v-184h-86q-38 0 -69.5 5t-54 21.5
t-35 47t-12.5 81.5v135q-9 2 -14 2h-13q-48 0 -68 -23.5t-20 -75.5v-145q0 -48 -1 -97t-3 -94q0 -20 -23 -23q-54 -9 -112 -14t-113 -5q-90 0 -157.5 19t-113 60.5t-68.5 107.5t-23 160q0 12 1 29t3 36.5t5 40t7 39.5q2 9 6.5 14.5t15.5 5.5h125z" />
    <glyph glyph-name="YehFarsiIni" unicode="&#x6cc;" horiz-adv-x="325" arabic-form="initial" 
d="M-40 174q0 4 11.5 7t19.5 3h52q18 0 25.5 4t7.5 25v46.5v59v65.5t-1 66q0 7 5.5 13t15.5 6h139q13 0 18.5 -5.5t6.5 -13.5q2 -60 2.5 -106.5t0.5 -91.5v-74.5t-1 -57.5t-1.5 -44.5t-2.5 -35.5q-1 -9 -6 -16.5t-17 -10.5q-14 -3 -38.5 -5.5t-53 -4t-58.5 -2.5t-55 -1h-39
q-8 0 -19.5 2.5t-11.5 7.5v164zM-68 -105q0 9 7 15t15 6h104q8 0 15.5 -6t7.5 -15v-104q0 -8 -7.5 -13.5t-15.5 -5.5h-104q-8 0 -15 5.5t-7 13.5v104zM144 -105q0 9 7 15t15 6h104q8 0 15 -6t7 -15v-104q0 -8 -7 -13.5t-15 -5.5h-104q-8 0 -15 5.5t-7 13.5v104z" />
    <glyph glyph-name="YehFarsiMed" unicode="&#x6cc;" horiz-adv-x="347" arabic-form="medial" 
d="M-40 174q0 4 11.5 7t19.5 3h46q16 0 28 4t12 26v230q0 8 6 14t16 6h143q8 0 14.5 -6t6.5 -14v-252q7 -5 21.5 -6.5t23.5 -1.5h39v-184h-13q-46 0 -90.5 6.5t-74.5 28.5q-15 -10 -34 -17t-40 -11t-42.5 -5.5t-40.5 -1.5h-21q-8 0 -19.5 2.5t-11.5 7.5v164zM-21 -105
q0 9 7 15t15 6h104q8 0 15.5 -6t7.5 -15v-104q0 -8 -7.5 -13.5t-15.5 -5.5h-104q-8 0 -15 5.5t-7 13.5v104zM191 -105q0 9 7 15t15 6h104q8 0 15 -6t7 -15v-104q0 -8 -7 -13.5t-15 -5.5h-104q-8 0 -15 5.5t-7 13.5v104z" />
    <glyph glyph-name="ShaddaDammatanNS" unicode="&#xfc5e;" horiz-adv-x="0" arabic-form="isolated" 
d="M-59 739q-35 0 -48.5 21t-13.5 57q0 11 0.5 19.5t1.5 20.5q2 12 12 12h30q5 0 8.5 -3.5t3.5 -8.5q-1 -14 -1.5 -20.5t-0.5 -14.5q0 -21 5 -27.5t13 -6.5h3q7 0 12.5 4.5t5.5 18.5v44q0 5 4 8.5t9 3.5h30q5 0 9 -3.5t4 -8.5v-44q0 -14 5.5 -18.5t11.5 -4.5h3q8 0 13.5 6.5
t5.5 27.5q0 8 -0.5 15.5t-1.5 19.5q0 5 3.5 8.5t8.5 3.5h30q5 0 8.5 -3.5t3.5 -8.5q2 -14 2 -21v-19q0 -36 -15 -57t-50 -21h-4q-16 0 -28.5 3.5t-20.5 15.5h-4q-9 -12 -23 -15.5t-31 -3.5h-4zM-142 995q0 10 14 10h47q10 0 12 -10l5 -25q6 -20 29 -20h6q-1 8 -1.5 13.5
t-0.5 13.5q0 34 23 54t57 20q37 0 59 -18.5t22 -52.5q0 -37 -22.5 -57t-76.5 -20h-65q-27 0 -49.5 9.5t-30.5 46.5h-14q-14 0 -14 10v26zM45 950q17 0 23.5 8.5t6.5 19.5q0 25 -25 25q-11 0 -19 -7t-8 -23q0 -6 1 -12t3 -11h18z" />
    <glyph glyph-name="ShaddaKasratanNS" unicode="&#xfc5f;" horiz-adv-x="0" arabic-form="isolated" 
d="M-59 923q-35 0 -48.5 21t-13.5 57q0 11 0.5 19.5t1.5 20.5q2 12 12 12h30q5 0 8.5 -3.5t3.5 -8.5q-1 -14 -1.5 -20.5t-0.5 -14.5q0 -21 5 -27.5t13 -6.5h3q7 0 12.5 4.5t5.5 18.5v44q0 5 4 8.5t9 3.5h30q5 0 9 -3.5t4 -8.5v-44q0 -14 5.5 -18.5t11.5 -4.5h3q8 0 13.5 6.5
t5.5 27.5q0 8 -0.5 15.5t-1.5 19.5q0 5 3.5 8.5t8.5 3.5h30q5 0 8.5 -3.5t3.5 -8.5q2 -14 2 -21v-19q0 -36 -15 -57t-50 -21h-4q-16 0 -28.5 3.5t-20.5 15.5h-4q-9 -12 -23 -15.5t-31 -3.5h-4zM-122 790q0 10 14 10h217q14 0 14 -10v-29q0 -10 -14 -10h-217q-14 0 -14 10v29
zM-122 877q0 10 14 10h217q14 0 14 -10v-29q0 -10 -14 -10h-217q-14 0 -14 10v29z" />
    <glyph glyph-name="ShaddaFathaNS" unicode="&#xfc60;" horiz-adv-x="0" arabic-form="isolated" 
d="M-59 739q-35 0 -48.5 21t-13.5 57q0 11 0.5 19.5t1.5 20.5q2 12 12 12h30q5 0 8.5 -3.5t3.5 -8.5q-1 -14 -1.5 -20.5t-0.5 -14.5q0 -21 5 -27.5t13 -6.5h3q7 0 12.5 4.5t5.5 18.5v44q0 5 4 8.5t9 3.5h30q5 0 9 -3.5t4 -8.5v-44q0 -14 5.5 -18.5t11.5 -4.5h3q8 0 13.5 6.5
t5.5 27.5q0 8 -0.5 15.5t-1.5 19.5q0 5 3.5 8.5t8.5 3.5h30q5 0 8.5 -3.5t3.5 -8.5q2 -14 2 -21v-19q0 -36 -15 -57t-50 -21h-4q-16 0 -28.5 3.5t-20.5 15.5h-4q-9 -12 -23 -15.5t-31 -3.5h-4zM-122 946q0 10 14 10h217q14 0 14 -10v-29q0 -10 -14 -10h-217q-14 0 -14 10v29
z" />
    <glyph glyph-name="ShaddaDammaNS" unicode="&#xfc61;" horiz-adv-x="0" arabic-form="isolated" 
d="M-59 739q-35 0 -48.5 21t-13.5 57q0 11 0.5 19.5t1.5 20.5q2 12 12 12h30q5 0 8.5 -3.5t3.5 -8.5q-1 -14 -1.5 -20.5t-0.5 -14.5q0 -21 5 -27.5t13 -6.5h3q7 0 12.5 4.5t5.5 18.5v44q0 5 4 8.5t9 3.5h30q5 0 9 -3.5t4 -8.5v-44q0 -14 5.5 -18.5t11.5 -4.5h3q8 0 13.5 6.5
t5.5 27.5q0 8 -0.5 15.5t-1.5 19.5q0 5 3.5 8.5t8.5 3.5h30q5 0 8.5 -3.5t3.5 -8.5q2 -14 2 -21v-19q0 -36 -15 -57t-50 -21h-4q-16 0 -28.5 3.5t-20.5 15.5h-4q-9 -12 -23 -15.5t-31 -3.5h-4zM-127 940q0 6 4.5 8t10.5 2h81q-2 8 -2 13.5v13.5q0 34 22 54t57 20
q37 0 59 -18.5t22 -52.5q0 -37 -22 -57t-76 -20h-141q-15 0 -15 10v27zM42 950q17 0 24 8.5t7 19.5q0 25 -26 25q-11 0 -18.5 -7t-7.5 -23q0 -14 3 -23h18z" />
    <glyph glyph-name="ShaddaKasraNS" unicode="&#xfc62;" horiz-adv-x="0" arabic-form="isolated" 
d="M-59 837q-35 0 -48.5 21t-13.5 57q0 11 0.5 19.5t1.5 20.5q2 12 12 12h30q5 0 8.5 -3.5t3.5 -8.5q-1 -14 -1.5 -20.5t-0.5 -14.5q0 -21 5 -27.5t13 -6.5h3q7 0 12.5 4.5t5.5 18.5v44q0 5 4 8.5t9 3.5h30q5 0 9 -3.5t4 -8.5v-44q0 -14 5.5 -18.5t11.5 -4.5h3q8 0 13.5 6.5
t5.5 27.5q0 8 -0.5 15.5t-1.5 19.5q0 5 3.5 8.5t8.5 3.5h30q5 0 8.5 -3.5t3.5 -8.5q2 -14 2 -21v-19q0 -36 -15 -57t-50 -21h-4q-16 0 -28.5 3.5t-20.5 15.5h-4q-9 -12 -23 -15.5t-31 -3.5h-4zM-123 790q0 10 14 10h217q14 0 14 -10v-29q0 -10 -14 -10h-217q-14 0 -14 10v29
z" />
    <glyph glyph-name="ShaddaSmallAlefAboveNS" unicode="&#xfc63;" horiz-adv-x="0" arabic-form="isolated" 
d="M-31 1012q0 11 11 11h39q11 0 11 -11v-103q0 -11 -11 -11h-39q-11 0 -11 11v103zM-59 739q-35 0 -48.5 20.5t-13.5 56.5q0 12 0.5 20.5t1.5 20.5q2 12 12 12h30q5 0 8.5 -3.5t3.5 -8.5q-1 -14 -1.5 -20.5t-0.5 -14.5q0 -21 5 -27.5t13 -6.5h3q7 0 12.5 4t5.5 18v44
q0 13 13 13h30q13 0 13 -13v-44q0 -14 5.5 -18t11.5 -4h3q8 0 13.5 6.5t5.5 27.5q0 8 -0.5 15.5t-1.5 19.5q0 5 3.5 8.5t8.5 3.5h30q5 0 8.5 -3.5t3.5 -8.5q2 -15 2 -22v-19q0 -36 -15 -56.5t-50 -20.5h-4q-16 0 -28.5 3.5t-20.5 14.5h-4q-9 -12 -23 -15t-31 -3h-4z" />
    <glyph glyph-name="HamzaSep" unicode="&#x621;" horiz-adv-x="477" arabic-form="isolated" 
d="M61 25q-17 0 -17 17v114q0 17 17 17h35q-8 14 -11.5 35.5t-3.5 47.5q0 55 16.5 90.5t45 56.5t66 29t79.5 8q28 0 48.5 -2.5t46.5 -8.5q19 -3 19 -17v-96q0 -10 -3 -14t-13 -3q-23 1 -37 1.5t-28 0.5q-48 0 -68 -15t-20 -53q0 -25 7.5 -39t20.5 -21h148q17 0 17 -17v-114
q0 -17 -17 -17h-348z" />
    <glyph glyph-name="AlefMaddaSep" unicode="&#x622;" horiz-adv-x="323" arabic-form="isolated" 
d="M-1 825q-7 0 -11.5 4t-3.5 10q5 47 22 73q28 42 84 42q20 0 38 -6.5t37 -14.5q15 -5 29.5 -9t31.5 -4q20 0 31.5 3.5t22.5 8.5t19.5 8.5t13.5 3.5q11 0 11 -11v-60q0 -12 -10 -19q-17 -11 -39.5 -17.5t-48.5 -6.5q-23 0 -44 5t-57 21q-11 5 -17.5 6.5t-11.5 1.5
q-12 0 -15 -12l-5 -12q-5 -15 -15 -15h-62zM67 752q0 9 6 15t16 6h146q9 0 15 -6t6 -15v-730q0 -9 -6 -15.5t-15 -6.5h-146q-10 0 -16 6.5t-6 15.5v730z" />
    <glyph glyph-name="AlefMaddaFin" unicode="&#x622;" horiz-adv-x="339" arabic-form="final" 
d="M-3 825q-7 0 -11.5 4t-3.5 10q5 47 22 73q28 42 84 42q20 0 38 -6.5t37 -14.5q15 -5 29.5 -9t31.5 -4q20 0 31.5 3.5t22.5 8.5t19.5 8.5t13.5 3.5q11 0 11 -11v-60q0 -12 -10 -19q-17 -11 -39.5 -17.5t-48.5 -6.5q-23 0 -44 5t-57 21q-11 5 -17.5 6.5t-11.5 1.5
q-12 0 -15 -12l-5 -12q-5 -15 -15 -15h-62zM67 752q0 9 6.5 15t15.5 6h144q10 0 16 -6t6 -15v-530q0 -24 10.5 -31t33.5 -7h40v-184h-98q-38 0 -70 5.5t-55 22.5t-36 48.5t-13 83.5v592z" />
    <glyph glyph-name="AlefHamzaAboveSep" unicode="&#x623;" horiz-adv-x="323" arabic-form="isolated" 
d="M72 760q-14 0 -14 12v45q0 9 14 9h21q-8 13 -11.5 27t-3.5 29q0 89 105 89q10 0 27.5 -1t33.5 -6q10 -2 10 -10v-41q0 -10 -13 -10h-39q-23 0 -34 -7t-11 -27q0 -14 4 -25t14 -16h75q14 0 14 -10v-46q0 -12 -14 -12h-178zM67 680q0 8 6 14t16 6h146q9 0 15 -6t6 -14v-658
q0 -9 -6 -15.5t-15 -6.5h-146q-10 0 -16 6.5t-6 15.5v658z" />
    <glyph glyph-name="AlefHamzaAboveFin" unicode="&#x623;" horiz-adv-x="339" arabic-form="final" 
d="M67 680q0 8 6.5 14t15.5 6h144q10 0 16 -6t6 -14v-458q0 -24 9 -31t32 -7h43v-184h-98q-38 0 -70 5.5t-55 22.5t-36 48.5t-13 83.5v520zM70 760q-14 0 -14 12v45q0 9 14 9h21q-8 13 -11.5 27t-3.5 29q0 89 105 89q10 0 27.5 -1t33.5 -6q10 -2 10 -10v-41q0 -10 -13 -10
h-39q-23 0 -34 -7t-11 -27q0 -14 4 -25t14 -16h75q14 0 14 -10v-46q0 -12 -14 -12h-178z" />
    <glyph glyph-name="WawHamzaAboveSep" unicode="&#x624;" horiz-adv-x="589" arabic-form="isolated" 
d="M84 -104q0 19 19 19h100q39 0 64.5 3t41 11t22.5 20.5t9 32.5l2 29q-4 -3 -15 -5t-24 -3.5t-25 -2t-17 -0.5q-98 0 -155.5 60t-57.5 174v14q0 134 76 203.5t224 69.5q19 0 43.5 -1.5t47 -4t41.5 -6t28 -7.5q11 -5 15 -9t4 -12v-459q0 -88 -26 -140.5t-67 -81t-92 -37.5
t-101 -9h-28t-42.5 1t-43 2.5t-28.5 3.5q-15 4 -15 21v114zM347 359q-8 1 -18.5 1h-18.5q-46 0 -68 -25.5t-22 -66.5v-9q0 -40 18 -61t62 -21q47 0 47 22v160zM198 605q-14 0 -14 12v45q0 9 14 9h21q-8 13 -11.5 27t-3.5 29q0 89 105 89q10 0 27.5 -1t33.5 -6q10 -2 10 -10
v-41q0 -10 -13 -10h-39q-23 0 -34 -7t-11 -27q0 -14 4 -25t14 -16h75q14 0 14 -10v-46q0 -12 -14 -12h-178z" />
    <glyph glyph-name="WawHamzaAboveFin" unicode="&#x624;" horiz-adv-x="610" arabic-form="final" 
d="M84 -104q0 19 19 19h100q39 0 64.5 3t41.5 11t23 20.5t9 32.5l1 18h-42q-120 0 -186 60t-66 174v14q0 134 76 203.5t224 69.5q19 0 43 -1.5t46.5 -4t41 -6t27.5 -7.5q11 -5 15 -9t4 -12v-297h85v-184h-88v-13.5t-1 -14.5q-8 -69 -34 -111.5t-64 -66.5t-85.5 -32t-96.5 -8
h-27t-43 1t-43.5 2.5t-28.5 3.5q-15 4 -15 21v114zM220 259q0 -40 18.5 -61t60.5 -21h48v182q-8 1 -18.5 1h-18.5q-45 0 -67.5 -25.5t-22.5 -66.5v-9zM198 605q-14 0 -14 12v45q0 9 14 9h21q-8 13 -11.5 27t-3.5 29q0 89 105 89q10 0 27.5 -1t33.5 -6q10 -2 10 -10v-41
q0 -10 -13 -10h-39q-23 0 -34 -7t-11 -27q0 -14 4 -25t14 -16h75q14 0 14 -10v-46q0 -12 -14 -12h-178z" />
    <glyph glyph-name="AlefHamzaBelowSep" unicode="&#x625;" horiz-adv-x="323" arabic-form="isolated" 
d="M67 752q0 9 6 15t16 6h146q9 0 15 -6t6 -15v-730q0 -9 -6 -15.5t-15 -6.5h-146q-10 0 -16 6.5t-6 15.5v730zM63 -269q-14 0 -14 12v45q0 9 14 9h21q-8 13 -11.5 27t-3.5 29q0 89 105 89q10 0 27.5 -1t33.5 -6q10 -2 10 -10v-41q0 -10 -13 -10h-39q-23 0 -34 -7t-11 -27
q0 -14 4 -25t14 -16h75q14 0 14 -10v-46q0 -12 -14 -12h-178z" />
    <glyph glyph-name="AlefHamzaBelowFin" unicode="&#x625;" horiz-adv-x="339" arabic-form="final" 
d="M80 -269q-14 0 -14 12v45q0 9 14 9h21q-8 13 -11.5 27t-3.5 29q0 89 105 89q10 0 27.5 -1t33.5 -6q10 -2 10 -10v-41q0 -10 -13 -10h-39q-23 0 -34 -7t-11 -27q0 -14 4 -25t14 -16h75q14 0 14 -10v-46q0 -12 -14 -12h-178zM67 752q0 9 6.5 15t15.5 6h144q10 0 16 -6
t6 -15v-530q0 -24 10.5 -31t33.5 -7h40v-184h-98q-38 0 -70 5.5t-55 22.5t-36 48.5t-13 83.5v592z" />
    <glyph glyph-name="YehHamzaAboveSep" unicode="&#x626;" horiz-adv-x="1024" arabic-form="isolated" 
d="M205 327q19 0 19 -18q-1 -20 -2.5 -39t-1.5 -32q0 -58 6 -103.5t25.5 -77t56 -48t97.5 -16.5q17 0 33 0.5t35 3.5q2 43 2.5 76.5t0.5 73.5v65q0 126 76 186.5t228 60.5q21 0 45 -1t46 -3t41 -4.5t31 -4.5q8 -2 13.5 -6.5t5.5 -14.5v-404q0 -9 -6 -15t-16 -6h-141
q-8 0 -14.5 6t-6.5 15v269q-14 2 -19.5 2h-13.5q-48 0 -68 -23.5t-20 -75.5v-145q0 -48 -1 -97t-3 -94q0 -20 -22 -23q-53 -9 -112 -14t-115 -5q-89 0 -156.5 19t-113 60.5t-68.5 107.5t-23 160q0 25 4 66t12 79q2 9 6.5 14.5t15.5 5.5h124zM58 416q-14 0 -14 12v45
q0 9 14 9h21q-8 13 -11.5 27t-3.5 29q0 89 105 89q10 0 27.5 -1t33.5 -6q10 -2 10 -10v-41q0 -10 -13 -10h-39q-23 0 -34 -7t-11 -27q0 -14 4 -25t14 -16h75q14 0 14 -10v-46q0 -12 -14 -12h-178z" />
    <glyph glyph-name="YehHamzaAboveFin" unicode="&#x626;" horiz-adv-x="1029" arabic-form="final" 
d="M58 416q-14 0 -14 12v45q0 9 14 9h21q-8 13 -11.5 27t-3.5 29q0 89 105 89q10 0 27.5 -1t33.5 -6q10 -2 10 -10v-41q0 -10 -13 -10h-39q-23 0 -34 -7t-11 -27q0 -14 4 -25t14 -16h75q14 0 14 -10v-46q0 -12 -14 -12h-178zM206 327q19 0 19 -18q-2 -20 -3.5 -39t-1.5 -32
q0 -58 6 -103.5t25.5 -77t56 -48t97.5 -16.5q17 0 33 0.5t35 3.5q2 43 2.5 76.5t0.5 73.5v64q0 248 304 248q43 0 85 -4t66 -9q8 -2 13.5 -6.5t5.5 -14.5v-208q0 -20 8 -26.5t30 -6.5h41v-184h-86q-38 0 -69.5 5t-54 21.5t-35 47t-12.5 81.5v135q-9 2 -14 2h-13
q-48 0 -68 -23.5t-20 -75.5v-145q0 -48 -1 -97t-3 -94q0 -20 -23 -23q-54 -9 -112 -14t-113 -5q-90 0 -157.5 19t-113 60.5t-68.5 107.5t-23 160q0 12 1 29t3 36.5t5 40t7 39.5q2 9 6.5 14.5t15.5 5.5h125z" />
    <glyph glyph-name="YehHamzaAboveIni" unicode="&#x626;" horiz-adv-x="325" arabic-form="initial" 
d="M-40 174q0 4 11.5 7t19.5 3h52q18 0 25.5 4t7.5 25v46.5v59v65.5t-1 66q0 7 5.5 13t15.5 6h139q13 0 18.5 -5.5t6.5 -13.5q2 -60 2.5 -106.5t0.5 -91.5v-74.5t-1 -57.5t-1.5 -44.5t-2.5 -35.5q-1 -9 -6 -16.5t-17 -10.5q-14 -3 -38.5 -5.5t-53 -4t-58.5 -2.5t-55 -1h-39
q-8 0 -19.5 2.5t-11.5 7.5v164zM74 554q-14 0 -14 12v45q0 9 14 9h21q-8 13 -11.5 27t-3.5 29q0 89 105 89q10 0 27.5 -1t33.5 -6q10 -2 10 -10v-41q0 -10 -13 -10h-39q-23 0 -34 -7t-11 -27q0 -14 4 -25t14 -16h75q14 0 14 -10v-46q0 -12 -14 -12h-178z" />
    <glyph glyph-name="YehHamzaAboveMed" unicode="&#x626;" horiz-adv-x="347" arabic-form="medial" 
d="M-40 174q0 4 11.5 7t19.5 3h46q16 0 28 4t12 26v230q0 8 6 14t16 6h143q8 0 14.5 -6t6.5 -14v-252q7 -5 21.5 -6.5t23.5 -1.5h39v-184h-13q-46 0 -90.5 6.5t-74.5 28.5q-15 -10 -34 -17t-40 -11t-42.5 -5.5t-40.5 -1.5h-21q-8 0 -19.5 2.5t-11.5 7.5v164zM75 554
q-14 0 -14 12v45q0 9 14 9h21q-8 13 -11.5 27t-3.5 29q0 89 105 89q10 0 27.5 -1t33.5 -6q10 -2 10 -10v-41q0 -10 -13 -10h-39q-23 0 -34 -7t-11 -27q0 -14 4 -25t14 -16h75q14 0 14 -10v-46q0 -12 -14 -12h-178z" />
    <glyph glyph-name="AlefSep" unicode="&#x627;" horiz-adv-x="323" arabic-form="isolated" 
d="M67 752q0 9 6 15t16 6h146q9 0 15 -6t6 -15v-730q0 -9 -6 -15.5t-15 -6.5h-146q-10 0 -16 6.5t-6 15.5v730z" />
    <glyph glyph-name="AlefFin" unicode="&#x627;" horiz-adv-x="339" arabic-form="final" 
d="M67 752q0 9 6.5 15t15.5 6h144q10 0 16 -6t6 -15v-530q0 -24 10.5 -31t33.5 -7h40v-184h-98q-38 0 -70 5.5t-55 22.5t-36 48.5t-13 83.5v592z" />
    <glyph glyph-name="BehSep" unicode="&#x628;" horiz-adv-x="1005" arabic-form="isolated" 
d="M429 -105q0 9 6.5 15t14.5 6h109q9 0 16 -6t7 -15v-104q0 -8 -7 -13.5t-16 -5.5h-109q-8 0 -14.5 5.5t-6.5 13.5v104zM723 184q18 0 25.5 4t7.5 25v45.5v57.5v64v65q0 8 5.5 13.5t15.5 5.5h138q24 0 24 -19q2 -60 3 -104t1 -89q0 -42 -0.5 -74.5t-1 -57.5t-1.5 -44.5
t-3 -35.5q-1 -9 -6 -16.5t-17 -10.5q-14 -3 -49.5 -5.5t-78.5 -4t-85.5 -2.5t-69.5 -1h-232q-105 0 -174 19.5t-109.5 56.5t-57 91t-16.5 123q0 29 3 57.5t10 63.5q2 9 6.5 14.5t15.5 5.5h125q19 0 19 -19t-1.5 -37t-1.5 -32q0 -44 9.5 -74.5t32 -49.5t60 -27t94.5 -8h309z
" />
    <glyph glyph-name="BehFin" unicode="&#x628;" horiz-adv-x="1028" arabic-form="final" 
d="M431 -105q0 9 6.5 15t14.5 6h109q9 0 16 -6t7 -15v-104q0 -8 -7 -13.5t-16 -5.5h-109q-8 0 -14.5 5.5t-6.5 13.5v104zM717 184q16 0 28 4t12 26v230q0 8 6.5 14t15.5 6h143q8 0 14.5 -6t6.5 -14v-252q6 -5 20 -6.5t24 -1.5h41v-184h-7q-17 0 -38 1t-43 4.5t-43.5 10.5
t-38.5 19q-37 -24 -94.5 -29.5t-143.5 -5.5h-221q-105 0 -174 19.5t-109.5 56.5t-57 91t-16.5 123q0 29 3 57.5t10 63.5q2 9 6.5 14.5t15.5 5.5h125q19 0 19 -19t-1.5 -37t-1.5 -32q0 -44 9.5 -74.5t32 -49.5t60 -27t94.5 -8h303z" />
    <glyph glyph-name="BehIni" unicode="&#x628;" horiz-adv-x="325" arabic-form="initial" 
d="M21 -105q0 9 6.5 15t14.5 6h109q9 0 16 -6t7 -15v-104q0 -8 -7 -13.5t-16 -5.5h-109q-8 0 -14.5 5.5t-6.5 13.5v104zM-40 174q0 4 11.5 7t19.5 3h52q18 0 25.5 4t7.5 25v46.5v59v65.5t-1 66q0 7 5.5 13t15.5 6h139q13 0 18.5 -5.5t6.5 -13.5q2 -60 2.5 -106.5t0.5 -91.5
v-74.5t-1 -57.5t-1.5 -44.5t-2.5 -35.5q-1 -9 -6 -16.5t-17 -10.5q-14 -3 -38.5 -5.5t-53 -4t-58.5 -2.5t-55 -1h-39q-8 0 -19.5 2.5t-11.5 7.5v164z" />
    <glyph glyph-name="BehMed" unicode="&#x628;" horiz-adv-x="347" arabic-form="medial" 
d="M-40 174q0 4 11.5 7t19.5 3h46q16 0 28 4t12 26v230q0 8 6 14t16 6h143q8 0 14.5 -6t6.5 -14v-252q7 -5 21.5 -6.5t23.5 -1.5h39v-184h-13q-46 0 -90.5 6.5t-74.5 28.5q-15 -10 -34 -17t-40 -11t-42.5 -5.5t-40.5 -1.5h-21q-8 0 -19.5 2.5t-11.5 7.5v164zM88 -105
q0 9 6.5 15t14.5 6h109q9 0 16 -6t7 -15v-104q0 -8 -7 -13.5t-16 -5.5h-109q-8 0 -14.5 5.5t-6.5 13.5v104z" />
    <glyph glyph-name="TehMarbutaSep" unicode="&#x629;" horiz-adv-x="582" arabic-form="isolated" 
d="M114 728q0 8 7 14t15 6h104q8 0 15.5 -6t7.5 -14v-103q0 -8 -7.5 -14t-15.5 -6h-104q-8 0 -15 6t-7 14v103zM326 728q0 8 7 14t15 6h104q8 0 15 -6t7 -14v-103q0 -8 -7 -14t-15 -6h-104q-8 0 -15 6t-7 14v103zM48 248q0 134 75 203.5t224 69.5q19 0 42 -1.5t45 -4t40 -6
t27 -7.5q11 -5 15 -9t4 -12v-287q0 -42 -1 -85t-6 -81q-2 -11 -7 -14.5t-16 -5.5q-32 -5 -66 -6.5t-73 -1.5h-22q-145 0 -213 60.5t-68 173.5v14zM219 259q0 -40 18.5 -61t60.5 -21h49v182q-8 1 -18.5 1h-19.5q-47 0 -68.5 -25.5t-21.5 -66.5v-9z" />
    <glyph glyph-name="TehMarbutaFin" unicode="&#x629;" horiz-adv-x="610" arabic-form="final" 
d="M46 260q0 134 76 202t225 68q19 0 42 -1t45 -3.5t40 -5.5t28 -6q11 -4 14.5 -9t3.5 -13v-270q0 -23 11 -30.5t33 -7.5h46v-184h-65q-17 0 -37 2t-41 7t-40.5 15t-34.5 27q-20 -15 -51.5 -22t-57.5 -7h-8q-112 0 -170.5 55t-58.5 169v14zM215 270q0 -40 17 -59t56 -19h10
q20 0 34.5 8t14.5 29v143q-8 1 -18 1h-18q-47 0 -71.5 -24t-24.5 -65v-14zM114 728q0 8 7 14t15 6h104q8 0 15.5 -6t7.5 -14v-103q0 -8 -7.5 -14t-15.5 -6h-104q-8 0 -15 6t-7 14v103zM326 728q0 8 7 14t15 6h104q8 0 15 -6t7 -14v-103q0 -8 -7 -14t-15 -6h-104q-8 0 -15 6
t-7 14v103z" />
    <glyph glyph-name="TehSep" unicode="&#x62a;" horiz-adv-x="1005" arabic-form="isolated" 
d="M311 631q0 8 7 14t15 6h104q8 0 15.5 -6t7.5 -14v-103q0 -8 -7.5 -14t-15.5 -6h-104q-8 0 -15 6t-7 14v103zM523 631q0 8 7 14t15 6h104q8 0 15 -6t7 -14v-103q0 -8 -7 -14t-15 -6h-104q-8 0 -15 6t-7 14v103zM723 184q18 0 25.5 4t7.5 25v45.5v57.5v64v65q0 8 5.5 13.5
t15.5 5.5h138q24 0 24 -19q2 -60 3 -104t1 -89q0 -42 -0.5 -74.5t-1 -57.5t-1.5 -44.5t-3 -35.5q-1 -9 -6 -16.5t-17 -10.5q-14 -3 -49.5 -5.5t-78.5 -4t-85.5 -2.5t-69.5 -1h-232q-105 0 -174 19.5t-109.5 56.5t-57 91t-16.5 123q0 29 3 57.5t10 63.5q2 9 6.5 14.5
t15.5 5.5h125q19 0 19 -19t-1.5 -37t-1.5 -32q0 -44 9.5 -74.5t32 -49.5t60 -27t94.5 -8h309z" />
    <glyph glyph-name="TehFin" unicode="&#x62a;" horiz-adv-x="1028" arabic-form="final" 
d="M312 631q0 8 7 14t15 6h104q8 0 15.5 -6t7.5 -14v-103q0 -8 -7.5 -14t-15.5 -6h-104q-8 0 -15 6t-7 14v103zM524 631q0 8 7 14t15 6h104q8 0 15 -6t7 -14v-103q0 -8 -7 -14t-15 -6h-104q-8 0 -15 6t-7 14v103zM717 184q16 0 28 4t12 26v230q0 8 6.5 14t15.5 6h143
q8 0 14.5 -6t6.5 -14v-252q6 -5 20 -6.5t24 -1.5h41v-184h-7q-17 0 -38 1t-43 4.5t-43.5 10.5t-38.5 19q-37 -24 -94.5 -29.5t-143.5 -5.5h-221q-105 0 -174 19.5t-109.5 56.5t-57 91t-16.5 123q0 29 3 57.5t10 63.5q2 9 6.5 14.5t15.5 5.5h125q19 0 19 -19t-1.5 -37
t-1.5 -32q0 -44 9.5 -74.5t32 -49.5t60 -27t94.5 -8h303z" />
    <glyph glyph-name="TehIni" unicode="&#x62a;" horiz-adv-x="325" arabic-form="initial" 
d="M-13 677q0 8 7 14t15 6h104q8 0 15.5 -6t7.5 -14v-103q0 -8 -7.5 -14t-15.5 -6h-104q-8 0 -15 6t-7 14v103zM199 677q0 8 7 14t15 6h104q8 0 15 -6t7 -14v-103q0 -8 -7 -14t-15 -6h-104q-8 0 -15 6t-7 14v103zM-40 174q0 4 11.5 7t19.5 3h52q18 0 25.5 4t7.5 25v46.5v59
v65.5t-1 66q0 7 5.5 13t15.5 6h139q13 0 18.5 -5.5t6.5 -13.5q2 -60 2.5 -106.5t0.5 -91.5v-74.5t-1 -57.5t-1.5 -44.5t-2.5 -35.5q-1 -9 -6 -16.5t-17 -10.5q-14 -3 -38.5 -5.5t-53 -4t-58.5 -2.5t-55 -1h-39q-8 0 -19.5 2.5t-11.5 7.5v164z" />
    <glyph glyph-name="TehMed" unicode="&#x62a;" horiz-adv-x="347" arabic-form="medial" 
d="M-40 174q0 4 11.5 7t19.5 3h46q16 0 28 4t12 26v230q0 8 6 14t16 6h143q8 0 14.5 -6t6.5 -14v-252q7 -5 21.5 -6.5t23.5 -1.5h39v-184h-13q-46 0 -90.5 6.5t-74.5 28.5q-15 -10 -34 -17t-40 -11t-42.5 -5.5t-40.5 -1.5h-21q-8 0 -19.5 2.5t-11.5 7.5v164zM-10 677
q0 8 7 14t15 6h104q8 0 15.5 -6t7.5 -14v-103q0 -8 -7.5 -14t-15.5 -6h-104q-8 0 -15 6t-7 14v103zM202 677q0 8 7 14t15 6h104q8 0 15 -6t7 -14v-103q0 -8 -7 -14t-15 -6h-104q-8 0 -15 6t-7 14v103z" />
    <glyph glyph-name="ThehSep" unicode="&#x62b;" horiz-adv-x="1005" arabic-form="isolated" 
d="M312 622q0 9 7 14.5t15 5.5h104q8 0 15.5 -5.5t7.5 -14.5v-95q0 -8 -7.5 -13.5t-15.5 -5.5h-104q-8 0 -15 5.5t-7 13.5v95zM524 622q0 9 7 14.5t15 5.5h104q8 0 15 -5.5t7 -14.5v-95q0 -8 -7 -13.5t-15 -5.5h-104q-8 0 -15 5.5t-7 13.5v95zM421 780q0 9 6.5 14.5
t14.5 5.5h104q9 0 15.5 -5.5t6.5 -14.5v-78q0 -9 -7 -14.5t-15 -5.5h-104q-8 0 -14.5 5.5t-6.5 14.5v78zM723 184q18 0 25.5 4t7.5 25v45.5v57.5v64v65q0 8 5.5 13.5t15.5 5.5h138q24 0 24 -19q2 -60 3 -104t1 -89q0 -42 -0.5 -74.5t-1 -57.5t-1.5 -44.5t-3 -35.5
q-1 -9 -6 -16.5t-17 -10.5q-14 -3 -49.5 -5.5t-78.5 -4t-85.5 -2.5t-69.5 -1h-232q-105 0 -174 19.5t-109.5 56.5t-57 91t-16.5 123q0 29 3 57.5t10 63.5q2 9 6.5 14.5t15.5 5.5h125q19 0 19 -19t-1.5 -37t-1.5 -32q0 -44 9.5 -74.5t32 -49.5t60 -27t94.5 -8h309z" />
    <glyph glyph-name="ThehFin" unicode="&#x62b;" horiz-adv-x="1028" arabic-form="final" 
d="M312 622q0 9 7 14.5t15 5.5h104q8 0 15.5 -5.5t7.5 -14.5v-95q0 -8 -7.5 -13.5t-15.5 -5.5h-104q-8 0 -15 5.5t-7 13.5v95zM524 622q0 9 7 14.5t15 5.5h104q8 0 15 -5.5t7 -14.5v-95q0 -8 -7 -13.5t-15 -5.5h-104q-8 0 -15 5.5t-7 13.5v95zM421 780q0 9 6.5 14.5
t14.5 5.5h104q9 0 15.5 -5.5t6.5 -14.5v-78q0 -9 -7 -14.5t-15 -5.5h-104q-8 0 -14.5 5.5t-6.5 14.5v78zM717 184q16 0 28 4t12 26v230q0 8 6.5 14t15.5 6h143q8 0 14.5 -6t6.5 -14v-252q6 -5 20 -6.5t24 -1.5h41v-184h-7q-17 0 -38 1t-43 4.5t-43.5 10.5t-38.5 19
q-37 -24 -94.5 -29.5t-143.5 -5.5h-221q-105 0 -174 19.5t-109.5 56.5t-57 91t-16.5 123q0 29 3 57.5t10 63.5q2 9 6.5 14.5t15.5 5.5h125q19 0 19 -19t-1.5 -37t-1.5 -32q0 -44 9.5 -74.5t32 -49.5t60 -27t94.5 -8h303z" />
    <glyph glyph-name="ThehIni" unicode="&#x62b;" horiz-adv-x="325" arabic-form="initial" 
d="M-13 668q0 9 7 14.5t15 5.5h104q8 0 15.5 -5.5t7.5 -14.5v-95q0 -8 -7.5 -13.5t-15.5 -5.5h-104q-8 0 -15 5.5t-7 13.5v95zM199 668q0 9 7 14.5t15 5.5h104q8 0 15 -5.5t7 -14.5v-95q0 -8 -7 -13.5t-15 -5.5h-104q-8 0 -15 5.5t-7 13.5v95zM96 826q0 9 6.5 14.5t14.5 5.5
h104q9 0 15.5 -5.5t6.5 -14.5v-78q0 -9 -7 -14.5t-15 -5.5h-104q-8 0 -14.5 5.5t-6.5 14.5v78zM-40 174q0 4 11.5 7t19.5 3h52q18 0 25.5 4t7.5 25v46.5v59v65.5t-1 66q0 7 5.5 13t15.5 6h139q13 0 18.5 -5.5t6.5 -13.5q2 -60 2.5 -106.5t0.5 -91.5v-74.5t-1 -57.5
t-1.5 -44.5t-2.5 -35.5q-1 -9 -6 -16.5t-17 -10.5q-14 -3 -38.5 -5.5t-53 -4t-58.5 -2.5t-55 -1h-39q-8 0 -19.5 2.5t-11.5 7.5v164z" />
    <glyph glyph-name="ThehMed" unicode="&#x62b;" horiz-adv-x="347" arabic-form="medial" 
d="M-40 174q0 4 11.5 7t19.5 3h46q16 0 28 4t12 26v230q0 8 6 14t16 6h143q8 0 14.5 -6t6.5 -14v-252q7 -5 21.5 -6.5t23.5 -1.5h39v-184h-13q-46 0 -90.5 6.5t-74.5 28.5q-15 -10 -34 -17t-40 -11t-42.5 -5.5t-40.5 -1.5h-21q-8 0 -19.5 2.5t-11.5 7.5v164zM-11 668
q0 9 7 14.5t15 5.5h104q8 0 15.5 -5.5t7.5 -14.5v-95q0 -8 -7.5 -13.5t-15.5 -5.5h-104q-8 0 -15 5.5t-7 13.5v95zM201 668q0 9 7 14.5t15 5.5h104q8 0 15 -5.5t7 -14.5v-95q0 -8 -7 -13.5t-15 -5.5h-104q-8 0 -15 5.5t-7 13.5v95zM98 826q0 9 6.5 14.5t14.5 5.5h104
q9 0 15.5 -5.5t6.5 -14.5v-78q0 -9 -7 -14.5t-15 -5.5h-104q-8 0 -14.5 5.5t-6.5 14.5v78z" />
    <glyph glyph-name="JeemSep" unicode="&#x62c;" horiz-adv-x="672" arabic-form="isolated" 
d="M51 15q0 37 3.5 76t8.5 63q4 20 24 22q6 0 20 0.5t31 1l34 1t28 0.5h212l-19 36l-14 26q-13 23 -31 45t-44.5 38.5t-61.5 26.5t-82 10q-14 0 -29.5 -0.5t-26.5 -0.5q-12 0 -16 4.5t-4 15.5v114q0 16 22 20q32 6 56.5 8.5t57.5 2.5q58 0 108 -13.5t94 -43.5t82 -77.5
t71 -115.5l13 -26q8 -17 18.5 -39.5t18.5 -38.5q7 -13 7 -38v-112q0 -9 -5.5 -15t-16.5 -6h-311h-31.5t-32.5 -1v-20q3 -41 17 -61t48 -23l5 -1q19 -2 19 -19v-114q0 -11 -6 -17.5t-16 -6.5h-7q-56 0 -101.5 16t-77 49.5t-48.5 86t-17 126.5zM373 -78q0 9 7 15t15 6h103
q9 0 15.5 -6t6.5 -15v-100q0 -8 -6.5 -14t-15.5 -6h-103q-8 0 -15 6t-7 14v100z" />
    <glyph glyph-name="JeemFin" unicode="&#x62c;" horiz-adv-x="661" arabic-form="final" 
d="M51 15q0 37 3.5 76t8.5 63q4 20 24 22q6 0 20 0.5t31 1l34 1t28 0.5h216l-17 34l-15 28q-12 23 -31 45t-46 38.5t-63 26.5t-83 10q-14 0 -30 -0.5t-27 -0.5q-12 0 -16 4.5t-4 15.5v114q0 16 22 20q32 6 56.5 8.5t57.5 2.5q118 0 206.5 -57.5t152.5 -189.5l15 -31
q6 -13 13.5 -27t12.5 -21q6 -9 12 -12t17 -3h12v-184h-362h-31.5t-32.5 -1v-20q3 -41 17 -61t48 -23l5 -1q19 -2 19 -19v-114q0 -11 -6 -17.5t-16 -6.5h-7q-56 0 -101.5 16t-77 49.5t-48.5 86t-17 126.5zM373 -78q0 9 7 15t15 6h103q9 0 15.5 -6t6.5 -15v-100q0 -8 -6.5 -14
t-15.5 -6h-103q-8 0 -15 6t-7 14v100z" />
    <glyph glyph-name="JeemIni" unicode="&#x62c;" horiz-adv-x="644" arabic-form="initial" 
d="M189 -105q0 9 6.5 15t14.5 6h109q9 0 16 -6t7 -15v-104q0 -8 -7 -13.5t-16 -5.5h-109q-8 0 -14.5 5.5t-6.5 13.5v104zM-40 173q0 5 11.5 8t19.5 3h391l-15 29l-15 28q-12 23 -31 45t-46 38.5t-63 26.5t-83 10q-13 0 -29.5 -0.5t-27.5 -0.5q-12 0 -16 4.5t-4 14.5v115
q0 16 22 20q32 6 57 8.5t57 2.5q118 0 206.5 -58t153.5 -192l13 -27q7 -14 17.5 -37.5t18.5 -39.5q7 -13 7 -38v-112q0 -9 -5.5 -15t-16.5 -6h-591q-8 0 -19.5 3t-11.5 7v163z" />
    <glyph glyph-name="JeemMed" unicode="&#x62c;" horiz-adv-x="630" arabic-form="medial" 
d="M-9 0q-8 0 -19.5 3t-11.5 7v163q0 5 11.5 8t19.5 3h391l-15 30l-14 27q-13 24 -32 45.5t-46 38t-63 26.5t-83 10q-13 0 -29.5 -0.5t-27.5 -0.5q-12 0 -16 4.5t-4 14.5v115q0 16 22 20q32 6 58 8.5t56 2.5q59 0 110.5 -14t96 -43.5t82.5 -76.5t70 -113l15 -30
q8 -16 15 -29.5t12 -20.5q6 -8 11 -11t15 -3h15v-184h-639zM189 -105q0 9 6.5 15t14.5 6h109q9 0 16 -6t7 -15v-104q0 -8 -7 -13.5t-16 -5.5h-109q-8 0 -14.5 5.5t-6.5 13.5v104z" />
    <glyph glyph-name="HahSep" unicode="&#x62d;" horiz-adv-x="671" arabic-form="isolated" 
d="M50 12q0 38 3.5 78t8.5 64q4 20 24 22q6 0 20 0.5t31 1l34 1t28 0.5h212l-19 36l-14 26q-13 23 -31 45t-44.5 38.5t-61.5 26.5t-82 10q-14 0 -29.5 -0.5t-26.5 -0.5q-12 0 -16 4.5t-4 15.5v114q0 16 22 20q32 6 56.5 8.5t57.5 2.5q58 0 108 -13.5t94 -43.5t82 -77.5
t71 -115.5l13 -26q8 -17 18.5 -39.5t18.5 -38.5q7 -13 7 -38v-112q0 -9 -5.5 -15t-16.5 -6h-311h-31.5t-32.5 -1q0 -4 0.5 -11t0.5 -11q3 -42 27 -62.5t66 -20.5h17q18 -2 18 -20v-113q0 -23 -22 -23q-2 -1 -11 -1h-11q-63 0 -113 15.5t-84.5 48.5t-53 85t-18.5 126z" />
    <glyph glyph-name="HahFin" unicode="&#x62d;" horiz-adv-x="660" arabic-form="final" 
d="M50 12q0 38 3.5 78t8.5 64q4 20 24 22q6 0 20 0.5t31 1l34 1t28 0.5h216l-17 34l-15 28q-12 23 -31 45t-46 38.5t-63 26.5t-83 10q-14 0 -30 -0.5t-27 -0.5q-12 0 -16 4.5t-4 15.5v114q0 16 22 20q32 6 56.5 8.5t57.5 2.5q118 0 206.5 -57.5t152.5 -189.5l15 -31
q6 -13 13.5 -27t12.5 -21q6 -9 12 -12t17 -3h12v-184h-362h-31.5t-32.5 -1q0 -4 0.5 -11t0.5 -11q3 -42 27 -62.5t66 -20.5h17q18 -2 18 -20v-113q0 -11 -6 -17t-15 -6q-2 -1 -12 -1h-12q-63 0 -113 15.5t-84.5 48.5t-52.5 85t-18 126z" />
    <glyph glyph-name="HahIni" unicode="&#x62d;" horiz-adv-x="644" arabic-form="initial" 
d="M-40 173q0 5 11.5 8t19.5 3h391l-15 29l-15 28q-12 23 -31 45t-46 38.5t-63 26.5t-83 10q-13 0 -29.5 -0.5t-27.5 -0.5q-12 0 -16 4.5t-4 14.5v115q0 16 22 20q32 6 57 8.5t57 2.5q118 0 206.5 -58t153.5 -192l13 -27q7 -14 17.5 -37.5t18.5 -39.5q7 -13 7 -38v-112
q0 -9 -5.5 -15t-16.5 -6h-591q-8 0 -19.5 3t-11.5 7v163z" />
    <glyph glyph-name="HahMed" unicode="&#x62d;" horiz-adv-x="630" arabic-form="medial" 
d="M-9 0q-8 0 -19.5 3t-11.5 7v163q0 5 11.5 8t19.5 3h391l-15 30l-14 27q-13 24 -32 45.5t-46 38t-63 26.5t-83 10q-13 0 -29.5 -0.5t-27.5 -0.5q-12 0 -16 4.5t-4 14.5v115q0 16 22 20q32 6 58 8.5t56 2.5q59 0 110.5 -14t96 -43.5t82.5 -76.5t70 -113l15 -30
q8 -16 15 -29.5t12 -20.5q6 -8 11 -11t15 -3h15v-184h-639z" />
    <glyph glyph-name="KhahSep" unicode="&#x62e;" horiz-adv-x="671" arabic-form="isolated" 
d="M50 12q0 38 3.5 78t8.5 64q4 20 24 22q6 0 20 0.5t31 1l34 1t28 0.5h212l-19 36l-14 26q-13 23 -31 45t-44.5 38.5t-61.5 26.5t-82 10q-14 0 -29.5 -0.5t-26.5 -0.5q-12 0 -16 4.5t-4 15.5v114q0 16 22 20q32 6 56.5 8.5t57.5 2.5q58 0 108 -13.5t94 -43.5t82 -77.5
t71 -115.5l13 -26q8 -17 18.5 -39.5t18.5 -38.5q7 -13 7 -38v-112q0 -9 -5.5 -15t-16.5 -6h-311h-31.5t-32.5 -1q0 -4 0.5 -11t0.5 -11q3 -42 27 -62.5t66 -20.5h17q18 -2 18 -20v-113q0 -23 -22 -23q-2 -1 -11 -1h-11q-63 0 -113 15.5t-84.5 48.5t-53 85t-18.5 126z
M207 731q0 8 6.5 14t15.5 6h114q8 0 14.5 -6t6.5 -14v-103q0 -8 -6.5 -14t-14.5 -6h-114q-9 0 -15.5 6t-6.5 14v103z" />
    <glyph glyph-name="KhahFin" unicode="&#x62e;" horiz-adv-x="660" arabic-form="final" 
d="M208 731q0 8 6.5 14t15.5 6h114q8 0 14.5 -6t6.5 -14v-103q0 -8 -6.5 -14t-14.5 -6h-114q-9 0 -15.5 6t-6.5 14v103zM50 12q0 38 3.5 78t8.5 64q4 20 24 22q6 0 20 0.5t31 1l34 1t28 0.5h216l-17 34l-15 28q-12 23 -31 45t-46 38.5t-63 26.5t-83 10q-14 0 -30 -0.5
t-27 -0.5q-12 0 -16 4.5t-4 15.5v114q0 16 22 20q32 6 56.5 8.5t57.5 2.5q118 0 206.5 -57.5t152.5 -189.5l15 -31q6 -13 13.5 -27t12.5 -21q6 -9 12 -12t17 -3h12v-184h-362h-31.5t-32.5 -1q0 -4 0.5 -11t0.5 -11q3 -42 27 -62.5t66 -20.5h17q18 -2 18 -20v-113
q0 -11 -6 -17t-15 -6q-2 -1 -12 -1h-12q-63 0 -113 15.5t-84.5 48.5t-52.5 85t-18 126z" />
    <glyph glyph-name="KhahIni" unicode="&#x62e;" horiz-adv-x="644" arabic-form="initial" 
d="M178 731q0 8 6.5 14t15.5 6h114q8 0 14.5 -6t6.5 -14v-103q0 -8 -6.5 -14t-14.5 -6h-114q-9 0 -15.5 6t-6.5 14v103zM-40 173q0 5 11.5 8t19.5 3h391l-15 29l-15 28q-12 23 -31 45t-46 38.5t-63 26.5t-83 10q-13 0 -29.5 -0.5t-27.5 -0.5q-12 0 -16 4.5t-4 14.5v115
q0 16 22 20q32 6 57 8.5t57 2.5q118 0 206.5 -58t153.5 -192l13 -27q7 -14 17.5 -37.5t18.5 -39.5q7 -13 7 -38v-112q0 -9 -5.5 -15t-16.5 -6h-591q-8 0 -19.5 3t-11.5 7v163z" />
    <glyph glyph-name="KhahMed" unicode="&#x62e;" horiz-adv-x="630" arabic-form="medial" 
d="M-9 0q-8 0 -19.5 3t-11.5 7v163q0 5 11.5 8t19.5 3h391l-15 30l-14 27q-13 24 -32 45.5t-46 38t-63 26.5t-83 10q-13 0 -29.5 -0.5t-27.5 -0.5q-12 0 -16 4.5t-4 14.5v115q0 16 22 20q32 6 58 8.5t56 2.5q59 0 110.5 -14t96 -43.5t82.5 -76.5t70 -113l15 -30
q8 -16 15 -29.5t12 -20.5q6 -8 11 -11t15 -3h15v-184h-639zM178 731q0 8 6.5 14t15.5 6h114q8 0 14.5 -6t6.5 -14v-103q0 -8 -6.5 -14t-14.5 -6h-114q-9 0 -15.5 6t-6.5 14v103z" />
    <glyph glyph-name="DalSep" unicode="&#x62f;" horiz-adv-x="543" arabic-form="isolated" 
d="M49 164q0 8 6 14t14 6h247l-3 52q-2 27 -9.5 50t-25.5 40t-48 27t-77 10h-9.5h-16.5t-17 -0.5t-11 -0.5q-17 0 -17 16v117q0 8 5.5 14.5t14.5 8.5q15 3 31 4.5t31.5 2t28.5 1t21 0.5q83 0 136 -26.5t84 -69t44.5 -95t16.5 -103.5q2 -24 2.5 -58.5t0.5 -72.5q0 -14 -1 -38
t-3 -44q0 -8 -5.5 -13.5t-17.5 -5.5h-402q-8 0 -14 5.5t-6 13.5v145z" />
    <glyph glyph-name="DalFin" unicode="&#x62f;" horiz-adv-x="553" arabic-form="final" 
d="M49 164q0 8 6 14t14 6h247l-3 52q-2 27 -9.5 50t-25 40t-47 27t-74.5 10h-10h-18t-18.5 -0.5t-11.5 -0.5q-17 0 -17 16v117q0 8 5.5 14.5t14.5 8.5q15 3 31 4.5t31.5 2t28.5 1t21 0.5q82 0 135 -26.5t84 -68.5t44.5 -94t16.5 -103l2 -50h57v-184h-484q-8 0 -14 5.5
t-6 13.5v145z" />
    <glyph glyph-name="ThalSep" unicode="&#x630;" horiz-adv-x="543" arabic-form="isolated" 
d="M49 164q0 8 6 14t14 6h247l-3 52q-2 27 -9.5 50t-25.5 40t-48 27t-77 10h-9.5h-16.5t-17 -0.5t-11 -0.5q-17 0 -17 16v117q0 8 5.5 14.5t14.5 8.5q15 3 31 4.5t31.5 2t28.5 1t21 0.5q83 0 136 -26.5t84 -69t44.5 -95t16.5 -103.5q2 -24 2.5 -58.5t0.5 -72.5q0 -14 -1 -38
t-3 -44q0 -8 -5.5 -13.5t-17.5 -5.5h-402q-8 0 -14 5.5t-6 13.5v145zM175 734q0 8 6.5 14t15.5 6h114q8 0 14.5 -6t6.5 -14v-103q0 -8 -6.5 -14t-14.5 -6h-114q-9 0 -15.5 6t-6.5 14v103z" />
    <glyph glyph-name="ThalFin" unicode="&#x630;" horiz-adv-x="553" arabic-form="final" 
d="M175 734q0 8 6.5 14t15.5 6h114q8 0 14.5 -6t6.5 -14v-103q0 -8 -6.5 -14t-14.5 -6h-114q-9 0 -15.5 6t-6.5 14v103zM49 164q0 8 6 14t14 6h247l-3 52q-2 27 -9.5 50t-25 40t-47 27t-74.5 10h-10h-18t-18.5 -0.5t-11.5 -0.5q-17 0 -17 16v117q0 8 5.5 14.5t14.5 8.5
q15 3 31 4.5t31.5 2t28.5 1t21 0.5q82 0 135 -26.5t84 -68.5t44.5 -94t16.5 -103l2 -50h57v-184h-484q-8 0 -14 5.5t-6 13.5v145z" />
    <glyph glyph-name="RehSep" unicode="&#x631;" horiz-adv-x="335" arabic-form="isolated" 
d="M-39 -107q0 19 19 19h19q23 0 39.5 2t27.5 9.5t16 22.5t5 42v454q0 8 6.5 14t15.5 6h143q8 0 14.5 -6t6.5 -14v-427q0 -45 -5 -85t-22 -78q-26 -54 -74 -76t-116 -22h-15.5t-22.5 1t-23.5 1.5t-19.5 2.5q-14 3 -14 21v113z" />
    <glyph glyph-name="RehFin" unicode="&#x631;" horiz-adv-x="357" arabic-form="final" 
d="M-39 -107q0 19 19 19h19q23 0 39.5 2t27.5 9.5t16 22.5t5 42v454q0 8 6.5 14t15.5 6h143q8 0 14.5 -6t6.5 -14v-258h84v-184h-89v-24q0 -77 -22 -124q-26 -54 -74 -76t-116 -22h-15.5t-22.5 1t-23.5 1.5t-19.5 2.5q-14 3 -14 21v113z" />
    <glyph glyph-name="ZainSep" unicode="&#x632;" horiz-adv-x="335" arabic-form="isolated" 
d="M-39 -107q0 19 19 19h19q23 0 39.5 2t27.5 9.5t16 22.5t5 42v454q0 8 6.5 14t15.5 6h143q8 0 14.5 -6t6.5 -14v-427q0 -45 -5 -85t-22 -78q-26 -54 -74 -76t-116 -22h-15.5t-22.5 1t-23.5 1.5t-19.5 2.5q-14 3 -14 21v113zM103 677q0 8 6.5 14t15.5 6h114q8 0 14.5 -6
t6.5 -14v-103q0 -8 -6.5 -14t-14.5 -6h-114q-9 0 -15.5 6t-6.5 14v103z" />
    <glyph glyph-name="ZainFin" unicode="&#x632;" horiz-adv-x="357" arabic-form="final" 
d="M-39 -107q0 19 19 19h19q23 0 39.5 2t27.5 9.5t16 22.5t5 42v454q0 8 6.5 14t15.5 6h143q8 0 14.5 -6t6.5 -14v-258h84v-184h-89v-24q0 -77 -22 -124q-26 -54 -74 -76t-116 -22h-15.5t-22.5 1t-23.5 1.5t-19.5 2.5q-14 3 -14 21v113zM103 677q0 8 6.5 14t15.5 6h114
q8 0 14.5 -6t6.5 -14v-103q0 -8 -6.5 -14t-14.5 -6h-114q-9 0 -15.5 6t-6.5 14v103z" />
    <glyph glyph-name="SeenSep" unicode="&#x633;" horiz-adv-x="1216" arabic-form="isolated" 
d="M202 327q19 0 19 -18q-2 -20 -2.5 -39t-0.5 -32q0 -60 5 -105.5t22.5 -75.5t50 -45t87.5 -15q11 0 20.5 0.5t27.5 3.5q2 42 2 80v79v241q0 9 6.5 15t15.5 6h141q9 0 15 -6t6 -15v-216q7 -5 19.5 -7t21.5 -2h9q16 0 27 4t11 25v231q0 8 7 14t15 6h134q9 0 15 -6t6 -14
v-251q7 -5 20 -7t25 -2h8q19 0 27 3.5t8 25.5v52t-0.5 70.5t-1 76t-0.5 70.5q0 7 5.5 13t15.5 6h136q22 0 24 -19q3 -63 4 -120t1 -102v-83q0 -33 -1 -62.5t-4 -62.5q-3 -20 -23 -27q-56 -15 -130 -15h-7q-18 0 -41.5 1t-48.5 4t-50 9.5t-44 18.5q-29 -20 -67 -26t-77 -6
h-13q-7 0 -14 0.5t-17 3.5q0 -37 -0.5 -73t-3.5 -69q-2 -21 -23 -25q-43 -11 -91.5 -18t-105.5 -7q-81 0 -146 16.5t-110.5 55t-70 102.5t-24.5 159q0 12 1 32t3 42t4.5 44.5t6.5 40.5q2 9 6.5 14.5t15.5 5.5h123z" />
    <glyph glyph-name="SeenFin" unicode="&#x633;" horiz-adv-x="1235" arabic-form="final" 
d="M202 327q19 0 19 -18q-2 -20 -2.5 -39t-0.5 -32q0 -60 5 -105.5t22.5 -75.5t50 -45t87.5 -15q11 0 21.5 0.5t26.5 3.5q2 42 2 80v79v241q0 9 7 15t15 6h141q9 0 15 -6t6 -15v-216q7 -5 20 -7t22 -2h8q16 0 27 4t11 25v231q0 8 7 14t15 6h134q9 0 15 -6t6 -14v-251
q7 -5 19 -7t24 -2h4q17 0 28.5 4t11.5 25v267q0 9 6.5 15t15.5 6h138q8 0 14.5 -6t6.5 -15v-280q7 -5 21 -6.5t24 -1.5h40v-184h-14q-17 0 -36.5 1.5t-40 5.5t-39.5 10.5t-35 17.5q-26 -20 -58.5 -27.5t-71.5 -7.5h-8q-35 0 -67.5 7.5t-60.5 27.5q-29 -20 -67.5 -26
t-77.5 -6h-13q-5 0 -12 0.5t-17 3.5q0 -36 -1 -73t-3 -69q-1 -19 -23 -25q-42 -11 -91 -18t-106 -7q-81 0 -146 16.5t-110.5 55t-70 102.5t-24.5 159q0 12 1 32t3 42t4.5 44.5t6.5 40.5q2 9 6.5 14.5t15.5 5.5h123z" />
    <glyph glyph-name="SeenIni" unicode="&#x633;" horiz-adv-x="833" arabic-form="initial" 
d="M-40 174q0 4 11.5 7t19.5 3h26q17 0 28 4t11 26v186q0 9 6.5 15t15.5 6h134q8 0 14.5 -6t6.5 -15v-215q7 -5 19.5 -7t22.5 -2h8q16 0 27.5 4t11.5 25v231q0 8 6.5 14t15.5 6h133q9 0 15.5 -6t6.5 -14v-251q6 -5 19 -7t24 -2h11q18 0 25.5 3.5t7.5 25.5v52v70.5t-0.5 76
t-1.5 70.5q0 7 5.5 13t16.5 6h136q23 0 23 -19q4 -63 5 -120t1 -102v-83q0 -33 -1 -62.5t-4 -62.5q-1 -10 -6 -16.5t-17 -10.5q-28 -8 -59 -11.5t-72 -3.5h-8q-18 0 -39 1t-43 4.5t-42.5 10t-37.5 17.5q-27 -20 -62.5 -27.5t-68.5 -7.5h-8q-45 0 -77.5 7t-64.5 28
q-28 -21 -68.5 -28t-78.5 -7h-23q-8 0 -19.5 2.5t-11.5 7.5v164z" />
    <glyph glyph-name="SeenMed" unicode="&#x633;" horiz-adv-x="860" arabic-form="medial" 
d="M-40 174q0 4 11.5 7t19.5 3h26q17 0 28 4t11 26v186q0 9 6.5 15t15.5 6h134q8 0 14.5 -6t6.5 -15v-215q7 -5 19.5 -7t22.5 -2h7q16 0 28 4.5t12 24.5v231q0 8 6.5 14t15.5 6h133q9 0 15.5 -6t6.5 -14v-251q6 -5 18 -7t23 -2h6q16 0 28 4.5t12 24.5v267q0 9 6.5 15t15.5 6
h141q9 0 15 -6t6 -15v-280q7 -5 25 -6.5t28 -1.5h37v-184h-14q-33 0 -78 7t-81 28q-30 -23 -63.5 -29t-71.5 -6h-7q-34 0 -64 7t-65 28q-29 -21 -59.5 -28t-69.5 -7h-7q-34 0 -63 6.5t-63 28.5q-15 -11 -33.5 -18t-37.5 -11t-37.5 -5t-34.5 -1h-20q-8 0 -19.5 2.5t-11.5 7.5
v164z" />
    <glyph glyph-name="SheenSep" unicode="&#x634;" horiz-adv-x="1216" arabic-form="isolated" 
d="M202 327q19 0 19 -18q-2 -20 -2.5 -39t-0.5 -32q0 -60 5 -105.5t22.5 -75.5t50 -45t87.5 -15q11 0 20.5 0.5t27.5 3.5q2 42 2 80v79v241q0 9 6.5 15t15.5 6h141q9 0 15 -6t6 -15v-216q7 -5 19.5 -7t21.5 -2h9q16 0 27 4t11 25v231q0 8 7 14t15 6h134q9 0 15 -6t6 -14
v-251q7 -5 20 -7t25 -2h8q19 0 27 3.5t8 25.5v52t-0.5 70.5t-1 76t-0.5 70.5q0 7 5.5 13t15.5 6h136q22 0 24 -19q3 -63 4 -120t1 -102v-83q0 -33 -1 -62.5t-4 -62.5q-3 -20 -23 -27q-56 -15 -130 -15h-7q-18 0 -41.5 1t-48.5 4t-50 9.5t-44 18.5q-29 -20 -67 -26t-77 -6
h-13q-7 0 -14 0.5t-17 3.5q0 -37 -0.5 -73t-3.5 -69q-2 -21 -23 -25q-43 -11 -91.5 -18t-105.5 -7q-81 0 -146 16.5t-110.5 55t-70 102.5t-24.5 159q0 12 1 32t3 42t4.5 44.5t6.5 40.5q2 9 6.5 14.5t15.5 5.5h123zM600 678q0 9 7 14.5t15 5.5h104q8 0 15.5 -5.5t7.5 -14.5
v-95q0 -8 -7.5 -13.5t-15.5 -5.5h-104q-8 0 -15 5.5t-7 13.5v95zM812 678q0 9 7 14.5t15 5.5h104q8 0 15 -5.5t7 -14.5v-95q0 -8 -7 -13.5t-15 -5.5h-104q-8 0 -15 5.5t-7 13.5v95zM709 836q0 9 6.5 14.5t14.5 5.5h104q9 0 15.5 -5.5t6.5 -14.5v-78q0 -9 -7 -14.5t-15 -5.5
h-104q-8 0 -14.5 5.5t-6.5 14.5v78z" />
    <glyph glyph-name="SheenFin" unicode="&#x634;" horiz-adv-x="1235" arabic-form="final" 
d="M598 678q0 9 7 14.5t15 5.5h104q8 0 15.5 -5.5t7.5 -14.5v-95q0 -8 -7.5 -13.5t-15.5 -5.5h-104q-8 0 -15 5.5t-7 13.5v95zM810 678q0 9 7 14.5t15 5.5h104q8 0 15 -5.5t7 -14.5v-95q0 -8 -7 -13.5t-15 -5.5h-104q-8 0 -15 5.5t-7 13.5v95zM707 836q0 9 6.5 14.5
t14.5 5.5h104q9 0 15.5 -5.5t6.5 -14.5v-78q0 -9 -7 -14.5t-15 -5.5h-104q-8 0 -14.5 5.5t-6.5 14.5v78zM202 327q19 0 19 -18q-2 -20 -2.5 -39t-0.5 -32q0 -60 5 -105.5t22.5 -75.5t50 -45t87.5 -15q11 0 21.5 0.5t26.5 3.5q2 42 2 80v79v241q0 9 7 15t15 6h141q9 0 15 -6
t6 -15v-216q7 -5 20 -7t22 -2h8q16 0 27 4t11 25v231q0 8 7 14t15 6h134q9 0 15 -6t6 -14v-251q7 -5 19 -7t24 -2h4q17 0 28.5 4t11.5 25v267q0 9 6.5 15t15.5 6h138q8 0 14.5 -6t6.5 -15v-280q7 -5 21 -6.5t24 -1.5h40v-184h-14q-17 0 -36.5 1.5t-40 5.5t-39.5 10.5
t-35 17.5q-26 -20 -58.5 -27.5t-71.5 -7.5h-8q-35 0 -67.5 7.5t-60.5 27.5q-29 -20 -67.5 -26t-77.5 -6h-13q-5 0 -12 0.5t-17 3.5q0 -36 -1 -73t-3 -69q-1 -19 -23 -25q-42 -11 -91 -18t-106 -7q-81 0 -146 16.5t-110.5 55t-70 102.5t-24.5 159q0 12 1 32t3 42t4.5 44.5
t6.5 40.5q2 9 6.5 14.5t15.5 5.5h123z" />
    <glyph glyph-name="SheenIni" unicode="&#x634;" horiz-adv-x="833" arabic-form="initial" 
d="M214 678q0 9 7 14.5t15 5.5h104q8 0 15.5 -5.5t7.5 -14.5v-95q0 -8 -7.5 -13.5t-15.5 -5.5h-104q-8 0 -15 5.5t-7 13.5v95zM426 678q0 9 7 14.5t15 5.5h104q8 0 15 -5.5t7 -14.5v-95q0 -8 -7 -13.5t-15 -5.5h-104q-8 0 -15 5.5t-7 13.5v95zM323 836q0 9 6.5 14.5
t14.5 5.5h104q9 0 15.5 -5.5t6.5 -14.5v-78q0 -9 -7 -14.5t-15 -5.5h-104q-8 0 -14.5 5.5t-6.5 14.5v78zM-40 174q0 4 11.5 7t19.5 3h26q17 0 28 4t11 26v186q0 9 6.5 15t15.5 6h134q8 0 14.5 -6t6.5 -15v-215q7 -5 19.5 -7t22.5 -2h8q16 0 27.5 4t11.5 25v231q0 8 6.5 14
t15.5 6h133q9 0 15.5 -6t6.5 -14v-251q6 -5 19 -7t24 -2h11q18 0 25.5 3.5t7.5 25.5v52v70.5t-0.5 76t-1.5 70.5q0 7 5.5 13t16.5 6h136q23 0 23 -19q4 -63 5 -120t1 -102v-83q0 -33 -1 -62.5t-4 -62.5q-1 -10 -6 -16.5t-17 -10.5q-28 -8 -59 -11.5t-72 -3.5h-8q-18 0 -39 1
t-43 4.5t-42.5 10t-37.5 17.5q-27 -20 -62.5 -27.5t-68.5 -7.5h-8q-45 0 -77.5 7t-64.5 28q-28 -21 -68.5 -28t-78.5 -7h-23q-8 0 -19.5 2.5t-11.5 7.5v164z" />
    <glyph glyph-name="SheenMed" unicode="&#x634;" horiz-adv-x="860" arabic-form="medial" 
d="M214 678q0 9 7 14.5t15 5.5h104q8 0 15.5 -5.5t7.5 -14.5v-95q0 -8 -7.5 -13.5t-15.5 -5.5h-104q-8 0 -15 5.5t-7 13.5v95zM426 678q0 9 7 14.5t15 5.5h104q8 0 15 -5.5t7 -14.5v-95q0 -8 -7 -13.5t-15 -5.5h-104q-8 0 -15 5.5t-7 13.5v95zM323 836q0 9 6.5 14.5
t14.5 5.5h104q9 0 15.5 -5.5t6.5 -14.5v-78q0 -9 -7 -14.5t-15 -5.5h-104q-8 0 -14.5 5.5t-6.5 14.5v78zM-40 174q0 4 11.5 7t19.5 3h26q17 0 28 4t11 26v186q0 9 6.5 15t15.5 6h134q8 0 14.5 -6t6.5 -15v-215q7 -5 19.5 -7t22.5 -2h7q16 0 28 4.5t12 24.5v231q0 8 6.5 14
t15.5 6h133q9 0 15.5 -6t6.5 -14v-251q6 -5 18 -7t23 -2h6q16 0 28 4.5t12 24.5v267q0 9 6.5 15t15.5 6h141q9 0 15 -6t6 -15v-280q7 -5 25 -6.5t28 -1.5h37v-184h-14q-33 0 -78 7t-81 28q-30 -23 -63.5 -29t-71.5 -6h-7q-34 0 -64 7t-65 28q-29 -21 -59.5 -28t-69.5 -7h-7
q-34 0 -63 6.5t-63 28.5q-15 -11 -33.5 -18t-37.5 -11t-37.5 -5t-34.5 -1h-20q-8 0 -19.5 2.5t-11.5 7.5v164z" />
    <glyph glyph-name="SadSep" unicode="&#x635;" horiz-adv-x="1207" arabic-form="isolated" 
d="M42 150q0 12 1 32t3 42t4.5 44.5t6.5 40.5q2 9 6.5 14.5t15.5 5.5h125q19 0 19 -19q-2 -19 -2.5 -41.5t-0.5 -35.5q0 -60 7 -104.5t25.5 -74t51 -43.5t84.5 -14q11 0 26 0.5t33 3.5q2 42 2 80v79v343q0 9 6.5 15t15.5 6h140q9 0 15 -6t6 -15v-31q25 18 55.5 28.5t60 16
t56 7.5t43.5 2q66 0 122 -14t97 -47.5t64 -88t23 -135.5v-40q0 -18 -1 -40t-2.5 -45t-3.5 -45t-5 -38q-1 -9 -6.5 -17.5t-18.5 -10.5q-15 -2 -49.5 -2.5t-73.5 -1.5t-76.5 -1h-59.5h-225q0 -35 -0.5 -68t-3.5 -66q-1 -19 -23 -25q-47 -12 -98.5 -19t-108.5 -7
q-80 0 -145.5 17t-112.5 56t-72.5 103t-25.5 159zM632 181q20 -1 49 -1.5t66 -0.5h196q11 0 17 7t6 30v16q0 63 -38 92t-132 29q-17 0 -39 -2t-44.5 -6.5t-43.5 -12t-37 -18.5v-133z" />
    <glyph glyph-name="SadFin" unicode="&#x635;" horiz-adv-x="1228" arabic-form="final" 
d="M42 149q0 13 1 32.5t3 42t4.5 45t6.5 40.5q2 9 6.5 14.5t15.5 5.5h125q19 0 19 -19q-2 -19 -2.5 -41.5t-0.5 -36.5q0 -60 7 -104t25.5 -73.5t51 -43.5t84.5 -14q11 0 26 0.5t33 3.5q2 42 2 80v79v343q0 9 6.5 15t15.5 6h140q9 0 15 -6t6 -15v-31q25 18 55.5 28.5t60 16
t56 7.5t43.5 2q66 0 122 -14t97 -47.5t64 -88t23 -135.5v-25q0 -5 -0.5 -17t-1.5 -15h77v-184h-596q0 -35 -0.5 -68t-3.5 -66q-1 -19 -23 -25q-47 -12 -98.5 -19t-108.5 -7q-80 0 -145.5 16.5t-112.5 55.5t-72.5 103t-25.5 159zM632 181q20 -1 49 -1.5t66 -0.5h196
q11 0 17 7.5t6 29.5v17q0 62 -38 91t-132 29q-17 0 -39 -2t-44.5 -6.5t-43.5 -12t-37 -18.5v-133z" />
    <glyph glyph-name="SadIni" unicode="&#x635;" horiz-adv-x="832" arabic-form="initial" 
d="M-40 173q0 5 11.5 8t19.5 3h83v319q0 9 6.5 15t15.5 6h140q9 0 15.5 -6t6.5 -15v-31q25 18 55.5 28.5t60 16t56 7.5t43.5 2q66 0 122 -14t97 -47.5t64 -88t23 -135.5v-40q0 -18 -1 -40t-2.5 -45t-3.5 -45t-5 -38q-2 -9 -7.5 -17.5t-18.5 -10.5q-15 -2 -49.5 -2.5
t-74 -1.5t-77 -1h-58.5h-491q-8 0 -19.5 2.5t-11.5 7.5v163zM258 181q20 -1 48.5 -1.5t65.5 -0.5h197q11 0 17 7t6 30v16q0 63 -38 92t-132 29q-18 0 -39.5 -2t-44 -6.5t-43.5 -12t-37 -18.5v-133z" />
    <glyph glyph-name="SadMed" unicode="&#x635;" horiz-adv-x="853" arabic-form="medial" 
d="M-40 173q0 5 11.5 8t19.5 3h83v319q0 9 6.5 15t15.5 6h140q9 0 15.5 -6t6.5 -15v-31q25 18 55.5 28.5t60 16t56 7.5t43.5 2q66 0 122 -14t97 -47.5t64 -88t23 -135.5v-25v-17t-2 -15h76v-184h-862q-8 0 -19.5 2.5t-11.5 7.5v163zM258 181q20 -1 48.5 -1.5t65.5 -0.5h197
q11 0 17 7.5t6 29.5v16q0 63 -38 92t-132 29q-18 0 -39.5 -2t-44 -6.5t-43.5 -12t-37 -18.5v-133z" />
    <glyph glyph-name="DadSep" unicode="&#x636;" horiz-adv-x="1207" arabic-form="isolated" 
d="M729 736q0 8 6.5 14t15.5 6h114q8 0 14.5 -6t6.5 -14v-103q0 -8 -6.5 -14t-14.5 -6h-114q-9 0 -15.5 6t-6.5 14v103zM42 150q0 12 1 32t3 42t4.5 44.5t6.5 40.5q2 9 6.5 14.5t15.5 5.5h125q19 0 19 -19q-2 -19 -2.5 -41.5t-0.5 -35.5q0 -60 7 -104.5t25.5 -74t51 -43.5
t84.5 -14q11 0 26 0.5t33 3.5q2 42 2 80v79v343q0 9 6.5 15t15.5 6h140q9 0 15 -6t6 -15v-31q25 18 55.5 28.5t60 16t56 7.5t43.5 2q66 0 122 -14t97 -47.5t64 -88t23 -135.5v-40q0 -18 -1 -40t-2.5 -45t-3.5 -45t-5 -38q-1 -9 -6.5 -17.5t-18.5 -10.5q-15 -2 -49.5 -2.5
t-73.5 -1.5t-76.5 -1h-59.5h-225q0 -35 -0.5 -68t-3.5 -66q-1 -19 -23 -25q-47 -12 -98.5 -19t-108.5 -7q-80 0 -145.5 17t-112.5 56t-72.5 103t-25.5 159zM632 181q20 -1 49 -1.5t66 -0.5h196q11 0 17 7t6 30v16q0 63 -38 92t-132 29q-17 0 -39 -2t-44.5 -6.5t-43.5 -12
t-37 -18.5v-133z" />
    <glyph glyph-name="DadFin" unicode="&#x636;" horiz-adv-x="1228" arabic-form="final" 
d="M729 736q0 8 6.5 14t15.5 6h114q8 0 14.5 -6t6.5 -14v-103q0 -8 -6.5 -14t-14.5 -6h-114q-9 0 -15.5 6t-6.5 14v103zM42 149q0 13 1 32.5t3 42t4.5 45t6.5 40.5q2 9 6.5 14.5t15.5 5.5h125q19 0 19 -19q-2 -19 -2.5 -41.5t-0.5 -36.5q0 -60 7 -104t25.5 -73.5t51 -43.5
t84.5 -14q11 0 26 0.5t33 3.5q2 42 2 80v79v343q0 9 6.5 15t15.5 6h140q9 0 15 -6t6 -15v-31q25 18 55.5 28.5t60 16t56 7.5t43.5 2q66 0 122 -14t97 -47.5t64 -88t23 -135.5v-25q0 -5 -0.5 -17t-1.5 -15h77v-184h-596q0 -35 -0.5 -68t-3.5 -66q-1 -19 -23 -25
q-47 -12 -98.5 -19t-108.5 -7q-80 0 -145.5 16.5t-112.5 55.5t-72.5 103t-25.5 159zM632 181q20 -1 49 -1.5t66 -0.5h196q11 0 17 7.5t6 29.5v17q0 62 -38 91t-132 29q-17 0 -39 -2t-44.5 -6.5t-43.5 -12t-37 -18.5v-133z" />
    <glyph glyph-name="DadIni" unicode="&#x636;" horiz-adv-x="832" arabic-form="initial" 
d="M362 736q0 8 6.5 14t15.5 6h114q8 0 14.5 -6t6.5 -14v-103q0 -8 -6.5 -14t-14.5 -6h-114q-9 0 -15.5 6t-6.5 14v103zM-40 173q0 5 11.5 8t19.5 3h83v319q0 9 6.5 15t15.5 6h140q9 0 15.5 -6t6.5 -15v-31q25 18 55.5 28.5t60 16t56 7.5t43.5 2q66 0 122 -14t97 -47.5
t64 -88t23 -135.5v-40q0 -18 -1 -40t-2.5 -45t-3.5 -45t-5 -38q-2 -9 -7.5 -17.5t-18.5 -10.5q-15 -2 -49.5 -2.5t-74 -1.5t-77 -1h-58.5h-491q-8 0 -19.5 2.5t-11.5 7.5v163zM258 181q20 -1 48.5 -1.5t65.5 -0.5h197q11 0 17 7t6 30v16q0 63 -38 92t-132 29q-18 0 -39.5 -2
t-44 -6.5t-43.5 -12t-37 -18.5v-133z" />
    <glyph glyph-name="DadMed" unicode="&#x636;" horiz-adv-x="853" arabic-form="medial" 
d="M-40 173q0 5 11.5 8t19.5 3h83v319q0 9 6.5 15t15.5 6h140q9 0 15.5 -6t6.5 -15v-31q25 18 55.5 28.5t60 16t56 7.5t43.5 2q66 0 122 -14t97 -47.5t64 -88t23 -135.5v-25v-17t-2 -15h76v-184h-862q-8 0 -19.5 2.5t-11.5 7.5v163zM258 181q20 -1 48.5 -1.5t65.5 -0.5h197
q11 0 17 7.5t6 29.5v16q0 63 -38 92t-132 29q-18 0 -39.5 -2t-44 -6.5t-43.5 -12t-37 -18.5v-133zM362 736q0 8 6.5 14t15.5 6h114q8 0 14.5 -6t6.5 -14v-103q0 -8 -6.5 -14t-14.5 -6h-114q-9 0 -15.5 6t-6.5 14v103z" />
    <glyph glyph-name="TahSep" unicode="&#x637;" horiz-adv-x="934" arabic-form="isolated" 
d="M48 164q0 8 6 14t14 6h105v568q0 9 6.5 15t15.5 6h145q9 0 15 -6t6 -15v-271q25 16 55.5 25t60 13.5t56 5.5t43.5 1q65 0 121 -14t96.5 -47.5t63.5 -88t23 -135.5v-40q0 -18 -0.5 -40t-2 -45t-3.5 -45t-5 -38q-2 -9 -7.5 -17.5t-18.5 -10.5q-15 -2 -49 -2.5t-73.5 -1.5
t-77 -1h-59.5h-516q-8 0 -14 5.5t-6 13.5v145zM671 179q11 0 17 7t6 30v15q0 64 -37.5 93t-131.5 29q-17 0 -39 -1t-44.5 -4t-44 -9.5t-36.5 -16.5v-141q20 -1 48.5 -1.5t65.5 -0.5h196z" />
    <glyph glyph-name="TahFin" unicode="&#x637;" horiz-adv-x="956" arabic-form="final" 
d="M48 164q0 8 6 14t14 6h105v568q0 9 6.5 15t15.5 6h145q9 0 15 -6t6 -15v-271q25 16 55.5 25t60 13.5t56 5.5t43.5 1q65 0 121 -14t96.5 -46.5t63.5 -85.5t23 -131v-34v-16.5t-2 -14.5h78v-184h-888q-8 0 -14 5.5t-6 13.5v145zM671 179q11 0 17 7.5t6 29.5v14
q0 65 -37.5 94t-131.5 29q-17 0 -39 -1t-44.5 -4t-44 -9.5t-36.5 -16.5v-141q20 -1 44.5 -1.5t60.5 -0.5h205z" />
    <glyph glyph-name="TahIni" unicode="&#x637;" horiz-adv-x="846" arabic-form="initial" 
d="M-40 173q0 5 11.5 8t19.5 3h95v568q0 9 6.5 15t14.5 6h145q9 0 15.5 -6t6.5 -15v-271q25 16 55.5 25t60 13.5t56 5.5t43.5 1q65 0 120.5 -14t96 -47.5t63.5 -88t23 -135.5v-40q0 -18 -0.5 -40t-2 -45t-3.5 -45t-5 -38q-2 -9 -7.5 -17.5t-18.5 -10.5q-15 -2 -49.5 -2.5
t-74 -1.5t-77 -1h-58.5h-505q-8 0 -19.5 2.5t-11.5 7.5v163zM584 179q11 0 17 7t6 30v15q0 64 -37.5 93t-131.5 29q-18 0 -40 -1t-44.5 -4t-43.5 -9.5t-36 -16.5v-141q20 -1 48 -1.5t65 -0.5h197z" />
    <glyph glyph-name="TahMed" unicode="&#x637;" horiz-adv-x="868" arabic-form="medial" 
d="M-40 173q0 5 11.5 8t19.5 3h95v568q0 9 7 15t15 6h144q9 0 15.5 -6t6.5 -15v-271q25 16 55.5 25t60 13.5t56 5.5t43.5 1q65 0 121 -14t96.5 -47.5t63.5 -88t23 -135.5v-25v-17t-2 -15h77v-184h-877q-8 0 -19.5 2.5t-11.5 7.5v163zM584 179q11 0 17 7.5t6 29.5v15
q0 64 -37.5 93t-131.5 29q-18 0 -40 -1t-44.5 -4t-43.5 -9.5t-36 -16.5v-141q20 -1 44 -1.5t61 -0.5h205z" />
    <glyph glyph-name="ZahSep" unicode="&#x638;" horiz-adv-x="934" arabic-form="isolated" 
d="M484 736q0 8 6.5 14t15.5 6h114q8 0 14.5 -6t6.5 -14v-103q0 -8 -6.5 -14t-14.5 -6h-114q-9 0 -15.5 6t-6.5 14v103zM48 164q0 8 6 14t14 6h105v568q0 9 6.5 15t15.5 6h145q9 0 15 -6t6 -15v-271q25 16 55.5 25t60 13.5t56 5.5t43.5 1q65 0 121 -14t96.5 -47.5t63.5 -88
t23 -135.5v-40q0 -18 -0.5 -40t-2 -45t-3.5 -45t-5 -38q-2 -9 -7.5 -17.5t-18.5 -10.5q-15 -2 -49 -2.5t-73.5 -1.5t-77 -1h-59.5h-516q-8 0 -14 5.5t-6 13.5v145zM671 179q11 0 17 7t6 30v15q0 64 -37.5 93t-131.5 29q-17 0 -39 -1t-44.5 -4t-44 -9.5t-36.5 -16.5v-141
q20 -1 48.5 -1.5t65.5 -0.5h196z" />
    <glyph glyph-name="ZahFin" unicode="&#x638;" horiz-adv-x="956" arabic-form="final" 
d="M48 164q0 8 6 14t14 6h105v568q0 9 6.5 15t15.5 6h145q9 0 15 -6t6 -15v-271q25 16 55.5 25t60 13.5t56 5.5t43.5 1q65 0 121 -14t96.5 -46.5t63.5 -85.5t23 -131v-34v-16.5t-2 -14.5h78v-184h-888q-8 0 -14 5.5t-6 13.5v145zM671 179q11 0 17 7.5t6 29.5v14
q0 65 -37.5 94t-131.5 29q-17 0 -39 -1t-44.5 -4t-44 -9.5t-36.5 -16.5v-141q20 -1 44.5 -1.5t60.5 -0.5h205zM484 736q0 8 6.5 14t15.5 6h114q8 0 14.5 -6t6.5 -14v-103q0 -8 -6.5 -14t-14.5 -6h-114q-9 0 -15.5 6t-6.5 14v103z" />
    <glyph glyph-name="ZahIni" unicode="&#x638;" horiz-adv-x="846" arabic-form="initial" 
d="M-40 173q0 5 11.5 8t19.5 3h95v568q0 9 6.5 15t14.5 6h145q9 0 15.5 -6t6.5 -15v-271q25 16 55.5 25t60 13.5t56 5.5t43.5 1q65 0 120.5 -14t96 -47.5t63.5 -88t23 -135.5v-40q0 -18 -0.5 -40t-2 -45t-3.5 -45t-5 -38q-2 -9 -7.5 -17.5t-18.5 -10.5q-15 -2 -49.5 -2.5
t-74 -1.5t-77 -1h-58.5h-505q-8 0 -19.5 2.5t-11.5 7.5v163zM584 179q11 0 17 7t6 30v15q0 64 -37.5 93t-131.5 29q-18 0 -40 -1t-44.5 -4t-43.5 -9.5t-36 -16.5v-141q20 -1 48 -1.5t65 -0.5h197zM397 736q0 8 6.5 14t15.5 6h114q8 0 14.5 -6t6.5 -14v-103q0 -8 -6.5 -14
t-14.5 -6h-114q-9 0 -15.5 6t-6.5 14v103z" />
    <glyph glyph-name="ZahMed" unicode="&#x638;" horiz-adv-x="868" arabic-form="medial" 
d="M397 736q0 8 6.5 14t15.5 6h114q8 0 14.5 -6t6.5 -14v-103q0 -8 -6.5 -14t-14.5 -6h-114q-9 0 -15.5 6t-6.5 14v103zM-40 173q0 5 11.5 8t19.5 3h95v568q0 9 7 15t15 6h144q9 0 15.5 -6t6.5 -15v-271q25 16 55.5 25t60 13.5t56 5.5t43.5 1q65 0 121 -14t96.5 -47.5
t63.5 -88t23 -135.5v-25v-17t-2 -15h77v-184h-877q-8 0 -19.5 2.5t-11.5 7.5v163zM584 179q11 0 17 7.5t6 29.5v15q0 64 -37.5 93t-131.5 29q-18 0 -40 -1t-44.5 -4t-43.5 -9.5t-36 -16.5v-141q20 -1 44 -1.5t61 -0.5h205z" />
    <glyph glyph-name="AinSep" unicode="&#x639;" horiz-adv-x="641" arabic-form="isolated" 
d="M371 -239q0 -23 -22 -23q-4 -1 -11.5 -1h-9.5q-133 0 -204.5 64t-71.5 211q0 38 3 75t7 64q3 21 24 21q1 0 11.5 0.5t24 1t25 0.5h13.5q-11 22 -18.5 51t-7.5 58v21q0 64 24.5 106.5t64 68t90.5 36.5t105 11q37 0 67.5 -3t64.5 -10q11 -2 17.5 -6.5t6.5 -13.5v-113
q0 -11 -4.5 -16t-16.5 -4q-29 2 -53.5 2.5t-53.5 0.5q-66 0 -97 -19t-31 -68v-10q0 -31 12.5 -53t27.5 -29h213q9 0 14.5 -6t5.5 -14v-144q0 -8 -5.5 -14t-14.5 -6h-271h-31.5t-32.5 -1v-22q8 -81 99 -81h15q9 0 15 -6t6 -14v-115z" />
    <glyph glyph-name="AinFin" unicode="&#x639;" horiz-adv-x="715" arabic-form="final" 
d="M350 -104q9 0 15 -6t6 -14v-115q0 -23 -22 -23q-4 -1 -11.5 -1h-9.5q-132 0 -204 64t-72 211q0 38 3 77.5t7 66.5q3 20 24 22q14 1 33 1h39h13l-47 137q-5 6 -6 19t0 21l4 79q1 8 7.5 15t15.5 14q20 14 48 26t59 20.5t63 13.5t60 5q52 0 99.5 -9.5t84 -33.5t58 -64.5
t21.5 -101.5v-27q0 -14 -2.5 -29.5t-6.5 -30.5t-9.5 -27.5t-11.5 -21.5h107v-184h-415h-31.5t-32.5 -1v-22q8 -81 99 -81h15zM391 179q20 1 33.5 11t22 24t12 31.5t3.5 35.5v10q0 38 -21.5 59t-64.5 21q-18 0 -43.5 -2.5t-43.5 -13.5l61 -176h41z" />
    <glyph glyph-name="AinIni" unicode="&#x639;" horiz-adv-x="544" arabic-form="initial" 
d="M-40 173q0 5 11.5 8t19.5 3h76q-10 17 -15.5 48t-5.5 60v12q0 63 23 106t61.5 68.5t87.5 36.5t101 11q37 0 68 -3t66 -10q11 -2 17 -6.5t6 -13.5v-113q0 -11 -4 -16t-16 -4q-29 2 -52.5 2.5t-53.5 0.5q-63 0 -93 -19.5t-30 -67.5v-10q0 -26 10 -50.5t25 -31.5h212
q9 0 14.5 -6t5.5 -14v-145q0 -19 -20 -19h-483q-8 0 -19.5 2.5t-11.5 7.5v163z" />
    <glyph glyph-name="AinMed" unicode="&#x639;" horiz-adv-x="635" arabic-form="medial" 
d="M-40 173q0 5 11.5 8t19.5 3h110l-47 132q-5 6 -6 19t0 21l4 79q1 9 7.5 15.5t15.5 13.5q20 14 48 26t59 20.5t63 13.5t60 5q52 0 99.5 -9.5t84 -33.5t58 -64.5t21.5 -101.5v-26q0 -14 -2 -29.5t-6 -30.5t-9.5 -28t-12.5 -22h97v-184h-644q-8 0 -19.5 2.5t-11.5 7.5v163z
M322 179q19 1 32 10.5t21.5 24t12.5 32t4 35.5v10q0 42 -23 61t-64 19q-17 0 -42.5 -3t-43.5 -13l62 -176h41z" />
    <glyph glyph-name="GhainSep" unicode="&#x63a;" horiz-adv-x="641" arabic-form="isolated" 
d="M371 -239q0 -23 -22 -23q-4 -1 -11.5 -1h-9.5q-133 0 -204.5 64t-71.5 211q0 38 3 75t7 64q3 21 24 21q1 0 11.5 0.5t24 1t25 0.5h13.5q-11 22 -18.5 51t-7.5 58v21q0 64 24.5 106.5t64 68t90.5 36.5t105 11q37 0 67.5 -3t64.5 -10q11 -2 17.5 -6.5t6.5 -13.5v-113
q0 -11 -4.5 -16t-16.5 -4q-29 2 -53.5 2.5t-53.5 0.5q-66 0 -97 -19t-31 -68v-10q0 -31 12.5 -53t27.5 -29h213q9 0 14.5 -6t5.5 -14v-144q0 -8 -5.5 -14t-14.5 -6h-271h-31.5t-32.5 -1v-22q8 -81 99 -81h15q9 0 15 -6t6 -14v-115zM300 736q0 8 6.5 14t15.5 6h114
q8 0 14.5 -6t6.5 -14v-103q0 -8 -6.5 -14t-14.5 -6h-114q-9 0 -15.5 6t-6.5 14v103z" />
    <glyph glyph-name="GhainFin" unicode="&#x63a;" horiz-adv-x="715" arabic-form="final" 
d="M350 -104q9 0 15 -6t6 -14v-115q0 -23 -22 -23q-4 -1 -11.5 -1h-9.5q-132 0 -204 64t-72 211q0 38 3 77.5t7 66.5q3 20 24 22q14 1 33 1h39h13l-47 137q-5 6 -6 19t0 21l4 79q1 8 7.5 15t15.5 14q20 14 48 26t59 20.5t63 13.5t60 5q52 0 99.5 -9.5t84 -33.5t58 -64.5
t21.5 -101.5v-27q0 -14 -2.5 -29.5t-6.5 -30.5t-9.5 -27.5t-11.5 -21.5h107v-184h-415h-31.5t-32.5 -1v-22q8 -81 99 -81h15zM391 179q20 1 33.5 11t22 24t12 31.5t3.5 35.5v10q0 38 -21.5 59t-64.5 21q-18 0 -43.5 -2.5t-43.5 -13.5l61 -176h41zM295 736q0 8 6.5 14t15.5 6
h114q8 0 14.5 -6t6.5 -14v-103q0 -8 -6.5 -14t-14.5 -6h-114q-9 0 -15.5 6t-6.5 14v103z" />
    <glyph glyph-name="GhainIni" unicode="&#x63a;" horiz-adv-x="544" arabic-form="initial" 
d="M-40 173q0 5 11.5 8t19.5 3h76q-10 17 -15.5 48t-5.5 60v12q0 63 23 106t61.5 68.5t87.5 36.5t101 11q37 0 68 -3t66 -10q11 -2 17 -6.5t6 -13.5v-113q0 -11 -4 -16t-16 -4q-29 2 -52.5 2.5t-53.5 0.5q-63 0 -93 -19.5t-30 -67.5v-10q0 -26 10 -50.5t25 -31.5h212
q9 0 14.5 -6t5.5 -14v-145q0 -19 -20 -19h-483q-8 0 -19.5 2.5t-11.5 7.5v163zM208 736q0 8 6.5 14t15.5 6h114q8 0 14.5 -6t6.5 -14v-103q0 -8 -6.5 -14t-14.5 -6h-114q-9 0 -15.5 6t-6.5 14v103z" />
    <glyph glyph-name="GhainMed" unicode="&#x63a;" horiz-adv-x="635" arabic-form="medial" 
d="M225 736q0 8 6.5 14t15.5 6h114q8 0 14.5 -6t6.5 -14v-103q0 -8 -6.5 -14t-14.5 -6h-114q-9 0 -15.5 6t-6.5 14v103zM-40 173q0 5 11.5 8t19.5 3h110l-47 132q-5 6 -6 19t0 21l4 79q1 9 7.5 15.5t15.5 13.5q20 14 48 26t59 20.5t63 13.5t60 5q52 0 99.5 -9.5t84 -33.5
t58 -64.5t21.5 -101.5v-26q0 -14 -2 -29.5t-6 -30.5t-9.5 -28t-12.5 -22h97v-184h-644q-8 0 -19.5 2.5t-11.5 7.5v163zM322 179q19 1 32 10.5t21.5 24t12.5 32t4 35.5v10q0 42 -23 61t-64 19q-17 0 -42.5 -3t-43.5 -13l62 -176h41z" />
    <glyph glyph-name="FehSep" unicode="&#x641;" horiz-adv-x="1119" arabic-form="isolated" 
d="M597 184q-24 30 -24 97v15q0 61 21 105.5t59.5 73.5t91.5 42.5t117 13.5q21 0 47.5 -1.5t51 -4.5t45.5 -6t32 -6q12 -4 15.5 -9t3.5 -13v-273q0 -19 -0.5 -43t-1 -49.5t-2 -52t-3.5 -50.5q-1 -10 -7.5 -14t-16.5 -5q-44 -2 -86 -3t-80 -1h-460q-104 0 -173 19t-110 56
t-58 91t-17 124q0 29 3 58t11 62q2 10 6 15.5t15 5.5h124q8 0 14 -5t5 -14q0 -19 -0.5 -37t-0.5 -32q0 -45 9.5 -75.5t32 -49t60.5 -26.5t94 -8h182zM749 271q0 -46 17.5 -69t60.5 -23h10h15.5t15.5 0.5t10 0.5v192q-9 1 -20 1.5t-19 0.5q-46 0 -68 -23t-22 -65v-15z
M744 736q0 8 6.5 14t15.5 6h114q8 0 14.5 -6t6.5 -14v-103q0 -8 -6.5 -14t-14.5 -6h-114q-9 0 -15.5 6t-6.5 14v103z" />
    <glyph glyph-name="FehFin" unicode="&#x641;" horiz-adv-x="1139" arabic-form="final" 
d="M597 184q-24 30 -24 96v15q0 61 21 106t59.5 73.5t91.5 42.5t117 14q21 0 47 -1.5t50.5 -4.5t44.5 -6t31 -6q12 -4 15.5 -9.5t3.5 -13.5v-306h85v-184h-737q-105 0 -174.5 19t-110.5 56t-58 91t-17 124q0 29 3 57.5t11 62.5q2 10 6 15.5t15 5.5h124q8 0 14 -5t5 -14
q0 -19 -0.5 -37t-0.5 -32q0 -45 9.5 -75.5t32.5 -49t60.5 -26.5t94.5 -8h181zM878 179v193q-9 1 -20 1.5t-19 0.5q-90 0 -90 -88v-14q0 -46 17.5 -69.5t60.5 -23.5h51zM744 736q0 8 6.5 14t15.5 6h114q8 0 14.5 -6t6.5 -14v-103q0 -8 -6.5 -14t-14.5 -6h-114q-9 0 -15.5 6
t-6.5 14v103z" />
    <glyph glyph-name="FehIni" unicode="&#x641;" horiz-adv-x="603" arabic-form="initial" 
d="M233 270q0 -45 17.5 -68t58.5 -23h10.5h16.5t16.5 0.5t9.5 0.5v192q-8 1 -19.5 1.5t-20.5 0.5q-45 0 -67 -22.5t-22 -64.5v-17zM-40 174q0 4 11.5 7t19.5 3h90q-24 30 -24 95v16q0 62 21 106.5t59.5 73.5t91.5 42.5t117 13.5q21 0 47.5 -1.5t51 -4.5t45.5 -6t32 -6
q12 -4 15.5 -9.5t3.5 -13.5v-272q0 -19 -0.5 -43t-1 -49.5t-2 -52t-3.5 -50.5q-1 -10 -7.5 -14t-16.5 -5q-44 -2 -83.5 -3t-81.5 -1h-354q-8 0 -19.5 2.5t-11.5 7.5v164zM228 736q0 8 6.5 14t15.5 6h114q8 0 14.5 -6t6.5 -14v-103q0 -8 -6.5 -14t-14.5 -6h-114q-9 0 -15.5 6
t-6.5 14v103z" />
    <glyph glyph-name="FehMed" unicode="&#x641;" horiz-adv-x="623" arabic-form="medial" 
d="M228 736q0 8 6.5 14t15.5 6h114q8 0 14.5 -6t6.5 -14v-103q0 -8 -6.5 -14t-14.5 -6h-114q-9 0 -15.5 6t-6.5 14v103zM-40 174q0 4 11.5 7t19.5 3h90q-11 14 -17.5 38.5t-6.5 56.5v16q0 62 21 106.5t59.5 73.5t91.5 42.5t117 13.5q21 0 47 -1.5t50 -4.5t44.5 -6t31.5 -6
q12 -4 15.5 -9.5t3.5 -13.5v-306h85v-184h-632q-8 0 -19.5 2.5t-11.5 7.5v164zM362 179v193q-8 1 -19.5 1.5t-19.5 0.5q-90 0 -90 -88v-16q0 -45 17.5 -68t58.5 -23h53z" />
    <glyph glyph-name="QafSep" unicode="&#x642;" horiz-adv-x="830" arabic-form="isolated" 
d="M351 728q0 8 7 14t15 6h104q8 0 15.5 -6t7.5 -14v-103q0 -8 -7.5 -14t-15.5 -6h-104q-8 0 -15 6t-7 14v103zM563 728q0 8 7 14t15 6h104q8 0 15 -6t7 -14v-103q0 -8 -7 -14t-15 -6h-104q-8 0 -15 6t-7 14v103zM39 82q0 26 3 64.5t10 76.5q2 9 6.5 14.5t15.5 5.5h122
q20 0 20 -19q-2 -20 -2 -41.5v-35.5q0 -60 12 -102.5t39.5 -70t72.5 -40t111 -12.5h23t43.5 0.5t44 1t23.5 0.5v87q-4 -3 -14.5 -5t-23.5 -3.5t-25 -2t-18 -0.5q-98 0 -156 59.5t-58 171.5v15q0 137 75.5 206t223.5 69q19 0 43.5 -1.5t48 -4t42.5 -6t28 -7.5q11 -5 15 -9
t4 -12v-456q0 -24 -0.5 -56.5t-1 -67t-1.5 -66.5t-2 -54q0 -20 -22 -23q-29 -4 -63.5 -7t-71 -4.5t-74 -2t-72.5 -0.5q-96 0 -174 17.5t-133 57t-84.5 104t-29.5 159.5zM588 359q-8 1 -18.5 1h-20.5q-46 0 -68 -25.5t-22 -66.5v-9q0 -40 19 -61t63 -21q47 0 47 22v160z" />
    <glyph glyph-name="QafFin" unicode="&#x642;" horiz-adv-x="851" arabic-form="final" 
d="M39 82q0 26 3 64.5t10 76.5q3 20 22 20h123q19 0 19 -19q-2 -20 -2 -42v-35q0 -60 12 -103t40 -70t72.5 -39.5t110.5 -12.5h23t43.5 0.5t44 1t23.5 0.5v76h-52q-116 0 -180 60t-64 174v14q0 134 76 203.5t224 69.5q19 0 43.5 -1.5t47 -4t41.5 -6t28 -7.5q11 -5 15 -9
t4 -12v-297h85v-184h-86q0 -57 -1 -115.5t-3 -103.5q-2 -20 -22 -23q-29 -4 -62.5 -7t-70 -4.5t-73.5 -2t-72 -0.5q-96 0 -174 17.5t-133 57t-85 104t-30 159.5zM587 177v182q-8 1 -19 1h-19q-46 0 -68 -25.5t-22 -66.5v-9q0 -82 76 -82h52zM351 728q0 8 7 14t15 6h104
q8 0 15.5 -6t7.5 -14v-103q0 -8 -7.5 -14t-15.5 -6h-104q-8 0 -15 6t-7 14v103zM563 728q0 8 7 14t15 6h104q8 0 15 -6t7 -14v-103q0 -8 -7 -14t-15 -6h-104q-8 0 -15 6t-7 14v103z" />
    <glyph glyph-name="QafIni" unicode="&#x642;" horiz-adv-x="603" arabic-form="initial" 
d="M233 270q0 -45 17.5 -68t58.5 -23h10.5h16.5t16.5 0.5t9.5 0.5v192q-8 1 -19.5 1.5t-20.5 0.5q-45 0 -67 -22.5t-22 -64.5v-17zM-40 174q0 4 11.5 7t19.5 3h90q-24 30 -24 95v16q0 62 21 106.5t59.5 73.5t91.5 42.5t117 13.5q21 0 47.5 -1.5t51 -4.5t45.5 -6t32 -6
q12 -4 15.5 -9.5t3.5 -13.5v-272q0 -19 -0.5 -43t-1 -49.5t-2 -52t-3.5 -50.5q-1 -10 -7.5 -14t-16.5 -5q-44 -2 -83.5 -3t-81.5 -1h-354q-8 0 -19.5 2.5t-11.5 7.5v164zM128 736q0 8 7 14t15 6h104q8 0 15.5 -6t7.5 -14v-103q0 -8 -7.5 -14t-15.5 -6h-104q-8 0 -15 6t-7 14
v103zM340 736q0 8 7 14t15 6h104q8 0 15 -6t7 -14v-103q0 -8 -7 -14t-15 -6h-104q-8 0 -15 6t-7 14v103z" />
    <glyph glyph-name="QafMed" unicode="&#x642;" horiz-adv-x="623" arabic-form="medial" 
d="M128 736q0 8 7 14t15 6h104q8 0 15.5 -6t7.5 -14v-103q0 -8 -7.5 -14t-15.5 -6h-104q-8 0 -15 6t-7 14v103zM340 736q0 8 7 14t15 6h104q8 0 15 -6t7 -14v-103q0 -8 -7 -14t-15 -6h-104q-8 0 -15 6t-7 14v103zM-40 174q0 4 11.5 7t19.5 3h90q-11 14 -17.5 38.5t-6.5 56.5
v16q0 62 21 106.5t59.5 73.5t91.5 42.5t117 13.5q21 0 47 -1.5t50 -4.5t44.5 -6t31.5 -6q12 -4 15.5 -9.5t3.5 -13.5v-306h85v-184h-632q-8 0 -19.5 2.5t-11.5 7.5v164zM362 179v193q-8 1 -19.5 1.5t-19.5 0.5q-90 0 -90 -88v-16q0 -45 17.5 -68t58.5 -23h53z" />
    <glyph glyph-name="KafSep" unicode="&#x643;" horiz-adv-x="898" arabic-form="isolated" 
d="M187 350q19 0 19 -18q-1 -8 -1 -24v-22q0 -27 6 -46.5t22.5 -31.5t45 -18t74.5 -6h261q18 0 25.5 4t7.5 25v539q0 9 6.5 15t15.5 6h146q9 0 15 -6t6 -15v-587q0 -33 -1.5 -63t-4.5 -62q-2 -9 -6 -16.5t-16 -10.5q-14 -3 -43 -5.5t-62.5 -4t-67.5 -2.5t-58 -1h-261
q-90 0 -145.5 19.5t-86 52.5t-41 75.5t-10.5 88.5q0 5 0.5 17t2 26t3.5 28t4 23q3 9 7 14.5t15 5.5h122zM298 454q0 13 16 13h17q-5 11 -7 25t-2 26q0 51 30.5 78.5t90.5 27.5q10 0 27 -1.5t34 -6.5q14 -4 14 -17v-58q0 -11 -13 -11h-7.5t-14.5 0.5t-14.5 0.5h-7.5
q-19 0 -26.5 -9t-7.5 -22q0 -12 3.5 -20t7.5 -11h76q16 0 16 -14v-63q0 -14 -16 -14h-200q-16 0 -16 15v61z" />
    <glyph glyph-name="KafFin" unicode="&#x643;" horiz-adv-x="919" arabic-form="final" 
d="M187 350q19 0 19 -18q-1 -8 -1 -24v-22q0 -27 6 -46.5t22.5 -31.5t45 -18t74.5 -6h254q17 0 28.5 4t11.5 26v538q0 9 6.5 15t15.5 6h144q9 0 15.5 -6t6.5 -15v-560q6 -5 20 -6.5t24 -1.5h40v-184h-12q-34 0 -78 5.5t-81 20.5q-15 -8 -34 -13t-40 -8t-42 -4t-40 -1h-276
q-90 0 -145.5 19.5t-86 52.5t-41 76.5t-10.5 90.5q0 5 0.5 16.5t2 25t3.5 27t4 22.5q3 9 7 14.5t15 5.5h122zM298 454q0 13 16 13h17q-5 11 -7 25t-2 26q0 51 30.5 78.5t90.5 27.5q10 0 27 -1.5t34 -6.5q14 -4 14 -17v-58q0 -11 -13 -11h-7.5t-14.5 0.5t-14.5 0.5h-7.5
q-19 0 -26.5 -9t-7.5 -22q0 -12 3.5 -20t7.5 -11h76q16 0 16 -14v-63q0 -14 -16 -14h-200q-16 0 -16 15v61z" />
    <glyph glyph-name="KafIni" unicode="&#x643;" horiz-adv-x="750" arabic-form="initial" 
d="M-40 164q0 8 10.5 14t20.5 6h510q0 7 0.5 20t0.5 19q0 59 -40 89.5t-125 30.5h-249q-15 0 -21 5t-7 16q0 2 -0.5 9t-1 14.5t-0.5 14v7.5q0 27 4.5 51t13 48t21 49t28.5 54l77 143q10 19 30 19h142q14 0 14 -11q0 -5 -3 -11l-95 -181q-2 -3 -6.5 -12.5t-9.5 -19.5
t-8.5 -18.5t-3.5 -9.5q18 1 31.5 2t25 1.5t22 0.5h23.5q99 0 162.5 -24t100 -68t51 -105.5t14.5 -136.5v-34q0 -9 -0.5 -25t-2 -34t-3 -35t-3.5 -28q-2 -8 -7 -13t-17 -6q-18 -2 -47.5 -2.5t-64.5 -1.5t-71.5 -1h-67.5h-417q-10 0 -20.5 5.5t-10.5 13.5v145z" />
    <glyph glyph-name="KafMed" unicode="&#x643;" horiz-adv-x="766" arabic-form="medial" 
d="M-40 164q0 8 10.5 14t20.5 6h509q0 6 0.5 19.5t0.5 19.5q0 59 -39.5 89.5t-124.5 30.5h-249q-15 0 -21 5t-7 16q0 2 -0.5 9t-1 14.5t-0.5 13.5v7q0 27 4.5 51t13 47.5t21 48.5t28.5 54l77 145q10 19 30 19h142q14 0 14 -11q0 -5 -3 -11l-94 -179q-2 -4 -6.5 -13.5
t-9.5 -19.5t-9 -18.5t-4 -10.5q36 2 58.5 3t47.5 1q87 0 147.5 -20.5t99 -57.5t56.5 -88t20 -111v-53h75v-184h-775q-10 0 -20.5 5.5t-10.5 13.5v145z" />
    <glyph glyph-name="LamSep" unicode="&#x644;" horiz-adv-x="704" arabic-form="isolated" 
d="M202 327q19 0 19 -19q-2 -19 -2.5 -38t-0.5 -33q0 -58 6.5 -103t25 -75.5t52.5 -46t89 -15.5q14 0 28.5 0.5t31.5 3.5q2 42 2 80v79v592q0 10 7 15.5t15 5.5h146q9 0 15 -5.5t6 -15.5v-673q0 -17 -0.5 -46t-1.5 -60t-2.5 -60.5t-2.5 -48.5t-22 -24q-48 -11 -101.5 -18
t-109.5 -7q-81 0 -147.5 16.5t-114 55.5t-73 102.5t-25.5 158.5q0 13 1 32.5t3 42t5 45t6 40.5q2 9 6 14t15 5h124z" />
    <glyph glyph-name="LamFin" unicode="&#x644;" horiz-adv-x="726" arabic-form="final" 
d="M202 327q19 0 19 -19q-2 -19 -2.5 -38t-0.5 -33q0 -58 6 -103t24.5 -75.5t52.5 -46t89 -15.5q14 0 29 0.5t32 3.5q2 42 2 80v79v592q0 10 7 15.5t15 5.5h145q9 0 15 -5.5t6 -15.5v-568h85v-184h-86q-1 -71 -6 -136q-1 -19 -21 -24q-48 -11 -101.5 -18t-109.5 -7
q-81 0 -147.5 16.5t-114 55.5t-73 102.5t-25.5 158.5q0 13 1 32t3 41t5 44.5t6 41.5q2 9 6 14.5t15 5.5h124z" />
    <glyph glyph-name="LamIni" unicode="&#x644;" horiz-adv-x="328" arabic-form="initial" 
d="M-40 173q0 5 11.5 8t19.5 3h53q18 0 25.5 4t7.5 25v539q0 9 6.5 15t15.5 6h146q9 0 15 -6t6 -15v-587q0 -33 -1.5 -63t-4.5 -62q-2 -9 -6.5 -16.5t-16.5 -10.5q-14 -3 -39.5 -5.5t-56 -4t-61.5 -2.5t-56 -1h-33q-8 0 -19.5 2.5t-11.5 7.5v163z" />
    <glyph glyph-name="LamMed" unicode="&#x644;" horiz-adv-x="350" arabic-form="medial" 
d="M-40 174q0 4 11.5 7t19.5 3h46q16 0 28 4t12 26v538q0 9 6.5 15t15.5 6h145q10 0 15.5 -6t5.5 -15v-560q8 -5 21.5 -6.5t23.5 -1.5h40v-184h-14q-46 0 -90.5 6.5t-73.5 28.5q-15 -10 -34.5 -17t-40.5 -11t-42 -5.5t-40 -1.5h-24q-8 0 -19.5 2.5t-11.5 7.5v164z" />
    <glyph glyph-name="MeemSep" unicode="&#x645;" horiz-adv-x="705" arabic-form="isolated" 
d="M34 41q0 80 38.5 115.5t100.5 36.5q-2 4 -2.5 13t-0.5 14v65q0 59 18.5 103t51 73t77.5 43.5t98 14.5t97.5 -14t76.5 -43t50 -72.5t18 -102.5v-65q0 -62 -18 -106t-50 -71.5t-77.5 -40.5t-99.5 -13q-44 0 -88.5 9t-77.5 35q-20 0 -26 -6t-6 -19v-239q0 -9 -6.5 -15
t-15.5 -6h-137q-8 0 -14.5 6t-6.5 15v270zM344 240q0 -43 16 -61.5t52 -18.5q32 0 51 16.5t19 63.5v40q0 48 -18.5 65.5t-50.5 17.5t-50.5 -17.5t-18.5 -65.5v-40z" />
    <glyph glyph-name="MeemFin" unicode="&#x645;" horiz-adv-x="738" arabic-form="final" 
d="M34 39q0 80 38 115.5t101 36.5q-2 3 -2.5 13t-0.5 15v63q0 59 18.5 103t51 73t77.5 43.5t98 14.5t97 -14t76 -42.5t50 -72t18 -102.5v-58v-15t-1 -17q6 -6 21 -8.5t24 -2.5h38v-184h-20q-34 0 -74.5 6.5t-75.5 21.5q-29 -20 -68.5 -30t-87.5 -10q-44 0 -88.5 9.5
t-77.5 35.5q-20 0 -26 -6t-6 -20v-239q0 -9 -6.5 -15t-15.5 -6h-137q-8 0 -14.5 6t-6.5 15v271zM344 237q0 -42 16 -60.5t52 -18.5q32 0 51 15t19 62v43q0 48 -18.5 65.5t-50.5 17.5t-50.5 -18t-18.5 -65v-41z" />
    <glyph glyph-name="MeemIni" unicode="&#x645;" horiz-adv-x="597" arabic-form="initial" 
d="M-40 174q0 4 11.5 7t19.5 3h31q12 0 24 2.5t15 15.5q1 4 1.5 7t0.5 8v65q0 59 18.5 103t51 73t77.5 43.5t98 14.5t97 -14t76 -42.5t50 -72t18 -102.5v-65q0 -62 -18 -105.5t-50 -71.5t-76.5 -41t-98.5 -13q-23 0 -47.5 2.5t-48 7.5t-43.5 12.5t-33 18.5
q-24 -17 -53.5 -23.5t-71.5 -6.5h-18q-8 0 -19.5 2.5t-11.5 7.5v164zM237 237q0 -8 0.5 -16t1.5 -15q5 -29 23.5 -38.5t43.5 -9.5q31 0 49.5 16.5t18.5 63.5v41q0 48 -18 65t-50 17t-50.5 -17.5t-18.5 -64.5v-42z" />
    <glyph glyph-name="MeemMed" unicode="&#x645;" horiz-adv-x="631" arabic-form="medial" 
d="M-40 174q0 4 11.5 7t19.5 3h31q12 0 24 2.5t15 13.5q2 8 2 17v64q0 59 18.5 103t51 73t77.5 43.5t98 14.5t97 -14t76 -43t50 -72.5t18 -102.5v-58v-13t-2 -15q7 -8 22.5 -10.5t24.5 -2.5h37v-184h-28q-35 0 -70.5 6.5t-70.5 21.5q-29 -22 -69.5 -32t-86.5 -10
q-23 0 -47.5 2.5t-48 8t-43.5 13t-33 18.5q-23 -15 -54.5 -21.5t-60.5 -6.5h-28q-8 0 -19.5 2.5t-11.5 7.5v164zM237 277v-42q0 -9 0.5 -16.5t1.5 -14.5q5 -29 23.5 -39t43.5 -10q31 0 50 16.5t19 63.5v42q0 48 -18.5 65.5t-50.5 17.5t-50.5 -17.5t-18.5 -65.5z" />
    <glyph glyph-name="NoonSep" unicode="&#x646;" horiz-adv-x="702" arabic-form="isolated" 
d="M261 644q0 8 6.5 14t15.5 6h114q8 0 14.5 -6t6.5 -14v-103q0 -8 -6.5 -14t-14.5 -6h-114q-9 0 -15.5 6t-6.5 14v103zM202 327q19 0 19 -18q-2 -20 -2.5 -40t-0.5 -33q0 -59 6.5 -103.5t25.5 -74.5t53.5 -45.5t90.5 -15.5q14 0 25.5 0.5t33.5 2.5q1 43 1 81v79v282
q0 8 7 14t15 6h143q8 0 14.5 -6t6.5 -14v-394q0 -48 -1 -95t-4 -89q0 -18 -22 -24q-50 -12 -100.5 -18.5t-108.5 -6.5q-82 0 -149 16.5t-114 55t-73 102.5t-26 159q0 12 1 31.5t3 42t4.5 45t6.5 40.5q2 9 6.5 14.5t15.5 5.5h123z" />
    <glyph glyph-name="NoonFin" unicode="&#x646;" horiz-adv-x="723" arabic-form="final" 
d="M261 644q0 8 6.5 14t15.5 6h114q8 0 14.5 -6t6.5 -14v-103q0 -8 -6.5 -14t-14.5 -6h-114q-9 0 -15.5 6t-6.5 14v103zM202 327q19 0 19 -18q-2 -20 -2.5 -40t-0.5 -33q0 -59 6.5 -103.5t25.5 -74.5t53.5 -45.5t90.5 -15.5q14 0 25.5 0.5t33.5 2.5q1 43 1 81v79v282
q0 8 7 14t15 6h142q9 0 15 -6t6 -14v-258h84v-184h-84q-1 -36 -1.5 -70t-2.5 -66q0 -18 -21 -24q-50 -12 -101 -18.5t-109 -6.5q-82 0 -149 16.5t-114 55t-73 102.5t-26 159q0 12 1 31.5t3 42t4.5 45t6.5 40.5q2 9 6.5 14.5t15.5 5.5h123z" />
    <glyph glyph-name="NoonIni" unicode="&#x646;" horiz-adv-x="325" arabic-form="initial" 
d="M89 677q0 8 6.5 14t15.5 6h114q8 0 14.5 -6t6.5 -14v-103q0 -8 -6.5 -14t-14.5 -6h-114q-9 0 -15.5 6t-6.5 14v103zM-40 174q0 4 11.5 7t19.5 3h52q18 0 25.5 4t7.5 25v46.5v59v65.5t-1 66q0 7 5.5 13t15.5 6h139q13 0 18.5 -5.5t6.5 -13.5q2 -60 2.5 -106.5t0.5 -91.5
v-74.5t-1 -57.5t-1.5 -44.5t-2.5 -35.5q-1 -9 -6 -16.5t-17 -10.5q-14 -3 -38.5 -5.5t-53 -4t-58.5 -2.5t-55 -1h-39q-8 0 -19.5 2.5t-11.5 7.5v164z" />
    <glyph glyph-name="NoonMed" unicode="&#x646;" horiz-adv-x="347" arabic-form="medial" 
d="M-40 174q0 4 11.5 7t19.5 3h46q16 0 28 4t12 26v230q0 8 6 14t16 6h143q8 0 14.5 -6t6.5 -14v-252q7 -5 21.5 -6.5t23.5 -1.5h39v-184h-13q-46 0 -90.5 6.5t-74.5 28.5q-15 -10 -34 -17t-40 -11t-42.5 -5.5t-40.5 -1.5h-21q-8 0 -19.5 2.5t-11.5 7.5v164zM91 677
q0 8 6.5 14t15.5 6h114q8 0 14.5 -6t6.5 -14v-103q0 -8 -6.5 -14t-14.5 -6h-114q-9 0 -15.5 6t-6.5 14v103z" />
    <glyph glyph-name="HehSep" unicode="&#x647;" horiz-adv-x="582" arabic-form="isolated" 
d="M48 248q0 134 75 203.5t224 69.5q19 0 42 -1.5t45 -4t40 -6t27 -7.5q11 -5 15 -9t4 -12v-287q0 -42 -1 -85t-6 -81q-2 -11 -7 -14.5t-16 -5.5q-32 -5 -66 -6.5t-73 -1.5h-22q-145 0 -213 60.5t-68 173.5v14zM219 259q0 -40 18.5 -61t60.5 -21h49v182q-8 1 -18.5 1h-19.5
q-47 0 -68.5 -25.5t-21.5 -66.5v-9z" />
    <glyph glyph-name="HehFin" unicode="&#x647;" horiz-adv-x="610" arabic-form="final" 
d="M46 260q0 134 76 202t225 68q19 0 42 -1t45 -3.5t40 -5.5t28 -6q11 -4 14.5 -9t3.5 -13v-270q0 -23 11 -30.5t33 -7.5h46v-184h-65q-17 0 -37 2t-41 7t-40.5 15t-34.5 27q-20 -15 -51.5 -22t-57.5 -7h-8q-112 0 -170.5 55t-58.5 169v14zM215 270q0 -40 17 -59t56 -19h10
q20 0 34.5 8t14.5 29v143q-8 1 -18 1h-18q-47 0 -71.5 -24t-24.5 -65v-14z" />
    <glyph glyph-name="HehIni" unicode="&#x647;" horiz-adv-x="765" arabic-form="initial" 
d="M-40 164q0 8 10.5 14t20.5 6h64q-4 7 -5.5 17.5t-1.5 22.5v25q0 86 49.5 130t132.5 50v114q0 17 20 22q14 3 30 5t31.5 3t28.5 1.5t21 0.5q68 0 132 -17.5t113.5 -56.5t79 -102t29.5 -155v-44q0 -35 -2 -80.5t-9 -86.5q-2 -9 -7.5 -17.5t-18.5 -10.5q-15 -2 -47 -2.5
t-68.5 -1.5t-72 -1h-56.5h-443q-10 0 -20.5 5.5t-10.5 13.5v145zM457 250v-26q0 -12 -1.5 -23.5t-6.5 -18.5h62q11 0 16.5 5t5.5 27v25q0 78 -43.5 126t-124.5 48h-7q47 -19 73 -58.5t26 -104.5zM199 225q0 -32 13.5 -44t39.5 -12q28 0 41.5 12t13.5 44v16q0 34 -13.5 47
t-40.5 13t-40.5 -13t-13.5 -47v-16z" />
    <glyph glyph-name="HehMed" unicode="&#x647;" horiz-adv-x="634" arabic-form="medial" 
d="M-9 0q-8 0 -19.5 2.5t-11.5 6.5v166q0 4 11.5 6.5t19.5 2.5h84v276q0 15 9 27t28 17q18 5 39 8.5t43 5.5t43.5 3t39.5 1q62 0 113.5 -13t88 -41t57 -71.5t20.5 -103.5q0 -15 -1.5 -29t-3.5 -29q-2 -14 -5.5 -27.5t-8.5 -27.5q14 2 29 3t31 1h37v-184h-15q-17 0 -38 -0.5
t-27 -1.5v-26q0 -62 -17.5 -105.5t-49 -71.5t-75.5 -40.5t-96 -12.5q-126 0 -183.5 59.5t-57.5 177.5v21h-84zM282 178q31 0 50 8t30 21.5t15 31.5t4 38v7q0 47 -27.5 63.5t-72.5 16.5q-10 0 -17 -0.5t-15 -2.5v-183h33zM315 9q-27 -4 -66 -6v-13q0 -48 17 -68t52 -20
q37 0 52 17.5t16 58.5q0 26 3 49q-33 -12 -74 -18z" />
    <glyph glyph-name="WawSep" unicode="&#x648;" horiz-adv-x="589" arabic-form="isolated" 
d="M84 -104q0 19 19 19h100q39 0 64.5 3t41 11t22.5 20.5t9 32.5l2 29q-4 -3 -15 -5t-24 -3.5t-25 -2t-17 -0.5q-98 0 -155.5 60t-57.5 174v14q0 134 76 203.5t224 69.5q19 0 43.5 -1.5t47 -4t41.5 -6t28 -7.5q11 -5 15 -9t4 -12v-459q0 -88 -26 -140.5t-67 -81t-92 -37.5
t-101 -9h-28t-42.5 1t-43 2.5t-28.5 3.5q-15 4 -15 21v114zM347 359q-8 1 -18.5 1h-18.5q-46 0 -68 -25.5t-22 -66.5v-9q0 -40 18 -61t62 -21q47 0 47 22v160z" />
    <glyph glyph-name="WawFin" unicode="&#x648;" horiz-adv-x="610" arabic-form="final" 
d="M84 -104q0 19 19 19h100q39 0 64.5 3t41.5 11t23 20.5t9 32.5l1 18h-42q-120 0 -186 60t-66 174v14q0 134 76 203.5t224 69.5q19 0 43 -1.5t46.5 -4t41 -6t27.5 -7.5q11 -5 15 -9t4 -12v-297h85v-184h-88v-13.5t-1 -14.5q-8 -69 -34 -111.5t-64 -66.5t-85.5 -32t-96.5 -8
h-27t-43 1t-43.5 2.5t-28.5 3.5q-15 4 -15 21v114zM220 259q0 -40 18.5 -61t60.5 -21h48v182q-8 1 -18.5 1h-18.5q-45 0 -67.5 -25.5t-22.5 -66.5v-9z" />
    <glyph glyph-name="AlefMaqsuraSep" unicode="&#x649;" horiz-adv-x="1024" arabic-form="isolated" 
d="M205 327q19 0 19 -18q-1 -20 -2.5 -39t-1.5 -32q0 -58 6 -103.5t25.5 -77t56 -48t97.5 -16.5q17 0 33 0.5t35 3.5q2 43 2.5 76.5t0.5 73.5v65q0 126 76 186.5t228 60.5q21 0 45 -1t46 -3t41 -4.5t31 -4.5q8 -2 13.5 -6.5t5.5 -14.5v-404q0 -9 -6 -15t-16 -6h-141
q-8 0 -14.5 6t-6.5 15v269q-14 2 -19.5 2h-13.5q-48 0 -68 -23.5t-20 -75.5v-145q0 -48 -1 -97t-3 -94q0 -20 -22 -23q-53 -9 -112 -14t-115 -5q-89 0 -156.5 19t-113 60.5t-68.5 107.5t-23 160q0 25 4 66t12 79q2 9 6.5 14.5t15.5 5.5h124z" />
    <glyph glyph-name="AlefMaqsuraFin" unicode="&#x649;" horiz-adv-x="1029" arabic-form="final" 
d="M206 327q19 0 19 -18q-2 -20 -3.5 -39t-1.5 -32q0 -58 6 -103.5t25.5 -77t56 -48t97.5 -16.5q17 0 33 0.5t35 3.5q2 43 2.5 76.5t0.5 73.5v64q0 248 304 248q43 0 85 -4t66 -9q8 -2 13.5 -6.5t5.5 -14.5v-208q0 -20 8 -26.5t30 -6.5h41v-184h-86q-38 0 -69.5 5t-54 21.5
t-35 47t-12.5 81.5v135q-9 2 -14 2h-13q-48 0 -68 -23.5t-20 -75.5v-145q0 -48 -1 -97t-3 -94q0 -20 -23 -23q-54 -9 -112 -14t-113 -5q-90 0 -157.5 19t-113 60.5t-68.5 107.5t-23 160q0 12 1 29t3 36.5t5 40t7 39.5q2 9 6.5 14.5t15.5 5.5h125z" />
    <glyph glyph-name="YehSep" unicode="&#x64a;" horiz-adv-x="1023" arabic-form="isolated" 
d="M42 163q0 25 4 65.5t12 78.5q2 9 6.5 14.5t15.5 5.5h125q19 0 19 -18q-2 -20 -3.5 -41.5t-1.5 -34.5q0 -54 5.5 -96t23.5 -71.5t52.5 -45t92.5 -15.5q23 0 41 1.5t38 3.5q1 21 1.5 38.5t1 33.5t0.5 32.5v36.5v60q0 248 304 248q21 0 44.5 -1t45 -3t40.5 -4t33 -5
q8 -2 13.5 -7t5.5 -16v-402q0 -9 -6 -15t-16 -6h-140q-8 0 -14.5 6t-6.5 15v269q-14 2 -20 2h-14q-48 0 -68 -23.5t-20 -75.5v-145q0 -48 -1 -91.5t-3 -88.5q0 -20 -22 -23q-52 -8 -113 -13t-124 -5q-88 0 -153.5 19t-109.5 59.5t-66 104t-22 153.5zM172 -257q0 9 6.5 14.5
t15.5 5.5h101q8 0 15 -5.5t7 -14.5v-95q0 -7 -7 -12.5t-15 -5.5h-101q-9 0 -15.5 5.5t-6.5 12.5v95zM381 -257q0 9 6.5 14.5t14.5 5.5h103q8 0 15 -5.5t7 -14.5v-95q0 -7 -7 -12.5t-15 -5.5h-103q-8 0 -14.5 5.5t-6.5 12.5v95z" />
    <glyph glyph-name="YehFin" unicode="&#x64a;" horiz-adv-x="1029" arabic-form="final" 
d="M42 163q0 25 4.5 65.5t12.5 78.5q2 9 6.5 14.5t15.5 5.5h123q19 0 19 -18q-1 -20 -2.5 -41.5t-1.5 -34.5q0 -54 5.5 -96t23.5 -71.5t52.5 -45t92.5 -15.5q23 0 41 1.5t38 3.5q1 21 1.5 38.5t1 33.5t0.5 32.5v36.5v60q0 126 75 187t221 61q49 0 92.5 -4t67.5 -9
q8 -2 13.5 -6.5t5.5 -14.5v-208q0 -20 8 -26.5t30 -6.5h41v-184h-87q-39 0 -70.5 5t-54 21.5t-34.5 47t-12 81.5v135q-8 2 -13.5 2h-13.5q-48 0 -68 -23.5t-20 -75.5v-145q0 -48 -1 -91.5t-3 -88.5q0 -20 -22 -23q-52 -8 -113 -13t-124 -5q-88 0 -153.5 19t-109.5 59.5
t-66 104t-22 153.5zM172 -257q0 9 6.5 14.5t15.5 5.5h101q8 0 15 -5.5t7 -14.5v-95q0 -7 -7 -12.5t-15 -5.5h-101q-9 0 -15.5 5.5t-6.5 12.5v95zM381 -257q0 9 6.5 14.5t14.5 5.5h103q8 0 15 -5.5t7 -14.5v-95q0 -7 -7 -12.5t-15 -5.5h-103q-8 0 -14.5 5.5t-6.5 12.5v95z
" />
    <glyph glyph-name="YehIni" unicode="&#x64a;" horiz-adv-x="325" arabic-form="initial" 
d="M-40 174q0 4 11.5 7t19.5 3h52q18 0 25.5 4t7.5 25v46.5v59v65.5t-1 66q0 7 5.5 13t15.5 6h139q13 0 18.5 -5.5t6.5 -13.5q2 -60 2.5 -106.5t0.5 -91.5v-74.5t-1 -57.5t-1.5 -44.5t-2.5 -35.5q-1 -9 -6 -16.5t-17 -10.5q-14 -3 -38.5 -5.5t-53 -4t-58.5 -2.5t-55 -1h-39
q-8 0 -19.5 2.5t-11.5 7.5v164zM-68 -105q0 9 7 15t15 6h104q8 0 15.5 -6t7.5 -15v-104q0 -8 -7.5 -13.5t-15.5 -5.5h-104q-8 0 -15 5.5t-7 13.5v104zM144 -105q0 9 7 15t15 6h104q8 0 15 -6t7 -15v-104q0 -8 -7 -13.5t-15 -5.5h-104q-8 0 -15 5.5t-7 13.5v104z" />
    <glyph glyph-name="YehMed" unicode="&#x64a;" horiz-adv-x="347" arabic-form="medial" 
d="M-40 174q0 4 11.5 7t19.5 3h46q16 0 28 4t12 26v230q0 8 6 14t16 6h143q8 0 14.5 -6t6.5 -14v-252q7 -5 21.5 -6.5t23.5 -1.5h39v-184h-13q-46 0 -90.5 6.5t-74.5 28.5q-15 -10 -34 -17t-40 -11t-42.5 -5.5t-40.5 -1.5h-21q-8 0 -19.5 2.5t-11.5 7.5v164zM-22 -105
q0 9 7 15t15 6h104q8 0 15.5 -6t7.5 -15v-104q0 -8 -7.5 -13.5t-15.5 -5.5h-104q-8 0 -15 5.5t-7 13.5v104zM190 -105q0 9 7 15t15 6h104q8 0 15 -6t7 -15v-104q0 -8 -7 -13.5t-15 -5.5h-104q-8 0 -15 5.5t-7 13.5v104z" />
    <glyph glyph-name=".notdef" horiz-adv-x="500" 
d="M12 665h475v-665h-475v665zM250 375l161 243h-323zM60 91l7 10t18 27t25.5 39t29.5 45q35 54 81 121l-161 242v-484zM278 333l162 -243v485zM250 290l-162 -242h323z" />
    <glyph glyph-name=".null" horiz-adv-x="0" 
 />
    <glyph glyph-name="nonmarkingreturn" horiz-adv-x="333" 
 />
    <glyph glyph-name="space" unicode=" " horiz-adv-x="252" 
 />
    <glyph glyph-name="exclam" unicode="!" horiz-adv-x="412" 
d="M305 753l-25 -491q-1 -8 -6.5 -14.5t-13.5 -6.5h-106q-8 0 -14.5 6.5t-7.5 14.5l-25 491v1q0 8 7 13.5t15 5.5h156q8 0 14 -5.5t6 -13.5v-1zM299 20q0 -8 -6 -14t-14 -6h-146q-8 0 -14 6t-6 14v139q0 8 6 14t14 6h146q8 0 14 -6t6 -14v-139z" />
    <glyph glyph-name="quotedbl" unicode="&#x22;" horiz-adv-x="504" 
d="M485 762q0 -2 -2 -8l-81 -230q-4 -10 -7.5 -14.5t-11.5 -4.5h-123q-9 0 -9 10v4.5t1 4.5l57 230q4 19 20 19h144q12 0 12 -11zM247 762q0 -2 -2 -8l-81 -230q-4 -10 -7.5 -14.5t-11.5 -4.5h-123q-9 0 -9 10v4.5t1 4.5l57 230q4 19 20 19h144q12 0 12 -11z" />
    <glyph glyph-name="numbersign" unicode="#" horiz-adv-x="715" 
d="M666 545l-11 -89q-2 -13 -18 -13h-78l-14 -145h79q7 0 12.5 -4.5t5.5 -10.5v-2l-11 -86q-1 -6 -6 -10.5t-12 -4.5h-78l-14 -161q-1 -8 -5.5 -13.5t-12.5 -5.5h-125q-8 0 -12 5t-4 12v2l13 161h-96l-14 -161q-1 -8 -5.5 -13.5t-12.5 -5.5h-127q-7 0 -11.5 5t-4.5 12v2
l14 161h-77q-16 0 -16 13v2l11 88q1 6 5.5 10.5t11.5 4.5h76l13 145h-77q-16 0 -16 13v2l11 89q2 14 18 14h74l14 163q1 8 6 13.5t13 5.5h127q7 0 11 -5t4 -12v-2l-15 -163h97l15 163q1 8 6 13.5t13 5.5h125q8 0 11.5 -5t3.5 -12v-2l-15 -163h81q7 0 12 -4t5 -10v-2z
M303 443l-14 -145h97l13 145h-96z" />
    <glyph glyph-name="dollar" unicode="$" 
d="M598 220q0 -35 -10.5 -70t-34 -65t-60 -52.5t-88.5 -33.5v-97q0 -8 -6 -14t-14 -6h-129q-8 0 -14 6t-6 14v93q-36 3 -66.5 8.5t-56.5 13.5q-8 2 -14 7t-6 13v123q0 8 5.5 14t13.5 6h2q16 -2 41.5 -4.5t54 -5t57 -4t49.5 -1.5q37 0 50 13.5t13 37.5q0 15 -9.5 25.5
t-37.5 27.5l-144 85q-35 21 -58 44t-36.5 48t-19 52t-5.5 56q0 34 8.5 64.5t28 55.5t51.5 43.5t79 27.5v88q0 8 6 14t14 6h129q8 0 14 -6t6 -14v-84q46 -4 88 -9.5t64 -11.5q8 -2 13.5 -7t5.5 -13v-124q0 -8 -5 -13.5t-13 -5.5h-2q-22 2 -50 4t-58.5 4t-61 3.5t-57.5 1.5
t-38 -8.5t-11 -25.5q0 -13 10 -23.5t42 -27.5l134 -72q73 -39 102.5 -88.5t29.5 -112.5z" />
    <glyph glyph-name="percent" unicode="%" horiz-adv-x="867" 
d="M831 170q0 -90 -39 -133t-113 -43t-113.5 43t-39.5 133v68q0 90 39.5 133t113.5 43t113 -43t39 -133v-68zM723 734q0 -3 -4 -11l-415 -701q-7 -11 -11.5 -16.5t-12.5 -5.5h-122q-13 0 -13 13q0 4 3 9l415 701q7 11 12.5 15.5t13.5 4.5h123q11 0 11 -9zM343 505
q0 -90 -39.5 -133t-113.5 -43t-113.5 43t-39.5 133v68q0 90 39.5 132.5t113.5 42.5t113.5 -42.5t39.5 -132.5v-68zM716 238q0 24 -2.5 39.5t-7.5 23.5t-11.5 11t-15.5 3t-16 -3t-12 -11t-7.5 -23.5t-2.5 -39.5v-68q0 -24 2.5 -39.5t7.5 -23.5t12 -11t16 -3t15.5 3t11.5 11
t7.5 23.5t2.5 39.5v68zM227 573q0 24 -2.5 39.5t-7.5 23.5t-11.5 11t-15.5 3t-16 -3t-12 -11t-7.5 -23.5t-2.5 -39.5v-68q0 -24 2.5 -39.5t7.5 -24t12 -11.5t16 -3q17 0 27 14.5t10 63.5v68z" />
    <glyph glyph-name="ampersand" unicode="&#x26;" horiz-adv-x="746" 
d="M742 13q0 -13 -14 -13h-171q-6 0 -9.5 2t-8.5 7l-24 24q-37 -20 -82 -31t-99 -11q-64 0 -117 11t-91.5 35t-60 62.5t-21.5 93.5v6q0 37 9.5 65.5t26.5 52t41 42.5t53 37l-9 10q-26 28 -42 50t-25 40t-12.5 34.5t-3.5 33.5v8q0 37 13.5 69.5t43 57.5t76 39.5t113.5 14.5
q61 0 106.5 -13.5t75.5 -37.5t44.5 -57t14.5 -73v-8q0 -34 -8.5 -59t-24 -45.5t-37 -37.5t-47.5 -35l-36 -25l104 -110q14 42 14 93v13q0 8 5.5 14t13.5 6h113q8 0 13.5 -6t5.5 -14v-13q0 -57 -14 -109t-42 -97l107 -113q6 -6 6 -13zM391 572q0 22 -15.5 36t-47.5 14
q-36 0 -52 -14t-16 -36v-8q0 -20 7.5 -37.5t33.5 -43.5l7 -7l24 16q35 24 47 37.5t12 34.5v8zM282 280q-26 -17 -34 -37.5t-8 -43.5v-6q0 -31 23.5 -49.5t70.5 -18.5q45 0 80 15z" />
    <glyph glyph-name="quotesingle" unicode="'" horiz-adv-x="233" 
d="M247 762q0 -2 -2 -8l-81 -230q-4 -10 -7.5 -14.5t-11.5 -4.5h-123q-9 0 -9 10v4.5t1 4.5l57 230q4 19 20 19h144q12 0 12 -11z" />
    <glyph glyph-name="parenleft" unicode="(" horiz-adv-x="389" 
d="M354 -185q0 -10 -12 -10h-130q-11 0 -19.5 3t-14.5 11q-32 45 -56.5 92.5t-41 101.5t-25 116t-8.5 135v19q0 145 33.5 251t97.5 195q6 8 14.5 11t19.5 3h130q12 0 12 -10q0 -6 -5 -16q-21 -38 -40.5 -83.5t-34.5 -99.5t-24 -116.5t-9 -134.5v-19q0 -72 9 -134.5t24 -116
t34.5 -99t40.5 -83.5q5 -10 5 -16z" />
    <glyph glyph-name="parenright" unicode=")" horiz-adv-x="389" 
d="M343 264q0 -73 -8.5 -135t-25 -116t-41 -101.5t-56.5 -92.5q-6 -8 -14.5 -11t-19.5 -3h-130q-12 0 -12 10q0 6 5 16q21 38 40.5 83.5t34.5 99t24 116t9 134.5v19q0 72 -9 134.5t-24 116.5t-34.5 99.5t-40.5 83.5q-5 10 -5 16q0 10 12 10h130q11 0 19.5 -3t14.5 -11
q64 -89 97.5 -195t33.5 -251v-19z" />
    <glyph glyph-name="asterisk" unicode="*" horiz-adv-x="485" 
d="M456 561q0 -12 -16 -17l-111 -32l70 -94q6 -8 6 -15q0 -8 -7 -12l-63 -46q-5 -3 -10 -3q-9 0 -16 10l-66 97l-66 -97q-7 -10 -16 -10q-6 0 -10 3l-64 46q-7 4 -7 12q0 7 6 15l70 94l-110 32q-7 2 -12 6.5t-5 10.5q0 3 1 5l25 76q3 10 13 10q3 0 5.5 -0.5t5.5 -1.5
l111 -37l-3 115v1q0 8 4 14t12 6h80q8 0 11.5 -6t3.5 -14v-1l-1 -115l109 37q3 1 5.5 1.5t5.5 0.5q10 0 13 -10l25 -76q1 -2 1 -5z" />
    <glyph glyph-name="plus" unicode="+" 
d="M580 336q0 -8 -6 -12t-14 -4h-156v-155q0 -8 -4 -14t-12 -6h-110q-8 0 -12 6t-4 14v155h-155q-8 0 -14 4t-6 12v110q0 8 6 12t14 4h155v156q0 8 4 14t12 6h110q8 0 12 -6t4 -14v-156h156q8 0 14 -4t6 -12v-110z" />
    <glyph glyph-name="comma" unicode="," horiz-adv-x="291" 
d="M265 165q0 -4 -1 -6l-104 -238q-4 -8 -9.5 -14t-13.5 -6h-104q-8 0 -13.5 4.5t-5.5 11.5q0 1 0.5 2t0.5 2l67 238q2 8 7.5 14t13.5 6h147q15 0 15 -14z" />
    <glyph glyph-name="hyphen" unicode="-" horiz-adv-x="282" 
d="M258 250q0 -8 -6 -13.5t-14 -5.5h-193q-8 0 -14 5.5t-6 13.5v102q0 8 6 13.5t14 5.5h193q8 0 14 -5.5t6 -13.5v-102z" />
    <glyph glyph-name="period" unicode="." horiz-adv-x="291" 
d="M239 20q0 -8 -6.5 -14t-14.5 -6h-145q-8 0 -14.5 6t-6.5 14v139q0 8 6.5 14t14.5 6h145q8 0 14.5 -6t6.5 -14v-139z" />
    <glyph glyph-name="slash" unicode="/" horiz-adv-x="425" 
d="M413 727q0 -1 -0.5 -2t-0.5 -2l-205 -701q-2 -8 -7.5 -15t-13.5 -7h-153q-8 0 -15 5.5t-7 12.5q0 2 0.5 2.5t0.5 1.5l206 701q2 8 8 14t14 6h153q8 0 14 -4.5t6 -11.5z" />
    <glyph glyph-name="zero" unicode="0" 
d="M611 323q0 -87 -18.5 -149.5t-54 -103t-87 -60t-118.5 -19.5q-134 0 -206 79.5t-72 252.5v97q0 173 72 253t206 80q133 0 205.5 -80t72.5 -253v-97zM407 420q0 51 -5.5 82.5t-15.5 49t-23.5 23.5t-29.5 6t-29.5 -6t-23.5 -23.5t-15.5 -49t-5.5 -82.5v-97q0 -51 5.5 -82.5
t15.5 -49t23.5 -23.5t29.5 -6t29.5 6t23.5 23.5t15.5 49t5.5 82.5v97z" />
    <glyph glyph-name="one" unicode="1" 
d="M232 171v370l-117 -42q-8 -3 -12 -3q-10 0 -10 12v142q0 12 12 17l172 72q9 4 23 4h115q19 0 19 -19v-553h119q8 0 14 -6t6 -14v-131q0 -8 -6 -14t-14 -6h-441q-8 0 -14 6t-6 14v131q0 8 6 14t14 6h120z" />
    <glyph glyph-name="two" unicode="2" 
d="M592 555q0 -59 -27 -104.5t-78 -78.5l-81 -54q-29 -19 -55.5 -36t-47 -34t-32.5 -35t-12 -39v-3h302q8 0 14 -6t6 -14v-131q0 -8 -6 -14t-14 -6h-466q-8 0 -14 6t-6 14v106q0 83 33 145t86 101l86 64q40 30 62.5 47t33.5 27.5t13.5 18t2.5 18.5q0 12 -3.5 20.5t-14 14
t-28.5 8t-48 2.5q-48 0 -98 -4t-97 -8h-2q-8 0 -13 6t-5 14v97q0 8 5.5 12t13.5 7q45 16 103.5 26.5t121.5 10.5q72 0 122.5 -12.5t82 -37t46 -62t14.5 -86.5z" />
    <glyph glyph-name="three" unicode="3" 
d="M590 216q0 -59 -19 -101t-54.5 -70t-86 -41t-113.5 -13q-31 0 -62.5 3t-61 7.5t-54.5 10.5t-43 13q-8 3 -14 7.5t-6 12.5v98q0 8 5 13.5t13 5.5h2q23 -2 50 -3.5t54.5 -3t54 -2.5t49.5 -1q46 0 65.5 17t19.5 47v16q0 14 -3 27t-11 22.5t-23.5 15.5t-40.5 6h-166
q-8 0 -14 6t-6 14v107q0 8 6 13.5t14 5.5h166q24 0 39 6.5t23.5 17t12 24t3.5 26.5v16q0 30 -19.5 41t-57.5 11q-52 0 -107 -3.5t-104 -7.5h-2q-8 0 -13.5 5.5t-5.5 13.5v98q0 8 6.5 12.5t14.5 7.5q18 7 41.5 13.5t51 11.5t57.5 8t61 3q63 0 114 -10.5t87 -34t55.5 -62
t19.5 -94.5v-14q0 -42 -22 -86t-69 -73q42 -22 67.5 -59t25.5 -88v-16z" />
    <glyph glyph-name="four" unicode="4" 
d="M623 175q0 -8 -6 -14t-14 -6h-58v-135q0 -8 -6 -14t-14 -6h-164q-8 0 -13.5 6t-5.5 14v135h-279q-8 0 -14 6t-6 14v113q0 16 11 30l324 416q5 6 10.5 7.5t13.5 1.5h123q8 0 14 -6t6 -14v-414h58q8 0 14 -6t6 -14v-114zM350 499q0 4 -2 4q-1 0 -3 -2l-138 -183
q-3 -5 -3 -6q0 -3 5 -3h141v190z" />
    <glyph glyph-name="five" unicode="5" 
d="M587 238q0 -62 -20 -108.5t-56.5 -77.5t-89 -46t-118.5 -15q-52 0 -104.5 8.5t-97.5 24.5q-8 3 -14.5 7t-6.5 14v99q0 8 5.5 13.5t13.5 5.5h2q18 -2 42.5 -4t49 -3.5t45 -2.5t30.5 -1q36 0 58 5t34 15.5t16 26.5t4 39v10q0 37 -22 53t-84 16h-175q-17 0 -17 16v2l31 389
q1 8 6.5 13.5t13.5 5.5h414q8 0 14 -5.5t6 -13.5v-124q0 -8 -6 -13.5t-14 -5.5h-272l-10 -110h41q146 0 213.5 -55.5t67.5 -167.5v-10z" />
    <glyph glyph-name="six" unicode="6" 
d="M606 248q0 -59 -17 -106t-51 -81t-85 -52t-118 -18q-131 0 -202.5 71t-71.5 208v206q0 75 21.5 127.5t59.5 86t88.5 48.5t109.5 15q70 0 121.5 -8t87.5 -18q14 -4 18 -9.5t4 -14.5v-105q0 -21 -18 -21h-5q-18 3 -39.5 5.5t-45.5 4.5t-48 3t-46 1q-33 0 -54.5 -5
t-33.5 -18t-16.5 -35.5t-4.5 -56.5v-6q7 1 20 3t27.5 3.5t29 2.5t25.5 1q61 0 107 -11t76.5 -36.5t45.5 -68t15 -105.5v-11zM407 259q0 26 -5 42t-14.5 25t-24 12t-33.5 3q-18 0 -37.5 -2t-32.5 -4v-65q0 -39 4 -63.5t13 -38t23 -18.5t35 -5q16 0 29 4t22.5 15.5t15 31.5
t5.5 52v11z" />
    <glyph glyph-name="seven" unicode="7" 
d="M582 625q0 -12 -4.5 -23t-9.5 -22l-256 -560q-4 -9 -9 -14.5t-14 -5.5h-178q-10 0 -12.5 7t1.5 15l257 544q5 9 2.5 12t-10.5 3h-244q-8 0 -14.5 5.5t-6.5 13.5v124q0 8 6.5 13.5t14.5 5.5h450q11 0 19 -7.5t8 -18.5v-92z" />
    <glyph glyph-name="eight" unicode="8" 
d="M613 212q0 -50 -17.5 -90.5t-52 -69.5t-86 -45t-118.5 -16h-12q-67 0 -118.5 16t-86 45t-52 69.5t-17.5 90.5v16q0 49 21.5 89t58.5 68q-35 25 -55.5 59.5t-20.5 84.5v18q0 99 67 152.5t203 53.5h12q135 0 202.5 -53.5t67.5 -152.5v-18q0 -50 -20.5 -84.5t-55.5 -59.5
q37 -28 58.5 -68t21.5 -89v-16zM417 529q0 29 -17 52.5t-61 23.5h-12q-44 0 -61 -23t-17 -53v-6q0 -33 19 -52t54 -19h22q35 0 54 19t19 52v6zM417 232q0 33 -17 57.5t-56 24.5h-22q-39 0 -56 -24t-17 -58v-11q0 -36 20 -59t58 -23h12q38 0 58 23t20 59v11z" />
    <glyph glyph-name="nine" unicode="9" 
d="M606 268q0 -75 -21.5 -127.5t-59.5 -86t-89 -48.5t-109 -15q-70 0 -121.5 8t-87.5 18q-14 4 -18 9.5t-4 14.5v105q0 14 5 18.5t18 2.5q37 -5 85.5 -9.5t93.5 -4.5q33 0 54.5 5t33.5 18t16.5 35t4.5 57v6q-7 -2 -20 -3.5t-27.5 -3t-29 -2.5t-25.5 -1q-62 0 -107.5 11
t-76 36.5t-45.5 68t-15 105.5v11q0 58 17 105.5t51 81.5t85 52t118 18q131 0 202.5 -71t71.5 -208v-206zM407 474q0 39 -4 63.5t-13 38t-23 18.5t-35 5q-16 0 -29 -4t-22.5 -15.5t-15 -31.5t-5.5 -52v-11q0 -26 5 -42t14.5 -25t24 -12t33.5 -3q18 0 37.5 2t32.5 4v65z" />
    <glyph glyph-name="colon" unicode=":" horiz-adv-x="291" 
d="M239 391q0 -8 -6.5 -14t-14.5 -6h-145q-8 0 -14.5 6t-6.5 14v139q0 8 6.5 14t14.5 6h145q8 0 14.5 -6t6.5 -14v-139zM239 20q0 -8 -6.5 -14t-14.5 -6h-145q-8 0 -14.5 6t-6.5 14v139q0 8 6.5 14t14.5 6h145q8 0 14.5 -6t6.5 -14v-139z" />
    <glyph glyph-name="semicolon" unicode=";" horiz-adv-x="291" 
d="M239 391q0 -8 -6.5 -14t-14.5 -6h-146q-8 0 -14 6t-6 14v139q0 8 6 14t14 6h146q8 0 14.5 -6t6.5 -14v-139zM223 178q8 0 11.5 -6t-0.5 -14l-103 -238q-4 -8 -8 -14t-12 -6h-108q-8 0 -14.5 4.5t-3.5 15.5l67 238q2 8 6 14t15 6h150z" />
    <glyph glyph-name="less" unicode="&#x3c;" 
d="M562 148q0 -12 -12 -12h-168q-16 0 -26 10l-234 213q-18 16 -18 32q0 18 18 33l234 212q6 5 12 8t14 3h168q12 0 12 -12q0 -6 -6 -12l-257 -232l257 -231q6 -6 6 -12z" />
    <glyph glyph-name="equal" unicode="=" 
d="M569 471q0 -8 -6 -12t-14 -4h-432q-8 0 -14 4t-6 12v110q0 8 6 12t14 4h432q8 0 14 -4t6 -12v-110zM569 201q0 -8 -6 -12t-14 -4h-432q-8 0 -14 4t-6 12v110q0 8 6 12t14 4h432q8 0 14 -4t6 -12v-110z" />
    <glyph glyph-name="greater" unicode="&#x3e;" 
d="M562 391q0 -16 -18 -32l-234 -213q-10 -10 -26 -10h-168q-12 0 -12 12q0 6 6 12l258 231l-258 232q-6 6 -6 12q0 12 12 12h168q8 0 14 -3t12 -8l234 -212q18 -15 18 -33z" />
    <glyph glyph-name="question" unicode="?" horiz-adv-x="492" 
d="M456 601q0 -64 -51 -137l-106 -153q-11 -15 -15 -25t-6 -26q-1 -6 -6 -10t-10 -4h-139q-10 0 -10 13v35q0 36 6 59.5t23 53.5l81 138q5 8 8 15t3 15q0 15 -10 21t-35 6q-10 0 -28 -1.5t-38 -3t-38 -3.5l-27 -3q-20 -3 -20 20v117q0 17 19 23q33 11 76.5 18t89.5 7
q55 0 98.5 -8.5t73.5 -28t45.5 -51t15.5 -78.5v-9zM288 20q0 -8 -6.5 -14t-14.5 -6h-146q-8 0 -14 6t-6 14v139q0 8 6 14t14 6h146q8 0 14.5 -6t6.5 -14v-139z" />
    <glyph glyph-name="at" unicode="@" horiz-adv-x="778" 
d="M749 358q0 -88 -29 -148t-80 -97.5t-119.5 -54t-146.5 -16.5q-38 0 -71.5 8t-58 25t-38.5 43.5t-14 63.5q0 11 1 27t2 26l7 88q4 47 21 80t44 53.5t63 30t78 9.5q32 0 67.5 -4t68.5 -12q14 -3 21.5 -9t5.5 -25l-28 -293q28 6 50 23.5t36.5 44.5t22 61.5t7.5 75.5
q0 44 -13 85t-41.5 73t-73 51t-107.5 19q-263 0 -286 -242l-15 -165q-1 -9 -1 -18v-17q0 -45 13.5 -80t43 -59t76.5 -36.5t114 -12.5q38 0 78 2.5t75 5.5q7 1 8.5 -1t1.5 -10v-45q0 -11 -10 -12q-33 -4 -71 -7.5t-82 -3.5q-72 0 -134 15.5t-107.5 47.5t-71.5 80.5t-26 115.5
v17.5t1 17.5l17 171q7 74 35.5 132.5t76 99t114 62t150.5 21.5q83 0 144 -26t101.5 -68.5t60 -98t19.5 -114.5zM433 383q-11 2 -18.5 3t-16.5 1q-33 0 -47 -13.5t-18 -54.5l-11 -110q-1 -5 -1 -8.5v-7.5q0 -26 14 -34.5t48 -8.5h11.5t17.5 1z" />
    <glyph glyph-name="A" unicode="A" horiz-adv-x="692" 
d="M483 0q-11 0 -14.5 5.5t-5.5 13.5l-28 139h-178l-28 -139q-2 -8 -5.5 -13.5t-14.5 -5.5h-173q-11 0 -14.5 6.5t-1.5 14.5l134 612q8 37 26 60.5t43 36.5t56 17.5t67 4.5t67 -4.5t56 -17.5t43 -36.5t26 -60.5l134 -612q2 -9 -1 -15t-14 -6h-174zM357 572l-3 10.5t-8 3.5
t-8 -3.5l-3 -10.5l-49 -254h120z" />
    <glyph glyph-name="B" unicode="B" horiz-adv-x="689" 
d="M646 222q0 -72 -28.5 -117.5t-74.5 -70.5t-104.5 -34t-118.5 -9q-19 0 -45 0.5t-52.5 2t-51.5 4t-43 5.5t-30 7.5t-19.5 13t-10.5 22t-3 33.5v587q0 40 13.5 55t48.5 20q16 3 40.5 5t51.5 3.5t53 2.5t45 1q74 0 134 -10t102.5 -34t65.5 -65.5t23 -104.5v-17
q0 -48 -21.5 -85.5t-55.5 -56.5q34 -20 57.5 -58.5t23.5 -86.5v-13zM446 524q0 34 -19 49t-72 15h-21t-28.5 -0.5t-26 -0.5h-14.5v-142h97q49 0 66.5 18.5t17.5 44.5v16zM450 237q0 30 -19 51t-69 21h-97v-153h82q59 0 81 20t22 52v9z" />
    <glyph glyph-name="C" unicode="C" horiz-adv-x="555" 
d="M517 31q0 -10 -5 -14t-17 -8q-20 -7 -56 -12.5t-84 -5.5q-69 0 -126 19t-97.5 59.5t-62.5 102.5t-22 148v103q0 86 22 148t62.5 102.5t97.5 59.5t126 19q48 0 84 -5.5t56 -12.5q12 -4 17 -7.5t5 -14.5v-128q0 -11 -4 -16t-17 -3q-31 3 -64 6t-76 3q-20 0 -39 -5.5
t-33 -22t-22.5 -46t-8.5 -77.5v-103q0 -47 8.5 -76.5t22.5 -46t32.5 -22.5t39.5 -6q43 0 75 2.5t65 6.5q14 2 17.5 -4t3.5 -15v-128z" />
    <glyph glyph-name="D" unicode="D" horiz-adv-x="696" 
d="M651 317q0 -84 -23 -145.5t-65 -101.5t-102 -59.5t-135 -19.5q-72 0 -131 5t-98 12q-17 3 -24.5 11t-7.5 28v650q0 20 7.5 28t24.5 11q39 7 98 12t131 5q74 0 134 -19.5t102.5 -59.5t65.5 -101.5t23 -145.5v-110zM446 427q0 45 -7.5 74.5t-22.5 46.5t-37.5 24t-52.5 7
h-22t-35 -1v-413q3 0 10 -0.5t16 -0.5h17.5h13.5q30 0 52.5 7t37.5 24t22.5 47t7.5 75v110z" />
    <glyph glyph-name="E" unicode="E" horiz-adv-x="585" 
d="M532 23q0 -17 -20 -20q-29 -4 -76.5 -8t-120.5 -4q-48 0 -94 7.5t-82 31.5t-58 68t-22 117v314q0 72 22 116t58 68t82 32t94 8q73 0 120.5 -4t76.5 -8q20 -3 20 -20v-122q0 -8 -6 -14t-14 -6h-202q-27 0 -37.5 -10.5t-10.5 -39.5v-73h246q8 0 14 -6t6 -14v-118
q0 -8 -6 -14t-14 -6h-246v-83q0 -29 10.5 -39.5t37.5 -10.5h202q8 0 14 -6t6 -14v-122z" />
    <glyph glyph-name="F" unicode="F" horiz-adv-x="580" 
d="M527 598q0 -8 -6 -14t-14 -6h-202q-27 0 -37.5 -10.5t-10.5 -39.5v-72h246q8 0 14 -6t6 -14v-118q0 -8 -6 -14t-14 -6h-246v-278q0 -8 -6 -14t-14 -6h-163q-8 0 -14 6t-6 14v508q0 72 22 116t58 68t82 32t94 8q73 0 120.5 -4t76.5 -8q20 -3 20 -20v-122z" />
    <glyph glyph-name="G" unicode="G" horiz-adv-x="657" 
d="M599 38q0 -11 -4.5 -16t-16.5 -7q-43 -9 -100.5 -16.5t-130.5 -7.5q-30 0 -64 5.5t-67.5 19.5t-64.5 37.5t-54.5 60t-37.5 87t-14 118.5v105q0 103 30 167t76 100t102 49t108 13q78 0 133 -9.5t86 -17.5q11 -3 15 -6t4 -13v-126q0 -11 -4 -14t-13 -2q-29 2 -83 5.5
t-110 3.5q-36 0 -62 -6.5t-43 -23t-25 -46t-8 -74.5v-106q0 -50 9.5 -80.5t24 -46.5t31 -21t31.5 -5q29 0 55 3v205q0 8 5.5 14t13.5 6h158q8 0 14 -6t6 -14v-335z" />
    <glyph glyph-name="H" unicode="H" horiz-adv-x="746" 
d="M681 20q0 -8 -6 -14t-14 -6h-163q-8 0 -14 6t-6 14v272h-209v-272q0 -8 -6 -14t-14 -6h-163q-8 0 -14.5 6t-6.5 14v704q0 8 6.5 13.5t14.5 5.5h163q8 0 14 -5.5t6 -13.5v-256h209v256q0 8 6 13.5t14 5.5h163q8 0 14 -5.5t6 -13.5v-704z" />
    <glyph glyph-name="I" unicode="I" horiz-adv-x="334" 
d="M269 20q0 -8 -6 -14t-14 -6h-164q-8 0 -14 6t-6 14v704q0 8 6 13.5t14 5.5h164q8 0 14 -5.5t6 -13.5v-704z" />
    <glyph glyph-name="J" unicode="J" horiz-adv-x="334" 
d="M269 2q0 -58 -13 -95.5t-36 -59.5t-56 -30.5t-72 -8.5q-21 0 -44 1.5t-47 5.5q-12 2 -16 7t-4 13v109q0 8 6 14t14 6h37q17 0 22 9.5t5 28.5v721q0 8 6.5 14t14.5 6h163q8 0 14 -6t6 -14v-721z" />
    <glyph glyph-name="K" unicode="K" horiz-adv-x="713" 
d="M689 11q0 -11 -13 -11h-210q-9 0 -13 5t-8 12l-176 319v-316q0 -8 -6 -14t-14 -6h-163q-8 0 -14.5 6t-6.5 14v704q0 8 6.5 13.5t14.5 5.5h163q8 0 14 -5.5t6 -13.5v-317l192 320q4 7 9 11.5t13 4.5h192q14 0 14 -11q0 -6 -4 -11l-218 -344l219 -356q3 -5 3 -10z" />
    <glyph glyph-name="L" unicode="L" horiz-adv-x="522" 
d="M499 23q0 -17 -20 -20q-14 -3 -32.5 -5t-39.5 -3.5t-43 -2.5t-42 -1q-48 0 -94 7.5t-82.5 31.5t-58.5 68t-22 117v508q0 8 6.5 14t14.5 6h163q8 0 14 -6t6 -14v-508q0 -29 10.5 -39.5t37.5 -10.5h162q8 0 14 -6t6 -14v-122z" />
    <glyph glyph-name="M" unicode="M" horiz-adv-x="841" 
d="M484 249q-12 -19 -29 -19h-69q-17 0 -29 19l-82 137q-5 7 -6.5 9t-4.5 2q-4 0 -4 -10v-370q0 -6 -4 -11.5t-10 -5.5h-165q-6 0 -11 2.5t-5 14.5v689q0 15 11 26t26 11h111q19 0 31 -8t20 -22l145 -253q7 -12 11 -12q5 0 12 12l145 253q8 14 20 22t31 8h111q15 0 26 -11
t11 -26v-689q0 -8 -5.5 -12.5t-11.5 -4.5h-164q-6 0 -10.5 3t-4.5 14v370q0 10 -4 10q-3 0 -4 -2t-6 -9z" />
    <glyph glyph-name="N" unicode="N" horiz-adv-x="746" 
d="M681 37q0 -15 -11 -26t-26 -11h-134q-26 0 -42 27l-197 335q-5 8 -10 8t-5 -9v-341q0 -8 -6 -14t-14 -6h-150q-8 0 -14.5 6t-6.5 14v686q0 15 11 26t26 11h132q14 0 23 -7.5t17 -21.5l203 -345q5 -9 9 -9q2 0 3.5 1.5t1.5 7.5v354q0 8 6 14t14 6h150q8 0 14 -6t6 -14
v-686z" />
    <glyph glyph-name="O" unicode="O" horiz-adv-x="708" 
d="M661 320q0 -92 -24.5 -154.5t-66.5 -101.5t-98 -56t-118 -17t-118 17t-98 56t-66.5 101.5t-24.5 154.5v103q0 91 24.5 154t66.5 102t98 56.5t118 17.5t118 -17.5t98 -56.5t66.5 -102t24.5 -154v-103zM455 423q0 81 -24 116t-77 35t-77 -35t-24 -116v-103q0 -81 24 -115.5
t77 -34.5t77 34.5t24 115.5v103z" />
    <glyph glyph-name="P" unicode="P" horiz-adv-x="677" 
d="M646 494q0 -74 -28 -122.5t-72.5 -77.5t-99.5 -40.5t-109 -11.5q-17 0 -34 1t-37 2v-225q0 -8 -6 -14t-14 -6h-160q-8 0 -14.5 5t-6.5 13v656q0 36 13 48.5t45 17.5q19 3 44 5.5t53.5 4t57.5 2.5t56 1q56 0 111.5 -11t100 -39.5t72.5 -77t28 -123.5v-8zM444 502
q0 44 -28 62.5t-79 18.5h-13.5t-22.5 -0.5t-22.5 -0.5h-12.5v-170q2 0 12.5 -0.5t22.5 -0.5h23h13q107 0 107 83v8z" />
    <glyph glyph-name="Q" unicode="Q" horiz-adv-x="707" 
d="M660 320q0 -72 -16 -126.5t-44 -93.5t-66.5 -63t-83.5 -35v-19q0 -13 4 -16t14 -3h83q11 0 18 -4t7 -12v-102q0 -17 -24 -23q-26 -7 -57.5 -11t-66.5 -4q-33 0 -63.5 8t-54 28t-37.5 53.5t-14 84.5v20q-46 11 -84.5 34.5t-67 62t-44.5 93.5t-16 128v103q0 91 24.5 154
t66.5 102t98 56t118 17t117.5 -17t97.5 -56t66.5 -102t24.5 -154v-103zM455 423q0 81 -24 116t-77 35t-77.5 -35t-24.5 -116v-103q0 -81 24.5 -116t77.5 -35t77 35t24 116v103z" />
    <glyph glyph-name="R" unicode="R" horiz-adv-x="708" 
d="M673 15q0 -15 -17 -15h-184q-8 0 -12 6t-8 14l-127 244h-22.5t-34.5 1v-245q0 -8 -6 -14t-14 -6h-162q-8 0 -14.5 6t-6.5 14v654q0 36 13 48.5t45 17.5q15 2 40 4.5t54 4.5t59.5 3t57.5 1q70 0 127.5 -12t98.5 -40.5t64 -74.5t23 -115v-16q0 -40 -10 -72t-27 -56.5
t-39 -41.5t-46 -27l145 -272q3 -6 3 -11zM445 511q0 71 -100 71h-11h-19t-23.5 -0.5t-23.5 -1.5v-159q2 0 12.5 -0.5t23.5 -0.5h24h13q58 0 81 19.5t23 54.5v17z" />
    <glyph glyph-name="S" unicode="S" horiz-adv-x="607" 
d="M568 220q0 -42 -15.5 -83t-49 -73.5t-87.5 -52.5t-131 -20q-62 0 -112 7.5t-90 18.5q-8 2 -14.5 7t-6.5 13v123q0 21 21 20q16 -2 42.5 -4.5t55.5 -4.5t57 -4t48 -2q37 0 50 13.5t13 37.5q0 15 -9.5 25.5t-37.5 27.5l-144 85q-35 21 -58 44t-36.5 48t-19 52t-5.5 56
q0 41 12.5 77t42.5 63t80.5 43t126.5 16q30 0 63 -2t64.5 -6t58 -8.5t41.5 -8.5q7 -2 12.5 -6.5t5.5 -12.5v-125q0 -8 -4 -14t-16 -5q-15 1 -42.5 3t-59.5 4.5t-65 4t-60 1.5q-28 0 -39 -9t-11 -25q0 -14 10 -24t42 -27l135 -72q73 -39 102.5 -88.5t29.5 -112.5z" />
    <glyph glyph-name="T" unicode="T" horiz-adv-x="594" 
d="M570 596q0 -8 -6.5 -13.5t-14.5 -5.5h-149v-557q0 -8 -6 -14t-14 -6h-163q-8 0 -14 6t-6 14v557h-152q-8 0 -14 5.5t-6 13.5v128q0 8 6 13.5t14 5.5h504q8 0 14.5 -5.5t6.5 -13.5v-128z" />
    <glyph glyph-name="U" unicode="U" horiz-adv-x="731" 
d="M668 282q0 -91 -25.5 -147.5t-67.5 -88.5t-96.5 -43.5t-113.5 -11.5t-113.5 11.5t-96.5 43.5t-67 88.5t-25 147.5v441q0 8 6.5 14t14.5 6h162q8 0 14 -6t6 -14v-441q0 -68 23 -94t76 -26t76.5 26t23.5 94v441q0 8 6 14t14 6h162q8 0 14.5 -6t6.5 -14v-441z" />
    <glyph glyph-name="V" unicode="V" horiz-adv-x="716" 
d="M669 743q11 0 14 -6t1 -14l-134 -612q-8 -37 -25.5 -60.5t-42.5 -36.5t-56.5 -18t-67.5 -5t-67.5 5t-56.5 18t-42.5 36.5t-25.5 60.5l-134 612q-2 8 1.5 14t14.5 6h173q11 0 15 -5.5t6 -13.5l105 -553q2 -7 3.5 -10.5t7.5 -3.5t8 3.5t4 10.5l105 553q2 8 7 13.5t13 5.5
h174z" />
    <glyph glyph-name="W" unicode="W" horiz-adv-x="917" 
d="M880 743q17 0 16 -13l-88 -645q-4 -26 -10.5 -42.5t-16.5 -26t-23.5 -13t-29.5 -3.5h-103q-33 0 -50.5 17t-30.5 60l-74 252q-2 6 -3 7.5t-5 1.5t-5.5 -1.5t-3.5 -7.5l-74 -252q-13 -43 -30.5 -60t-50.5 -17h-103q-17 0 -30 3.5t-23 13t-16.5 26t-10.5 42.5l-88 645
q-1 8 3.5 10.5t12.5 2.5h170q8 0 11 -5.5t4 -13.5l49 -443q2 -13 7 -13t8 13l58 202q7 25 21.5 34t37.5 9h105q23 0 37.5 -9t21.5 -34l58 -202q3 -13 8 -13t7 13l49 443q1 8 4 13.5t11 5.5h170z" />
    <glyph glyph-name="X" unicode="X" horiz-adv-x="736" 
d="M705 11q0 -11 -13 -11h-203q-9 0 -14.5 5t-10.5 13l-108 178l-96 -176q-5 -8 -10.5 -14t-13.5 -6h-187q-6 0 -9.5 3.5t-3.5 8.5q0 2 2 8l204 368l-202 336q-2 4 -2 7q0 12 13 12h204q8 0 13.5 -6t10.5 -13l103 -170l88 170q4 7 10 13t14 6h188q13 0 13 -12q0 -3 -2 -7
l-201 -354l210 -350q3 -5 3 -9z" />
    <glyph glyph-name="Y" unicode="Y" horiz-adv-x="682" 
d="M662 730q0 -2 -2 -8l-147 -345q-16 -37 -33.5 -57.5t-37.5 -28.5v-271q0 -8 -6 -14t-14 -6h-163q-8 0 -13.5 6t-5.5 14v271q-20 8 -37.5 28.5t-33.5 57.5l-147 345q-2 6 -2 8q0 13 14 13h174q15 0 19.5 -5.5t7.5 -13.5l96 -265q4 -10 10 -10t10 10l96 265q3 8 7 13.5
t20 5.5h174q14 0 14 -13z" />
    <glyph glyph-name="Z" unicode="Z" horiz-adv-x="632" 
d="M577 20q0 -8 -6 -14t-14 -6h-471q-13 0 -22 6.5t-9 19.5v105q0 11 4 22t14 27l239 369q4 7 4 12q0 7 -11 7h-219q-8 0 -14 6t-6 14v136q0 8 6 13.5t14 5.5h456q10 0 18 -3t8 -13v-126q0 -8 -5.5 -24.5t-26.5 -48.5l-218 -334q-4 -5 -4 -11q0 -8 12 -8h231q8 0 14 -5.5
t6 -13.5v-136z" />
    <glyph glyph-name="bracketleft" unicode="[" horiz-adv-x="394" 
d="M361 -176q0 -18 -19 -18h-268q-8 0 -12.5 5.5t-4.5 13.5v899q0 8 4.5 13.5t12.5 5.5h267q8 0 14 -5t6 -13v-113q0 -8 -6 -13t-14 -5h-90v-639h91q19 0 19 -18v-113z" />
    <glyph glyph-name="backslash" unicode="\" horiz-adv-x="425" 
d="M414 15q0 -7 -7 -12t-15 -5h-153q-8 0 -13 6.5t-7 14.5l-207 704q0 1 -0.5 2t-0.5 2q0 7 6.5 11.5t14.5 4.5h153q8 0 14 -6t8 -14l206 -704q0 -1 0.5 -1.5t0.5 -2.5z" />
    <glyph glyph-name="bracketright" unicode="]" horiz-adv-x="394" 
d="M337 -175q0 -8 -4.5 -13.5t-12.5 -5.5h-268q-19 0 -19 18v113q0 18 19 18h91v639h-90q-8 0 -14 5t-6 13v113q0 8 6 13t14 5h267q8 0 12.5 -5.5t4.5 -13.5v-899z" />
    <glyph glyph-name="asciicircum" unicode="^" 
d="M607 576q0 -10 -12 -10h-159q-14 0 -19.5 3t-12.5 11l-71 77l-71 -77q-7 -8 -12.5 -11t-19.5 -3h-158q-12 0 -12 10q0 5 5 12l109 147q8 11 14.5 14.5t21.5 3.5h246q15 0 21.5 -3.5t14.5 -14.5l110 -147q5 -7 5 -12z" />
    <glyph glyph-name="underscore" unicode="_" horiz-adv-x="561" 
d="M593 -108q0 -8 -6 -12t-14 -4h-584q-8 0 -14 4t-6 12v58q0 8 6 12t14 4h584q8 0 14 -4t6 -12v-58z" />
    <glyph glyph-name="grave" unicode="`" horiz-adv-x="472" 
d="M314 640q0 -7 -9 -7h-129q-11 0 -14.5 3t-9.5 8l-126 120q-4 4 -4 8q0 7 11 7h158q11 0 16 -3.5t12 -11.5l91 -114q4 -4 4 -10z" />
    <glyph glyph-name="a" unicode="a" horiz-adv-x="575" 
d="M525 20q0 -8 -6 -14t-14 -6h-139q-8 0 -14 6t-6 14v21q-29 -21 -65 -35.5t-78 -14.5q-30 0 -60 9t-55 30t-40.5 55t-15.5 85v12q0 90 66.5 126.5t191.5 36.5h43v29q0 37 -14 47.5t-52 10.5q-21 0 -47 -1t-50.5 -2t-45.5 -2t-31 -2q-13 -1 -17.5 5t-4.5 15v97q0 11 5.5 16
t14.5 8q12 4 33.5 8t46.5 7.5t52 6t51 2.5q54 0 100 -10.5t79.5 -36t52.5 -67t19 -102.5v-354zM339 241h-49q-38 0 -54 -13t-16 -45v-10q0 -26 15 -35t36 -9q18 0 36.5 4.5t31.5 10.5v97z" />
    <glyph glyph-name="b" unicode="b" horiz-adv-x="616" 
d="M578 252q0 -127 -69.5 -194t-193.5 -67q-68 0 -126.5 8.5t-97.5 16.5q-23 5 -29.5 12t-6.5 20v705q0 8 7 14t15 6h150q8 0 14 -6t6 -14v-169l36 4.5t32 2.5q66 0 115.5 -18.5t82.5 -52.5t49 -82t16 -108v-78zM386 330q0 44 -14.5 73t-56.5 29q-18 0 -35.5 -1t-32.5 -3
v-274q14 -2 29.5 -3.5t38.5 -1.5q42 0 56.5 29t14.5 74v78z" />
    <glyph glyph-name="c" unicode="c" horiz-adv-x="474" 
d="M436 28q0 -10 -5 -14.5t-15 -6.5q-26 -6 -59 -11t-78 -5q-115 0 -177 69t-62 193v75q0 123 62 193t177 70q45 0 80.5 -5.5t56.5 -10.5q10 -2 15 -6.5t5 -14.5v-113q0 -9 -5 -15t-16 -4q-26 2 -52 4.5t-63 2.5q-32 0 -50 -22.5t-18 -78.5v-75q0 -56 18 -78t50 -22
q37 0 63 1.5t52 4.5q21 3 21 -19v-112z" />
    <glyph glyph-name="d" unicode="d" horiz-adv-x="616" 
d="M561 48q0 -13 -6 -20t-29 -12q-39 -8 -97.5 -16.5t-126.5 -8.5q-124 0 -193.5 66.5t-69.5 194.5v78q0 60 16 108t49 82t82.5 52.5t115.5 18.5q12 0 32 -2.5l36 -4.5v169q0 8 6 14t14 6h149q8 0 15 -6t7 -14v-705zM370 428q-15 2 -32.5 3t-35.5 1q-42 0 -57 -28.5
t-15 -73.5v-78q0 -45 15 -74t57 -29q22 0 38 1.5t30 3.5v274z" />
    <glyph glyph-name="e" unicode="e" horiz-adv-x="602" 
d="M562 259q0 -10 -6 -16t-15 -6h-311v-2q0 -40 20 -63t75 -23q20 0 46.5 1t53.5 2t51 2.5t39 2.5q12 1 17 -2.5t5 -14.5v-90q0 -12 -4 -18t-16 -10q-48 -16 -101 -23.5t-116 -7.5q-51 0 -98 14t-83 45.5t-57.5 81t-21.5 121.5v66q0 132 71.5 202t194.5 70q66 0 114 -20
t79.5 -56t47 -86t15.5 -110v-60zM378 346q0 45 -18 70.5t-56 25.5q-36 0 -55 -25.5t-19 -70.5v-3h148v3z" />
    <glyph glyph-name="f" unicode="f" horiz-adv-x="432" 
d="M399 460q0 -8 -6 -14t-14 -6h-76v-420q0 -8 -6 -14t-14 -6h-152q-8 0 -14 6t-6 14v420l-66 15q-8 2 -14.5 7.5t-6.5 13.5v84q0 8 6 15t15 7h66v27q0 56 12.5 91.5t35.5 55.5t54.5 27.5t70.5 7.5q50 0 93 -8q9 -2 15 -7t6 -13v-95q0 -8 -6 -13.5t-15 -5.5h-42
q-19 0 -25.5 -8.5t-6.5 -31.5v-27h76q8 0 14 -6t6 -14v-102z" />
    <glyph glyph-name="g" unicode="g" horiz-adv-x="614" 
d="M598 487q0 -17 -20 -22l-28 -8q8 -14 13 -33t5 -33v-11q0 -101 -68.5 -146t-189.5 -45q-30 0 -56.5 3.5t-41.5 8.5q-13 -9 -13 -21q0 -8 4.5 -13.5t18.5 -8.5l112 -23q48 -10 92.5 -21t78.5 -28.5t54.5 -45t20.5 -69.5v-7q0 -88 -70.5 -128.5t-208.5 -40.5
q-128 0 -194 45.5t-66 123.5v7q0 22 13.5 53t42.5 54q-19 14 -33 33t-14 55q0 35 14.5 54.5t32.5 36.5q-17 15 -26.5 31.5t-14 33t-6 31.5t-1.5 27v11q0 94 64 142.5t197 48.5h265q10 0 16.5 -7t6.5 -17v-71zM382 391q0 26 -15 42.5t-57 16.5t-57 -16.5t-15 -42.5v-11
q0 -12 3 -22.5t10.5 -18.5t21.5 -12.5t37 -4.5q42 0 57 16t15 42v11zM380 -29q0 7 -2.5 12.5t-11.5 11t-26 11t-46 11.5l-60 13q-7 -9 -11 -25t-4 -34v-7q0 -20 18.5 -32t63.5 -12q25 0 41 3.5t24 9.5t11 14t3 17v7z" />
    <glyph glyph-name="h" unicode="h" horiz-adv-x="632" 
d="M578 20q0 -8 -6 -14t-14 -6h-152q-8 0 -14 6t-6 14v345q0 40 -16 53t-47 13q-35 0 -76 -22v-387q0 -8 -5.5 -15t-14.5 -7h-150q-9 0 -15.5 7t-6.5 15v731q0 8 6 14t14 6h152q8 0 14 -6t6 -14v-201q32 23 67 30.5t81 7.5q54 0 89.5 -17.5t56 -48.5t29 -72t8.5 -87v-345z
" />
    <glyph glyph-name="i" unicode="i" horiz-adv-x="313" 
d="M258 657q0 -8 -7 -14t-15 -6h-158q-8 0 -15.5 6t-7.5 14v98q0 8 7.5 14t15.5 6h158q8 0 15 -6t7 -14v-98zM253 22q0 -8 -7 -15t-15 -7h-149q-8 0 -15 7t-7 15v539q0 8 7 14.5t15 6.5h149q8 0 15 -6.5t7 -14.5v-539z" />
    <glyph glyph-name="j" unicode="j" horiz-adv-x="312" 
d="M253 -21q0 -54 -12.5 -89.5t-34.5 -57t-53.5 -30t-68.5 -8.5q-23 0 -45.5 2t-48.5 7q-20 3 -20 21v93q0 8 6 14t15 6h43q18 0 22 11t4 31v582q0 8 7 14.5t15 6.5h149q8 0 15 -6.5t7 -14.5v-582zM258 657q0 -8 -7 -14t-15 -6h-158q-8 0 -15.5 6t-7.5 14v98q0 8 7.5 14
t15.5 6h158q8 0 15 -6t7 -14v-98z" />
    <glyph glyph-name="k" unicode="k" horiz-adv-x="627" 
d="M603 14q0 -5 -3.5 -9.5t-9.5 -4.5h-185q-19 0 -31 22l-127 228v-228q0 -8 -6 -15t-14 -7h-150q-8 0 -15 7t-7 15v731q0 8 7 14t15 6h150q8 0 14 -6t6 -14v-418l137 229q7 12 14 15t15 3h173q14 0 14 -12q0 -5 -3 -9l-173 -259l177 -280q2 -3 2 -8z" />
    <glyph glyph-name="l" unicode="l" horiz-adv-x="303" 
d="M248 22q0 -8 -6 -15t-14 -7h-151q-8 0 -15 7t-7 15v731q0 8 7 14t15 6h151q8 0 14 -6t6 -14v-731z" />
    <glyph glyph-name="m" unicode="m" horiz-adv-x="901" 
d="M846 22q0 -8 -5.5 -15t-14.5 -7h-150q-9 0 -15.5 7t-6.5 15v341q0 38 -11.5 49.5t-37.5 11.5q-11 0 -27.5 -2.5t-33.5 -9.5q2 -13 2.5 -23.5t0.5 -25.5v-341q0 -8 -6 -15t-15 -7h-150q-9 0 -15 7t-6 15v341q0 38 -11 49.5t-37 11.5q-12 0 -28 -3.5t-32 -11.5v-387
q0 -8 -5.5 -15t-14.5 -7h-150q-9 0 -15.5 7t-6.5 15v540q0 8 6 14t14 6h139q8 0 14 -6t6 -14v-23q38 29 74.5 40t79.5 11q37 0 67 -12t50 -39q39 32 78.5 41.5t85.5 9.5q95 0 136 -59t41 -168v-341z" />
    <glyph glyph-name="n" unicode="n" horiz-adv-x="631" 
d="M576 22q0 -8 -5.5 -15t-14.5 -7h-150q-9 0 -15.5 7t-6.5 15v339q0 40 -14 55t-48 15q-17 0 -37.5 -6t-37.5 -15v-388q0 -8 -5.5 -15t-14.5 -7h-150q-9 0 -15.5 7t-6.5 15v540q0 8 6 14t14 6h139q8 0 14 -6t6 -14v-23q40 30 81.5 40.5t83.5 10.5q59 0 94 -19t53.5 -51
t24 -73t5.5 -86v-339z" />
    <glyph glyph-name="o" unicode="o" horiz-adv-x="605" 
d="M565 262q0 -133 -68 -202t-194 -69t-194.5 69t-68.5 202v58q0 133 68.5 202t194.5 69t194 -69t68 -202v-58zM374 320q0 60 -18 85t-53 25t-53.5 -25t-18.5 -85v-58q0 -60 18.5 -85.5t53.5 -25.5t53 25.5t18 85.5v58z" />
    <glyph glyph-name="p" unicode="p" horiz-adv-x="616" 
d="M578 252q0 -60 -16 -108t-49 -82t-82.5 -52.5t-115.5 -18.5q-12 0 -32 2t-36 4v-168q0 -8 -6 -14.5t-14 -6.5h-150q-8 0 -15 6.5t-7 14.5v705q0 13 6.5 20t29.5 12q39 8 97.5 16.5t126.5 8.5q124 0 193.5 -66.5t69.5 -194.5v-78zM386 330q0 45 -14.5 73.5t-56.5 28.5
q-22 0 -38 -1t-30 -3v-274q15 -2 32.5 -3.5t35.5 -1.5q42 0 56.5 29t14.5 74v78z" />
    <glyph glyph-name="q" unicode="q" horiz-adv-x="616" 
d="M561 -171q0 -8 -7 -14.5t-15 -6.5h-149q-8 0 -14 6.5t-6 14.5v168q-16 -2 -36 -4t-32 -2q-66 0 -115.5 18.5t-82.5 52.5t-49 82t-16 108v78q0 127 69.5 194t193.5 67q68 0 126.5 -8.5t97.5 -16.5q23 -5 29 -12t6 -20v-705zM370 428q-14 2 -29.5 3t-38.5 1
q-42 0 -57 -28.5t-15 -73.5v-78q0 -44 15 -73.5t57 -29.5q18 0 35.5 1.5t32.5 3.5v274z" />
    <glyph glyph-name="r" unicode="r" horiz-adv-x="417" 
d="M393 448q0 -9 -3.5 -12t-13.5 -3h-14q-32 0 -62 -5t-53 -18v-388q0 -8 -5.5 -15t-14.5 -7h-150q-9 0 -15.5 7t-6.5 15v540q0 8 4.5 14t15.5 6h144q20 0 20 -20v-24q17 18 32.5 28t31.5 15.5t33 7t37 1.5q13 0 16.5 -4t3.5 -16v-122z" />
    <glyph glyph-name="s" unicode="s" horiz-adv-x="517" 
d="M478 170q0 -38 -13.5 -70.5t-42 -56.5t-72 -38t-104.5 -14q-54 0 -102 7t-83 17q-19 5 -19 22v103q0 11 5.5 17t19.5 4q23 -3 48 -6t48.5 -5t43.5 -3.5t32 -1.5q30 0 38.5 7t8.5 21q0 9 -6 16.5t-24 17.5l-122 66q-95 51 -95 158q0 77 54 118.5t166 41.5q57 0 102.5 -7.5
t81.5 -17.5q20 -5 20 -22v-105q0 -10 -3.5 -16t-16.5 -4q-11 1 -33 4t-47 5l-50 4t-42 2q-37 0 -37 -20q0 -9 5.5 -14t16.5 -11l117 -63q61 -33 83 -73.5t22 -82.5z" />
    <glyph glyph-name="t" unicode="t" horiz-adv-x="432" 
d="M399 460q0 -8 -6 -14t-14 -6h-76v-269q0 -23 4.5 -30.5t23.5 -7.5h46q9 0 15 -5.5t6 -13.5v-94q0 -8 -6 -13t-15 -7q-25 -5 -47.5 -7t-41.5 -2q-40 0 -72.5 7.5t-56 27.5t-36 55.5t-12.5 91.5v267l-66 15q-8 2 -14.5 8t-6.5 14v84q0 8 6 14.5t15 6.5h66v81q0 8 6.5 13.5
t14.5 7.5l149 26q14 2 18 -4.5t4 -14.5v-109h76q8 0 14 -6t6 -14v-102z" />
    <glyph glyph-name="u" unicode="u" horiz-adv-x="631" 
d="M576 20q0 -8 -6 -14t-14 -6h-139q-8 0 -14 6t-6 14v23q-27 -20 -64.5 -36t-93.5 -16t-91.5 19t-56 51t-28.5 73.5t-8 86.5v339q0 8 5.5 15t14.5 7h150q9 0 15.5 -7t6.5 -15v-339q0 -40 12 -55.5t50 -15.5q17 0 37.5 6.5t37.5 15.5v388q0 8 5.5 15t14.5 7h150q9 0 15.5 -7
t6.5 -15v-540z" />
    <glyph glyph-name="v" unicode="v" horiz-adv-x="620" 
d="M584 582q23 0 17 -22l-126 -454q-11 -39 -28.5 -62t-39.5 -35t-47 -15t-50 -3t-50 3t-46.5 15t-39 35t-28.5 62l-125 454q-6 22 16 22h164q11 0 15.5 -6t6.5 -15l75 -365q3 -18 12 -18q10 0 13 18l75 365q2 9 6 15t16 6h164z" />
    <glyph glyph-name="w" unicode="w" horiz-adv-x="871" 
d="M831 582q7 0 12 -4.5t3 -13.5l-88 -475q-9 -49 -30 -69t-55 -20h-91q-34 0 -53.5 22.5t-31.5 63.5l-54 183q-1 7 -7 7t-7 -7l-54 -183q-12 -41 -31 -63.5t-54 -22.5h-91q-34 0 -55 20t-30 69l-88 475q-2 10 3 14t12 4h160q14 0 17 -17l49 -343q1 -8 7 -8q5 0 8 8l58 205
q5 18 16 29.5t40 11.5h80q29 0 40 -11.5t16 -29.5l58 -205q3 -8 8 -8q6 0 7 8l49 343q3 17 17 17h160z" />
    <glyph glyph-name="x" unicode="x" horiz-adv-x="647" 
d="M421 0q-9 0 -14.5 5.5t-13.5 16.5l-85 134l-78 -135q-5 -10 -9.5 -15.5t-15.5 -5.5h-164q-12 0 -12 13q0 4 2 8l171 285l-170 255q-4 6 -1.5 13.5t12.5 7.5h185q8 0 14.5 -6t11.5 -15l77 -121l69 121q11 21 25 21h162q14 0 15.5 -7.5t-1.5 -13.5l-164 -272l178 -264
q6 -10 2.5 -17.5t-12.5 -7.5h-184z" />
    <glyph glyph-name="y" unicode="y" horiz-adv-x="621" 
d="M586 582q7 0 14 -4t3 -18l-170 -594q-11 -40 -27 -71.5t-42 -53t-65.5 -33t-98.5 -11.5q-15 0 -34 1.5t-38 4t-36 5.5t-27 7q-8 3 -15.5 7.5t-7.5 11.5v97q0 8 3.5 15.5t19.5 5.5q14 -1 31.5 -2.5t36.5 -2.5t37 -2t32 -1q21 0 35 8t19 30l8 33h-13q-17 0 -31 2.5t-26 13
t-22.5 31t-21.5 57.5l-132 441q-6 22 21 22h163q11 0 14.5 -6t5.5 -14l79 -344q4 -17 11 -17h8l79 362q2 8 5.5 13.5t15.5 5.5h166z" />
    <glyph glyph-name="z" unicode="z" horiz-adv-x="542" 
d="M495 20q0 -8 -6 -14t-14 -6h-401q-11 0 -19 8t-8 19v84q0 13 3 22.5t12 21.5l191 259q4 5 4 9q0 6 -9 6h-178q-16 0 -16 16v117q0 8 6 14t14 6h393q11 0 18.5 -8t7.5 -19v-91q0 -17 -4 -25.5t-13 -20.5l-182 -247q-4 -6 -4 -9q0 -6 9 -6h178q8 0 13 -4t5 -12v-120z" />
    <glyph glyph-name="braceleft" unicode="{" horiz-adv-x="417" 
d="M402 -179q0 -8 -6 -13t-14 -5h-62q-67 0 -110 9.5t-68 33t-34.5 63t-9.5 98.5v116q0 32 -15 55t-40 39v112q25 16 40 39t15 55v116q0 59 9.5 98.5t34.5 63t68 33t110 9.5h62q8 0 14 -5t6 -13v-113q0 -8 -6 -13t-14 -5h-52q-25 0 -32 -11.5t-7 -43.5v-116
q0 -51 -20.5 -89.5t-67.5 -60.5q47 -22 67.5 -60.5t20.5 -89.5v-116q0 -32 7 -43.5t32 -11.5h52q8 0 14 -5t6 -13v-113z" />
    <glyph glyph-name="bar" unicode="|" horiz-adv-x="308" 
d="M251 -172q0 -8 -6.5 -15t-14.5 -7h-151q-8 0 -15 7t-7 15v895q0 8 7 14t15 6h151q8 0 14.5 -6t6.5 -14v-895z" />
    <glyph glyph-name="braceright" unicode="}" horiz-adv-x="417" 
d="M374 217q-25 -16 -40 -39t-15 -55v-116q0 -59 -9.5 -98.5t-34.5 -63t-68 -33t-110 -9.5h-62q-8 0 -14 5t-6 13v113q0 8 6 13t14 5h52q25 0 32 11.5t7 43.5v116q0 51 20.5 89.5t67.5 60.5q-47 22 -67.5 60.5t-20.5 89.5v116q0 32 -7 43.5t-32 11.5h-52q-8 0 -14 5t-6 13
v113q0 8 6 13t14 5h62q67 0 110 -9.5t68 -33t34.5 -63t9.5 -98.5v-116q0 -32 15 -55t40 -39v-112z" />
    <glyph glyph-name="asciitilde" unicode="~" 
d="M603 485q0 -89 -42.5 -125.5t-122.5 -36.5q-23 0 -49 8t-45 19l-60 35q-16 9 -27 11.5t-19 2.5q-14 0 -19.5 -7.5t-5.5 -21.5v-19q0 -21 -20 -21h-108q-22 0 -22 21v19q0 46 11.5 78t33.5 51.5t52.5 28t68.5 8.5q16 0 41 -4.5t43 -15.5l70 -40q16 -9 27.5 -12.5
t19.5 -3.5q23 0 23 26v23q0 21 21 21h107q22 0 22 -21v-24z" />
    <glyph glyph-name="exclamdown" unicode="&#xa1;" horiz-adv-x="291" 
d="M238 423q0 -8 -6 -14t-14 -6h-146q-8 0 -14 6t-6 14v139q0 8 6 14t14 6h146q8 0 14 -6t6 -14v-139zM244 -172q0 -8 -7 -13.5t-15 -5.5h-156q-8 0 -14 5.5t-6 13.5v1l25 491q1 8 6.5 14.5t13.5 6.5h106q8 0 14.5 -6.5t7.5 -14.5l25 -491v-1z" />
    <glyph glyph-name="cent" unicode="&#xa2;" 
d="M531 28q0 -10 -5 -14.5t-15 -6.5q-15 -4 -33.5 -7.5t-40.5 -5.5v-67q0 -8 -6 -14t-14 -6h-121q-8 0 -14 6t-6 14v80q-69 26 -105 89t-36 157v75q0 94 36 157t105 89v78q0 8 6 14t14 6h121q8 0 14 -6t6 -14v-65q23 -2 42 -5.5t32 -6.5q10 -2 15 -6.5t5 -14.5v-113
q0 -8 -5.5 -13.5t-13.5 -5.5h-2q-26 2 -52 4.5t-63 2.5q-32 0 -50 -22.5t-18 -78.5v-75q0 -56 18 -78t50 -22q37 0 63 2l52 4h2q8 0 13.5 -5.5t5.5 -13.5v-112z" />
    <glyph glyph-name="sterling" unicode="&#xa3;" 
d="M596 580q0 -18 -17 -18h-3q-31 3 -77 7t-90 4q-42 0 -58 -13t-16 -57v-50h152q8 0 14 -5.5t6 -13.5v-119q0 -8 -5.5 -14t-13.5 -6h-153v-74q0 -19 -5 -35.5t-11 -27.5h256q8 0 14 -5.5t6 -13.5v-119q0 -8 -6 -14t-14 -6h-457q-10 0 -15 7t-5 15v90q0 10 3 15t7 10
q5 6 10.5 15.5t10 21t7.5 24t3 23.5v74h-49q-8 0 -13.5 6t-5.5 14v119q0 8 6 13.5t14 5.5h48v48q0 67 16 114t49 76.5t84 42.5t121 13q24 0 48.5 -2t47 -5t41.5 -6t30 -5q14 -3 17 -7.5t3 -13.5v-128z" />
    <glyph glyph-name="currency" unicode="&#xa4;" 
d="M598 552q0 -8 -7 -15l-86 -86q19 -40 19 -80q0 -45 -21 -85l84 -85q7 -7 7 -15q0 -6 -5 -11l-65 -66q-5 -5 -11 -5q-8 0 -15 7l-87 87q-35 -16 -76 -16q-44 0 -81 19l-86 -86q-3 -3 -7 -5.5t-9 -2.5t-10 5l-65 66q-5 5 -5 12q0 8 7 15l86 85q-20 38 -20 81q0 39 17 76
l-87 87q-7 7 -7 15q0 6 5 11l66 65q5 5 11 5q8 0 15 -7l84 -84q40 21 86 21q44 0 81 -19l85 86q7 7 15 7q6 0 11 -5l66 -66q5 -5 5 -11zM413 375q0 32 -21.5 53.5t-53.5 21.5t-54 -21.5t-22 -53.5t22 -54.5t54 -22.5t53.5 22.5t21.5 54.5z" />
    <glyph glyph-name="yen" unicode="&#xa5;" 
d="M649 730q0 -2 -2 -8l-107 -221h80q8 0 14 -5.5t6 -13.5v-86q0 -19 -19 -19h-141l-42 -86l-3 -9h185q8 0 14 -5.5t6 -13.5v-86q0 -19 -19 -19h-186v-138q0 -8 -6.5 -14t-14.5 -6h-164q-8 0 -13.5 6t-5.5 14v138h-185q-8 0 -14 5.5t-6 13.5v86q0 8 6 13.5t14 5.5h185l-3 9
l-40 86h-142q-8 0 -14 5.5t-6 13.5v86q0 8 6 13.5t14 5.5h81l-108 221q-2 6 -2 8q0 13 15 13h181q8 0 12.5 -5t7.5 -13l100 -245l100 245q3 8 7.5 13t12.5 5h181q15 0 15 -13z" />
    <glyph glyph-name="brokenbar" unicode="&#xa6;" horiz-adv-x="308" 
d="M251 364q0 -8 -6 -15t-14 -7h-152q-8 0 -15 7t-7 15v344q0 8 7 14t15 6h152q8 0 14 -6t6 -14v-344zM251 -189q0 -8 -6 -15t-14 -7h-152q-8 0 -15 7t-7 15v344q0 8 7 14t15 6h152q8 0 14 -6t6 -14v-344z" />
    <glyph glyph-name="section" unicode="&#xa7;" horiz-adv-x="607" 
d="M569 12q0 -42 -15 -82.5t-48.5 -73t-87 -52.5t-131.5 -20q-62 0 -113.5 7.5t-91.5 18.5q-8 2 -14.5 7t-6.5 13v125q0 8 6 13.5t14 5.5h2q20 -2 44.5 -4.5t51.5 -5t54 -4t51 -1.5h3q37 0 51 12t14 38q0 15 -10 26t-39 27l-142 80q-37 21 -61 44t-37.5 48.5t-19 54
t-5.5 60.5q0 23 7 51.5t19 49.5q-12 20 -19 46t-7 55q0 41 12.5 77.5t42.5 64.5t80.5 44t126.5 16q30 0 63 -2t64.5 -6t58 -8.5t41.5 -8.5q8 -2 14 -7t6 -13v-125q0 -7 -4.5 -12t-11.5 -5h-1q-47 4 -110.5 7.5t-119.5 3.5q-29 0 -40.5 -6.5t-11.5 -26.5q0 -13 11 -23.5
t43 -27.5l135 -72q73 -39 102.5 -88t29.5 -112q0 -27 -7 -55t-18 -50q14 -23 19.5 -49t5.5 -55zM402 226q0 15 -3.5 26.5t-13 22.5t-26 22.5t-42.5 25.5l-66 36q-16 8 -25.5 14.5t-17.5 13.5q-16 -16 -16 -47q0 -13 3 -23t11 -20t23.5 -20t39.5 -23l64 -35
q20 -11 35.5 -21.5t23.5 -18.5q10 19 10 47z" />
    <glyph glyph-name="dieresis" unicode="&#xa8;" horiz-adv-x="472" 
d="M434 657q0 -8 -7.5 -14t-15.5 -6h-116q-8 0 -15 6t-7 14v98q0 8 7 14t15 6h116q8 0 15.5 -6t7.5 -14v-98zM200 657q0 -8 -7 -14t-15 -6h-116q-8 0 -15.5 6t-7.5 14v98q0 8 7.5 14t15.5 6h116q8 0 15 -6t7 -14v-98z" />
    <glyph glyph-name="copyright" unicode="&#xa9;" horiz-adv-x="750" 
d="M712 374q0 -70 -26.5 -131t-72.5 -106.5t-107.5 -71.5t-131.5 -26t-131 26t-106.5 71.5t-71.5 106.5t-26 131t26 131.5t71.5 107.5t106.5 73t131 27t131.5 -27t107.5 -73t72.5 -107.5t26.5 -131.5zM656 374q0 58 -22.5 109.5t-60.5 90t-89.5 61t-109.5 22.5t-109 -22.5
t-89 -61t-60 -90t-22 -109.5t22 -109t60 -89t89 -60t109 -22t109.5 22t89.5 60t60.5 89t22.5 109zM478 183q0 -6 -3 -8.5t-10 -4.5q-14 -4 -33 -7t-45 -3q-87 0 -132 47.5t-45 143.5v52q0 97 45 144t132 47q26 0 46 -3t32 -7q7 -2 10 -4t3 -8v-77q0 -11 -11 -11h-2
q-18 2 -33 3.5t-45 1.5q-11 0 -21 -3.5t-18 -12.5t-13 -26t-5 -44v-52q0 -28 5 -45t13 -26t18 -12t21 -3q26 0 43 1.5t35 3.5h2q11 0 11 -11v-76z" />
    <glyph glyph-name="ordfeminine" unicode="&#xaa;" horiz-adv-x="379" 
d="M343 405q0 -6 -1 -9.5t-6 -5.5q-68 -18 -140 -18q-81 0 -121.5 28.5t-40.5 88.5v7q0 28 12 47.5t34 31.5t52.5 17t67.5 5h19v13q0 23 -10 30.5t-28 7.5q-13 0 -28.5 -0.5t-30.5 -1.5t-27.5 -1.5t-19.5 -1.5h-1q-13 0 -13 14v62q0 12 14 16q15 4 46 10.5t60 6.5
q34 0 64 -6.5t51.5 -22.5t34 -43.5t12.5 -69.5v-205zM221 531h-21q-22 0 -34.5 -7.5t-12.5 -27.5v-7q0 -19 11.5 -25t31.5 -6q8 0 14 1t11 2v70z" />
    <glyph glyph-name="guillemotleft" unicode="&#xab;" horiz-adv-x="747" 
d="M718 71q0 -11 -13 -11h-148q-10 0 -17 2t-12 9l-158 192q-12 15 -12 27q0 13 12 28l158 191q5 7 12 9t17 2h148q13 0 13 -10q0 -4 -5 -11l-171 -209l171 -208q5 -7 5 -11zM396 71q0 -11 -13 -11h-148q-10 0 -17 2t-12 9l-158 192q-5 7 -9 13.5t-4 13.5t4 14t9 14l158 191
q5 7 12 9t17 2h148q13 0 13 -10q0 -4 -5 -11l-171 -209l171 -208q5 -7 5 -11z" />
    <glyph glyph-name="logicalnot" unicode="&#xac;" 
d="M569 193q0 -8 -5 -14t-13 -6h-107q-8 0 -12.5 6t-4.5 14v263h-310q-8 0 -14 4t-6 12v109q0 8 6 12t14 4h432q8 0 14 -4t6 -12v-388z" />
    <glyph glyph-name="uni00AD" unicode="&#xad;" horiz-adv-x="282" 
d="M258 250q0 -8 -6 -13.5t-14 -5.5h-193q-8 0 -14 5.5t-6 13.5v102q0 8 6 13.5t14 5.5h193q8 0 14 -5.5t6 -13.5v-102z" />
    <glyph glyph-name="registered" unicode="&#xae;" horiz-adv-x="598" 
d="M583 484q0 -59 -22.5 -110.5t-61 -90t-90.5 -60.5t-110 -22q-59 0 -110.5 22t-89.5 60.5t-60.5 90t-22.5 110.5q0 58 22.5 110t60.5 90t89.5 60.5t110.5 22.5q58 0 110 -22.5t90.5 -60.5t61 -90t22.5 -110zM529 484q0 47 -18 89t-49.5 73t-73.5 49t-89 18t-88.5 -18
t-72.5 -49t-49 -73t-18 -89t18 -89t49 -73t72.5 -49t88.5 -18t89 18t73.5 49t49.5 73t18 89zM442 330q0 -9 -9 -9h-82q-6 0 -10 8q-8 14 -18 33.5t-19 36.5q-11 20 -21 42h-24v-110q0 -10 -10 -10h-74q-10 0 -10 10v290q0 19 5.5 25.5t22.5 8.5q6 1 17 1.5t24.5 1.5
t27.5 1.5t25 0.5q67 0 105 -24t38 -86v-9q0 -34 -16 -54t-39 -31l65 -120q2 -4 2 -6zM340 550q0 17 -10.5 25t-34.5 8h-39v-75h39q24 0 34.5 9t10.5 24v9z" />
    <glyph glyph-name="macron" unicode="&#xaf;" horiz-adv-x="472" 
d="M426 664q0 -8 -6 -14t-14 -6h-339q-8 0 -14 6t-6 14v88q0 8 6 13.5t14 5.5h339q8 0 14 -5.5t6 -13.5v-88z" />
    <glyph glyph-name="degree" unicode="&#xb0;" horiz-adv-x="368" 
d="M343 594q0 -33 -12.5 -61.5t-34 -50t-50 -34t-61.5 -12.5t-61.5 12.5t-50.5 34t-34.5 50t-12.5 61.5t12.5 61.5t34.5 50.5t50.5 34.5t61.5 12.5t61.5 -12.5t50 -34.5t34 -50.5t12.5 -61.5zM251 594q0 27 -19.5 47t-46.5 20t-46.5 -20t-19.5 -47t19.5 -46t46.5 -19
t46.5 19t19.5 46z" />
    <glyph glyph-name="plusminus" unicode="&#xb1;" 
d="M572 336q0 -8 -6 -12t-14 -4h-149v-147q0 -8 -4 -14t-12 -6h-110q-8 0 -12 6t-4 14v147h-147q-8 0 -14 4t-6 12v110q0 8 6 12t14 4h147v149q0 8 4 14t12 6h110q8 0 12 -6t4 -14v-149h149q8 0 14 -4t6 -12v-110zM572 -9q0 -8 -6 -12t-14 -4h-438q-8 0 -14 4t-6 12v86
q0 8 6 12t14 4h438q8 0 14 -4t6 -12v-86z" />
    <glyph glyph-name="twosuperior" unicode="&#xb2;" horiz-adv-x="371" 
d="M331 640q0 -33 -16 -59t-43 -44l-62 -41q-24 -16 -41.5 -28.5t-18.5 -30.5h159q16 0 16 -16v-71q0 -16 -16 -16h-253q-16 0 -16 16v57q0 46 19 80.5t48 57.5l55 41q17 12 27 19.5t15.5 13t7 9t1.5 8.5q0 10 -9 14.5t-38 4.5q-22 0 -45 -2t-45 -4q-9 -1 -20 0t-11 15v53
q0 6 4 9.5t9 5.5q24 8 56.5 14t67.5 6q81 0 115 -27.5t34 -84.5z" />
    <glyph glyph-name="threesuperior" unicode="&#xb3;" horiz-adv-x="365" 
d="M325 452q0 -63 -41 -93.5t-113 -30.5q-15 0 -33 2t-35 5t-31.5 7t-21.5 8q-10 4 -10 12v56q0 14 14 14h1q9 -1 22 -2t27.5 -1.5t28.5 -1t26 -0.5q26 0 37.5 5.5t11.5 22.5v8q0 17 -9.5 24.5t-32.5 7.5h-85q-6 0 -10.5 4.5t-4.5 10.5v60q0 6 4.5 10.5t10.5 4.5h85
q43 0 43 28v9q0 14 -9.5 20t-39.5 6q-23 0 -53 -1.5t-49 -3.5h-1q-14 0 -14 14v58q0 6 4.5 9t9.5 5q25 8 54.5 13t61.5 5q70 0 111 -24t41 -86v-7q0 -32 -13 -53.5t-32 -34.5q24 -14 34.5 -36.5t10.5 -48.5v-5z" />
    <glyph glyph-name="acute" unicode="&#xb4;" horiz-adv-x="472" 
d="M450 772q0 -4 -4 -8l-126 -120q-6 -5 -9.5 -8t-14.5 -3h-129q-9 0 -9 7q0 6 4 10l91 114q7 8 12 11.5t16 3.5h158q11 0 11 -7z" />
    <glyph glyph-name="uni00B5" unicode="&#xb5;" horiz-adv-x="632" 
d="M577 48q0 -12 -6.5 -19.5t-28.5 -13.5q-35 -10 -90 -17t-133 -7q-38 0 -71 6v-169q0 -8 -6 -14t-14 -6h-153q-8 0 -14 6t-6 14v732q0 8 6.5 15t14.5 7h150q8 0 14.5 -7t6.5 -15v-346q0 -35 17.5 -51t53.5 -16q20 0 37 1t30 4v408q0 8 6 15t14 7h150q8 0 15 -7t7 -15v-512
z" />
    <glyph glyph-name="paragraph" unicode="&#xb6;" horiz-adv-x="674" 
d="M621 -176q0 -8 -4.5 -13.5t-12.5 -5.5h-52q-8 0 -12.5 5.5t-4.5 13.5v834h-64v-834q0 -8 -4.5 -13.5t-12.5 -5.5h-52q-8 0 -12.5 5.5t-4.5 13.5v410h-92q-52 0 -97 14.5t-78.5 43t-53 70t-19.5 95.5v63q0 54 19.5 95.5t53 70t78.5 43t97 14.5h312q16 0 16 -19v-900z" />
    <glyph glyph-name="periodcentered" unicode="&#xb7;" horiz-adv-x="291" 
d="M239 308q0 -8 -6.5 -14t-14.5 -6h-145q-8 0 -14.5 6t-6.5 14v139q0 8 6.5 14t14.5 6h145q8 0 14.5 -6t6.5 -14v-139z" />
    <glyph glyph-name="cedilla" unicode="&#xb8;" horiz-adv-x="451" 
d="M352 -43q0 -4 -4 -8l-126 -120q-6 -5 -10 -8t-15 -3h-128q-9 0 -9 7q0 6 4 10l91 114q7 8 12 11.5t16 3.5h158q11 0 11 -7z" />
    <glyph glyph-name="onesuperior" unicode="&#xb9;" horiz-adv-x="290" 
d="M128 744q6 3 14 3h62q16 0 16 -16v-381q0 -16 -16 -16h-88q-16 0 -16 16v275l-51 -21q-6 -2 -12.5 0t-6.5 10v78q0 9 9 14z" />
    <glyph glyph-name="ordmasculine" unicode="&#xba;" horiz-adv-x="404" 
d="M370 546q0 -89 -44 -131.5t-123 -42.5t-123.5 42.5t-44.5 131.5v31q0 89 44.5 132t123.5 43t123 -43t44 -132v-31zM244 577q0 40 -10 55t-31 15t-32 -15t-11 -55v-31q0 -40 11 -55t32 -15t31 15t10 55v31z" />
    <glyph glyph-name="guillemotright" unicode="&#xbb;" horiz-adv-x="747" 
d="M717 290q0 -7 -4 -13.5t-9 -13.5l-158 -192q-5 -7 -11.5 -9t-16.5 -2h-148q-13 0 -13 11q0 4 5 11l171 208l-171 209q-5 7 -5 11q0 10 13 10h148q10 0 16.5 -2t11.5 -9l158 -191q5 -7 9 -14t4 -14zM395 290q0 -7 -4 -13.5t-9 -13.5l-158 -192q-5 -7 -12 -9t-17 -2h-148
q-13 0 -13 11q0 4 5 11l171 208l-171 209q-5 7 -5 11q0 10 13 10h148q10 0 17 -2t12 -9l158 -191q5 -7 9 -14t4 -14z" />
    <glyph glyph-name="onequarter" unicode="&#xbc;" horiz-adv-x="814" 
d="M675 733q0 -4 -3 -10l-417 -707q-6 -10 -9.5 -13t-11.5 -3h-123q-12 0 -12 12q0 5 3 10l417 706q5 10 10 12.5t13 2.5h122q11 0 11 -10zM138 744q6 3 14 3h62q16 0 16 -16v-381q0 -16 -16 -16h-88q-16 0 -16 16v275l-51 -21q-19 -8 -19 10v78q0 9 9 14zM774 100
q0 -16 -16 -16h-27v-68q0 -7 -4.5 -11.5t-10.5 -4.5h-89q-16 0 -16 16v68h-146q-16 0 -16 16v61q0 10 7 19l176 226q7 7 16 7h68q6 0 10.5 -4.5t4.5 -11.5v-220h27q16 0 16 -15v-62zM616 266l-67 -89h67v89z" />
    <glyph glyph-name="onehalf" unicode="&#xbd;" horiz-adv-x="854" 
d="M675 733q0 -4 -3 -10l-417 -707q-6 -10 -9.5 -13t-11.5 -3h-123q-12 0 -12 12q0 5 3 10l417 706q5 10 10 12.5t13 2.5h122q11 0 11 -10zM138 744q6 3 14 3h62q16 0 16 -16v-381q0 -16 -16 -16h-88q-16 0 -16 16v275l-51 -21q-19 -8 -19 10v78q0 9 9 14zM814 306
q0 -33 -16 -59t-43 -44l-62 -41q-24 -16 -41.5 -28.5t-18.5 -30.5h159q16 0 16 -16v-71q0 -16 -16 -16h-253q-16 0 -16 16v57q0 46 19 80.5t48 57.5l55 41q17 12 27 19.5t15.5 13t7 9t1.5 8.5q0 10 -9 14.5t-38 4.5q-22 0 -45 -2t-45 -4q-9 -1 -20 0t-11 15v53q0 6 4 9.5
t9 5.5q24 8 56.5 14t67.5 6q81 0 115 -27.5t34 -84.5z" />
    <glyph glyph-name="threequarters" unicode="&#xbe;" horiz-adv-x="877" 
d="M837 97q0 -6 -5 -10.5t-11 -4.5h-25v-66q0 -6 -4.5 -11t-10.5 -5h-90q-6 0 -10 5t-4 11v66h-142q-7 0 -10.5 4.5t-3.5 9.5v66q0 12 6 19l170 221q6 7 16 7h65q7 0 12.5 -5t5.5 -13v-215h25q6 0 11 -4t5 -10v-65zM744 733q0 -4 -3 -10l-417 -707q-6 -10 -9.5 -13t-11.5 -3
h-123q-12 0 -12 12q0 5 3 10l417 706q5 10 10 12.5t13 2.5h122q11 0 11 -10zM325 458q0 -63 -41 -93.5t-113 -30.5q-15 0 -33 2t-35 5t-31.5 7t-21.5 8q-10 4 -10 12v56q0 14 14 14h1q9 -1 22 -2t27.5 -1.5t28.5 -1t26 -0.5q26 0 37.5 5.5t11.5 22.5v8q0 17 -9.5 24.5
t-32.5 7.5h-85q-6 0 -10.5 4.5t-4.5 10.5v60q0 6 4.5 10.5t10.5 4.5h85q43 0 43 28v9q0 14 -9.5 20t-39.5 6q-23 0 -53 -1.5t-49 -3.5h-1q-14 0 -14 14v58q0 6 4.5 9t9.5 5q25 8 54.5 13t61.5 5q70 0 111 -24t41 -86v-7q0 -32 -13 -53.5t-32 -34.5q24 -14 34.5 -36.5
t10.5 -48.5v-5zM682 261q0 7 -2 7q-1 0 -2 -1l-63 -82q-3 -5 -3 -7t2 -2h68v85z" />
    <glyph glyph-name="questiondown" unicode="&#xbf;" horiz-adv-x="492" 
d="M458 -146q0 -17 -19 -23q-33 -11 -76.5 -18t-89.5 -7q-56 0 -99 8.5t-73 28t-45.5 51t-15.5 78.5v9q0 64 51 137l106 153q11 15 15 25t6 26q1 6 6 10t10 4h139q10 0 10 -13v-35q0 -36 -6 -59.5t-23 -53.5l-81 -138q-5 -8 -8 -15t-3 -15q0 -15 10 -21t35 -6q10 0 28 1.5
t38 3t38 3.5l27 3h3q17 0 17 -20v-117zM395 423q0 -8 -6 -14t-14 -6h-146q-8 0 -14.5 6t-6.5 14v139q0 8 6.5 14t14.5 6h146q8 0 14 -6t6 -14v-139z" />
    <glyph glyph-name="Agrave" unicode="&#xc0;" horiz-adv-x="692" 
d="M673 16q0 -16 -16 -16h-174q-8 0 -13 5.5t-7 13.5l-28 139h-178l-28 -139q-2 -8 -7 -13.5t-13 -5.5h-173q-17 0 -17 16q0 2 0.5 2.5t0.5 2.5l134 612q8 37 26 60.5t43 36.5t56 17.5t67 4.5t67 -4.5t56 -17.5t43 -36.5t26 -60.5l134 -612q0 -2 0.5 -3t0.5 -2zM357 572
l-3 10.5t-8 3.5t-8 -3.5l-3 -10.5l-49 -254h120zM473 802q0 -7 -9 -7h-129q-11 0 -14.5 3t-9.5 8l-126 120q-4 4 -4 8q0 7 11 7h158q11 0 16 -3.5t12 -11.5l91 -114q4 -4 4 -10z" />
    <glyph glyph-name="Aacute" unicode="&#xc1;" horiz-adv-x="692" 
d="M673 16q0 -16 -16 -16h-174q-8 0 -13 5.5t-7 13.5l-28 139h-178l-28 -139q-2 -8 -7 -13.5t-13 -5.5h-173q-17 0 -17 16q0 2 0.5 2.5t0.5 2.5l134 612q8 37 26 60.5t43 36.5t56 17.5t67 4.5t67 -4.5t56 -17.5t43 -36.5t26 -60.5l134 -612q0 -2 0.5 -3t0.5 -2zM357 572
l-3 10.5t-8 3.5t-8 -3.5l-3 -10.5l-49 -254h120zM543 934q0 -4 -4 -8l-126 -120q-6 -5 -9.5 -8t-14.5 -3h-129q-9 0 -9 7q0 6 4 10l91 114q7 8 12 11.5t16 3.5h158q11 0 11 -7z" />
    <glyph glyph-name="Acircumflex" unicode="&#xc2;" horiz-adv-x="692" 
d="M673 16q0 -16 -16 -16h-174q-8 0 -13 5.5t-7 13.5l-28 139h-178l-28 -139q-2 -8 -7 -13.5t-13 -5.5h-173q-17 0 -17 16q0 2 0.5 2.5t0.5 2.5l134 612q8 37 26 60.5t43 36.5t56 17.5t67 4.5t67 -4.5t56 -17.5t43 -36.5t26 -60.5l134 -612q0 -2 0.5 -3t0.5 -2zM357 572
l-3 10.5t-8 3.5t-8 -3.5l-3 -10.5l-49 -254h120zM559 802q0 -7 -9 -7h-124q-11 0 -14.5 2.5t-9.5 8.5l-56 59l-56 -59q-6 -6 -9.5 -8.5t-14.5 -2.5h-124q-9 0 -9 7q0 5 4 10l86 114q7 8 12 11.5t16 3.5h190q11 0 16 -3t12 -12l86 -114q4 -5 4 -10z" />
    <glyph glyph-name="Atilde" unicode="&#xc3;" horiz-adv-x="692" 
d="M673 16q0 -16 -16 -16h-174q-8 0 -13 5.5t-7 13.5l-28 139h-178l-28 -139q-2 -8 -7 -13.5t-13 -5.5h-173q-17 0 -17 16q0 2 0.5 2.5t0.5 2.5l134 612q8 37 26 60.5t43 36.5t56 17.5t67 4.5t67 -4.5t56 -17.5t43 -36.5t26 -60.5l134 -612q0 -2 0.5 -3t0.5 -2zM357 572
l-3 10.5t-8 3.5t-8 -3.5l-3 -10.5l-49 -254h120zM559 915q0 -71 -36 -99t-97 -28q-14 0 -35.5 5.5t-37.5 15.5l-40 24q-25 15 -39 15q-8 0 -13.5 -4t-5.5 -16v-17q0 -17 -16 -17h-84q-17 0 -17 17v17q0 69 36 98t98 29q14 0 34.5 -5t37.5 -15l41 -24q14 -8 22.5 -12t16.5 -4
q10 0 14 4.5t4 16.5v17q0 17 17 17h83q17 0 17 -17v-18z" />
    <glyph glyph-name="Adieresis" unicode="&#xc4;" horiz-adv-x="692" 
d="M673 16q0 -16 -16 -16h-174q-8 0 -13 5.5t-7 13.5l-28 139h-178l-28 -139q-2 -8 -7 -13.5t-13 -5.5h-173q-17 0 -17 16q0 2 0.5 2.5t0.5 2.5l134 612q8 37 26 60.5t43 36.5t56 17.5t67 4.5t67 -4.5t56 -17.5t43 -36.5t26 -60.5l134 -612q0 -2 0.5 -3t0.5 -2zM357 572
l-3 10.5t-8 3.5t-8 -3.5l-3 -10.5l-49 -254h120zM543 818q0 -8 -7.5 -14t-15.5 -6h-116q-8 0 -15 6t-7 14v98q0 8 7 14t15 6h116q8 0 15.5 -6t7.5 -14v-98zM309 818q0 -8 -7 -14t-15 -6h-116q-8 0 -15.5 6t-7.5 14v98q0 8 7.5 14t15.5 6h116q8 0 15 -6t7 -14v-98z" />
    <glyph glyph-name="Aring" unicode="&#xc5;" horiz-adv-x="692" 
d="M673 16q0 -16 -16 -16h-174q-8 0 -13 5.5t-7 13.5l-28 139h-178l-28 -139q-2 -8 -7 -13.5t-13 -5.5h-173q-17 0 -17 16q0 2 0.5 2.5t0.5 2.5l134 612q8 37 26 60.5t43 36.5t56 17.5t67 4.5t67 -4.5t56 -17.5t43 -36.5t26 -60.5l134 -612q0 -2 0.5 -3t0.5 -2zM357 572
l-3 10.5t-8 3.5t-8 -3.5l-3 -10.5l-49 -254h120zM469 903q0 -25 -9.5 -47.5t-26 -39t-39 -26t-47.5 -9.5t-47 9.5t-38 26t-25 39t-9 47.5t9 47.5t25 39t38 26t47 9.5t47.5 -9.5t39 -26t26 -39t9.5 -47.5zM389 904q0 17 -12 29t-29 12t-28.5 -12t-11.5 -29t11.5 -30t28.5 -13
t29 13t12 30z" />
    <glyph glyph-name="AE" unicode="&#xc6;" horiz-adv-x="943" 
d="M890 23q0 -17 -20 -20q-14 -2 -29.5 -4t-36 -4t-47 -3t-62.5 -1q-43 0 -84 6t-74.5 24t-57.5 50.5t-33 85.5h-188l-28 -138q-2 -8 -7 -13.5t-13 -5.5h-174q-17 0 -17 16q0 2 0.5 2.5t0.5 2.5l134 607q8 37 26 59.5t43 35t56.5 16.5t67.5 4h523q20 0 20 -20v-129
q0 -8 -6 -14t-14 -6h-228v-118h224q8 0 14 -6t6 -14v-118q0 -8 -6 -14t-14 -6h-224v-83q0 -29 11 -39.5t38 -10.5h179q8 0 14 -6t6 -14v-122zM439 576h-89q-8 0 -10.5 -4t-4.5 -14l-48 -240h152v258z" />
    <glyph glyph-name="Ccedilla" unicode="&#xc7;" horiz-adv-x="555" 
d="M517 31q0 -10 -5 -14t-17 -8q-20 -7 -56 -12.5t-84 -5.5q-69 0 -126 19t-97.5 59.5t-62.5 102.5t-22 148v103q0 86 22 148t62.5 102.5t97.5 59.5t126 19q48 0 84 -5.5t56 -12.5q12 -4 17 -7.5t5 -14.5v-128q0 -19 -18 -19h-3q-31 3 -64 6t-76 3q-20 0 -39 -5.5t-33 -22
t-22.5 -46t-8.5 -77.5v-103q0 -47 8.5 -76.5t22.5 -46t32.5 -22.5t39.5 -6q43 0 76 3t64 6h3q18 0 18 -19v-128zM440 -43q0 -4 -4 -8l-126 -120q-6 -5 -10 -8t-15 -3h-128q-9 0 -9 7q0 6 4 10l91 114q7 8 12 11.5t16 3.5h158q11 0 11 -7z" />
    <glyph glyph-name="Egrave" unicode="&#xc8;" horiz-adv-x="585" 
d="M532 23q0 -17 -20 -20q-29 -4 -76.5 -8t-120.5 -4q-48 0 -94 7.5t-82 31.5t-58 68t-22 117v314q0 72 22 116t58 68t82 32t94 8q73 0 120.5 -4t76.5 -8q20 -3 20 -20v-122q0 -8 -6 -14t-14 -6h-202q-27 0 -37.5 -10.5t-10.5 -39.5v-73h246q8 0 14 -6t6 -14v-118
q0 -8 -6 -14t-14 -6h-246v-83q0 -29 10.5 -39.5t37.5 -10.5h202q8 0 14 -6t6 -14v-122zM406 802q0 -7 -9 -7h-129q-11 0 -14.5 3t-9.5 8l-126 120q-4 4 -4 8q0 7 11 7h158q11 0 16 -3.5t12 -11.5l91 -114q4 -4 4 -10z" />
    <glyph glyph-name="Eacute" unicode="&#xc9;" horiz-adv-x="585" 
d="M532 23q0 -17 -20 -20q-29 -4 -76.5 -8t-120.5 -4q-48 0 -94 7.5t-82 31.5t-58 68t-22 117v314q0 72 22 116t58 68t82 32t94 8q73 0 120.5 -4t76.5 -8q20 -3 20 -20v-122q0 -8 -6 -14t-14 -6h-202q-27 0 -37.5 -10.5t-10.5 -39.5v-73h246q8 0 14 -6t6 -14v-118
q0 -8 -6 -14t-14 -6h-246v-83q0 -29 10.5 -39.5t37.5 -10.5h202q8 0 14 -6t6 -14v-122zM487 934q0 -4 -4 -8l-126 -120q-6 -5 -9.5 -8t-14.5 -3h-129q-9 0 -9 7q0 6 4 10l91 114q7 8 12 11.5t16 3.5h158q11 0 11 -7z" />
    <glyph glyph-name="Ecircumflex" unicode="&#xca;" horiz-adv-x="585" 
d="M532 23q0 -17 -20 -20q-29 -4 -76.5 -8t-120.5 -4q-48 0 -94 7.5t-82 31.5t-58 68t-22 117v314q0 72 22 116t58 68t82 32t94 8q73 0 120.5 -4t76.5 -8q20 -3 20 -20v-122q0 -8 -6 -14t-14 -6h-202q-27 0 -37.5 -10.5t-10.5 -39.5v-73h246q8 0 14 -6t6 -14v-118
q0 -8 -6 -14t-14 -6h-246v-83q0 -29 10.5 -39.5t37.5 -10.5h202q8 0 14 -6t6 -14v-122zM515 802q0 -7 -9 -7h-124q-11 0 -14.5 2.5t-9.5 8.5l-56 59l-56 -59q-6 -6 -9.5 -8.5t-14.5 -2.5h-124q-9 0 -9 7q0 5 4 10l86 114q7 8 12 11.5t16 3.5h190q11 0 16 -3t12 -12l86 -114
q4 -5 4 -10z" />
    <glyph glyph-name="Edieresis" unicode="&#xcb;" horiz-adv-x="585" 
d="M532 23q0 -17 -20 -20q-29 -4 -76.5 -8t-120.5 -4q-48 0 -94 7.5t-82 31.5t-58 68t-22 117v314q0 72 22 116t58 68t82 32t94 8q73 0 120.5 -4t76.5 -8q20 -3 20 -20v-122q0 -8 -6 -14t-14 -6h-202q-27 0 -37.5 -10.5t-10.5 -39.5v-73h246q8 0 14 -6t6 -14v-118
q0 -8 -6 -14t-14 -6h-246v-83q0 -29 10.5 -39.5t37.5 -10.5h202q8 0 14 -6t6 -14v-122zM494 818q0 -8 -7.5 -14t-15.5 -6h-116q-8 0 -15 6t-7 14v98q0 8 7 14t15 6h116q8 0 15.5 -6t7.5 -14v-98zM260 818q0 -8 -7 -14t-15 -6h-116q-8 0 -15.5 6t-7.5 14v98q0 8 7.5 14
t15.5 6h116q8 0 15 -6t7 -14v-98z" />
    <glyph glyph-name="Igrave" unicode="&#xcc;" horiz-adv-x="334" 
d="M269 20q0 -8 -6 -14t-14 -6h-164q-8 0 -14 6t-6 14v704q0 8 6 13.5t14 5.5h164q8 0 14 -5.5t6 -13.5v-704zM279 802q0 -7 -9 -7h-129q-11 0 -14.5 3t-9.5 8l-126 120q-4 4 -4 8q0 7 11 7h158q11 0 16 -3.5t12 -11.5l91 -114q4 -4 4 -10z" />
    <glyph glyph-name="Iacute" unicode="&#xcd;" horiz-adv-x="334" 
d="M269 20q0 -8 -6 -14t-14 -6h-164q-8 0 -14 6t-6 14v704q0 8 6 13.5t14 5.5h164q8 0 14 -5.5t6 -13.5v-704zM351 934q0 -4 -4 -8l-126 -120q-6 -5 -9.5 -8t-14.5 -3h-129q-9 0 -9 7q0 6 4 10l91 114q7 8 12 11.5t16 3.5h158q11 0 11 -7z" />
    <glyph glyph-name="Icircumflex" unicode="&#xce;" horiz-adv-x="334" 
d="M269 20q0 -8 -6 -14t-14 -6h-164q-8 0 -14 6t-6 14v704q0 8 6 13.5t14 5.5h164q8 0 14 -5.5t6 -13.5v-704zM380 802q0 -7 -9 -7h-124q-11 0 -14.5 2.5t-9.5 8.5l-56 59l-56 -59q-6 -6 -9.5 -8.5t-14.5 -2.5h-124q-9 0 -9 7q0 5 4 10l86 114q7 8 12 11.5t16 3.5h190
q11 0 16 -3t12 -12l86 -114q4 -5 4 -10z" />
    <glyph glyph-name="Idieresis" unicode="&#xcf;" horiz-adv-x="334" 
d="M269 20q0 -8 -6 -14t-14 -6h-164q-8 0 -14 6t-6 14v704q0 8 6 13.5t14 5.5h164q8 0 14 -5.5t6 -13.5v-704zM364 818q0 -8 -7.5 -14t-15.5 -6h-116q-8 0 -15 6t-7 14v98q0 8 7 14t15 6h116q8 0 15.5 -6t7.5 -14v-98zM130 818q0 -8 -7 -14t-15 -6h-116q-8 0 -15.5 6
t-7.5 14v98q0 8 7.5 14t15.5 6h116q8 0 15 -6t7 -14v-98z" />
    <glyph glyph-name="Eth" unicode="&#xd0;" horiz-adv-x="696" 
d="M651 324q0 -89 -23.5 -152t-66.5 -103.5t-102.5 -59t-132.5 -18.5q-78 0 -133 4.5t-98 12.5q-17 3 -24.5 11t-7.5 28v251h-51q-8 0 -14 6t-6 14v119q0 8 6 13.5t14 5.5h51v240q0 20 7.5 28t24.5 11q43 8 98 13t133 5q72 0 132 -18.5t103 -58.5t66.5 -103.5t23.5 -152.5
v-96zM445 420q0 46 -7 76.5t-21.5 48.5t-37 25.5t-53.5 7.5q-17 0 -35 -0.5t-24 -0.5v-121h53q19 0 19 -19v-119q0 -8 -5.5 -14t-13.5 -6h-53v-131q5 -1 24.5 -1h34.5q31 0 53.5 7t37 25t21.5 48.5t7 77.5v96z" />
    <glyph glyph-name="Ntilde" unicode="&#xd1;" horiz-adv-x="746" 
d="M681 37q0 -15 -11 -26t-26 -11h-134q-26 0 -42 27l-197 335q-5 8 -10 8t-5 -9v-341q0 -8 -6 -14t-14 -6h-150q-8 0 -14.5 6t-6.5 14v686q0 15 11 26t26 11h132q14 0 23 -7.5t17 -21.5l203 -345q5 -9 9 -9q2 0 3.5 1.5t1.5 7.5v354q0 8 6 14t14 6h150q8 0 14 -6t6 -14
v-686zM577 915q0 -71 -36 -99t-97 -28q-14 0 -35.5 5.5t-37.5 15.5l-40 24q-25 15 -39 15q-8 0 -13.5 -4t-5.5 -16v-17q0 -17 -16 -17h-84q-17 0 -17 17v17q0 69 36 98t98 29q14 0 34.5 -5t37.5 -15l41 -24q14 -8 22.5 -12t16.5 -4q10 0 14 4.5t4 16.5v17q0 17 17 17h83
q17 0 17 -17v-18z" />
    <glyph glyph-name="Ograve" unicode="&#xd2;" horiz-adv-x="708" 
d="M661 320q0 -92 -24.5 -154.5t-66.5 -101.5t-98 -56t-118 -17t-118 17t-98 56t-66.5 101.5t-24.5 154.5v103q0 91 24.5 154t66.5 102t98 56.5t118 17.5t118 -17.5t98 -56.5t66.5 -102t24.5 -154v-103zM455 423q0 81 -24 116t-77 35t-77 -35t-24 -116v-103q0 -81 24 -115.5
t77 -34.5t77 34.5t24 115.5v103zM450 802q0 -7 -9 -7h-129q-11 0 -14.5 3t-9.5 8l-126 120q-4 4 -4 8q0 7 11 7h158q11 0 16 -3.5t12 -11.5l91 -114q4 -4 4 -10z" />
    <glyph glyph-name="Oacute" unicode="&#xd3;" horiz-adv-x="708" 
d="M661 320q0 -92 -24.5 -154.5t-66.5 -101.5t-98 -56t-118 -17t-118 17t-98 56t-66.5 101.5t-24.5 154.5v103q0 91 24.5 154t66.5 102t98 56.5t118 17.5t118 -17.5t98 -56.5t66.5 -102t24.5 -154v-103zM455 423q0 81 -24 116t-77 35t-77 -35t-24 -116v-103q0 -81 24 -115.5
t77 -34.5t77 34.5t24 115.5v103zM542 934q0 -4 -4 -8l-126 -120q-6 -5 -9.5 -8t-14.5 -3h-129q-9 0 -9 7q0 6 4 10l91 114q7 8 12 11.5t16 3.5h158q11 0 11 -7z" />
    <glyph glyph-name="Ocircumflex" unicode="&#xd4;" horiz-adv-x="708" 
d="M661 320q0 -92 -24.5 -154.5t-66.5 -101.5t-98 -56t-118 -17t-118 17t-98 56t-66.5 101.5t-24.5 154.5v103q0 91 24.5 154t66.5 102t98 56.5t118 17.5t118 -17.5t98 -56.5t66.5 -102t24.5 -154v-103zM455 423q0 81 -24 116t-77 35t-77 -35t-24 -116v-103q0 -81 24 -115.5
t77 -34.5t77 34.5t24 115.5v103zM564 802q0 -7 -9 -7h-124q-11 0 -14.5 2.5t-9.5 8.5l-56 59l-56 -59q-6 -6 -9.5 -8.5t-14.5 -2.5h-124q-9 0 -9 7q0 5 4 10l86 114q7 8 12 11.5t16 3.5h190q11 0 16 -3t12 -12l86 -114q4 -5 4 -10z" />
    <glyph glyph-name="Otilde" unicode="&#xd5;" horiz-adv-x="708" 
d="M661 320q0 -92 -24.5 -154.5t-66.5 -101.5t-98 -56t-118 -17t-118 17t-98 56t-66.5 101.5t-24.5 154.5v103q0 91 24.5 154t66.5 102t98 56.5t118 17.5t118 -17.5t98 -56.5t66.5 -102t24.5 -154v-103zM455 423q0 81 -24 116t-77 35t-77 -35t-24 -116v-103q0 -81 24 -115.5
t77 -34.5t77 34.5t24 115.5v103zM572 916q0 -71 -36 -99t-97 -28q-14 0 -35.5 5.5t-37.5 15.5l-40 24q-25 15 -39 15q-8 0 -13.5 -4t-5.5 -16v-17q0 -17 -16 -17h-84q-17 0 -17 17v17q0 69 36 98t98 29q14 0 34.5 -5t37.5 -15l41 -24q14 -8 22.5 -12t16.5 -4q10 0 14 4.5
t4 16.5v17q0 17 17 17h83q17 0 17 -17v-18z" />
    <glyph glyph-name="Odieresis" unicode="&#xd6;" horiz-adv-x="708" 
d="M661 320q0 -92 -24.5 -154.5t-66.5 -101.5t-98 -56t-118 -17t-118 17t-98 56t-66.5 101.5t-24.5 154.5v103q0 91 24.5 154t66.5 102t98 56.5t118 17.5t118 -17.5t98 -56.5t66.5 -102t24.5 -154v-103zM455 423q0 81 -24 116t-77 35t-77 -35t-24 -116v-103q0 -81 24 -115.5
t77 -34.5t77 34.5t24 115.5v103zM548 818q0 -8 -7.5 -14t-15.5 -6h-116q-8 0 -15 6t-7 14v98q0 8 7 14t15 6h116q8 0 15.5 -6t7.5 -14v-98zM314 818q0 -8 -7 -14t-15 -6h-116q-8 0 -15.5 6t-7.5 14v98q0 8 7.5 14t15.5 6h116q8 0 15 -6t7 -14v-98z" />
    <glyph glyph-name="multiply" unicode="&#xd7;" 
d="M552 516q0 -8 -8 -16l-110 -110l109 -110q8 -8 8 -15q0 -5 -5 -10l-77 -78q-5 -5 -10 -5q-8 0 -16 8l-110 110l-110 -110q-8 -8 -15 -8q-5 0 -10 5l-78 78q-5 5 -5 10q0 7 8 15l110 110l-110 110q-8 8 -8 16q0 5 5 10l78 78q5 5 10 5q7 0 15 -8l110 -111l110 111
q8 8 16 8q5 0 10 -5l78 -78q5 -5 5 -10z" />
    <glyph glyph-name="Oslash" unicode="&#xd8;" horiz-adv-x="708" 
d="M693 742q0 -4 -3 -8l-78 -107q23 -38 36 -88t13 -116v-103q0 -92 -24.5 -154.5t-66.5 -101.5t-98 -56t-118 -17q-47 0 -90 9.5t-80 30.5l-14 -21q-5 -6 -11.5 -12.5t-14.5 -6.5h-118q-11 0 -11 11q0 3 3 8l77 108q-23 38 -35.5 87.5t-12.5 114.5v103q0 91 24.5 154
t66.5 102t98 56.5t118 17.5q47 0 89.5 -9.5t79.5 -30.5l15 21q5 6 11.5 12.5t14.5 6.5h118q11 0 11 -11zM412 559q-11 8 -26 11.5t-32 3.5q-53 0 -77 -35t-24 -116v-85zM455 407l-159 -221q22 -16 58 -16q53 0 77 34.5t24 115.5v87z" />
    <glyph glyph-name="Ugrave" unicode="&#xd9;" horiz-adv-x="731" 
d="M668 282q0 -91 -25.5 -147.5t-67.5 -88.5t-96.5 -43.5t-113.5 -11.5t-113.5 11.5t-96.5 43.5t-67 88.5t-25 147.5v441q0 8 6.5 14t14.5 6h162q8 0 14 -6t6 -14v-441q0 -68 23 -94t76 -26t76.5 26t23.5 94v441q0 8 6 14t14 6h162q8 0 14.5 -6t6.5 -14v-441zM476 801
q0 -7 -9 -7h-129q-11 0 -14.5 3t-9.5 8l-126 120q-4 4 -4 8q0 7 11 7h158q11 0 16 -3.5t12 -11.5l91 -114q4 -4 4 -10z" />
    <glyph glyph-name="Uacute" unicode="&#xda;" horiz-adv-x="731" 
d="M668 282q0 -91 -25.5 -147.5t-67.5 -88.5t-96.5 -43.5t-113.5 -11.5t-113.5 11.5t-96.5 43.5t-67 88.5t-25 147.5v441q0 8 6.5 14t14.5 6h162q8 0 14 -6t6 -14v-441q0 -68 23 -94t76 -26t76.5 26t23.5 94v441q0 8 6 14t14 6h162q8 0 14.5 -6t6.5 -14v-441zM558 934
q0 -4 -4 -8l-126 -120q-6 -5 -9.5 -8t-14.5 -3h-129q-9 0 -9 7q0 6 4 10l91 114q7 8 12 11.5t16 3.5h158q11 0 11 -7z" />
    <glyph glyph-name="Ucircumflex" unicode="&#xdb;" horiz-adv-x="731" 
d="M668 282q0 -91 -25.5 -147.5t-67.5 -88.5t-96.5 -43.5t-113.5 -11.5t-113.5 11.5t-96.5 43.5t-67 88.5t-25 147.5v441q0 8 6.5 14t14.5 6h162q8 0 14 -6t6 -14v-441q0 -68 23 -94t76 -26t76.5 26t23.5 94v441q0 8 6 14t14 6h162q8 0 14.5 -6t6.5 -14v-441zM580 802
q0 -7 -9 -7h-124q-11 0 -14.5 2.5t-9.5 8.5l-56 59l-56 -59q-6 -6 -9.5 -8.5t-14.5 -2.5h-124q-9 0 -9 7q0 5 4 10l86 114q7 8 12 11.5t16 3.5h190q11 0 16 -3t12 -12l86 -114q4 -5 4 -10z" />
    <glyph glyph-name="Udieresis" unicode="&#xdc;" horiz-adv-x="731" 
d="M668 282q0 -91 -25.5 -147.5t-67.5 -88.5t-96.5 -43.5t-113.5 -11.5t-113.5 11.5t-96.5 43.5t-67 88.5t-25 147.5v441q0 8 6.5 14t14.5 6h162q8 0 14 -6t6 -14v-441q0 -68 23 -94t76 -26t76.5 26t23.5 94v441q0 8 6 14t14 6h162q8 0 14.5 -6t6.5 -14v-441zM563 818
q0 -8 -7.5 -14t-15.5 -6h-116q-8 0 -15 6t-7 14v98q0 8 7 14t15 6h116q8 0 15.5 -6t7.5 -14v-98zM329 818q0 -8 -7 -14t-15 -6h-116q-8 0 -15.5 6t-7.5 14v98q0 8 7.5 14t15.5 6h116q8 0 15 -6t7 -14v-98z" />
    <glyph glyph-name="Yacute" unicode="&#xdd;" horiz-adv-x="682" 
d="M662 730q0 -2 -2 -8l-147 -345q-16 -37 -33.5 -57.5t-37.5 -28.5v-271q0 -8 -6 -14t-14 -6h-163q-8 0 -13.5 6t-5.5 14v271q-20 8 -37.5 28.5t-33.5 57.5l-147 345q-2 6 -2 8q0 13 14 13h181q8 0 12.5 -5.5t7.5 -13.5l96 -265q4 -10 10 -10t10 10l96 265q3 8 7.5 13.5
t12.5 5.5h181q14 0 14 -13zM539 933q0 -4 -4 -8l-126 -120q-6 -5 -9.5 -8t-14.5 -3h-129q-9 0 -9 7q0 6 4 10l91 114q7 8 12 11.5t16 3.5h158q11 0 11 -7z" />
    <glyph glyph-name="Thorn" unicode="&#xde;" horiz-adv-x="677" 
d="M646 410q0 -75 -28 -123.5t-73 -77.5t-100.5 -40.5t-109.5 -11.5q-17 0 -33 0.5t-37 1.5v-139q0 -8 -5.5 -14t-13.5 -6h-162q-8 0 -13.5 6t-5.5 14v704q0 19 19 19h162q19 0 19 -19v-55q2 0 9.5 0.5t17.5 0.5h20.5h18.5q56 0 112.5 -11t101.5 -39.5t73 -77t28 -123.5v-9z
M444 419q0 44 -29 62t-80 18h-70v-171q2 0 12.5 -0.5t22.5 -0.5h22.5h12.5q51 0 80 20t29 63v9z" />
    <glyph glyph-name="germandbls" unicode="&#xdf;" horiz-adv-x="680" 
d="M627 229q0 -60 -20 -104.5t-54 -74t-78.5 -44.5t-92.5 -15q-14 0 -32.5 1.5t-34.5 4.5q-8 2 -14 7t-6 13v119q0 5 1.5 9.5t6.5 4.5h41q19 0 35.5 2.5t28.5 10.5t19 23t7 39v17q0 45 -21.5 64t-67.5 19h-27q-8 0 -14 6t-6 14v96q0 8 6 14t14 6h27q47 0 64.5 19.5
t17.5 45.5v25q0 26 -18 45.5t-64 19.5q-54 0 -76 -24.5t-22 -75.5v-495q0 -8 -5.5 -14.5t-13.5 -6.5h-154q-8 0 -14 6.5t-6 14.5v495q0 137 72.5 201t218.5 64q72 0 124 -16.5t85.5 -46.5t49.5 -70.5t16 -88.5v-25q0 -46 -24.5 -82t-56.5 -53q42 -22 65 -59.5t23 -85.5v-25z
" />
    <glyph glyph-name="agrave" unicode="&#xe0;" horiz-adv-x="575" 
d="M525 20q0 -8 -6 -14t-14 -6h-139q-8 0 -14 6t-6 14v21q-29 -21 -65 -35.5t-78 -14.5q-30 0 -60 9t-55 30t-40.5 55t-15.5 85v12q0 90 66.5 126.5t191.5 36.5h43v29q0 18 -5.5 29.5t-14.5 18t-21 8.5t-25 2q-48 0 -93.5 -1.5t-80.5 -5.5h-3q-19 0 -19 20v97q0 17 20 24
q12 4 33.5 8t46.5 7.5t52 6t51 2.5q54 0 100 -10.5t79.5 -36t52.5 -67t19 -102.5v-354zM339 241h-49q-38 0 -54 -13t-16 -45v-10q0 -26 15 -35t36 -9q18 0 36.5 4.5t31.5 10.5v97zM383 640q0 -7 -9 -7h-129q-11 0 -14.5 3t-9.5 8l-126 120q-4 4 -4 8q0 7 11 7h158
q11 0 16 -3.5t12 -11.5l91 -114q4 -4 4 -10z" />
    <glyph glyph-name="aacute" unicode="&#xe1;" horiz-adv-x="575" 
d="M525 20q0 -8 -6 -14t-14 -6h-139q-8 0 -14 6t-6 14v21q-29 -21 -65 -35.5t-78 -14.5q-30 0 -60 9t-55 30t-40.5 55t-15.5 85v12q0 90 66.5 126.5t191.5 36.5h43v29q0 18 -5.5 29.5t-14.5 18t-21 8.5t-25 2q-48 0 -93.5 -1.5t-80.5 -5.5h-3q-19 0 -19 20v97q0 17 20 24
q12 4 33.5 8t46.5 7.5t52 6t51 2.5q54 0 100 -10.5t79.5 -36t52.5 -67t19 -102.5v-354zM339 241h-49q-38 0 -54 -13t-16 -45v-10q0 -26 15 -35t36 -9q18 0 36.5 4.5t31.5 10.5v97zM492 772q0 -4 -4 -8l-126 -120q-6 -5 -9.5 -8t-14.5 -3h-129q-9 0 -9 7q0 6 4 10l91 114
q7 8 12 11.5t16 3.5h158q11 0 11 -7z" />
    <glyph glyph-name="acircumflex" unicode="&#xe2;" horiz-adv-x="575" 
d="M525 20q0 -8 -6 -14t-14 -6h-139q-8 0 -14 6t-6 14v21q-29 -21 -65 -35.5t-78 -14.5q-30 0 -60 9t-55 30t-40.5 55t-15.5 85v12q0 90 66.5 126.5t191.5 36.5h43v29q0 18 -5.5 29.5t-14.5 18t-21 8.5t-25 2q-48 0 -93.5 -1.5t-80.5 -5.5h-3q-19 0 -19 20v97q0 17 20 24
q12 4 33.5 8t46.5 7.5t52 6t51 2.5q54 0 100 -10.5t79.5 -36t52.5 -67t19 -102.5v-354zM339 241h-49q-38 0 -54 -13t-16 -45v-10q0 -26 15 -35t36 -9q18 0 36.5 4.5t31.5 10.5v97zM509 640q0 -7 -9 -7h-124q-11 0 -14.5 2.5t-9.5 8.5l-56 59l-56 -59q-6 -6 -9.5 -8.5
t-14.5 -2.5h-124q-9 0 -9 7q0 5 4 10l86 114q7 8 12 11.5t16 3.5h190q11 0 16 -3t12 -12l86 -114q4 -5 4 -10z" />
    <glyph glyph-name="atilde" unicode="&#xe3;" horiz-adv-x="575" 
d="M525 20q0 -8 -6 -14t-14 -6h-139q-8 0 -14 6t-6 14v21q-29 -21 -65 -35.5t-78 -14.5q-30 0 -60 9t-55 30t-40.5 55t-15.5 85v12q0 90 66.5 126.5t191.5 36.5h43v29q0 18 -5.5 29.5t-14.5 18t-21 8.5t-25 2q-48 0 -93.5 -1.5t-80.5 -5.5h-3q-19 0 -19 20v97q0 17 20 24
q12 4 33.5 8t46.5 7.5t52 6t51 2.5q54 0 100 -10.5t79.5 -36t52.5 -67t19 -102.5v-354zM339 241h-49q-38 0 -54 -13t-16 -45v-10q0 -26 15 -35t36 -9q18 0 36.5 4.5t31.5 10.5v97zM513 753q0 -71 -36 -99t-97 -28q-14 0 -35.5 5.5t-37.5 15.5l-40 24q-25 15 -39 15
q-8 0 -13.5 -4t-5.5 -16v-17q0 -17 -16 -17h-84q-17 0 -17 17v17q0 69 36 98t98 29q14 0 34.5 -5t37.5 -15l41 -24q14 -8 22.5 -12t16.5 -4q10 0 14 4.5t4 16.5v17q0 17 17 17h83q17 0 17 -17v-18z" />
    <glyph glyph-name="adieresis" unicode="&#xe4;" horiz-adv-x="575" 
d="M525 20q0 -8 -6 -14t-14 -6h-139q-8 0 -14 6t-6 14v21q-29 -21 -65 -35.5t-78 -14.5q-30 0 -60 9t-55 30t-40.5 55t-15.5 85v12q0 90 66.5 126.5t191.5 36.5h43v29q0 18 -5.5 29.5t-14.5 18t-21 8.5t-25 2q-48 0 -93.5 -1.5t-80.5 -5.5h-3q-19 0 -19 20v97q0 17 20 24
q12 4 33.5 8t46.5 7.5t52 6t51 2.5q54 0 100 -10.5t79.5 -36t52.5 -67t19 -102.5v-354zM339 241h-49q-38 0 -54 -13t-16 -45v-10q0 -26 15 -35t36 -9q18 0 36.5 4.5t31.5 10.5v97zM496 658q0 -8 -7.5 -14t-15.5 -6h-116q-8 0 -15 6t-7 14v98q0 8 7 14t15 6h116q8 0 15.5 -6
t7.5 -14v-98zM262 658q0 -8 -7 -14t-15 -6h-116q-8 0 -15.5 6t-7.5 14v98q0 8 7.5 14t15.5 6h116q8 0 15 -6t7 -14v-98z" />
    <glyph glyph-name="aring" unicode="&#xe5;" horiz-adv-x="575" 
d="M525 20q0 -8 -6 -14t-14 -6h-139q-8 0 -14 6t-6 14v21q-29 -21 -65 -35.5t-78 -14.5q-30 0 -60 9t-55 30t-40.5 55t-15.5 85v12q0 90 66.5 126.5t191.5 36.5h43v29q0 18 -5.5 29.5t-14.5 18t-21 8.5t-25 2q-48 0 -93.5 -1.5t-80.5 -5.5h-3q-19 0 -19 20v97q0 17 20 24
q12 4 33.5 8t46.5 7.5t52 6t51 2.5q54 0 100 -10.5t79.5 -36t52.5 -67t19 -102.5v-354zM339 241h-49q-38 0 -54 -13t-16 -45v-10q0 -26 15 -35t36 -9q18 0 36.5 4.5t31.5 10.5v97zM413 752q0 -25 -9.5 -47.5t-26 -39t-39 -26t-47.5 -9.5t-47 9.5t-38 26t-25 39t-9 47.5
t9 47.5t25 39t38 26t47 9.5t47.5 -9.5t39 -26t26 -39t9.5 -47.5zM333 753q0 17 -12 29t-29 12t-28.5 -12t-11.5 -29t11.5 -30t28.5 -13t29 13t12 30z" />
    <glyph glyph-name="ae" unicode="&#xe6;" horiz-adv-x="892" 
d="M852 262q0 -8 -7 -14.5t-15 -6.5h-306v-34q0 -32 26.5 -44.5t74.5 -12.5q15 0 40 0.5t52 1.5t51 2.5t38 2.5h4q17 0 17 -17v-88q0 -12 -4 -17.5t-15 -10.5q-45 -17 -101.5 -25t-111.5 -8q-37 0 -69 10t-58 28q-43 -18 -85 -28t-89 -10q-255 0 -255 185v11q0 45 19 75.5
t53.5 49t82.5 26.5t107 8h33v15q0 43 -17.5 57t-46.5 14q-24 0 -49.5 -0.5t-49 -1.5t-42 -2.5t-28.5 -2.5h-2q-8 0 -13 6t-5 14v96q0 18 20 25q12 4 31.5 8t42.5 8t47.5 6.5t47.5 2.5q107 0 172 -53q32 26 69.5 39.5t86.5 13.5q66 0 114 -19.5t79 -54.5t46 -84t15 -109v-62z
M340 246h-39q-37 0 -59 -13t-22 -46v-11q0 -32 20 -42t54 -10q14 0 23.5 1.5t22.5 5.5v115zM668 355q0 40 -16.5 64.5t-55.5 24.5q-37 0 -54.5 -24.5t-17.5 -64.5v-14h144v14z" />
    <glyph glyph-name="ccedilla" unicode="&#xe7;" horiz-adv-x="474" 
d="M436 28q0 -10 -5 -14.5t-15 -6.5q-26 -6 -59 -11t-78 -5q-115 0 -177 69t-62 193v75q0 123 62 193t177 70q45 0 80.5 -5.5t56.5 -10.5q10 -2 15 -6.5t5 -14.5v-113q0 -8 -5.5 -13.5t-13.5 -5.5h-2q-26 2 -52 4.5t-63 2.5q-32 0 -50 -22.5t-18 -78.5v-75q0 -56 18 -78
t50 -22q37 0 63 2l52 4h2q8 0 13.5 -5.5t5.5 -13.5v-112zM353 -43q0 -4 -4 -8l-126 -120q-6 -5 -10 -8t-15 -3h-128q-9 0 -9 7q0 6 4 10l91 114q7 8 12 11.5t16 3.5h158q11 0 11 -7z" />
    <glyph glyph-name="egrave" unicode="&#xe8;" horiz-adv-x="602" 
d="M562 259q0 -10 -6 -16t-15 -6h-311v-2q0 -40 20 -63t75 -23q20 0 47 0.5t54 2t51 2.5t38 3h4q18 0 18 -17v-90q0 -12 -4 -18t-16 -10q-48 -16 -101 -23.5t-116 -7.5q-51 0 -98 14t-83 45.5t-57.5 81t-21.5 121.5v66q0 132 71.5 202t194.5 70q66 0 114 -20t79.5 -56
t47 -86t15.5 -110v-60zM384 640q0 -7 -9 -7h-129q-11 0 -14.5 3t-9.5 8l-126 120q-4 4 -4 8q0 7 11 7h158q11 0 16 -3.5t12 -11.5l91 -114q4 -4 4 -10zM378 346q0 45 -18 70.5t-56 25.5q-36 0 -55 -25.5t-19 -70.5v-3h148v3z" />
    <glyph glyph-name="eacute" unicode="&#xe9;" horiz-adv-x="602" 
d="M562 259q0 -10 -6 -16t-15 -6h-311v-2q0 -40 20 -63t75 -23q20 0 47 0.5t54 2t51 2.5t38 3h4q18 0 18 -17v-90q0 -12 -4 -18t-16 -10q-48 -16 -101 -23.5t-116 -7.5q-51 0 -98 14t-83 45.5t-57.5 81t-21.5 121.5v66q0 132 71.5 202t194.5 70q66 0 114 -20t79.5 -56
t47 -86t15.5 -110v-60zM504 772q0 -4 -4 -8l-126 -120q-6 -5 -9.5 -8t-14.5 -3h-129q-9 0 -9 7q0 6 4 10l91 114q7 8 12 11.5t16 3.5h158q11 0 11 -7zM378 346q0 45 -18 70.5t-56 25.5q-36 0 -55 -25.5t-19 -70.5v-3h148v3z" />
    <glyph glyph-name="ecircumflex" unicode="&#xea;" horiz-adv-x="602" 
d="M562 259q0 -10 -6 -16t-15 -6h-311v-2q0 -40 20 -63t75 -23q20 0 47 0.5t54 2t51 2.5t38 3h4q18 0 18 -17v-90q0 -12 -4 -18t-16 -10q-48 -16 -101 -23.5t-116 -7.5q-51 0 -98 14t-83 45.5t-57.5 81t-21.5 121.5v66q0 132 71.5 202t194.5 70q66 0 114 -20t79.5 -56
t47 -86t15.5 -110v-60zM516 640q0 -7 -9 -7h-124q-11 0 -14.5 2.5t-9.5 8.5l-56 59l-56 -59q-6 -6 -9.5 -8.5t-14.5 -2.5h-124q-9 0 -9 7q0 5 4 10l86 114q7 8 12 11.5t16 3.5h190q11 0 16 -3t12 -12l86 -114q4 -5 4 -10zM378 346q0 45 -18 70.5t-56 25.5q-36 0 -55 -25.5
t-19 -70.5v-3h148v3z" />
    <glyph glyph-name="edieresis" unicode="&#xeb;" horiz-adv-x="602" 
d="M562 259q0 -10 -6 -16t-15 -6h-311v-2q0 -40 20 -63t75 -23q20 0 47 0.5t54 2t51 2.5t38 3h4q18 0 18 -17v-90q0 -12 -4 -18t-16 -10q-48 -16 -101 -23.5t-116 -7.5q-51 0 -98 14t-83 45.5t-57.5 81t-21.5 121.5v66q0 132 71.5 202t194.5 70q66 0 114 -20t79.5 -56
t47 -86t15.5 -110v-60zM264 657q0 -8 -7 -14t-15 -6h-116q-8 0 -15.5 6t-7.5 14v98q0 8 7.5 14t15.5 6h116q8 0 15 -6t7 -14v-98zM498 657q0 -8 -7.5 -14t-15.5 -6h-116q-8 0 -15 6t-7 14v98q0 8 7 14t15 6h116q8 0 15.5 -6t7.5 -14v-98zM378 346q0 45 -18 70.5t-56 25.5
q-36 0 -55 -25.5t-19 -70.5v-3h148v3z" />
    <glyph glyph-name="igrave" unicode="&#xec;" horiz-adv-x="313" 
d="M253 22q0 -8 -7 -15t-15 -7h-149q-8 0 -15 7t-7 15v539q0 8 7 14.5t15 6.5h149q8 0 15 -6.5t7 -14.5v-539zM248 640q0 -7 -9 -7h-129q-11 0 -14.5 3t-9.5 8l-126 120q-4 4 -4 8q0 7 11 7h158q11 0 16 -3.5t12 -11.5l91 -114q4 -4 4 -10z" />
    <glyph glyph-name="iacute" unicode="&#xed;" horiz-adv-x="313" 
d="M253 22q0 -8 -7 -15t-15 -7h-149q-8 0 -15 7t-7 15v539q0 8 7 14.5t15 6.5h149q8 0 15 -6.5t7 -14.5v-539zM352 772q0 -4 -4 -8l-126 -120q-6 -5 -9.5 -8t-14.5 -3h-129q-9 0 -9 7q0 6 4 10l91 114q7 8 12 11.5t16 3.5h158q11 0 11 -7z" />
    <glyph glyph-name="icircumflex" unicode="&#xee;" horiz-adv-x="313" 
d="M253 22q0 -8 -7 -15t-15 -7h-149q-8 0 -15 7t-7 15v539q0 8 7 14.5t15 6.5h149q8 0 15 -6.5t7 -14.5v-539zM369 640q0 -7 -9 -7h-124q-11 0 -14.5 2.5t-9.5 8.5l-56 59l-56 -59q-6 -6 -9.5 -8.5t-14.5 -2.5h-124q-9 0 -9 7q0 5 4 10l86 114q7 8 12 11.5t16 3.5h190
q11 0 16 -3t12 -12l86 -114q4 -5 4 -10z" />
    <glyph glyph-name="idieresis" unicode="&#xef;" horiz-adv-x="313" 
d="M253 22q0 -8 -7 -15t-15 -7h-149q-8 0 -15 7t-7 15v539q0 8 7 14.5t15 6.5h149q8 0 15 -6.5t7 -14.5v-539zM354 657q0 -8 -7.5 -14t-15.5 -6h-116q-8 0 -15 6t-7 14v98q0 8 7 14t15 6h116q8 0 15.5 -6t7.5 -14v-98zM120 657q0 -8 -7 -14t-15 -6h-116q-8 0 -15.5 6
t-7.5 14v98q0 8 7.5 14t15.5 6h116q8 0 15 -6t7 -14v-98z" />
    <glyph glyph-name="eth" unicode="&#xf0;" horiz-adv-x="605" 
d="M565 266q0 -140 -68.5 -207.5t-193.5 -67.5q-128 0 -195.5 69t-67.5 206v21q0 140 69 207t194 67q6 0 13.5 -0.5t13.5 -3.5q-36 36 -99 66l-67 -51q-8 -6 -13 -6t-11 6l-25 28q-3 3 -3 8q0 9 10 16l37 28l-46 15q-6 2 -11 5t-5 10q0 3 1 5l28 78q4 11 14 11q6 0 9 -1
q62 -16 119 -39l73 55q7 5 14 5t11 -5l25 -28q4 -6 4 -8q0 -6 -10 -14l-47 -37q116 -63 171.5 -164.5t55.5 -252.5v-21zM373 287q0 64 -17 89.5t-53 25.5t-53.5 -25t-17.5 -90v-21q0 -64 17.5 -89.5t53.5 -25.5t53 25t17 90v21z" />
    <glyph glyph-name="ntilde" unicode="&#xf1;" horiz-adv-x="631" 
d="M576 22q0 -8 -5.5 -15t-14.5 -7h-150q-9 0 -15.5 7t-6.5 15v339q0 40 -14 55t-48 15q-17 0 -37.5 -6t-37.5 -15v-388q0 -8 -5.5 -15t-14.5 -7h-150q-9 0 -15.5 7t-6.5 15v540q0 8 6 14t14 6h139q8 0 14 -6t6 -14v-23q20 15 38 25t37 15.5t40.5 8t49.5 2.5q55 0 90 -19
t54 -51t26 -73t7 -86v-339zM524 753q0 -71 -36 -99t-97 -28q-14 0 -35.5 5.5t-37.5 15.5l-40 24q-25 15 -39 15q-8 0 -13.5 -4t-5.5 -16v-17q0 -17 -16 -17h-84q-17 0 -17 17v17q0 69 36 98t98 29q14 0 34.5 -5t37.5 -15l41 -24q14 -8 22.5 -12t16.5 -4q10 0 14 4.5t4 16.5
v17q0 17 17 17h83q17 0 17 -17v-18z" />
    <glyph glyph-name="ograve" unicode="&#xf2;" horiz-adv-x="605" 
d="M565 262q0 -133 -68 -202t-194 -69t-194.5 69t-68.5 202v58q0 133 68.5 202t194.5 69t194 -69t68 -202v-58zM374 320q0 60 -18 85t-53 25t-53.5 -25t-18.5 -85v-58q0 -60 18.5 -85.5t53.5 -25.5t53 25.5t18 85.5v58zM405 640q0 -7 -9 -7h-129q-11 0 -14.5 3t-9.5 8
l-126 120q-4 4 -4 8q0 7 11 7h158q11 0 16 -3.5t12 -11.5l91 -114q4 -4 4 -10z" />
    <glyph glyph-name="oacute" unicode="&#xf3;" horiz-adv-x="605" 
d="M565 262q0 -133 -68 -202t-194 -69t-194.5 69t-68.5 202v58q0 133 68.5 202t194.5 69t194 -69t68 -202v-58zM374 320q0 60 -18 85t-53 25t-53.5 -25t-18.5 -85v-58q0 -60 18.5 -85.5t53.5 -25.5t53 25.5t18 85.5v58zM489 772q0 -4 -4 -8l-126 -120q-6 -5 -9.5 -8
t-14.5 -3h-129q-9 0 -9 7q0 6 4 10l91 114q7 8 12 11.5t16 3.5h158q11 0 11 -7z" />
    <glyph glyph-name="ocircumflex" unicode="&#xf4;" horiz-adv-x="605" 
d="M565 262q0 -133 -68 -202t-194 -69t-194.5 69t-68.5 202v58q0 133 68.5 202t194.5 69t194 -69t68 -202v-58zM374 320q0 60 -18 85t-53 25t-53.5 -25t-18.5 -85v-58q0 -60 18.5 -85.5t53.5 -25.5t53 25.5t18 85.5v58zM515 640q0 -7 -9 -7h-124q-11 0 -14.5 2.5t-9.5 8.5
l-56 59l-56 -59q-6 -6 -9.5 -8.5t-14.5 -2.5h-124q-9 0 -9 7q0 5 4 10l86 114q7 8 12 11.5t16 3.5h190q11 0 16 -3t12 -12l86 -114q4 -5 4 -10z" />
    <glyph glyph-name="otilde" unicode="&#xf5;" horiz-adv-x="605" 
d="M565 262q0 -133 -68 -202t-194 -69t-194.5 69t-68.5 202v58q0 133 68.5 202t194.5 69t194 -69t68 -202v-58zM374 320q0 60 -18 85t-53 25t-53.5 -25t-18.5 -85v-58q0 -60 18.5 -85.5t53.5 -25.5t53 25.5t18 85.5v58zM512 753q0 -71 -36 -99t-97 -28q-14 0 -35.5 5.5
t-37.5 15.5l-40 24q-25 15 -39 15q-8 0 -13.5 -4t-5.5 -16v-17q0 -17 -16 -17h-84q-17 0 -17 17v17q0 69 36 98t98 29q14 0 34.5 -5t37.5 -15l41 -24q14 -8 22.5 -12t16.5 -4q10 0 14 4.5t4 16.5v17q0 17 17 17h83q17 0 17 -17v-18z" />
    <glyph glyph-name="odieresis" unicode="&#xf6;" horiz-adv-x="605" 
d="M565 262q0 -133 -68 -202t-194 -69t-194.5 69t-68.5 202v58q0 133 68.5 202t194.5 69t194 -69t68 -202v-58zM374 320q0 60 -18 85t-53 25t-53.5 -25t-18.5 -85v-58q0 -60 18.5 -85.5t53.5 -25.5t53 25.5t18 85.5v58zM499 657q0 -8 -7.5 -14t-15.5 -6h-116q-8 0 -15 6
t-7 14v98q0 8 7 14t15 6h116q8 0 15.5 -6t7.5 -14v-98zM265 657q0 -8 -7 -14t-15 -6h-116q-8 0 -15.5 6t-7.5 14v98q0 8 7.5 14t15.5 6h116q8 0 15 -6t7 -14v-98z" />
    <glyph glyph-name="divide" unicode="&#xf7;" 
d="M426 562q0 -8 -6.5 -14t-14.5 -6h-146q-8 0 -14 6t-6 14v122q0 8 6 14t14 6h146q8 0 14.5 -6t6.5 -14v-122zM569 336q0 -8 -6 -12t-14 -4h-432q-8 0 -14 4t-6 12v110q0 8 6 12t14 4h432q8 0 14 -4t6 -12v-110zM426 81q0 -8 -6.5 -14t-14.5 -6h-146q-8 0 -14 6t-6 14v122
q0 8 6 14t14 6h146q8 0 14.5 -6t6.5 -14v-122z" />
    <glyph glyph-name="oslash" unicode="&#xf8;" horiz-adv-x="605" 
d="M575 608q0 -6 -4 -11l-64 -87q58 -69 58 -190v-58q0 -133 -68 -202t-194 -69q-89 0 -152 37l-39 -53q-5 -7 -8 -8.5t-8 -1.5h-58q-8 0 -8 8q0 6 4 11l65 88q-29 34 -44 81.5t-15 108.5v58q0 133 68.5 202t194.5 69q90 0 152 -37l38 52q5 7 8 8.5t8 1.5h58q8 0 8 -8z
M255 170q18 -19 48 -19q35 0 53 25.5t18 85.5v68zM350 412q-18 18 -47 18q-35 0 -53.5 -25t-18.5 -85v-69z" />
    <glyph glyph-name="ugrave" unicode="&#xf9;" horiz-adv-x="631" 
d="M576 20q0 -8 -6 -14t-14 -6h-139q-8 0 -14 6t-6 14v23q-27 -20 -64.5 -36t-93.5 -16t-91.5 19t-56 51t-28.5 73.5t-8 86.5v339q0 8 5.5 15t14.5 7h150q9 0 15.5 -7t6.5 -15v-339q0 -40 12 -55.5t50 -15.5q17 0 37.5 6.5t37.5 15.5v388q0 8 5.5 15t14.5 7h150q9 0 15.5 -7
t6.5 -15v-540zM416 640q0 -7 -9 -7h-129q-11 0 -14.5 3t-9.5 8l-126 120q-4 4 -4 8q0 7 11 7h158q11 0 16 -3.5t12 -11.5l91 -114q4 -4 4 -10z" />
    <glyph glyph-name="uacute" unicode="&#xfa;" horiz-adv-x="631" 
d="M576 20q0 -8 -6 -14t-14 -6h-139q-8 0 -14 6t-6 14v23q-27 -20 -64.5 -36t-93.5 -16t-91.5 19t-56 51t-28.5 73.5t-8 86.5v339q0 8 5.5 15t14.5 7h150q9 0 15.5 -7t6.5 -15v-339q0 -40 12 -55.5t50 -15.5q17 0 37.5 6.5t37.5 15.5v388q0 8 5.5 15t14.5 7h150q9 0 15.5 -7
t6.5 -15v-540zM517 772q0 -4 -4 -8l-126 -120q-6 -5 -9.5 -8t-14.5 -3h-129q-9 0 -9 7q0 6 4 10l91 114q7 8 12 11.5t16 3.5h158q11 0 11 -7z" />
    <glyph glyph-name="ucircumflex" unicode="&#xfb;" horiz-adv-x="631" 
d="M576 20q0 -8 -6 -14t-14 -6h-139q-8 0 -14 6t-6 14v23q-27 -20 -64.5 -36t-93.5 -16t-91.5 19t-56 51t-28.5 73.5t-8 86.5v339q0 8 5.5 15t14.5 7h150q9 0 15.5 -7t6.5 -15v-339q0 -40 12 -55.5t50 -15.5q17 0 37.5 6.5t37.5 15.5v388q0 8 5.5 15t14.5 7h150q9 0 15.5 -7
t6.5 -15v-540zM528 640q0 -7 -9 -7h-124q-11 0 -14.5 2.5t-9.5 8.5l-56 59l-56 -59q-6 -6 -9.5 -8.5t-14.5 -2.5h-124q-9 0 -9 7q0 5 4 10l86 114q7 8 12 11.5t16 3.5h190q11 0 16 -3t12 -12l86 -114q4 -5 4 -10z" />
    <glyph glyph-name="udieresis" unicode="&#xfc;" horiz-adv-x="631" 
d="M576 20q0 -8 -6 -14t-14 -6h-139q-8 0 -14 6t-6 14v23q-27 -20 -64.5 -36t-93.5 -16t-91.5 19t-56 51t-28.5 73.5t-8 86.5v339q0 8 5.5 15t14.5 7h150q9 0 15.5 -7t6.5 -15v-339q0 -40 12 -55.5t50 -15.5q17 0 37.5 6.5t37.5 15.5v388q0 8 5.5 15t14.5 7h150q9 0 15.5 -7
t6.5 -15v-540zM515 657q0 -8 -7.5 -14t-15.5 -6h-116q-8 0 -15 6t-7 14v98q0 8 7 14t15 6h116q8 0 15.5 -6t7.5 -14v-98zM281 657q0 -8 -7 -14t-15 -6h-116q-8 0 -15.5 6t-7.5 14v98q0 8 7.5 14t15.5 6h116q8 0 15 -6t7 -14v-98z" />
    <glyph glyph-name="yacute" unicode="&#xfd;" horiz-adv-x="621" 
d="M604 564q0 -1 -0.5 -2t-0.5 -2l-170 -594q-11 -40 -27 -71.5t-42 -53t-65.5 -33t-98.5 -11.5q-15 0 -34 1.5t-38 4t-36 5.5t-27 7q-8 3 -15.5 7t-7.5 12v97q0 8 6.5 14.5t15.5 6.5h1q14 -1 31.5 -2t36.5 -2.5t37 -2.5t32 -1q21 0 35 8t19 30l8 33h-13q-17 0 -31 2.5
t-26 13t-22.5 31t-21.5 57.5l-132 441q-1 2 -1 7q0 15 22 15h163q8 0 13 -6t7 -14l79 -344q4 -17 11 -17h8l79 362q3 19 21 19h163q8 0 14.5 -5t6.5 -13zM518 772q0 -4 -4 -8l-126 -120q-6 -5 -9.5 -8t-14.5 -3h-129q-9 0 -9 7q0 6 4 10l91 114q7 8 12 11.5t16 3.5h158
q11 0 11 -7z" />
    <glyph glyph-name="thorn" unicode="&#xfe;" horiz-adv-x="616" 
d="M578 253q0 -120 -65.5 -191t-197.5 -71q-12 0 -33 2.5t-35 5.5v-168q0 -8 -6 -14.5t-14 -6.5h-150q-8 0 -15 6.5t-7 14.5v922q0 8 5.5 14t13.5 6h153q8 0 14 -6t6 -14v-165q31 3 68 3q121 0 192 -67t71 -195v-76zM386 329q0 47 -15.5 74.5t-55.5 27.5q-22 0 -36.5 -1.5
t-31.5 -3.5v-271q15 -2 31.5 -3t36.5 -1q39 0 55 28t16 74v76z" />
    <glyph glyph-name="ydieresis" unicode="&#xff;" horiz-adv-x="621" 
d="M604 564q0 -1 -0.5 -2t-0.5 -2l-170 -594q-11 -40 -27 -71.5t-42 -53t-65.5 -33t-98.5 -11.5q-15 0 -34 1.5t-38 4t-36 5.5t-27 7q-8 3 -15.5 7t-7.5 12v97q0 8 6.5 14.5t15.5 6.5h1q14 -1 31.5 -2t36.5 -2.5t37 -2.5t32 -1q21 0 35 8t19 30l8 33h-13q-17 0 -31 2.5
t-26 13t-22.5 31t-21.5 57.5l-132 441q-1 2 -1 7q0 15 22 15h163q8 0 13 -6t7 -14l79 -344q4 -17 11 -17h8l79 362q3 19 21 19h163q8 0 14.5 -5t6.5 -13zM515 657q0 -8 -7.5 -14t-15.5 -6h-116q-8 0 -15 6t-7 14v98q0 8 7 14t15 6h116q8 0 15.5 -6t7.5 -14v-98zM281 657
q0 -8 -7 -14t-15 -6h-116q-8 0 -15.5 6t-7.5 14v98q0 8 7.5 14t15.5 6h116q8 0 15 -6t7 -14v-98z" />
    <glyph glyph-name="dotlessi" unicode="&#x131;" horiz-adv-x="313" 
d="M253 22q0 -8 -7 -15t-15 -7h-149q-8 0 -15 7t-7 15v539q0 8 7 14.5t15 6.5h149q8 0 15 -6.5t7 -14.5v-539z" />
    <glyph glyph-name="Lslash" unicode="&#x141;" horiz-adv-x="522" 
d="M499 23q0 -17 -20 -20q-28 -5 -72.5 -8.5t-84.5 -3.5q-46 0 -88 7t-76.5 28.5t-58 60.5t-32.5 103q-1 1 -1 7v4l-34 -32q-5 -5 -9 -5q-5 0 -5 7v170q0 4 1 7.5t6 8.5l40 37v329q0 8 6.5 14t14.5 6h162q8 0 14 -6t6 -14v-145l60 55q5 5 9 5q7 0 7 -9v-164q0 -6 -1 -9.5
t-6 -8.5l-69 -63v-169q0 -29 11 -39.5t38 -10.5h162q8 0 14 -6t6 -14v-122z" />
    <glyph glyph-name="lslash" unicode="&#x142;" horiz-adv-x="303" 
d="M314 465q0 -6 -1 -9.5t-6 -8.5l-59 -55v-370q0 -8 -6.5 -15t-14.5 -7h-150q-8 0 -15 7t-7 15v195l-52 -48q-5 -5 -9 -5q-5 0 -5 7v170q0 4 1 7.5t6 8.5l59 54v342q0 8 7 14t15 6h150q8 0 14.5 -6t6.5 -14v-166l50 46q5 5 9 5q7 0 7 -9v-164z" />
    <glyph glyph-name="OE" unicode="&#x152;" horiz-adv-x="984" 
d="M931 23q0 -17 -20 -20q-29 -4 -77 -8t-121 -4q-51 0 -98.5 9t-83.5 36q-38 -23 -83 -34t-94 -11q-62 0 -118 17t-98 56t-66.5 101.5t-24.5 154.5v103q0 91 24.5 154t66.5 102t98 56.5t118 17.5q50 0 94.5 -11t82.5 -35q36 27 84 36t99 9q73 0 120.5 -4t76.5 -8
q20 -3 20 -20v-122q0 -8 -6 -14t-14 -6h-202q-23 0 -34.5 -8.5t-12.5 -31.5q-2 -1 -2 -16.5v-24.5v-6v-7t0.5 -11t0.5 -11v-6h246q8 0 14 -6t6 -14v-118q0 -8 -6 -14t-14 -6h-246q0 -5 -0.5 -13.5t-0.5 -13.5v-56q0 -29 11 -39.5t38 -10.5h202q8 0 14 -6t6 -14v-122z
M455 423q0 81 -24 116t-77 35t-77 -35t-24 -116v-103q0 -81 24 -115.5t77 -34.5t77 34.5t24 115.5v103z" />
    <glyph glyph-name="oe" unicode="&#x153;" horiz-adv-x="938" 
d="M898 259q0 -10 -6 -16t-15 -6h-311v-7q1 -38 21.5 -59.5t73.5 -21.5q20 0 47 0.5t54 2t51 2.5t38 3h4q18 0 18 -17v-90q0 -12 -4 -18t-16 -10q-48 -16 -101 -23.5t-116 -7.5q-45 0 -88.5 13.5t-76.5 43.5q-33 -28 -74.5 -42.5t-93.5 -14.5q-126 0 -194.5 69t-68.5 202v58
q0 133 68.5 202t194.5 69q53 0 95 -15.5t75 -43.5q68 59 169 59q66 0 114 -20t79.5 -56t47 -86t15.5 -110v-60zM374 320q0 60 -18 85t-53 25t-53 -25t-18 -85v-58q0 -60 18 -85.5t53 -25.5t53 25.5t18 85.5v58zM713 346q0 45 -17.5 70.5t-55.5 25.5q-35 0 -54.5 -25
t-19.5 -69v-5h148z" />
    </font>
</defs>
</svg>
